<?xml version="1.0" encoding="UTF-8"?><svg id="Layer_2" xmlns="http://www.w3.org/2000/svg" viewBox="0 0 32 22.2"><defs><style>.cls-1{fill:#ed1d24;}.cls-2{fill:#fff;}</style></defs><g id="Layer_1-2"><path class="cls-1" d="M31.3,3.5c-.4-1.4-1.5-2.4-2.8-2.8-2.5-.7-12.5-.7-12.5-.7,0,0-10,0-12.5.7-1.4.4-2.5,1.4-2.8,2.8-.7,2.5-.7,7.6-.7,7.6,0,0,0,5.1.7,7.6.4,1.4,1.5,2.4,2.8,2.8,2.5.7,12.5.7,12.5.7,0,0,10,0,12.5-.7,1.4-.4,2.5-1.4,2.8-2.8.7-2.5.7-7.6.7-7.6,0,0,0-5.1-.7-7.6Z"/><path class="cls-2" d="M12.7,15.8l8.4-4.7-8.4-4.7v9.4Z"/></g></svg>