<svg width="509" height="442" viewBox="0 0 509 442" fill="none" xmlns="http://www.w3.org/2000/svg">
<g clip-path="url(#clip0_3_352)">
<path d="M275.017 60.38C272.047 61.12 272.477 63.11 272.157 65.02C271.257 71.46 270.717 79.25 268.637 85.51C267.207 89.78 257.987 109.3 254.007 110.68C251.047 111.15 252.527 109.87 252.277 108.61L254.807 108.05C251.597 105.26 252.977 99.81 249.057 98.11L247.987 117.5C247.657 123.57 255.597 135.04 259.997 139.91C263.787 144.06 277.517 152.96 284.067 152.29C290.617 151.62 292.457 149.8 290.257 148.27C271.377 150 257.507 135.85 256.577 121.17L256.687 119.09L259.297 116.99C259.927 117.44 261.427 117.7 261.737 118.06C262.547 119.14 263.707 123.67 265.327 125.74C270.497 132.33 276.997 136.64 287.087 136.77C277.907 130.02 269.177 124.9 264.407 114.87L264.467 113.78C264.837 110.97 264.667 108.16 264.927 105.44C267.457 98.9 273.167 93.8 275.297 86.63C277.427 79.46 274.307 77.03 279.087 74.92C281.167 82.43 286.347 91.01 292.317 96.87C315.897 120.12 362.497 113.72 395.357 120.26C418.657 124.94 435.927 140.62 439.717 160.35C430.177 173.9 417.897 185.92 406.987 198.75C404.317 201.84 396.047 216.02 391.827 215.77C392.587 211.78 392.677 206.25 391.697 202.36C390.717 198.47 384.597 187.36 381.977 189.64L386.307 197.68C388.557 200.11 389.877 215.6 391.827 215.77C390.597 222.39 385.217 225.41 383.457 217.99C381.697 210.57 379.417 208.5 374.987 202.27C370.557 196.04 367.177 188.45 364.327 190.82C366.447 195.61 371.107 199.75 373.567 204.36C376.027 208.97 382.047 225.79 380.377 230.51C378.707 235.23 377.657 234.51 376.177 235.79C373.417 226.74 369.247 217.8 363.487 209.94C362.377 208.5 360.787 207.69 359.437 208.6C364.687 219.63 376.037 236.42 364.797 247.35C364.477 243.37 363.287 239.29 361.537 235.59C359.887 232.07 355.107 226.11 352.397 222.23C349.677 218.35 349.527 213.28 343.977 215.48C345.067 217.38 349.107 220.89 349.897 222.24C352.667 227.12 360.827 246.55 360.567 251.18C360.307 255.81 356.217 257.18 354.827 258.82C351.227 247.24 346.027 239.21 338.197 229.55C335.047 225.67 333.137 220.97 328.187 218.1C329.597 221.99 331.157 227.24 335.757 228.48C338.577 242.24 358.707 261.16 342.067 273.48C341.587 262.43 336.397 250.32 329.177 241.38C328.777 240.84 325.087 236.87 323.937 237.96C322.787 239.05 330.207 250.25 331.277 252.6C334.937 261.01 341.967 279.27 332.577 286.11C330.437 275.7 327.497 264.03 320.257 255.46C319.857 254.92 315.527 250.68 314.387 251.69C313.247 252.69 320.067 262.89 320.927 264.97C323.977 272.75 329.697 292.92 323.677 299.84C317.647 306.76 321.037 300.49 320.787 299.13C319.877 295.87 320.467 291.16 319.387 287.18C317.227 279.13 310.627 268.92 305.027 262.16C303.297 260.09 300.957 259.19 299.667 256.93C297.267 259.12 302.027 261.36 302.527 262.17C303.517 263.89 304.897 266.51 305.987 268.4L307.177 270.48C311.207 278.16 319.777 299.86 315.237 307.49C310.687 315.12 309.627 306.79 311.167 312.4L307.807 294.66C303.437 291.15 302.877 281.73 299.227 279.03C295.577 276.33 297.207 278.23 296.787 277.96C295.067 273.71 293.477 274.99 292.367 273.54C291.257 272.09 293.297 270.36 290.997 270.74C290.167 276 293.737 276.16 296.887 278.05C297.077 278.59 296.577 279.68 296.777 280.13C302.657 293.69 306.747 305.99 303.317 320.96C301.127 323.24 299.137 302.23 296.927 301.06L290.127 288.5C288.667 293.4 293.297 298 294.377 302.07C294.557 302.7 294.077 303.52 294.267 304.15L295.397 307.32C296.047 311.21 296.117 315.92 295.897 319.91L293.457 318.84C291.707 319.03 291.447 321.84 293.287 322.01C292.787 327.18 293.147 330.44 291.237 335.61C288.017 329.1 287.437 321.77 284.987 315.08C284.517 313.72 284.837 311.91 282.467 311.56C282.427 320.08 287.527 328.02 286.077 336.64C279.317 337.22 280.907 327.97 274.167 326.19L276.997 341.85L272.177 338.7L272.237 337.61C271.037 331.82 256.477 320.21 249.387 318.88C242.297 317.56 248.517 318.98 248.087 318.88C247.327 316.98 245.497 316.63 243.467 316C213.047 306.64 172.087 316.91 143.597 302.11C150.877 300.08 138.097 293.53 134.817 290.11C131.527 286.68 132.367 285.23 129.517 283.8C127.547 278.19 124.207 269.78 123.327 264.17C122.037 256.11 123.847 246.86 120.607 238.73C115.977 240.02 119.207 242.54 119.157 243.45L117.457 274.35C114.517 274.46 115.157 274.72 115.047 272.82C114.657 268.11 115.177 262.49 114.587 257.6C108.887 256.63 114.947 264.85 109.247 263.88C109.697 255.63 105.757 246.5 102.037 239.09C87.0467 209.63 60.7767 191.92 23.2867 184.68C24.6867 182.86 26.7567 182.76 29.0467 182.57C43.3467 181.23 59.9467 181.32 73.8167 183.7C80.2767 184.75 86.4867 188.16 93.3067 188.58C92.4167 186.95 87.9367 185.62 86.0167 184.99C67.4667 178.83 41.1267 178.16 21.1867 181.34C1.2567 184.52 16.5467 180.91 17.1467 183.81C15.1067 183.46 12.9367 183.29 10.9067 182.76C10.5967 182.4 11.6267 181.49 12.1867 181.21C20.6467 177.36 34.8767 177.29 43.8267 176.34C48.5167 175.86 53.4867 174.39 58.2767 174.09C65.5667 173.78 71.7867 175.2 78.9567 175.07L70.8167 173.12C64.2867 173.33 58.0567 172.28 51.5567 172.04C45.0567 171.8 49.9267 172.04 49.0567 172.05C45.9067 172.07 41.0667 171.28 39.0067 173.19C25.2067 173.44 17.3667 175.84 4.54669 177.9C2.57669 178.18 1.98668 179 1.25668 176.56C10.3567 174.97 21.1367 170.48 29.9967 169.16C35.5767 168.32 44.6967 168.36 50.6867 167.97C72.2567 166.59 80.6667 169.63 100.137 170.89C101.547 170.97 104.757 171.68 104.537 169.87C84.4967 165.08 60.9667 162.67 39.6267 163.86C18.2867 165.06 18.0667 166.96 7.67669 168.46C5.37669 168.74 3.3467 170.11 1.0567 170.4C-1.2433 168.87 0.716683 168.68 2.16668 168.04C6.73668 165.93 12.1267 164.64 17.0367 164.07C21.9567 163.5 19.2067 164.06 19.5967 162.97H22.0967C38.6967 161.24 54.6067 156.08 71.3667 157.45C71.0367 155.55 68.9767 155.56 67.1367 155.39C55.6867 154.36 43.0067 155.97 32.4867 157.74C28.2167 158.4 24.0467 159.23 19.7767 159.89L8.53668 158.95L35.0967 155.64L30.3267 151.5C34.7467 152.11 38.4467 150.01 42.4867 149.44C50.0367 148.4 64.0067 146.97 71.3867 147.03C78.7667 147.08 93.9167 149.99 104.437 150.12C103.877 148.49 98.7967 148.07 96.8567 147.71C86.3267 145.77 68.9167 144.5 57.7567 144.11C47.0267 143.71 36.4167 145.22 25.6667 145.27C25.5367 143.73 29.0267 143.44 30.2267 143.25C40.4967 142.11 50.7667 140.97 61.0267 139.83C61.4567 138.02 58.2567 138.85 56.7367 138.86C48.4967 138.63 40.4367 139.13 32.2467 139.98L36.2167 136.88L30.0967 133.74C31.3467 132.65 32.4667 132.19 34.0767 130.55C35.6867 128.91 35.0867 129.91 35.4367 129.46H36.7367C55.1067 127 73.6467 125.46 92.1867 126C92.7867 124.91 88.1767 123.94 87.9567 123.94L55.2667 124.11C54.2867 124.11 42.5667 125.99 42.0167 126.26H39.5167C39.3167 126 40.5767 124.73 40.9367 124.18L42.2967 123.09C42.5267 122.82 42.1267 122.28 42.3567 122C56.3167 118.85 70.5467 120.68 84.6067 119.7C91.9067 119.21 92.0367 116.85 84.7867 116.44C72.8767 115.78 60.7567 117.11 48.8867 117.71C46.8967 116.45 55.0267 112.6 56.1267 112.42L89.4667 110.16C89.8967 108.35 86.6967 109.18 85.1767 109.19C78.8867 109.04 60.4667 108.5 55.5767 110.43C54.7267 106.09 60.2867 105.79 62.2467 103.6C64.2067 101.41 63.5067 100.42 64.8967 98.78C82.6667 91.44 104.997 94.04 124.157 93.22L114.937 91.18C102.507 90.25 89.3567 92.49 77.0867 92.46C74.6967 92.47 72.0367 93.48 72.8567 90.4C76.9167 87.66 78.1467 88.92 81.7667 88.27C100.067 85.1 118.807 84 137.157 85.9C137.237 84.36 132.807 84.11 131.507 83.94C115.627 82.48 101.117 83.83 85.1467 84.09C84.0667 83.91 83.8067 84.73 83.2367 85.19C78.2167 85.67 81.4467 82.3 83.5267 79.93C99.8867 78.58 116.207 75.96 132.677 76.51L119.657 74.49L90.0567 75.73L94.2067 69.46C94.8667 69.28 95.1167 68.64 96.7667 68.36C104.547 67.05 118.037 66.53 126.417 66.12C134.797 65.71 137.697 66.24 143.357 66.03L130.227 64.01C120.027 65.87 109.757 65.02 99.4367 65.26C99.0167 65.08 100.497 63.8 100.857 63.17C101.217 62.54 100.687 62.36 100.917 62.08L102.277 60.99H103.577C112.747 60.12 122.127 59.35 131.277 58.76L119.447 56.65L106.247 57.9C107.277 56.9 107.997 55.72 108.917 54.72H111.417L111.527 52.62C111.977 52.26 112.657 51.8 112.887 51.53L154.317 50.23L143.787 48.2C135.867 48.06 127.817 48.46 119.897 48.32C111.977 48.18 114.837 49.43 115.667 46.26C116.357 45.53 118.787 44.88 119.587 44.16C136.047 42.99 152.227 42.81 168.507 44.9C167.947 43.27 162.867 42.85 160.927 42.49C148.137 40.11 135.507 40.9 122.367 40.97C122.837 40.24 123.207 39.52 123.787 38.88C140.807 35.35 158.327 34.62 175.377 36.53C175.787 35.08 173.287 35 171.997 34.74C167.917 33.95 158.987 32.54 154.857 32.47C147.157 32.24 139.067 35.36 131.617 32.59C132.417 31.86 133.327 31.04 134.227 30.49L135.587 29.4H136.887C143.657 28.72 153.927 27.49 160.347 27.28C166.767 27.07 172.617 29.21 178.327 28.09L162.747 25.09L138.257 26.21C140.517 22.57 142.407 21.84 144.957 18.84L166.297 17.64C166.727 15.83 163.527 16.66 162.007 16.67C158.427 16.6 154.837 16.8 151.367 16.72L158.337 12.34C170.057 8.56 182.637 10.76 194.267 12.34C194.137 10.8 189.947 9.92 188.447 9.56C179.447 7.34 166.187 5.78 156.977 7.37C165.677 1.16 169.647 0.0599979 181.157 1.99L180.507 0C224.087 7.02 267.787 19.75 275.877 60.12L274.997 60.4L275.017 60.38ZM307.877 124.08C307.667 123.9 303.477 123.2 301.887 122.39C289.297 116.38 280.327 109.73 271.627 100.17C272.107 107.14 283.007 116.33 289.407 120.37C294.447 123.51 299.897 125.03 306.147 125.9C308.517 126.25 308.597 124.71 307.877 123.99V124.08ZM234.367 138.05C234.727 139.41 235.357 139.77 235.557 140.13C235.757 140.49 235.407 140.86 235.497 141.22C235.787 141.94 236.637 142.21 236.737 142.3C238.307 145.28 239.547 148.45 242.577 150.6C245.607 152.75 245.707 152.94 248.757 152.65C250.587 154.91 250.937 156.35 253.407 158.88C257.007 162.58 262.987 170.16 269.147 168.76L258.517 156.77C264.517 158.19 269.557 161.33 275.677 162.48C276.967 162.75 280.807 163.99 280.807 161.91C278.007 161.47 275.447 160.67 273.007 159.69C267.167 157.36 257.827 153.43 252.667 150.55C240.247 143.55 233.957 115.86 236.477 103.52L233.897 105.07C232.827 116.58 231.397 126.83 234.577 138.04H234.357L234.367 138.05ZM227.077 134.47C226.547 128.4 228.457 121.24 228.147 115.08C226.317 114.82 226.197 116.9 225.817 117.99C222.857 126.34 222.117 139.75 223.837 147.99C225.557 156.23 231.117 173.5 243.907 169.9C237.757 159.33 228.047 146.52 227.087 134.38V134.47H227.077ZM216.107 126.64C214.347 125.02 213.817 126.74 213.527 128.19C210.397 143.61 208.997 163.18 219.897 176.17C223.967 181.04 227.587 184.37 235.587 183.07L225.347 171.8C216.877 157.98 217.877 141.94 216.107 126.64ZM203.767 147.63L203.537 151.8C203.377 154.79 202.847 158.33 203.017 161.22C203.187 164.11 203.657 165.29 203.977 167.47C203.017 171.19 204.057 173.81 204.757 176.89C206.737 186.3 215.467 203.2 229.927 198.78C218.087 190.96 211.547 177.77 208.527 165.46C205.517 153.15 208.037 156.67 207.377 152.87L206.937 137.2C205.097 137.03 204.827 140.11 204.547 141.2C203.987 143.56 204.097 145.46 203.857 147.73L203.757 147.64L203.767 147.63ZM193.757 169.7L193.647 171.78C193.607 172.5 192.407 172.6 192.367 173.42C192.187 176.68 194.247 180.66 192.957 184.38H195.457C195.507 185.36 195.117 186.54 195.287 187.54C195.457 188.54 195.067 187.54 195.227 188.63C196.947 198.86 203.147 206.44 212.687 212.64C220.337 217.58 228.537 220.44 238.667 219.84C236.767 216.95 231.867 217.07 228.477 215.54C225.087 214.02 220.607 210.69 216.707 208.44L216.767 207.35C216.117 205.27 215.967 204.09 213.197 203.2C212.017 201.03 210.227 199.95 209.627 199.05C209.707 197.51 209.017 196.34 207.307 195.89C201.127 185.87 198.127 167.49 196.907 156.17C196.857 155.17 195.967 143.76 193.687 145.68L192.717 149.49L193.657 169.78L193.767 169.69L193.757 169.7ZM222.987 230.34C222.677 230.07 216.737 227.47 215.077 226.12C190.517 206.86 193.877 189.17 185.347 164.85C184.877 163.49 185.197 161.68 182.827 161.33C181.667 178.37 181.377 203.38 193.527 217.36C197.817 222.23 214.797 233.29 222.227 232.43C223.307 232.51 223.097 230.52 222.997 230.34H222.987ZM412.467 184.33C413.877 178.43 411.877 171.38 404.477 169.69L412.467 184.33ZM205.887 245.11C206.147 246.29 207.467 245.92 208.327 246.18C209.187 246.44 209.197 246.08 209.627 246.18C210.057 246.28 210.007 247.08 210.867 247.26C211.727 247.44 212.607 247.16 213.367 247.25C214.127 247.34 215.157 248.24 217.547 248.32C219.937 248.4 225.437 249 225.857 247.19C221.127 246.4 216.717 245.61 212.237 244.09C207.757 242.57 206.687 242.31 206.057 242.04C205.427 241.77 205.557 241.32 204.817 240.96C204.077 240.6 203.827 241.15 203.517 240.96C203.207 240.77 202.797 240.24 202.277 239.88C201.757 239.52 201.447 239.16 201.037 238.8C199.587 237.54 198.727 235.37 196.267 234.66C191.777 229.52 189.397 223.46 187.187 218.22C185.937 215.24 184.087 211.44 183.157 208.64C179.537 197.42 181.707 185.73 175.667 175.16C173.507 174.9 174.347 177.52 174.497 178.61C177.687 193.63 169.107 209.44 174.917 222.28C179.267 232.04 193.057 243.84 205.677 245.22L205.897 245.13L205.887 245.11ZM382.157 188.66C382.957 187.93 374.897 176.56 371.497 177.21C370.817 177.76 377.247 185.24 378.267 186.33C379.287 187.42 379.527 189.13 382.157 188.67V188.66ZM360.867 188.77L364.527 189.29L361.527 186.68L360.757 188.77H360.867ZM193.957 256.67C199.677 261.26 208.287 260.67 215.607 261.81L215.717 259.73C209.497 260.31 204.977 257.7 198.947 256.65C190.467 250.9 182.557 244.78 177.257 236.47C170.167 225.27 169.527 211.23 165.087 199.21C164.047 196.5 162.977 192.24 160.017 190.81C161.867 198.68 164.147 206.46 164.787 214.52C165.197 218.96 163.857 223.58 164.267 227.93C165.377 239.34 180.607 254.57 193.947 256.68L193.957 256.67ZM149.937 235.97C148.857 235.79 147.317 236.16 146.137 235.99L146.627 227.11L144.737 216.16C143.047 233.02 138.397 244.55 149.867 259.08C154.537 264.94 163.047 272.06 172.247 272.64C173.547 272.72 176.987 273.25 176.757 271.53C173.007 270.55 169.767 268.4 167.057 266.33C157.257 258.95 148.857 247.85 149.947 236.07C154.687 236.77 152.417 240.5 153.937 244.38C157.727 254.42 169.017 262.24 181.017 265.17C181.637 265.8 182.597 265.98 183.457 266.24C184.307 266.51 184.327 266.14 184.757 266.24C188.387 267.31 191.557 268.92 195.937 268.27C194.767 265.92 191.107 265.21 188.677 264.14C171.197 256.26 160.897 248.16 157.177 230.87C155.627 223.54 156.877 214.65 153.457 207.79C150.557 207.26 151.387 209.98 151.297 211.52C151.027 220.4 150.877 227.01 149.947 236.08V235.99L149.937 235.97ZM135.447 224.99C134.787 233.06 134.567 241.03 134.117 249.1C133.667 257.17 136.187 258.78 136.837 260.86C139.357 268.37 149.147 277.83 157.417 281.41C159.537 282.31 159.797 281.58 161.167 280.3C156.947 274.16 149.577 269.94 145.917 263.53C138.797 250.88 139.447 235.12 136.847 221.27C133.797 221.38 135.497 224.09 135.457 224.9V224.99H135.447ZM127.067 241.26C125.467 244.62 125.267 248.25 125.187 251.78C125.167 254.05 126.217 254.76 126.317 254.95C127.477 273.24 131.197 282.65 150.687 291.52C151.007 291.61 151.377 292.88 152.757 293.32C154.137 293.76 167.777 298.59 168.017 296.14C162.277 294 155.667 291.76 150.857 288.35C137.907 279.09 132.707 261.17 129.217 247.6L129.067 226.67C127.197 227.13 126.377 232.12 126.197 233.48C125.767 237.38 126.367 238.28 126.957 241.36L127.067 241.27V241.26ZM275.867 295.03C276.537 294.66 273.847 292.23 272.177 292.97C271.507 293.34 274.197 295.77 275.867 295.03ZM278.767 297.64C278.357 297.28 277.787 293.75 277.147 297.47C281.877 304.24 286.717 306.93 290.747 314.61C294.777 322.29 289.827 317.51 293.447 316.86C293.447 308.89 285.337 302.41 278.657 297.64H278.767Z" fill="url(#paint0_linear_3_352)"/>
<path d="M432.557 232.48C425.037 228.84 414.347 223.04 412.367 215.87C413.377 214.98 436.757 227.92 440.417 228.78C444.077 229.64 449.807 230.34 447.787 227.49C445.767 224.64 426.967 219.02 426.297 212.57C427.207 211.88 446.127 219.82 449.547 220.78C469.727 226.73 488.277 225.31 508.667 224.93C504.027 228.78 502.847 235.2 499.727 239.48C486.957 257.39 464.677 270.21 448.877 286.16C418.287 317.17 402.627 361.58 382.987 398.4C363.337 435.21 365.817 434.24 355.967 437.71C330.927 446.47 296.427 437.78 273.487 424.24L274.727 421.95C289.617 429.02 303.367 432.26 319.697 430.8L286.787 419.62C280.167 413.98 272.047 410.44 270.557 402.06C284.537 412.24 302.277 419.56 320.197 421.45C317.697 417.59 311.467 416.79 307.767 414.31C305.377 412.66 302.577 409.4 299.517 407.14C292.987 402.31 284.667 398.05 281.417 390.56C289.167 392.89 291.597 398.47 299.637 401.31C300.057 401.82 300.607 402.33 301.247 402.54C301.887 402.75 302.227 402.45 302.727 402.56L304.337 403.79C304.717 403.9 305.317 403.7 305.817 403.81L307.427 405.04L308.907 405.06C315.247 409.18 324.807 412.45 332.427 412.37L313.087 403.92C312.377 401.8 309.327 402.05 308.527 401.53L306.917 400.3C305.057 398.96 291.397 385.97 292.517 384.98C297.127 385.56 299.357 389.21 303.497 391.19C307.637 393.17 315.867 395.41 320.707 396.99C326.577 398.99 332.647 402.91 339.677 401.92C340.047 398.4 338.127 400.09 336.097 399.45C332.907 398.39 327.607 397.1 324.897 395.85C315.097 391.57 299.027 381.36 298.927 372.2C305.387 377.53 314.057 382.8 322.387 385.95C324.687 386.79 337.097 391.31 332.367 386.11C327.637 380.91 320.537 378.88 316.137 375.59C311.467 372.1 307.817 366.61 304.307 362.43C310.487 363.83 328.697 378 333.557 377.48C338.427 376.95 326.587 370.83 325.517 370.01C322.987 368.16 310.117 356.89 312.147 355.11C314.607 355.15 317.337 356.5 319.537 357.54L321.147 358.77C321.667 359.08 322.107 359.69 322.757 360C327.577 362.59 337.847 368.99 342.947 369.57C348.047 370.15 345.887 368.31 344.797 367.29C343.707 366.27 336.467 362.93 334.207 361.29C330.067 358.21 326.037 354.92 321.897 351.84L321.657 349.52L318.827 349.48C311.917 343.44 310.337 342.41 316.627 335.46L325.637 342.84C327.217 343.87 327.607 346.39 328.427 347.21C330.777 349.66 331.687 350.18 334.577 351.93C337.467 353.69 335.667 351.75 336.057 351.95C343.267 356.19 350.617 360.63 359.707 360.47L337.047 347.34L336.917 346.13C336.067 343.9 333.197 341.14 330.637 340.2C330.487 339.9 330.677 339.4 330.507 338.99C328.547 335.54 325.977 332.18 325.097 328.44C327.717 329.99 330.987 330.64 333.357 332.09C339.917 336.02 345.177 343.94 353.787 343.98C349.517 338.48 342.127 334.84 337.977 329.25C334.827 324.98 334.617 320.65 331.027 316.87C331.207 316.27 330.627 315.35 330.787 314.55C331.777 314.57 333.117 315.69 333.737 315.7C334.537 317.42 336.197 318.05 338.297 318.09C338.707 318.5 339.477 318.81 339.907 319.32C346.177 326.36 353.887 334.23 364.527 337.11L348.937 320.97C344.837 315.88 343.927 314.25 343.057 308.3C342.827 306.08 341.327 303.54 345.467 304.31C346.047 305.12 346.417 305.13 347.077 305.54C352.687 314.48 365.247 324.03 377.487 324.63C369.547 319.27 362.907 314.64 357.017 307.71C355.487 305.98 355.127 303.76 353.817 301.83C352.507 299.9 351.007 300.88 350.837 300.37C350.217 299.15 349.727 296.83 352.637 297.58C355.547 298.33 363.757 301.58 365.317 302.41C368.837 304.28 375.007 311.52 380.397 310.19C373.657 305.76 373.447 302.54 364.947 298.88C364.747 298.17 365.017 297.17 364.707 296.56C363.377 293.22 359.057 290.74 356.707 288.29C354.357 285.84 347.607 281.31 355.857 280.13C360.537 289.56 375.337 298.14 387.747 299.24C385.017 294.27 377.317 291.23 373.097 287.34C370.377 284.88 367.057 281.31 367.077 277.99C367.857 277.2 383.887 287.01 386.927 287.86C391.117 289.13 396.727 289.82 400.887 289.59C389.107 281.66 373.007 278.29 369.797 264.05C376.557 266.37 388.607 278.03 395.027 278.23C401.447 278.43 397.907 277.57 398.137 276.17C389.597 272.11 380.477 261.41 377.337 253.71C384.507 258.75 391.637 265.8 401.467 266.86C401.747 267.17 401.637 268.47 402.447 269.19C405.567 271.96 411.937 271.75 415.747 274.03C416.997 274.25 416.387 271.93 416.247 271.72C414.897 270.59 402.487 265.97 399.857 264.42C393.847 258.69 386.777 253.45 383.677 246.16C385.867 243.58 386.307 246.6 387.097 247.12C390.037 249.38 396.507 254.71 398.997 256.26L401.957 257.51C403.517 258.34 405.237 258.27 406.397 258.79C407.557 259.31 408.087 260.83 410.897 261.78C415.477 263.26 420.707 263.85 425.367 263.72L407.507 256.5C405.177 255.36 400.317 251.26 398.277 249.41L396.667 248.18C395.287 246.75 393.547 244.21 391.747 242.27L391.617 241.06C391.787 239.15 394.197 239.89 395.867 240.52C400.507 242.5 408.087 249.16 413.977 251.37C417.567 252.73 420.357 253.58 424.257 253.24C424.737 250.73 422.257 250.59 420.667 249.46C412.297 243.49 403.387 239.53 397.797 230.79C410.127 233.4 421.127 245.64 434.257 246.55C435.617 246.57 439.237 247.13 437.087 245.39C423.077 240.84 417.067 233.91 407.787 225.21C406.697 224.19 404.467 224.05 404.207 223.95C403.397 223.23 403.307 221.22 405.947 221.76C410.987 222.95 419.347 228.71 424.897 231.21C425.517 232.43 426.567 233.05 427.977 233.57C429.387 234.1 430.887 234.32 432.417 234.85C436.097 235.91 439.297 238.28 443.997 237.35C442.297 234 436.247 233.81 433.527 232.56L432.527 232.44L432.557 232.48ZM375.047 339.01V340.25C375.997 339.79 376.007 339.38 375.047 339.01Z" fill="url(#paint1_linear_3_352)"/>
</g>
<defs>
<linearGradient id="paint0_linear_3_352" x1="89.0967" y1="62.467" x2="344.097" y2="273.467" gradientUnits="userSpaceOnUse">
<stop stop-color="white" stop-opacity="0"/>
<stop offset="0.3125" stop-color="#CAA9A6"/>
<stop offset="0.5625" stop-color="#292222"/>
<stop offset="0.798077" stop-color="white" stop-opacity="0"/>
</linearGradient>
<linearGradient id="paint1_linear_3_352" x1="425.097" y1="326.967" x2="357.097" y2="286.467" gradientUnits="userSpaceOnUse">
<stop stop-color="white" stop-opacity="0"/>
<stop offset="1" stop-color="#821C15"/>
</linearGradient>
<clipPath id="clip0_3_352">
<rect width="509" height="442" fill="white"/>
</clipPath>
</defs>
</svg>
