<svg width="932" height="800" viewBox="0 0 932 800" fill="none" xmlns="http://www.w3.org/2000/svg">
<path d="M170.08 467.59C171.8 468.34 179.58 475.04 180.09 475.95C181.9 479.27 176.05 487.11 181.74 487.43C136.25 540.31 91.8801 594.31 45.59 646.56C43.44 649.04 31.88 659.81 31.47 660.88C30.23 663.69 38.76 664.6 39.67 665.13C40.58 665.66 44.1001 671.01 45.5201 672.14C46.0101 674.52 45.2901 675.67 43.1501 676.58C42.5401 676.06 41.53 675.83 40.82 675.31C34.35 670.63 24.85 662.89 16.78 668.68C15.76 669.43 11.76 674.1 11.55 674.88C11.13 677.32 13.67 677.13 14.89 677.67C13.03 682.72 15.33 687.23 14.79 692.43C11.56 688.47 7.52005 685.46 6.03005 679.6C2.27005 664.99 12.93 665.69 20.9 660.29C24.58 657.87 33.18 647.28 36.87 643.19C83.87 591.06 126.63 536.11 174.24 484.59C175.58 481.79 171.28 471.58 170.19 467.41L170.09 467.6L170.08 467.59Z" fill="#0C0B0A"/>
<path d="M187.56 483.03C188.48 482.08 191.37 475.89 193.91 476.48C202.3 482.81 206.1 492.69 213.27 499.37L58.1501 682.28C56.9201 683.41 56.7201 683.21 55.7101 681.99C53.3901 679.24 51.6801 676.52 48.8501 673.85C46.0201 671.18 45.7101 672.45 45.3001 672.04C43.8901 670.8 40.5701 665.66 39.4501 665.03L189.21 492.15C191.37 488.79 187.11 486.46 187.54 483.03H187.56Z" fill="#89969D"/>
<path d="M39.4601 665.13C38.5501 664.6 30.0201 663.59 31.2601 660.88C32.5001 658.17 43.2301 649.04 45.3801 646.56C91.7801 594.31 136.15 540.31 181.53 487.43C182.66 486.19 186.12 484.46 187.45 483.13C187.02 486.66 191.37 488.99 189.12 492.25L39.3601 665.13H39.4601Z" fill="#F6F0E0"/>
<path d="M40.61 675.411L32.31 685.331C27.45 681.991 20.15 680.041 14.78 677.871C9.41004 675.701 11.02 677.531 11.44 675.081C11.86 672.631 15.64 669.531 16.67 668.881C24.74 663.091 34.24 670.831 40.71 675.511L40.61 675.411Z" fill="#F6F0E0"/>
<path d="M42.9401 676.58C52.4401 684.52 57.8901 690.24 51.0001 701.89C49.2701 702.32 49.0701 701.32 48.0601 700.69C43.3101 697.36 37.2701 688.66 32.3101 685.32L40.6101 675.4C41.3201 675.92 42.3301 676.15 42.9401 676.67V676.57V676.58Z" fill="#89969D"/>
<path d="M200.71 564.84C199.3 562.72 192.36 552.02 191.45 551.4C187.3 548.58 188.09 552.65 186.55 554.46C145.37 602.19 106.1 652.25 64.11 699.55C62.88 731.39 31.39 713.26 17.66 699.55C15.84 697.71 15.35 695.72 14.24 694.2C14.78 689 12.48 684.39 14.34 679.44C19.81 681.72 27.12 683.57 31.87 686.9C36.73 690.24 42.87 698.93 47.62 702.27C48.63 703 48.73 703.89 50.56 703.47C57.45 691.83 52.1 686.01 42.5 678.16C44.64 677.26 45.36 676.1 44.87 673.72C45.27 674.03 47.1 674.2 48.42 675.53C51.35 678.2 52.96 680.92 55.28 683.67C57.6 686.42 56.49 685.09 57.72 683.96L212.84 501.05" fill="#0A0A0A"/>
<path d="M585.2 9.94986C581.9 6.84986 573.7 8.14986 571.6 12.5499L585.4 18.9499C584.9 16.5499 587 11.7499 585.2 9.94986Z" fill="#0C0B0A"/>
<path d="M587.8 35.05C588.2 32.45 586.9 31.55 585.5 29.85C579.6 22.45 554.6 9.55 547.5 18.45C540.4 27.35 538.3 36.45 538.1 37.95C537.8 40.55 538.5 39.15 539.7 39.75C542.3 40.95 544.7 41.25 547.3 41.95L546.1 45.45C550.9 44.45 549.2 47.45 549.6 47.75C542.2 45.55 536.6 43.95 532.3 51.75C538 52.85 544.3 53.55 549.6 55.85C553.5 57.45 571.1 71.35 572.7 69.75C573.6 62.85 563.6 54.25 557.7 52.45C557.4 52.05 557 51.45 556.5 51.25L555.3 46.65H557.6C560 47.95 563.3 48.95 565.6 50.75L574.3 58.15C576.9 56.95 582.6 44.95 585.3 42.45C588 39.95 593.2 42.25 587.7 34.95L587.8 35.05Z" fill="#0C0B0A"/>
<path d="M539.2 68.65C539.5 68.35 538.9 67.35 539.2 67.05C541.8 64.05 541.6 68.95 542.4 70.55C544 73.75 546.3 78.05 548.1 81.05C549.4 83.15 549.2 82.65 551.9 82.45C548.2 74.55 541.9 52.55 531.7 66.25C480.5 135.85 421.2 201.65 370 271.05C368.6 272.95 364.1 278.25 363.7 279.85C362.6 284.75 366.8 284.45 367 284.75C370.1 289.75 371.5 294.45 376.1 300.55C380.7 306.65 376.7 307.25 382.1 302.65C433.2 235.85 483.8 168.45 535.3 102.15C536.7 100.35 540.1 99.35 541 97.35C542.5 93.95 536.4 82.75 535.7 78.35L540.3 78.95L541.4 81.25C544.1 76.25 540.7 76.75 540.5 76.05C540.2 74.55 541.4 70.85 539.1 68.55L539.2 68.65Z" fill="#0C0B0A"/>
<path d="M539.2 68.6494C541.5 70.9494 540.3 74.6494 540.6 76.1494C540.9 77.6494 544.2 76.3494 541.5 81.3494L540.4 79.0494L535.8 78.4494C536.4 82.8494 542.6 94.0494 541.1 97.4494C539.6 100.849 536.8 100.449 535.4 102.249C483.9 168.549 433.2 235.949 382.2 302.749C376.9 307.349 378.1 303.049 376.2 300.649C371.6 294.549 370.2 289.849 367.1 284.849C418.9 221.449 469.1 156.749 519.7 92.3494C526 84.3494 532.5 76.3494 539.3 68.6494H539.2ZM506.1 118.749C511.7 112.449 522.7 101.549 526.5 94.6494C530.3 87.7494 527.9 91.5494 527.6 89.3494C524.4 90.3494 524.1 95.2494 522.6 97.0494C521.1 98.8494 519.9 98.4494 518.9 99.6494C513.7 106.149 509.3 113.149 504.3 119.849C499.3 126.549 499.1 123.249 499.3 126.349C503.2 124.649 503.8 121.249 506.1 118.649V118.749ZM496.4 132.249L497 128.849L494.1 129.949V132.249H496.4Z" fill="#89969D"/>
<path d="M367 284.85C366.8 284.55 362.7 284.85 363.7 279.95C364.7 275.05 368.6 273.05 370 271.15C421.1 201.75 480.4 136.05 531.7 66.3496C541.9 52.6496 548.2 74.6496 551.9 82.5496C549.2 82.6496 549.4 83.2496 548.1 81.1496C546.3 78.1496 544 73.8496 542.4 70.6496C540.8 67.4496 541.8 64.1496 539.2 67.1496C536.6 70.1496 539.5 68.4496 539.2 68.7496C532.4 76.5496 525.9 84.4496 519.6 92.4496C469 156.75 418.8 221.45 367 284.95V284.85Z" fill="#F6F0E0"/>
<path d="M587.8 35.0494C593.3 42.3494 588.7 39.5494 585.4 42.5494C582.1 45.5494 577 57.0494 574.4 58.2494L565.7 50.8494C563.4 49.0494 560.1 48.0494 557.7 46.7494C555.3 45.4494 553.5 42.5494 551.9 42.1494C554.3 32.3494 562.8 23.2494 573.6 26.8494C584.4 30.4494 586.4 33.3494 587.8 35.2494V35.0494Z" fill="#89969D"/>
<path d="M587.8 35.05C586.4 33.15 576.3 27.55 573.6 26.65C562.9 23.05 554.4 32.15 551.9 41.95C550.7 41.65 548.6 42.25 547.3 41.95C544.7 41.25 542.3 40.95 539.7 39.75C537.1 38.55 537.7 40.55 538.1 37.95C538.5 35.35 546.3 19.95 547.5 18.45C554.6 9.55 579.6 22.45 585.5 29.85C591.4 37.25 588.2 32.45 587.8 35.05Z" fill="#F6F0E0"/>
<path d="M557.7 52.4497C563.6 54.2497 573.6 62.9497 572.7 69.7497C571.1 71.4497 553.5 57.5497 549.6 55.8497V51.2497C551.8 51.0497 553.4 52.7497 555.4 53.1497C557.4 53.5497 557.6 52.4497 557.7 52.4497Z" fill="#89969D"/>
<path d="M549.6 47.8497C551.7 49.9497 554 50.3497 556.5 51.3497C559 52.3497 557.4 52.0497 557.7 52.5497C557.6 52.5497 556.9 53.5497 555.4 53.2497C553.9 52.9497 551.8 51.1497 549.6 51.3497V55.9497C544.2 53.6497 537.9 52.9497 532.2 51.8497C536.6 44.0497 542.2 45.5497 549.5 47.8497H549.6Z" fill="#F6F0E0"/>
<path d="M585.2 9.94986C587.1 11.6499 585 16.4499 585.4 18.9499L571.6 12.5499C573.7 8.14986 581.9 6.84986 585.2 9.94986Z" fill="#F6F0E0"/>
<path d="M551.9 42.0499C553.5 42.4499 556.7 46.1499 557.7 46.6499H555.4L556.6 51.2499C554.1 50.2499 551.8 49.8499 549.7 47.7499C547.6 45.6499 551 44.4499 546.2 45.4499L547.4 41.9499C548.7 42.2499 550.8 41.6499 552 41.9499L551.9 42.0499Z" fill="#2D2E2D"/>
<path d="M535.8 140.349C536.2 140.049 536.5 139.349 537 139.149L535.8 140.349Z" fill="#2D2E2D"/>
<path d="M506.1 118.75C503.8 121.35 503.2 124.65 499.3 126.45C499.1 123.35 502.9 121.85 504.3 119.95C509.3 113.35 513.7 106.25 518.9 99.7502C524.1 93.2502 521.8 98.1502 522.6 97.1502C524.1 95.3502 524.4 90.4502 527.6 89.4502C527.9 91.6502 527.6 92.8502 526.5 94.7502C522.6 101.55 511.7 112.55 506.1 118.85V118.75Z" fill="#F6F0E0"/>
<path d="M496.4 132.25H494.1V129.95L497 128.75L496.4 132.25Z" fill="#F6F0E0"/>
<path d="M298.98 500.809C300.64 499.379 302.92 498.239 304.37 496.439H306.13C306.34 497.109 305.92 498.249 306.13 498.629C303.44 502.239 298.98 512.789 298.98 516.789V535.519C298.98 535.809 300.22 541.599 301.36 541.599C301.05 535.229 300.53 528.859 301.46 522.489C302.08 517.929 306.22 504.619 308.5 500.909C310.78 497.199 313.06 497.389 313.26 497.579V500.909C311.81 501.579 312.22 501.959 312.12 503.099C312.02 504.239 312.12 503.859 312.12 504.239C312.22 506.049 313.26 507.189 313.36 507.569C313.57 508.999 313.15 510.609 313.36 511.939C315.74 527.719 319.78 544.349 332.52 555.859C345.26 567.359 334.59 557.569 337.28 559.189C339.97 560.809 339.04 559.949 339.66 560.329C340.59 561.569 341.32 564.419 343.29 565.839L337.28 566.979L343.29 570.309L336.14 571.449C339.04 571.449 341.73 572.309 344.53 572.589C347.33 572.869 346.19 572.589 346.91 572.589H349.29C349.39 573.069 351.47 573.639 351.67 574.399C352.91 579.149 341 578.679 338.52 582.479C342.04 582.289 347.32 581.999 350.54 580.859C356.03 578.859 353.65 575.819 362.04 577.909C363.18 578.199 365.87 577.429 364.84 579.719C363.39 582.949 347.44 588.849 343.4 590.839C338.74 593.119 329.21 599.489 325.38 600.629C320.93 601.959 318.23 599.769 315.44 600.249C310.99 601.009 304.87 607.089 298.97 605.479L315.75 592.269C306.12 594.649 297.52 602.539 287.06 603.199C288.92 599.679 293.07 598.449 296.18 596.169C299.29 593.889 302.5 591.509 298.46 592.179C294.63 593.039 276.09 605.109 273.91 603.209C271.73 601.309 274.32 600.549 275.36 599.599C276.4 598.649 291.41 589.809 289.45 587.809C281.27 590.469 274.43 597.409 265.52 597.699L279.92 584.489C271.74 585.919 265.83 593.519 257.13 594.379C254.64 592.099 270.18 584.969 269.04 581.169C262.83 581.929 259.1 588.009 252.26 586.679C252.99 584.489 266.35 576.509 264.28 574.609C258.48 575.559 253.09 581.829 246.98 581.169C244.91 578.889 252.16 576.129 254.75 574.039C257.24 571.949 259.51 569.859 260.76 566.909L241.6 574.609C240.05 570.139 245.43 563.679 250.51 564.629C251.86 564.919 250.51 567.389 252.37 566.909C251.54 562.349 253.72 560.259 257.13 557.589L249.98 558.159L251.74 542.759L255.99 532.869C256.82 532.299 256.82 531.349 257.23 530.679C257.96 529.439 260.96 525.359 261.99 524.119C263.02 522.879 263.65 522.689 264.37 521.929C266.86 522.979 264.78 525.349 264.16 526.679C261.98 532.289 260.12 537.229 259.5 543.309L260.64 552.629C261.37 539.039 266.44 527.249 275.04 516.409C276.18 514.979 280.32 510.139 281.46 509.089C282.6 508.039 286.02 505.859 288.19 505.379C287.88 505.859 288.19 507.279 287.57 508.609C284.67 514.119 279.28 519.639 280.42 526.289C287.05 518.119 290.78 508.129 298.96 501.009V500.819L298.98 500.809Z" fill="#F6F0E0"/>
<path d="M345.7 327.15C345.18 325.82 343.84 324.58 344.66 322.97C345.59 321.54 374.91 313.08 379.57 311.56C392.83 307.09 400.7 298.82 414.06 310.13C427.42 321.44 422.45 322.3 426.7 328.19C437.89 343.87 478.08 390.55 478.39 405.76C478.39 408.23 477.56 414.12 475.59 416.22C473.73 412.23 473.41 406.709 469.06 404.149C474.14 427.629 473.51 451.87 452.28 468.41C455.28 468.03 458.7 466.03 461.08 464.42C463.46 462.81 464.91 458.72 465.43 461.85C466.05 465.94 457.56 473.73 454.04 476.68C448.96 480.86 440.78 485.9 434.36 487.71C434.36 489.99 438.92 488.38 440.16 488.09C444.41 486.85 449.9 484.1 453.94 482.01C457.98 479.92 465.02 473.84 463.16 478.4C461.3 482.96 452.18 488.95 449.18 490.85C442.24 495.41 434.16 499.31 426.08 502.07C425.77 503.97 428.77 503.12 430.02 502.93C440.27 500.84 445.56 497.89 454.26 493.23C455.4 492.66 457.47 491.14 458.51 492.66C448.15 503.5 431.16 512.53 415.42 514.14C414.18 517.75 421.95 516.419 424.12 516.039C435.1 514.229 447.63 507.87 456.75 502.07C458.61 506.44 448.98 511.389 445.25 513.479C432.61 520.799 415.94 525.839 401.02 526.219C401.54 528.119 403.09 528.41 405.06 528.31C409.72 528.31 418.94 526.6 423.81 525.65C435.31 523.46 445.46 518.9 456.02 514.62C448.67 524.51 431.78 529.83 419.46 532.68C407.13 535.53 404.96 536.099 401.54 536.099H384.14L395.53 538.289C414.07 539.239 431.68 535.629 448.77 529.539C432.3 546.649 401.12 544.46 378.13 544.94L390.66 547.13C407.13 549.6 421.22 544.849 436.24 542.849C438.73 542.469 439.55 542.28 439.14 544.94C416.87 553.88 387.97 559.01 364.56 551.31C355.96 548.46 348.51 542.28 339.7 540.57C360.11 559.2 391.59 559.49 418.73 557.01L407.03 561.099C383.83 565.569 362.28 562.72 340.84 553.69C337.42 556.83 352.54 562.91 354.62 563.58C365.91 567.29 375.03 566.34 386.32 567.95C385.91 569.95 383.94 569.95 382.18 570.14C371.61 571.28 359.7 567.95 349.24 566.81C348.41 563.96 341.99 561.58 339.71 560.25C339.09 559.39 337.43 559.299 337.33 559.109C336.5 558.159 334.33 555.5 333.7 554.74C323.86 541.43 328.31 540.289 327.38 526.789C327.28 524.789 325.41 523.459 325.31 522.799C325 520.989 324.27 519.28 324.07 518.43C323.87 517.58 324.07 517.669 324.07 517.289C323.76 514.149 324.28 510.64 324.07 507.4H325.31C326.45 508.35 327.59 508.45 327.69 508.54C328 510.44 327.17 512.82 328.62 514.81L336.08 526.12C334.01 520.51 331.52 513.1 327.69 508.53C326.76 503.3 325.93 498.55 326.45 493.13C326.45 493.13 326.97 491.99 327.59 491.99C330.49 501.12 332.25 511.949 340.74 518.419C334.73 507.009 331.83 495.99 331.21 483.25V478.88C335.97 478.5 334.21 478.69 334.84 481.54C335.88 485.91 336.81 490.19 338.98 494.28C342.19 494.28 336.08 479.74 335.98 478.88C335.88 478.02 335.98 478.12 335.98 477.74C335.77 476.41 336.08 474.79 335.98 473.37C335.46 467.29 334.53 459.68 339.61 454.64C340.02 458.44 340.54 463 341.16 467C341.37 468.71 342.4 473.75 344.47 474.41C343.85 466.71 342.71 459.11 343.33 451.31C343.95 443.51 344.88 445.51 344.57 442.47H348.2C348.51 446.75 347.68 451.5 348.2 455.68C348.41 457.58 349.34 457.77 349.44 457.87C349.44 458.54 349.34 459.39 349.44 460.06C349.85 462.15 349.85 464.91 351.2 466.62C352.34 466.62 351.72 461.39 351.82 460.06C352.03 452.84 352.55 446.28 353.06 439.15C355.03 435.63 357.51 434.02 360.21 431.45C360.42 435.16 360.62 440.01 361.45 443.52C362.28 447.03 362.28 450.08 365.08 451.22C365.6 448.18 364.04 445.33 363.94 442.47C363.73 438.1 364.15 433.63 363.94 429.26C367.25 426.31 369.12 421.18 374.71 420.51C375.85 424.22 376.26 428.11 377.51 431.73C378.76 435.35 377.82 435.06 379.58 434.77V416.609C379.58 415.279 387.04 412.139 387.97 412.709C389.01 416.889 390.15 421.07 391.91 425.07C393.67 429.06 394.4 431.25 396.36 432.48C395.32 425.64 388.38 414.229 392.94 407.859C393.87 406.529 394.39 405.669 396.36 406.049C396.88 411.559 401.95 416.51 405.89 420.31C405.58 416.51 403.2 412.9 401.64 409.38C400.08 405.86 401.33 405.29 401.12 405.01C401.85 405.01 402.78 404.91 403.5 405.01C409.71 405.96 411.27 411.76 416.65 411.09L410.02 403.959C421.83 406.999 434.36 408.429 446.58 406.149C446.89 404.249 443.89 405.1 442.44 405.1C432.81 404.81 424.93 404.049 415.51 401.769C415.82 400.149 419.65 399.3 421.21 398.73C426.39 396.92 433.43 396.539 437.06 392.929H411.27C410.65 392.929 408.68 391.31 407.13 391.79C405.37 390.27 428.05 384.279 428.67 380.859C418.93 381.809 409.92 386.18 399.98 385.23C402.57 380.67 401.74 383.229 405.88 381.329C406.71 380.949 407.02 379.9 407.23 379.81C409.72 378.57 415.31 378.379 416.76 374.299C413.24 374.299 409.2 377.15 405.99 377.63C401.43 378.3 398.64 377.059 395.22 376.489C401.85 373.069 408.69 368.98 413.14 363.28L392.84 370.98C390.04 368.51 412 358.72 410.76 354.54L397.61 361.1C395.43 359.1 409.11 348.93 406.62 345.7L398.85 351.78L406 336.95L400.3 343.22C398.54 344.74 394.4 357.95 392.95 351.78L389.32 341.32V358.34C389.32 358.82 385.49 362.05 384.56 361.1C384.87 358.34 383.73 355.97 382.7 353.4C381.67 350.83 381.46 348.27 378.56 349.03C379.6 354.92 381.87 360.44 380.94 366.62C374.41 368.14 377.42 358.06 371.41 357.87C370.79 358.44 376.69 372.789 367.78 371.079C367.99 367.089 366.54 362.52 364.78 359.01C363.02 355.5 364.99 356.25 361.88 356.82C361.15 362.05 363.95 366.04 362.5 371.17C360.01 379.82 356.6 362.229 356.08 360.519C355.56 358.809 357.01 357.38 353.49 357.95V375.54C350.9 376.02 350.69 374.4 349.86 372.88C347.48 368.7 346.75 361.66 346.34 356.91C344.27 357.39 343.85 362.61 343.85 364.04C343.85 368.6 348.1 379.15 340.95 374.5L335.56 359.1V374.5C333.07 374.79 333.59 374.69 332.87 373.17C330.9 368.89 330.59 361.67 329.56 357.01C327.9 357.39 327.18 363.09 327.18 364.23C327.18 365.37 330.08 377.159 326.04 373.549C322 369.939 319.31 358.15 318.79 354.92C316.72 354.63 317.65 357.39 317.65 358.72C317.55 361.95 317.65 364.9 318.27 368.04C312.99 363.95 312.88 357.3 311.64 351.6C308.22 352.55 312.99 363.39 308.64 362.53C304.19 361.67 300.98 353.21 302.01 349.41C300.15 348.93 301.49 353.59 298.38 351.03C295.27 348.47 295.58 336.109 301.38 336.109C307.18 336.109 312.88 345.81 318.37 346.85C323.86 347.89 329.56 347.33 332.25 346.09C334.94 344.85 332.66 343.62 332.98 342.76C325.11 344.09 322.83 346.56 314.65 342.57C313.2 341.81 305.95 336.58 305.53 335.63C304.49 333.16 312.68 333.249 313.92 331.829L321.07 329.64H323.45C326.97 329.26 332.25 327.83 335.47 326.31H337.85C338.47 327.74 340.13 327.36 341.48 327.45C342.1 329.16 343.76 332.39 343.86 333.63C344.27 339.14 334.23 340.19 333.09 342.85C333.92 342.75 335.58 344.09 337.85 343.42C340.75 342.56 348.52 335.249 348.62 332.489C348.72 329.729 346.96 329.069 346.24 327.549L345.72 327.17L345.7 327.15ZM368.38 541.5L347.97 534.94C350.35 537.79 355.95 539.98 359.67 541.31C363.4 542.64 369.72 545.779 368.37 541.599V541.5H368.38Z" fill="#F6F0E0"/>
<path d="M446.27 575.53C448.55 577.53 457.25 564.31 459.42 563.46C459.32 568.97 454.97 573.82 453.1 579.05C451.23 584.28 451.24 582.38 453.41 582.09C453.62 580 463.56 568.31 465.43 570.02L460.67 580.48C463.36 584.09 466.37 576.68 470.2 577.72L466.57 585.42C478.48 581.43 471.44 591.69 472.58 593.12L477.34 590.93C475.99 595.21 478.89 594.83 480.14 596.63C496.09 619.73 510.07 644.82 525.09 668.59C541.66 694.73 561.76 722.11 576.98 748.44C578.33 750.72 581.54 754.52 579.26 756.33C576.98 758.14 566.21 761.37 563.1 762.41C542.07 769.54 520.01 774.39 497.84 777.33L458.58 701.19L454.75 698.72L482.3 779.99C467.28 778.94 451.74 783.22 437.35 778.94C430.31 754.32 421.81 729.89 412.91 705.84C400.17 671.43 384.11 639.02 370.44 605.27C366.5 595.48 362.36 586.73 375.83 582.17C375.62 584.26 374.28 585.31 375.21 587.59C376.66 591.3 387.12 601.37 390.44 606.7C415.61 648.14 432.6 708.69 452.8 753.85C453.84 756.23 454.66 760.03 457.25 761.26C444.3 711.55 430.11 659.93 409.09 612.59C406.81 607.55 397.28 593.1 397.39 589.21C397.39 586.17 405.88 584.93 408.47 585.6C414.06 587.12 427.43 608.32 430.53 613.83L475.17 697.57C474.44 688.06 468.85 678.65 465.54 669.62C457.56 647.66 438.3 601.37 436.95 580.36C436.64 576.08 437.88 574.18 440.58 570.76L454.77 556.88L446.38 575.51H446.28L446.27 575.53Z" fill="#F6F0E0"/>
<path d="M182.87 445.87C182.14 443.3 183.39 438.84 182.87 435.98L175.72 442.54V428.28L169.71 435.98L172.09 409.65L166.39 426.95L163.7 428.38C159.14 417.16 173.64 398.63 184.93 395.68C186.48 395.3 189.49 394.54 188.87 397.11C183.48 400.34 179.03 403.38 175.72 408.61C180.38 409.18 182.14 404.71 185.35 402.62C193.95 397.01 196.12 398.63 203.79 404.24C215.81 412.99 231.03 425.25 242.11 434.94C253.19 444.64 258.27 451.76 266.66 459.94C268.21 466.4 247.7 485.89 241.49 488.84C235.28 491.79 239.83 488.65 239.11 488.84L253.92 474.49L259.41 464.7C251.64 471.45 245.22 481.81 234.24 484.47C231.65 482 244.49 474.3 245.84 473.06C247.19 471.82 247.6 470.3 248.64 469.07C251.44 465.93 254.85 462.99 255.89 458.61C253.92 456.23 253.82 458.71 253.09 459.47C251.02 461.56 249.15 463.94 248.64 466.88L230.72 480.09C229.58 480.19 228.23 479.9 227.09 480.09C229.99 474.58 238.79 469.06 241.49 464.12C244.19 459.18 241.8 462.12 240.35 462.5C240.14 466.11 223.47 475.71 222.43 474.57C222.84 466.49 233.62 461.93 234.96 453.75C229.16 459.26 222.94 465.92 215.18 469.15C214.77 468.67 214.35 468.39 213.94 468.01L212.7 458.12C209.07 458.31 208.76 461.73 207.94 462.49C207.12 463.25 206.18 462.39 205.56 462.49C205.87 459.92 206.29 457.45 206.7 454.89C203.59 454.79 201.31 452.8 198.72 451.94C195.82 450.99 191.78 454.03 192.4 446.05L188.88 448.24L187.02 443.87L185.26 448.24C184.74 447.48 182.98 446.43 182.88 446.05V445.86L182.87 445.87Z" fill="#F6F0E0"/>
<path d="M272.67 355.76C271.84 357.57 271.94 360.51 269.04 361.27C268 355.38 270.28 350.34 271.42 344.83C267.59 346.92 267.38 353.39 261.89 353.58L264.27 341.51L254.74 347.02L255.88 337.13L251.12 342.07C246.25 342.55 251.12 334.85 249.88 333.8H245.12L247.61 328.86C242.74 328.86 248.44 318.31 250.1 315.84C255.38 308.05 272.68 300.25 282.62 302.25C292.56 304.25 305.2 319.36 307.48 327.25C295.46 329.25 282 334 280.03 346.55C278.58 355.96 285.62 364.23 273.92 368.98C274.13 365.37 274.65 361.66 275.06 357.95C275.37 355.76 277.44 352.34 276.2 349.2C274.13 349.96 273.51 353.86 272.57 355.76H272.67Z" fill="#F6F0E0"/>
<path d="M416.86 753.57C417.69 753.57 419.35 751.76 421 752.52C424 760.69 429.91 769.44 432.6 777.61C432.91 778.47 433.74 779.89 432.39 779.99L398.31 776.66L422.24 772.29L393.55 770.1V766.87C401.42 765.35 409.92 765.25 417.68 763.26C418.92 762.97 421.31 762.97 420.99 761.45C416.02 761.64 392.19 761.45 389.81 758.5C387.43 755.55 388.67 755.17 388.67 753.75C397.99 753.37 407.52 754.32 416.84 753.75V753.56L416.86 753.57Z" fill="#F6F0E0"/>
<path d="M410.12 728.47C410.74 728.85 413.95 738.26 412.09 738.26C401.32 734.46 380.29 741.68 378.01 727.8L410.22 728.47H410.12Z" fill="#F6F0E0"/>
<path d="M384.54 722.86C376.88 722 372.73 719.44 372.52 711.93C380.81 715.73 394.79 712.41 402.25 714.02C403.8 714.4 405.98 721.05 405.46 722.86C398.83 722.29 391.06 723.62 384.54 722.86Z" fill="#F6F0E0"/>
<path d="M418.72 750.329C417.58 751.379 389.61 748.899 387.23 747.949C384.64 746.899 384.12 742.909 384.02 740.439C392.41 743.579 408.46 739.489 415.61 741.679C422.76 743.869 418.82 748.049 418.72 750.329Z" fill="#F6F0E0"/>
<path d="M398.32 708.51C389.83 707.37 368.39 710.79 368.39 699.76C378.02 701.09 396.46 696.91 398.32 708.51Z" fill="#F6F0E0"/>
<path d="M385.78 687.69C386.82 687.98 392.1 694.63 391.17 695.39C382.78 696.06 374.6 693.96 366.21 694.15L363.62 687.78C369.52 688.73 380.61 686.45 385.79 687.78V687.68L385.78 687.69Z" fill="#F6F0E0"/>
<path d="M382.78 682.18C382.05 682.85 363.1 681.889 361.44 680.849C359.78 679.809 358.33 674.859 358.85 674.479C367.03 677.429 383.19 671.06 382.78 682.18Z" fill="#F6F0E0"/>
<path d="M373.66 666.4C375.01 667.64 377.39 667.64 376.77 670.11C368.59 667.54 355.33 672.87 354.09 662.41C362.89 662.6 367.24 660.6 373.67 666.4H373.66Z" fill="#F6F0E0"/>
<path d="M367.24 657.94C359.99 657.75 351.6 660.22 350.46 651.38C357.3 651.48 366.93 649.29 367.24 657.94Z" fill="#F6F0E0"/>
<path d="M357.51 639.499L358.86 645.959C353.16 645.769 346.74 647.959 345.71 641.019C344.68 634.079 345.81 639.589 347.47 639.399C349.13 639.209 356.79 639.109 357.52 639.589V639.489L357.51 639.499Z" fill="#F6F0E0"/>
<path d="M230.72 350.24C230.93 350.24 231.96 349 233.62 349C237.97 349 243.56 353.18 246.88 355.65C259.52 365.25 277.13 384.55 288.73 396.33C291.63 399.28 297.43 407.74 299.3 409.26C301.17 410.78 301.89 409.26 302.61 410.21C303.85 411.83 303.34 415.53 303.75 416.2C301.89 416.1 302.82 417.91 302.51 418.39C297.33 426.37 293.08 435.5 283.76 440.25C274.44 445 279.72 442.44 278.58 441.01C285.31 435.02 292.15 427.32 295.57 419.24C298.99 411.16 297.54 415.91 295.88 415.15C289.15 426.08 280.86 435.78 268.33 441.48C272.78 433.59 281.59 428.08 283.35 418.48C281.38 419.43 280.97 422 279.21 423.99C277.45 425.98 262.84 439.39 261.81 438.25L266.57 423.99L255.8 435.02L258.18 425.13L251.03 431.69L252.17 420.66C247.82 420.47 247.41 425.98 243.78 427.22L247.3 411.82L238.39 421.71C234.04 420.85 241.7 410.3 240.15 407.45L231.24 416.29C231.03 411.63 235.9 408.31 234.24 403.08L227.61 410.78L224.61 409.07L226.99 400.9L219.84 407.46L220.98 397.57L216.22 399.19L219.85 389.3L210.32 395.38L212.08 379.98L203.07 391.01L206.59 374.57C200.89 380.65 203.38 378.37 197.06 376.76C200.17 361.36 213.22 352.71 229.38 350.43L222.23 357.56C225.75 359.37 231.03 353.95 230.62 350.43L230.72 350.24Z" fill="#F6F0E0"/>
<path d="M350.46 635.98H343.31V630.47C348.59 629.99 351.29 630.47 350.46 635.98Z" fill="#F6F0E0"/>
<path d="M313.38 310.7C313.9 305.38 315.97 302.43 317.01 297.49C315.04 295.4 309.76 305.85 308 306.24C306.34 299.49 313.8 293.6 313.39 286.47L302.62 299.68C301.79 293.12 303.14 287.89 307.38 282.67L296.61 288.75L298.99 278.86L295.47 280.48C302.31 265.08 324.99 255.86 340.32 267.84C345.29 271.64 362.69 298.16 365.39 304.15C368.09 310.14 366.43 306.91 366.01 308.43C361.76 308.14 345.6 316.6 343.33 315.08L345.71 311.85C342.5 310.99 343.85 313.18 342.5 314.04C341.15 314.9 335.04 318.32 334.32 318.41C328.52 319.36 339.6 310.14 339.08 308.52L322.3 320.59C323.96 314.32 330.69 310.8 333.69 305.19C332.03 303.76 318.46 315.84 317.53 318.4C316.49 317.83 316.8 315.17 316.91 314.03C317.32 309.09 322.61 308.71 322.92 303L313.39 310.7H313.38Z" fill="#F6F0E0"/>
<path d="M252.27 529.42C252.06 530.37 252.58 531.99 252.27 532.75C249.27 540.54 249.89 547.01 241.5 550.34C240.77 544.64 245.33 534.66 249.37 530.57C250.51 529.43 251.86 529.81 252.27 529.52V529.42Z" fill="#F6F0E0"/>
<path d="M337.31 559.08C334.62 557.56 335.03 558.13 332.55 555.75L333.79 554.61C334.41 555.37 336.59 558.03 337.42 558.98L337.32 559.08H337.31Z" fill="#F6F0E0"/>
<path d="M349.22 566.78C349.63 568.3 348.81 570.87 349.22 572.29H346.84L345.08 571.15L344.46 572.29C341.66 572 338.97 571.15 336.07 571.15L343.22 570.01L337.21 566.68L343.22 565.54C341.25 564.11 340.53 561.26 339.59 560.03C341.97 561.36 348.39 563.83 349.12 566.59L349.22 566.78Z" fill="#F6F0E0"/>
<path d="M248.64 551.38C247.19 554.61 248.12 556.89 248.64 560.13L239.73 563.55C233.31 562.03 246.88 549.67 248.64 551.48V551.38Z" fill="#F6F0E0"/>
<path d="M303.75 416.21C304.68 417.64 306.55 416.97 307.38 422.77C308.21 428.57 307.28 424.29 307.38 424.96C303.65 429.14 300.96 432.18 296.61 435.99C298.37 432.57 300.86 427.43 302.1 423.92C303.34 420.41 302.31 420.02 302.62 418.41C302.93 416.8 304.48 418.12 303.86 416.22H303.76L303.75 416.21Z" fill="#F6F0E0"/>
<path d="M271.43 467.83C271.12 468.21 270.5 468.59 270.19 468.97C268.12 471.63 268.95 470.68 267.81 473.34C264.6 474.58 261.28 478.38 258.28 481.04C258.59 480.56 258.07 478.95 258.9 477.81C261.49 474.2 266.56 470.78 266.67 465.64L271.43 467.83Z" fill="#F6F0E0"/>
<path d="M254.65 484.37C253.92 485.51 252.99 486.56 252.27 487.7H251.03C251.03 487.6 249.17 486.65 250.3 485.51C251.43 484.37 253.82 484.75 254.55 484.46L254.65 484.36V484.37Z" fill="#F6F0E0"/>
<path d="M229.48 540.36C229.48 540.26 231.14 540.65 231.86 539.6C233.52 537.22 236.73 530 239.11 532.19C238.7 533.33 238.49 534.95 237.87 535.99C236.01 539.51 228.75 547.59 224.72 549.2C226.58 546.63 228.86 545.11 229.28 544.54C230.11 543.3 229.18 541.12 229.49 540.36H229.48Z" fill="#F6F0E0"/>
<path d="M296.6 435.98C295.15 438.83 291.11 442.63 288.21 444.73C285.31 446.83 282.1 447.39 280.23 450.15C278.88 450.53 278.88 449.29 278.57 449.1C282.2 447.29 286.23 444.44 289.45 441.97C292.67 439.5 294.63 437.5 296.6 435.89V435.99V435.98Z" fill="#F6F0E0"/>
<path d="M368.38 541.5C369.73 545.68 361.65 541.88 359.68 541.21C355.95 539.88 350.46 537.79 347.98 534.84L368.39 541.4V541.5H368.38Z" fill="#F6F0E0"/>
<path d="M248.64 466.78C249.16 463.93 251.02 461.46 253.09 459.37C255.16 457.28 253.92 456.14 255.89 458.51C254.96 462.79 251.44 465.73 248.64 468.97C248.64 468.3 248.54 467.45 248.64 466.78Z" fill="#F6F0E0"/>
</svg>
