<svg width="932" height="800" viewBox="0 0 932 800" fill="none" xmlns="http://www.w3.org/2000/svg">
<g clip-path="url(#clip0_16_91)">
<path d="M728.74 619.54C727.19 620.78 717.24 614.03 715.17 612.79C706.88 607.47 697.25 600.62 689.38 594.73C681.51 588.84 672.91 582.85 674.88 581.14C678.4 581.9 682.65 584.28 685.55 586.18C698.08 593.97 714.97 606.52 726.26 615.84C727.61 616.98 729.26 617.46 728.75 619.55L728.74 619.54Z" fill="#F6F0E0"/>
<path d="M292.98 660.22C292.98 662.5 293.19 664.78 292.67 667.06C290.91 675.52 274.54 701.09 268.23 707.84C266.99 709.17 269.47 711.74 264.29 710.69C273.61 695.29 279.93 678.18 289.36 662.88C290.29 661.36 290.4 659.65 292.99 660.22H292.98Z" fill="#F6F0E0"/>
<path d="M267.08 636.36C256.62 647.58 247.71 660.79 237.46 672.39C227.21 683.99 237.46 675.15 234.35 674.48C233.94 672.48 234.56 671.25 235.49 669.44C238.49 663.55 255.9 640.16 260.76 635.51C265.63 630.85 264.7 630.66 268.42 631.71C272.15 632.76 267.9 635.61 267.18 636.46L267.08 636.36Z" fill="#F6F0E0"/>
<path d="M237.87 621.719C228.44 625.239 222.75 637.019 215.19 642.159C213.53 643.299 212.7 644.16 210.32 643.78C215.19 639.03 227.2 618.109 231.86 615.739C234.86 614.219 238.39 621.159 237.87 621.819V621.719Z" fill="#F6F0E0"/>
<path d="M211.56 595.39C212.29 599.1 210.42 600.33 208.04 602.52C200.79 609.17 190.22 614.31 183.6 621.82L178.11 622.87C180.49 619.92 208.87 592.64 211.67 595.4H211.57L211.56 595.39Z" fill="#F6F0E0"/>
<path d="M303.75 721.72C303.34 722.01 299.71 722.67 300.33 720.2C301.26 716.49 303.33 710.41 304.89 706.8C306.45 703.19 305.2 703.47 307.38 703.09C309.76 705.56 304.58 721.06 303.75 721.72Z" fill="#F6F0E0"/>
<path d="M301.37 722.859L300.74 726.089L298.98 724.479V722.859H301.37Z" fill="#F6F0E0"/>
<path d="M616.25 568.97C618.01 569.54 620.19 569.45 621.84 570.4C629.09 574.77 644.52 589.51 651.67 595.78C664.1 606.81 676.94 618.78 688.65 630.48C696.11 637.89 703.57 645.78 709.57 654.15C708.33 656.05 706.98 653.67 705.94 653.01C685.02 638.47 663.78 614.42 644.93 596.93C635.5 588.18 624.84 580.58 616.13 571.17V568.98H616.23L616.25 568.97Z" fill="#F6F0E0"/>
<path d="M618.22 605.66C629.3 615.17 644.01 632.56 653.85 643.87C663.69 655.18 676.74 669.06 679.74 675.05C680.67 676.76 681.19 678.09 680.88 680.09L609.1 602.62C609.1 598.06 616.97 604.71 618.22 605.76V605.66Z" fill="#F6F0E0"/>
<path d="M269.05 287.6C265.11 288.08 261.7 289.88 258.38 287.03L172.1 218.4C174.38 218.02 175.62 218.5 177.49 219.45C185.67 223.35 204.01 238.18 212.6 244.35C229.17 256.14 252.58 271.35 267.19 284.37C268.33 285.42 269.47 285.8 269.05 287.6Z" fill="#F6F0E0"/>
<path d="M136.05 281.14L224.61 318.5L223.37 323.82C219.74 324.39 216.64 322.68 213.53 321.54C187.53 311.94 161.95 294.54 135.85 284.37L133.78 281.04H136.16L136.06 281.14H136.05Z" fill="#F6F0E0"/>
<path d="M289.87 165.17C299.71 171.92 327.06 218.78 331.61 230.76C332.23 232.47 332.85 234.09 332.54 235.99C324.98 229.05 318.66 218.98 313.17 210.32C303.74 195.68 295.98 180 287.07 165.07C290.28 161.74 288.83 164.5 289.87 165.17Z" fill="#F6F0E0"/>
<path d="M362.48 68.9699L366 71.7299C368.49 95.7799 382.16 123.06 383.92 146.54C383.92 147.97 383.92 151.29 382.26 151.29C377.29 151.29 362.06 77.2399 362.48 68.8799V68.9799V68.9699Z" fill="#F6F0E0"/>
<path d="M286.97 220.59L228.34 151.39C231.34 150.91 232.48 152.44 234.35 154.05C242.33 161.18 252.89 173.82 259.93 182.19C266.97 190.55 280.96 206.9 286.96 220.5V220.6L286.97 220.59Z" fill="#F6F0E0"/>
<path d="M449.8 129.33C446.38 132.18 445.04 119.25 444.93 117.83C444.41 110.7 444 102.91 443.69 95.8701C443.07 79.5201 443.38 62.0301 444.93 45.8701L447.31 61.8401C447.93 79.0501 449.07 96.2501 449.69 113.46C449.9 118.69 452.28 123.63 449.69 129.43L449.79 129.33H449.8Z" fill="#F6F0E0"/>
<path d="M128.7 310.89C128.91 310.99 128.91 312.6 130.56 313.08C152.52 319.07 171.78 324.96 192.09 333.71C193.95 334.47 201.41 333.9 200.69 338.18C174.8 330.77 148.69 323.35 124.04 312.9C123.83 311.28 127.67 310.52 128.6 310.9H128.7V310.89Z" fill="#F6F0E0"/>
<path d="M327.36 82.3798C332.85 100.44 341.86 118.12 343.21 137.04C340.21 137.8 339.9 134.47 339.07 132.67C336.48 126.97 322.29 83.1498 324.05 81.0498L327.36 82.3798Z" fill="#F6F0E0"/>
<path d="M163.71 385.41C165.37 387.03 163.71 387.41 161.95 387.6C156.77 388.17 150.56 387.22 145.17 387.6L106.22 379.9C112.75 379.14 161.64 383.51 163.71 385.41Z" fill="#F6F0E0"/>
<path d="M143.3 442.54L140.3 445.87L98.97 447.01C99.7 445.11 104.98 444.06 106.84 443.78C114.71 442.64 128.8 441.59 136.67 441.5C138.95 441.5 141.02 442.74 143.3 442.64V442.54Z" fill="#F6F0E0"/>
<path d="M235.49 197.49C233.21 197.97 232.69 196.35 231.35 195.3C226.38 191.5 221.92 186.08 216.95 182.09L202.03 164.5C204.31 164.02 204.83 165.64 206.17 166.69C211.66 170.87 219.22 178.19 224.19 183.13C225.85 184.84 236.93 196.06 235.58 197.39L235.48 197.49H235.49Z" fill="#F6F0E0"/>
<path d="M100.84 421.73C100.43 421.63 98.66 419.83 99.08 419.54C103.02 421.06 105.09 418.87 108.09 418.49C116.07 417.44 126.42 416.68 134.4 417.25C142.27 417.82 140.61 421.72 135.54 421.72C127.77 421.72 106.74 423.15 100.84 421.72V421.73Z" fill="#F6F0E0"/>
<path d="M154.08 473.341C154.39 473.631 154.49 475.911 153.35 476.671C150.35 478.951 126.94 482.941 122.17 483.131C119.99 483.231 118.44 483.421 116.99 481.511C121.34 479.991 152.83 472.001 154.07 473.241V473.341H154.08Z" fill="#F6F0E0"/>
<path d="M261.59 127.43C263.25 128.38 280.13 155.38 278.58 156.9C276.4 157.28 275.58 155.95 274.44 154.62C270.92 150.63 265.22 140.93 262.32 135.99C259.42 131.05 254.76 123.35 261.49 127.43H261.59Z" fill="#F6F0E0"/>
<path d="M606.62 22.7798C606.72 23.0698 607.76 25.9198 607.86 26.1098C609 33.7098 604.34 35.3298 604.23 37.6098C604.12 39.8898 609.62 47.5898 609.93 52.1498C610.55 60.9898 599.57 74.9598 592.94 81.0498C588.49 85.0398 585.28 85.7098 580.72 88.4598C579.58 89.1298 578.54 88.3598 579.17 90.9298C618.43 97.9598 659.34 112.22 681.92 144.45C686.27 150.72 690.93 158.33 691.76 165.65C692.38 166.41 697.46 159.76 698.91 161.28C700.98 163.37 695.18 166.7 694.66 167.93C692.48 172.59 705.02 196.54 711.44 199.77C714.13 198.15 726.04 184.28 728.84 186.65C728.43 191.21 714.75 198.53 715.79 202.43C730.6 212.6 749.97 213.27 767.68 215.26C769.13 215.45 770.37 216.78 771.62 216.97C779.18 218.11 777.83 216.21 775.35 211.55C751.11 165.92 697.35 115.92 652.09 87.3098C646.81 83.9798 630.86 76.7598 627.65 73.4298C624.44 70.0998 624.96 60.9798 623.4 55.8398C624.75 54.6998 642.46 64.3998 645.36 65.9198C698.91 95.3898 747.59 141.87 780.32 190.44C783.32 194.91 796.58 214.49 796.89 217.91C797.2 221.33 795.75 220.57 795.85 220.67C796.16 221.15 805.38 222.57 807.87 223.43C813.05 225.24 819.99 228.85 824.65 231.7C829.31 234.55 829.93 234.46 830.66 235.03C841.85 243.3 858.11 264.78 857.07 278.38C856.76 282.94 854.48 285.22 852.2 288.84C849.92 292.45 850.54 292.07 849.82 293.21C847.44 296.92 837.91 306.52 839.25 311.18C840.6 315.84 854.79 322.49 858.21 324.01C861.63 325.53 859.76 324.87 860.59 325.15C882.13 332.75 909.69 327.34 931.23 321.82C924.91 348.06 909.58 374.29 889.9 394.35C883.48 400.91 875.81 406.71 868.98 412.98C862.14 419.25 867.53 414.31 866.6 415.17C844.85 436.08 832.83 461.65 818.85 487.32C807.35 508.61 795.54 538.56 781.77 557.76C771 572.68 739.1 576.96 721.07 575.63C698.39 574.01 678.5 563.94 659.44 553.67C658.2 553 657.58 551.39 654.68 550.34C651.88 547.87 647.84 542.36 645.15 540.45C644.94 538.55 641.73 538.45 641.52 538.26C636.65 532.46 631.58 514.4 631.89 506.89C632.2 499.38 648.15 467.44 644.94 462.59C641.73 457.74 605.79 457.84 598.43 456.89L638.93 473.52L639.14 476.66C636.96 478.66 590.56 460.88 583.83 458.79C572.64 455.27 553.58 449.09 542.5 447.29C531.42 445.49 538.36 446.91 536.18 447L562.07 461.16C586.31 469.72 609.82 479.51 633.13 489.96L631.99 496.52C630.33 496.71 628.78 496.42 627.23 496.04C611.9 492.05 587.04 476.46 570.57 469.99C562.59 466.85 553.27 462.86 544.68 462.48L570.89 477.4L628.48 514.66C630.14 515.8 630.97 523.98 627.96 522.83C608.69 511.14 589.43 499.26 569.44 488.61C559.7 483.38 547.9 476.82 537.95 472.55C528 468.28 534.84 470.93 532.77 471.31C540.02 478.72 549.65 484.05 557.94 490.51C577.83 506.19 600.1 528.53 621.33 541.65C621.85 542.03 622.37 543.36 623.71 543.84L627.34 547.17C629.62 551.73 634.38 550.21 634.49 553.73L633.25 557.06C631.49 557.35 630.56 556.39 629.31 555.73C598.13 539.86 569.75 509.44 538.57 491.76C534.63 489.48 528.63 485.2 524.28 486.15L590.16 549.93C590.68 552.59 587.98 551.64 586.53 551.07C585.08 550.5 578.76 546.32 577 544.99C575.24 543.66 576.9 543.18 575.76 542.33C571.2 538.81 565.61 534.44 560.33 532.35C564.06 538.43 570.79 542.33 575.87 547.18C578.77 550.03 613.88 583.97 611.81 585.68C608.08 585.68 604.15 582.64 601.14 580.64C577.21 564.58 550.59 536.25 526.77 517.05C521.07 512.49 516.1 506.97 510.51 502.32C504.92 497.67 508.23 499.47 507.71 502.22C512.68 504.6 514.86 511.92 518.17 516.29C546.86 554.69 578.14 591.67 605.9 631.31C619.47 650.61 641.43 679.41 651.58 699.27C652.82 701.74 654.27 703.64 653.76 706.59C624.55 666.95 596.69 626.46 565.72 587.96C551.63 570.56 535.99 551.08 520.87 534.63C517.97 531.4 503.78 516.38 501.09 515.33C498.4 514.28 498.81 515.62 499.33 516.95L532.58 573.32C562 613.05 591.21 658.68 610.78 704.59C611.19 705.45 612.64 705.54 612.96 706.3C613.37 707.54 614.72 713.62 614.31 714.19L612.55 713.05C585.62 665.81 559.31 615.81 524.61 574.84L488.05 522.94C485.67 522.46 485.98 523.8 486.6 525.41C499.55 559.25 518.71 596.51 536.32 628.07C538.08 631.11 549.68 650.12 548.54 651.45C545.33 652.12 546.47 650.69 545.54 649.26C519.85 610 490.23 570.55 476.66 526.16C473.45 525.87 474.69 526.16 474.28 527.78C473.45 530.92 470.45 541.56 471.17 543.75C496.55 584.91 522.65 625.88 548.54 666.85C554.96 677.12 560.35 688.71 568.84 697.65C570.5 710.2 597.12 737.67 601.78 751.45C606.44 765.23 601.99 755.44 597.53 754.21C550.5 684.06 506.07 612.1 461.53 540.43C463.5 533.02 467.12 526.08 469.09 518.66C472.61 505.54 473.23 492.04 476.03 478.83C480.28 459.06 494.67 415.52 492.08 398.13C491.15 392.14 485.35 385.2 481.72 380.16C466.29 359.25 444.74 341.66 433.56 318.28C465.57 325.79 502.54 349.27 512.49 379.31C515.08 387.01 515.6 395.18 517.98 402.88C526.06 429.4 550.3 441.09 577.23 448.51C583.03 450.13 584.07 450.03 589.66 450.51C602.71 451.56 617.83 451.84 630.47 453.55C649.94 456.12 654.5 458.59 648.49 476.46C642.48 494.33 634.4 501.08 640.1 520.47C651.91 560.58 743.37 588.43 776.51 555.55C799.4 519.05 815.04 476.94 838.45 441.01C859.89 408.03 892.31 390.73 911.68 356.6C914.89 350.9 922.35 336.73 923.18 330.84C923.49 329.03 923.39 329.03 921.52 329.32C912.4 330.37 903.29 333.22 893.86 333.69C876.35 334.55 842.48 329.13 834.51 312.4C830.06 303.08 847.46 290.35 850.46 281.79C857.61 261.73 829.33 238.92 812.24 230.65C786.97 218.39 756.62 222.29 729.48 214.3C687.12 201.75 695.92 169.62 674.69 142.63C649.21 110.31 610.16 104.23 571.32 93.0098C568.63 89.3998 582.92 82.7398 585.61 80.4598C591.31 75.6098 603.01 62.2098 603.94 55.4598C604.87 48.7098 601.87 41.4898 596.28 38.6398C596.28 34.6498 608.09 32.7498 598.66 21.0498C593.69 14.8698 586.23 11.3498 577.74 12.8798C574.43 13.4498 572.56 16.5898 569.25 17.1598C559.72 18.7798 552.78 14.1198 544.81 23.2398C541.6 26.8498 532.38 45.2898 530.72 49.9498C529.58 53.1798 529.68 63.0698 528.96 64.2998C528.24 65.5298 526.47 65.1598 525.65 66.1098C520.89 71.6198 516.02 77.1398 511.36 82.6498C459.26 144.15 407.47 205.84 354.33 266.49C351.74 267.82 344.49 260.41 340.97 258.79C323.98 251.09 304.2 256.7 292.91 270.01C281.62 283.32 284.73 289.12 280.38 292.54C276.55 295.49 265.67 297.29 259.97 300.14C247.54 306.32 239.98 315.16 235.84 327.42C231.7 339.68 235.22 337.31 231.9 340.25C228.58 343.19 214.6 345.48 208.91 348.81C200.93 353.37 192.96 361.64 190.06 369.91C187.16 378.18 188.92 382.36 186.33 386.26C183.74 390.16 175.56 392.82 171.52 395.77C155.47 407.46 152.56 423.53 161.16 440.26C166.96 451.57 167.58 453 171.41 465.45C175.24 477.9 172.34 467.73 172.65 468.78C173.79 472.77 178.24 482.47 176.9 485.22C128.74 536.74 85.54 591.49 38 643.49C34.37 647.48 25.57 658.03 21.84 660.6C13.76 666.11 2.78003 665.83 6.82003 679.8C8.37003 685.41 12.52 688.16 15.83 691.87C19.14 695.58 17.49 695.2 19.35 696.91C33.44 709.74 65.65 726 66.69 695.2C109.16 647.86 148.73 598.15 190.47 550.53C232.21 502.91 191.2 544.83 195.44 547.39C199.68 549.95 203.52 558.04 204.97 560.03C207.35 563.26 209.73 566.68 212.12 569.92C216.16 575.34 218.54 578.09 222.89 583.13C227.24 588.17 223.3 585.7 224.24 586.84C244.65 610.79 280.38 608.89 301.72 630L361.17 777.62C376.91 783.61 394.11 786.37 410.89 788.65C412.03 788.84 413.38 788.46 414.52 788.65C517.89 801.58 635.97 759.66 715.01 683.14C741.73 657.28 758 635.52 777.47 604.72C786.69 590.08 801.81 567.65 808.13 552.63C815.59 534.66 821.08 515.08 829.05 497.12L838.27 478.68C815.79 632.77 686.94 775.73 516.65 795.88C368.22 813.37 248.79 769.45 163.03 670.41C157.95 664.52 142.42 646.74 140.04 641.04C137.66 635.34 138.59 637.71 139.31 635.53C140.03 633.35 146.77 624.6 148.11 624.88C149.97 625.26 166.34 650.26 169.76 654.44C210.36 703.87 266.5 745.22 329.17 768.6L353.41 776.01L296.44 632.67C281.73 619.84 260.39 617.75 242.89 608.15C219.17 595.22 209.33 576.4 193.59 556.72L73.96 696.36C69.82 701.68 70.54 709 65.57 713.85C49.41 729.72 13.26 702.44 4.56003 688.47C-5.58997 672.22 2.38003 663.57 18.75 656.63C39.98 633.34 59.87 609.01 80.48 585.24C81 584.67 82.03 584 82.86 583.05C86.07 579.34 98.6 567.65 98.4 563.94C47.65 446.64 55.93 310.52 124.5 200.92C199.24 81.5198 344.77 2.0498 497.44 18.2098C510.08 19.5398 522.3 22.3898 534.73 24.7698C539.29 24.9598 539.81 20.1098 542.5 17.5498C549.85 10.5198 558.24 12.9898 566.43 11.4698C574.62 9.9498 567.26 10.4198 567.67 10.3298C575.96 7.8598 577.82 5.5798 587.76 7.7598C594.7 9.2798 604.33 16.4098 607.13 22.3998L606.61 22.7798H606.62ZM240.36 305.19C245.33 304.9 249.27 299.77 253.93 297.3C258.9 294.64 273.92 290.08 276.3 288.17C278.68 286.26 280.55 277.81 282.31 274.48C278.58 274.48 275.99 272.1 273.3 270.11C258.59 259.18 242.23 239.6 228.45 226.67C214.67 213.74 197.89 200.24 183.6 186.46C182.46 185.32 181.32 183.51 180.49 182.18C183.08 180.09 199.76 195.39 203.28 197.01L284.28 268.87C288.84 270.01 291.32 260.12 296.61 260.22V258.6L261.91 215.16L268.64 218.87L302.61 253.09C306.75 255.47 316.9 249.57 321.77 249.19L291.21 196.43C297.11 201.66 302.4 207.55 307.16 213.64C311.92 219.73 326.63 245.67 331.6 249.95C336.57 254.23 340.4 253.18 342.89 254.42C349.21 257.46 355.22 265.92 353.25 252.61C335.33 206.22 312.34 160.41 294.52 114.21C276.7 68.0098 289.55 101.66 288.2 95.2898L361.22 248.04C365.47 245 371.58 239.77 370.75 234.45C363.09 206.31 352 178.84 346.93 150.23C350.14 149.66 349 150.9 349.83 152.42C355.63 163.26 361.53 179.7 366.09 191.39C370.65 203.46 375.1 215.82 378 228.27C382.76 223.8 387.53 218.29 390.02 212.4C390.12 205.75 380.08 168.77 382.77 165.63C385.57 165.06 384.74 165.92 385.46 167.06C391.57 176.09 394.68 195.67 397.16 206.32C399.65 204.8 405.14 199.67 406.07 197.48C409.07 190.64 405.76 166.97 405.45 158.6C404.93 140.35 405.45 121.91 403.07 103.66V53.5698L405.56 57.3698L413.95 186.55C418.71 182.84 433.22 167.92 433.01 163.07C432.8 158.22 430.63 158.22 430.63 157.46V123.43C430.63 123.24 431.77 120.2 433.01 120.67L438.4 159.17C451.45 142.63 466.88 127.8 479.11 110.88C481.08 91.7698 480.66 72.4798 485.01 53.6598L486.87 66.2998C486.46 78.5598 484.38 90.8198 486.25 103.18L522.81 60.8798L529.96 38.9198C434.67 18.3898 334.82 39.3998 255.37 90.2498C108.81 184.09 49.67 359.37 97.11 516.5C99.7 525.06 104.05 540.64 108.19 548.06C112.33 555.48 108.29 550.15 110.26 549.39C112.23 548.63 120 540.64 121.65 538.93C138.84 521.34 153.86 500.81 170.54 482.66C171.16 480.19 165.98 470.87 165.05 467.26C164.12 463.65 164.95 460.89 163.91 457.28C162.25 450.82 156.14 445.49 153.34 439.5C144.02 419.16 153.03 403.47 170.12 390.07C172.19 388.45 178.51 385.79 179.13 384.94C181.93 380.95 180.99 371.92 182.65 366.97C180.16 369.25 121.23 355.47 113.25 353.19C105.27 350.91 107.55 352.24 107.24 350.43C109 349.95 110.14 349.67 112 349.76C126.09 350.9 147.11 355.37 161.3 358.41C165.03 359.17 179.94 362.12 181.91 363.45C183.88 364.78 182.95 366.59 182.64 366.87C185.13 359.27 202.32 344.34 210.3 341.11C214.55 339.4 223.56 339.02 226.35 336.07C229.14 333.12 230.39 322.76 232.36 318.48C234.33 314.2 237.75 309.35 240.13 305.27C237.85 305.37 235.68 305.27 233.71 304.03L151.57 251.94L149.08 247.09L242.41 299.28L243.55 301.37C242.31 302.7 240.96 303.75 240.03 305.27L240.34 305.18L240.36 305.19ZM552.75 523.91C552.65 523.81 550.37 523.43 549.12 522.29C541.56 515.73 531.72 504.32 524.05 499.1C522.39 497.96 521.56 497.1 519.18 497.48C526.95 504.23 541.04 523.34 550.98 526C553.16 526.57 553.36 524.57 552.74 523.91H552.75ZM498.89 512.88H496.51V513.93H498.89V512.88Z" fill="#F6F0E0"/>
</g>
<defs>
<clipPath id="clip0_16_91">
<rect width="931.24" height="799.62" fill="white"/>
</clipPath>
</defs>
</svg>
