<svg width="1996" height="722" viewBox="0 0 1996 722" fill="none" xmlns="http://www.w3.org/2000/svg">
<g clip-path="url(#clip0_1_235)">
<path d="M248.48 95.87C230.89 84 208.46 78.72 184.71 78.72C128.86 78.72 85.76 121.38 85.76 172.83C85.76 224.28 128.86 268.7 184.71 268.7C208.46 268.7 230.89 263.42 248.48 251.55V333.35C227.81 343.47 204.5 347.42 179.43 347.42C74.76 347.43 0 269.59 0 173.28C0 76.97 74.76 0 179.43 0C204.5 0 227.81 4.84 248.48 14.51V95.87Z" fill="#231F20"/>
<path d="M373.82 9.68018V260.36H482.89V337.76H288.5V9.68018H373.82Z" fill="#231F20"/>
<path d="M722.12 292.46H598.1L581.83 337.76H492.99L619.21 9.68018H703.21L829.43 337.76H737.95L722.12 292.46ZM698.82 226.05L660.56 117.42L621.86 226.05H698.82Z" fill="#231F20"/>
<path d="M852.73 9.68018H938.05V337.76H852.73V9.68018Z" fill="#231F20"/>
<path d="M1066.9 337.76H982.46V9.68018H1069.98L1166.29 140.74L1257.33 9.68018H1343.97V337.76H1259.53V169.76L1259.97 147.33L1168.49 273.55H1161.89L1066.46 146.01L1066.9 169.32V337.76Z" fill="#231F20"/>
<path d="M101.59 606.41H96.7499V711.08H11.4399V383H109.51C172.84 383 241.89 404.11 241.89 497.34C241.89 539.12 218.14 568.59 186.92 586.18L273.56 711.08H171.53L101.6 606.41H101.59ZM96.7499 458.64V540H112.58C141.17 540 157.88 526.37 157.88 498.66C157.88 470.95 137.65 458.64 112.14 458.64H96.7499Z" fill="#231F20"/>
<path d="M301.25 383H496.08V458.2H386.57V510.98H484.2V579.15H386.57V635.88H499.6V711.09H301.25V383.01V383Z" fill="#231F20"/>
<path d="M773.14 469.19C755.55 457.32 733.12 452.04 709.37 452.04C653.52 452.04 610.42 494.7 610.42 546.15C610.42 597.6 653.52 642.03 709.37 642.03C733.12 642.03 755.55 636.75 773.14 624.88V706.68C752.47 716.8 729.16 720.75 704.09 720.75C599.42 720.75 524.66 642.91 524.66 546.59C524.66 450.27 599.42 373.31 704.09 373.31C729.16 373.31 752.47 378.15 773.14 387.82V469.18V469.19Z" fill="#231F20"/>
<path d="M1289.44 606.41H1284.6V711.08H1199.28V383H1297.35C1360.68 383 1429.73 404.11 1429.73 497.34C1429.73 539.12 1405.98 568.59 1374.76 586.18L1461.4 711.08H1359.37L1289.44 606.41ZM1284.6 458.64V540H1300.43C1329.02 540 1345.73 526.37 1345.73 498.66C1345.73 470.95 1325.5 458.64 1299.99 458.64H1284.6Z" fill="#231F20"/>
<path d="M1489.09 383H1591.56C1683.04 383 1767.48 429.62 1767.48 546.6C1767.48 663.58 1685.24 711.08 1592.44 711.08H1489.09V383ZM1574.41 633.67H1596.84C1642.58 633.67 1682.16 605.52 1682.16 546.59C1682.16 487.66 1642.58 460.83 1596.84 460.39H1574.41V633.67Z" fill="#231F20"/>
<path d="M1979.89 457.76C1964.06 450.28 1939.87 445.01 1919.64 445.01C1895.89 445.01 1883.58 451.17 1883.58 463.92C1883.58 478.87 1899.85 488.55 1927.56 515.38C1979.45 563.76 1995.73 591.46 1995.73 625.77C1995.73 682.5 1942.52 716.37 1875.23 716.37C1849.28 716.37 1813.66 711.53 1796.51 705.38L1796.95 632.81C1814.54 639.41 1845.33 647.76 1874.35 647.76C1895.46 647.76 1909.09 638.52 1909.09 626.65C1909.09 611.7 1894.14 597.62 1864.67 570.36C1811.89 523.3 1793.86 502.63 1793.86 463.49C1793.86 418.63 1831.24 376.41 1914.8 376.41C1936.35 376.41 1961.42 378.61 1980.33 385.21L1979.89 457.78V457.76Z" fill="#231F20"/>
</g>
<defs>
<clipPath id="clip0_1_235">
<rect width="1995.72" height="721.63" fill="white"/>
</clipPath>
</defs>
</svg>
