<svg width="142" height="152" viewBox="0 0 142 152" fill="none" xmlns="http://www.w3.org/2000/svg">
<path fill-rule="evenodd" clip-rule="evenodd" d="M109.17 87.89C122.53 104.8 132.67 123.67 141.49 144.1C141.49 144.1 141.6 45.9 11.2401 0C11.2401 0 37.81 16.3 68.33 44.29C52.43 32.41 32.39 21.37 7.10004 12.47C7.10004 12.47 38.8501 31.95 71.6201 64.66C55.5801 50.16 33.69 36.38 3.79004 25.85C3.79004 25.85 28.6601 41.11 56.1201 67.09C42.8701 56.86 25.94 47.33 4.31 39.71C4.31 39.71 31.62 56.46 59.08 84.45C45.49 71.52 26.51 59.12 0 49.78C0 49.78 26.25 65.88 52.31 92.71C40.47 81.22 23.78 70.16 0.26001 61.88C0.26001 61.88 19.82 73.87 40.68 94.16C30.93 85.97 18.04 78.28 0.980042 72.27C0.980042 72.27 18 82.71 36.09 100.34C28.08 93.62 17.49 87.31 3.48999 82.38C3.48999 82.38 15.69 89.87 29.43 102.67C23.45 98.25 15.94 94.14 6.5 90.82C6.5 90.82 18.42 98.13 30.77 110.42C24.89 105.44 16.93 100.73 6.14001 97.14C6.14001 97.14 14.43 101.99 23.95 110.36C20.92 108.5 17.3101 106.79 13.0101 105.34C13.0101 105.34 30.46 116.78 37.91 133.63C37.91 133.63 39.85 129.28 36.95 123.74C41.01 128.72 42.68 134.27 45.36 140.27C45.36 140.27 47.2301 131.26 40.2501 120.91C45.1501 127.01 47.62 133.86 50.83 141.3C50.83 141.3 52.64 131.45 45.46 119.82C51.52 127.37 55.0301 135.84 59.0001 145.04C59.0001 145.04 60.7101 130.41 49.1201 114.28C57.6001 124.31 63.45 135.82 68.9 148.45C68.9 148.45 70.55 130.74 56.54 111.18C66.16 122.65 73.0401 135.76 79.2401 150.12C79.2401 150.12 80.7601 125.69 59.7601 100.7C72.7701 115.25 83.1 132.41 91.33 151.48C91.33 151.48 92.8 124.22 69.71 95.9C82.96 111 93.39 128.63 101.82 148.13C101.82 148.13 103.4 126.86 87.8801 101.82C98.6501 115.67 106.39 131.04 113.55 147.63C113.55 147.63 114.95 116.84 89.59 83.99C105.02 101.96 117.39 122.71 127.26 145.57C127.26 145.57 128.74 118.98 109.16 87.87L109.17 87.89Z" fill="white"/>
</svg>
