<svg id="claim_ico" xmlns="http://www.w3.org/2000/svg" viewBox="0 0 931.24 799.62">
  <defs>
    <style>
      .cls-1 {
        fill: #0c0b0a;
      }

      .cls-2 {
        fill: #2d2e2d;
      }

      .cls-3 {
        fill: #e83226;
      }

      .cls-4 {
        fill: #89969d;
      }

      .cls-5 {
        fill: #f6f0e0;
      }

      .cls-6 {
        fill: #0a0a0a;
      }
    </style>
  </defs>
  <circle id="bg_badge_ico" cx="456.14" cy="409.18" r="390.1"/>
  <g id="star">
    <path class="cls-5" d="M728.74,619.54c-1.55,1.24-11.5-5.51-13.57-6.75-8.29-5.32-17.92-12.17-25.79-18.06-7.87-5.89-16.47-11.88-14.5-13.59,3.52.76,7.77,3.14,10.67,5.04,12.53,7.79,29.42,20.34,40.71,29.66,1.35,1.14,3,1.62,2.49,3.71h0Z"/>
    <path class="cls-5" d="M292.98,660.22c0,2.28.21,4.56-.31,6.84-1.76,8.46-18.13,34.03-24.44,40.78-1.24,1.33,1.24,3.9-3.94,2.85,9.32-15.4,15.64-32.51,25.07-47.81.93-1.52,1.04-3.23,3.63-2.66h0Z"/>
    <path class="cls-5" d="M267.08,636.36c-10.46,11.22-19.37,24.43-29.62,36.03-10.25,11.6,0,2.76-3.11,2.09-.41-2,.21-3.23,1.14-5.04,3-5.89,20.41-29.28,25.27-33.93,4.87-4.66,3.94-4.85,7.66-3.8,3.73,1.05-.52,3.9-1.24,4.75l-.1-.1Z"/>
    <path class="cls-5" d="M237.87,621.72c-9.43,3.52-15.12,15.3-22.68,20.44-1.66,1.14-2.49,2-4.87,1.62,4.87-4.75,16.88-25.67,21.54-28.04,3-1.52,6.53,5.42,6.01,6.08v-.1Z"/>
    <path class="cls-5" d="M211.56,595.39c.73,3.71-1.14,4.94-3.52,7.13-7.25,6.65-17.82,11.79-24.44,19.3l-5.49,1.05c2.38-2.95,30.76-30.23,33.56-27.47h-.1Z"/>
    <path class="cls-5" d="M303.75,721.72c-.41.29-4.04.95-3.42-1.52.93-3.71,3-9.79,4.56-13.4s.31-3.33,2.49-3.71c2.38,2.47-2.8,17.97-3.63,18.63Z"/>
    <polygon class="cls-5" points="301.37 722.86 300.74 726.09 298.98 724.48 298.98 722.86 301.37 722.86"/>
    <g id="star_flash" data-name="star flash">
      <path class="cls-5" d="M616.25,568.97c1.76.57,3.94.48,5.59,1.43,7.25,4.37,22.68,19.11,29.83,25.38,12.43,11.03,25.27,23,36.98,34.7,7.46,7.41,14.92,15.3,20.92,23.67-1.24,1.9-2.59-.48-3.63-1.14-20.92-14.54-42.16-38.59-61.01-56.08-9.43-8.75-20.09-16.35-28.8-25.76v-2.19h.1Z"/>
      <path class="cls-5" d="M618.22,605.66c11.08,9.51,25.79,26.9,35.63,38.21,9.84,11.31,22.89,25.19,25.89,31.18.93,1.71,1.45,3.04,1.14,5.04l-71.78-77.47c0-4.56,7.87,2.09,9.12,3.14v-.1Z"/>
      <path class="cls-5" d="M269.05,287.6c-3.94.48-7.35,2.28-10.67-.57l-86.28-68.63c2.28-.38,3.52.1,5.39,1.05,8.18,3.9,26.52,18.73,35.11,24.9,16.57,11.79,39.98,27,54.59,40.02,1.14,1.05,2.28,1.43,1.86,3.23Z"/>
      <path class="cls-5" d="M136.05,281.14l88.56,37.36-1.24,5.32c-3.63.57-6.73-1.14-9.84-2.28-26-9.6-51.58-27-77.68-37.17l-2.07-3.33h2.38l-.1.1Z"/>
      <path class="cls-5" d="M289.87,165.17c9.84,6.75,37.19,53.61,41.74,65.59.62,1.71,1.24,3.33.93,5.23-7.56-6.94-13.88-17.01-19.37-25.67-9.43-14.64-17.19-30.32-26.1-45.25,3.21-3.33,1.76-.57,2.8.1h0Z"/>
      <path class="cls-5" d="M362.48,68.97l3.52,2.76c2.49,24.05,16.16,51.33,17.92,74.81,0,1.43,0,4.75-1.66,4.75-4.97,0-20.2-74.05-19.78-82.41v.1Z"/>
      <path class="cls-5" d="M286.97,220.59l-58.63-69.2c3-.48,4.14,1.05,6.01,2.66,7.98,7.13,18.54,19.77,25.58,28.14,7.04,8.36,21.03,24.71,27.03,38.31v.1Z"/>
      <path class="cls-5" d="M449.8,129.33c-3.42,2.85-4.76-10.08-4.87-11.5-.52-7.13-.93-14.92-1.24-21.96-.62-16.35-.31-33.84,1.24-50l2.38,15.97c.62,17.21,1.76,34.41,2.38,51.62.21,5.23,2.59,10.17,0,15.97l.1-.1Z"/>
      <path class="cls-5" d="M128.7,310.89c.21.1.21,1.71,1.86,2.19,21.96,5.99,41.22,11.88,61.53,20.63,1.86.76,9.32.19,8.6,4.47-25.89-7.41-52-14.83-76.65-25.28-.21-1.62,3.63-2.38,4.56-2h.1Z"/>
      <path class="cls-5" d="M327.36,82.38c5.49,18.06,14.5,35.74,15.85,54.66-3,.76-3.31-2.57-4.14-4.37-2.59-5.7-16.78-49.52-15.02-51.62l3.31,1.33h0Z"/>
      <path class="cls-5" d="M163.71,385.41c1.66,1.62,0,2-1.76,2.19-5.18.57-11.39-.38-16.78,0l-38.95-7.7c6.53-.76,55.42,3.61,57.49,5.51Z"/>
      <path class="cls-5" d="M143.3,442.54l-3,3.33-41.33,1.14c.73-1.9,6.01-2.95,7.87-3.23,7.87-1.14,21.96-2.19,29.83-2.28,2.28,0,4.35,1.24,6.63,1.14v-.1Z"/>
      <path class="cls-5" d="M235.49,197.49c-2.28.48-2.8-1.14-4.14-2.19-4.97-3.8-9.43-9.22-14.4-13.21l-14.92-17.59c2.28-.48,2.8,1.14,4.14,2.19,5.49,4.18,13.05,11.5,18.02,16.44,1.66,1.71,12.74,12.93,11.39,14.26l-.1.1Z"/>
      <path class="cls-5" d="M100.84,421.73c-.41-.1-2.18-1.9-1.76-2.19,3.94,1.52,6.01-.67,9.01-1.05,7.98-1.05,18.33-1.81,26.31-1.24,7.87.57,6.21,4.47,1.14,4.47-7.77,0-28.8,1.43-34.7,0h0Z"/>
      <path class="cls-5" d="M154.08,473.34c.31.29.41,2.57-.73,3.33-3,2.28-26.41,6.27-31.18,6.46-2.18.1-3.73.29-5.18-1.62,4.35-1.52,35.84-9.51,37.08-8.27v.1Z"/>
      <path class="cls-5" d="M261.59,127.43c1.66.95,18.54,27.95,16.99,29.47-2.18.38-3-.95-4.14-2.28-3.52-3.99-9.22-13.69-12.12-18.63s-7.56-12.64-.83-8.56h.1Z"/>
    </g>
    <path id="star-2" data-name="star" class="cls-5" d="M606.62,22.78c.1.29,1.14,3.14,1.24,3.33,1.14,7.6-3.52,9.22-3.63,11.5s5.39,9.98,5.7,14.54c.62,8.84-10.36,22.81-16.99,28.9-4.45,3.99-7.66,4.66-12.22,7.41-1.14.67-2.18-.1-1.55,2.47,39.26,7.03,80.17,21.29,102.75,53.52,4.35,6.27,9.01,13.88,9.84,21.2.62.76,5.7-5.89,7.15-4.37,2.07,2.09-3.73,5.42-4.25,6.65-2.18,4.66,10.36,28.61,16.78,31.84,2.69-1.62,14.6-15.49,17.4-13.12-.41,4.56-14.09,11.88-13.05,15.78,14.81,10.17,34.18,10.84,51.89,12.83,1.45.19,2.69,1.52,3.94,1.71,7.56,1.14,6.21-.76,3.73-5.42-24.24-45.63-78-95.63-123.26-124.24-5.28-3.33-21.23-10.55-24.44-13.88s-2.69-12.45-4.25-17.59c1.35-1.14,19.06,8.56,21.96,10.08,53.55,29.47,102.23,75.95,134.96,124.52,3,4.47,16.26,24.05,16.57,27.47s-1.14,2.66-1.04,2.76c.31.48,9.53,1.9,12.02,2.76,5.18,1.81,12.12,5.42,16.78,8.27s5.28,2.76,6.01,3.33c11.19,8.27,27.45,29.75,26.41,43.35-.31,4.56-2.59,6.84-4.87,10.46-2.28,3.61-1.66,3.23-2.38,4.37-2.38,3.71-11.91,13.31-10.57,17.97,1.35,4.66,15.54,11.31,18.96,12.83s1.55.86,2.38,1.14c21.54,7.6,49.1,2.19,70.64-3.33-6.32,26.24-21.65,52.47-41.33,72.53-6.42,6.56-14.09,12.36-20.92,18.63-6.84,6.27-1.45,1.33-2.38,2.19-21.75,20.91-33.77,46.48-47.75,72.15-11.5,21.29-23.31,51.24-37.08,70.44-10.77,14.92-42.67,19.2-60.7,17.87-22.68-1.62-42.57-11.69-61.63-21.96-1.24-.67-1.86-2.28-4.76-3.33-2.8-2.47-6.84-7.98-9.53-9.89-.21-1.9-3.42-2-3.63-2.19-4.87-5.8-9.94-23.86-9.63-31.37s16.26-39.45,13.05-44.3-39.15-4.75-46.51-5.7l40.5,16.63.21,3.14c-2.18,2-48.58-15.78-55.31-17.87-11.19-3.52-30.25-9.7-41.33-11.5s-4.14-.38-6.32-.29l25.89,14.16c24.24,8.56,47.75,18.35,71.06,28.8l-1.14,6.56c-1.66.19-3.21-.1-4.76-.48-15.33-3.99-40.19-19.58-56.66-26.05-7.98-3.14-17.3-7.13-25.89-7.51l26.21,14.92,57.59,37.26c1.66,1.14,2.49,9.32-.52,8.17-19.27-11.69-38.53-23.57-58.52-34.22-9.74-5.23-21.54-11.79-31.49-16.06s-3.11-1.62-5.18-1.24c7.25,7.41,16.88,12.74,25.17,19.2,19.89,15.68,42.16,38.02,63.39,51.14.52.38,1.04,1.71,2.38,2.19l3.63,3.33c2.28,4.56,7.04,3.04,7.15,6.56l-1.24,3.33c-1.76.29-2.69-.67-3.94-1.33-31.18-15.87-59.56-46.29-90.74-63.97-3.94-2.28-9.94-6.56-14.29-5.61l65.88,63.78c.52,2.66-2.18,1.71-3.63,1.14s-7.77-4.75-9.53-6.08-.1-1.81-1.24-2.66c-4.56-3.52-10.15-7.89-15.43-9.98,3.73,6.08,10.46,9.98,15.54,14.83,2.9,2.85,38.01,36.79,35.94,38.5-3.73,0-7.66-3.04-10.67-5.04-23.93-16.06-50.55-44.39-74.37-63.59-5.7-4.56-10.67-10.08-16.26-14.73s-2.28-2.85-2.8-.1c4.97,2.38,7.15,9.7,10.46,14.07,28.69,38.4,59.97,75.38,87.73,115.02,13.57,19.3,35.53,48.1,45.68,67.96,1.24,2.47,2.69,4.37,2.18,7.32-29.21-39.64-57.07-80.13-88.04-118.63-14.09-17.4-29.73-36.88-44.85-53.33-2.9-3.23-17.09-18.25-19.78-19.3s-2.28.29-1.76,1.62l33.25,56.37c29.42,39.73,58.63,85.36,78.2,131.27.41.86,1.86.95,2.18,1.71.41,1.24,1.76,7.32,1.35,7.89l-1.76-1.14c-26.93-47.24-53.24-97.24-87.94-138.21l-36.56-51.9c-2.38-.48-2.07.86-1.45,2.47,12.95,33.84,32.11,71.1,49.72,102.66,1.76,3.04,13.36,22.05,12.22,23.38-3.21.67-2.07-.76-3-2.19-25.69-39.26-55.31-78.71-68.88-123.1-3.21-.29-1.97,0-2.38,1.62-.83,3.14-3.83,13.78-3.11,15.97,25.38,41.16,51.48,82.13,77.37,123.1,6.42,10.27,11.81,21.86,20.3,30.8,1.66,12.55,28.28,40.02,32.94,53.8,4.66,13.78.21,3.99-4.25,2.76-47.03-70.15-91.46-142.11-136-213.78,1.97-7.41,5.59-14.35,7.56-21.77,3.52-13.12,4.14-26.62,6.94-39.83,4.25-19.77,18.64-63.31,16.05-80.7-.93-5.99-6.73-12.93-10.36-17.97-15.43-20.91-36.98-38.5-48.16-61.88,32.01,7.51,68.98,30.99,78.93,61.03,2.59,7.7,3.11,15.87,5.49,23.57,8.08,26.52,32.32,38.21,59.25,45.63,5.8,1.62,6.84,1.52,12.43,2,13.05,1.05,28.17,1.33,40.81,3.04,19.47,2.57,24.03,5.04,18.02,22.91-6.01,17.87-14.09,24.62-8.39,44.01,11.81,40.11,103.27,67.96,136.41,35.08,22.89-36.5,38.53-78.61,61.94-114.54,21.44-32.98,53.86-50.28,73.23-84.41,3.21-5.7,10.67-19.87,11.5-25.76.31-1.81.21-1.81-1.66-1.52-9.12,1.05-18.23,3.9-27.66,4.37-17.51.86-51.38-4.56-59.35-21.29-4.45-9.32,12.95-22.05,15.95-30.61,7.15-20.06-21.13-42.87-38.22-51.14-25.27-12.26-55.62-8.36-82.76-16.35-42.36-12.55-33.56-44.68-54.79-71.67-25.48-32.32-64.53-38.4-103.37-49.62-2.69-3.61,11.6-10.27,14.29-12.55,5.7-4.85,17.4-18.25,18.33-25s-2.07-13.97-7.66-16.82c0-3.99,11.81-5.89,2.38-17.59-4.97-6.18-12.43-9.7-20.92-8.17-3.31.57-5.18,3.71-8.49,4.28-9.53,1.62-16.47-3.04-24.44,6.08-3.21,3.61-12.43,22.05-14.09,26.71-1.14,3.23-1.04,13.12-1.76,14.35s-2.49.86-3.31,1.81c-4.76,5.51-9.63,11.03-14.29,16.54-52.1,61.5-103.89,123.19-157.03,183.84-2.59,1.33-9.84-6.08-13.36-7.7-16.99-7.7-36.77-2.09-48.06,11.22-11.29,13.31-8.18,19.11-12.53,22.53-3.83,2.95-14.71,4.75-20.41,7.6-12.43,6.18-19.99,15.02-24.13,27.28-4.14,12.26-.62,9.89-3.94,12.83s-17.3,5.23-22.99,8.56c-7.98,4.56-15.95,12.83-18.85,21.1s-1.14,12.45-3.73,16.35-10.77,6.56-14.81,9.51c-16.05,11.69-18.96,27.76-10.36,44.49,5.8,11.31,6.42,12.74,10.25,25.19s.93,2.28,1.24,3.33c1.14,3.99,5.59,13.69,4.25,16.44-48.16,51.52-91.36,106.27-138.9,158.27-3.63,3.99-12.43,14.54-16.16,17.11-8.08,5.51-19.06,5.23-15.02,19.2,1.55,5.61,5.7,8.36,9.01,12.07s1.66,3.33,3.52,5.04c14.09,12.83,46.3,29.09,47.34-1.71,42.47-47.34,82.04-97.05,123.78-144.67,41.74-47.62.73-5.7,4.97-3.14s8.08,10.65,9.53,12.64c2.38,3.23,4.76,6.65,7.15,9.89,4.04,5.42,6.42,8.17,10.77,13.21,4.35,5.04.41,2.57,1.35,3.71,20.41,23.95,56.14,22.05,77.48,43.16l59.45,147.62c15.74,5.99,32.94,8.75,49.72,11.03,1.14.19,2.49-.19,3.63,0,103.37,12.93,221.45-28.99,300.49-105.51,26.72-25.86,42.99-47.62,62.46-78.42,9.22-14.64,24.34-37.07,30.66-52.09,7.46-17.97,12.95-37.55,20.92-55.51l9.22-18.44c-22.48,154.09-151.33,297.05-321.62,317.2-148.43,17.49-267.86-26.43-353.62-125.47-5.08-5.89-20.61-23.67-22.99-29.37s-1.45-3.33-.73-5.51,7.46-10.93,8.8-10.65c1.86.38,18.23,25.38,21.65,29.56,40.6,49.43,96.74,90.78,159.41,114.16l24.24,7.41-56.97-143.34c-14.71-12.83-36.05-14.92-53.55-24.52-23.72-12.93-33.56-31.75-49.3-51.43l-119.63,139.64c-4.14,5.32-3.42,12.64-8.39,17.49-16.16,15.87-52.31-11.41-61.01-25.38-10.15-16.25-2.18-24.9,14.19-31.84,21.23-23.29,41.12-47.62,61.73-71.39.52-.57,1.55-1.24,2.38-2.19,3.21-3.71,15.74-15.4,15.54-19.11-50.75-117.3-42.47-253.42,26.1-363.02C199.24,81.52,344.77,2.05,497.44,18.21c12.64,1.33,24.86,4.18,37.29,6.56,4.56.19,5.08-4.66,7.77-7.22,7.35-7.03,15.74-4.56,23.93-6.08s.83-1.05,1.24-1.14c8.29-2.47,10.15-4.75,20.09-2.57,6.94,1.52,16.57,8.65,19.37,14.64l-.52.38ZM240.36,305.19c4.97-.29,8.91-5.42,13.57-7.89,4.97-2.66,19.99-7.22,22.37-9.13s4.25-10.36,6.01-13.69c-3.73,0-6.32-2.38-9.01-4.37-14.71-10.93-31.07-30.51-44.85-43.44s-30.56-26.43-44.85-40.21c-1.14-1.14-2.28-2.95-3.11-4.28,2.59-2.09,19.27,13.21,22.79,14.83l81,71.86c4.56,1.14,7.04-8.75,12.33-8.65v-1.62l-34.7-43.44,6.73,3.71,33.97,34.22c4.14,2.38,14.29-3.52,19.16-3.9l-30.56-52.76c5.9,5.23,11.19,11.12,15.95,17.21s19.47,32.03,24.44,36.31,8.8,3.23,11.29,4.47c6.32,3.04,12.33,11.5,10.36-1.81-17.92-46.39-40.91-92.2-58.73-138.4-17.82-46.2-4.97-12.55-6.32-18.92l73.02,152.75c4.25-3.04,10.36-8.27,9.53-13.59-7.66-28.14-18.75-55.61-23.82-84.22,3.21-.57,2.07.67,2.9,2.19,5.8,10.84,11.7,27.28,16.26,38.97,4.56,12.07,9.01,24.43,11.91,36.88,4.76-4.47,9.53-9.98,12.02-15.87.1-6.65-9.94-43.63-7.25-46.77,2.8-.57,1.97.29,2.69,1.43,6.11,9.03,9.22,28.61,11.7,39.26,2.49-1.52,7.98-6.65,8.91-8.84,3-6.84-.31-30.51-.62-38.88-.52-18.25,0-36.69-2.38-54.94v-50.09l2.49,3.8,8.39,129.18c4.76-3.71,19.27-18.63,19.06-23.48s-2.38-4.85-2.38-5.61v-34.03c0-.19,1.14-3.23,2.38-2.76l5.39,38.5c13.05-16.54,28.48-31.37,40.71-48.29,1.97-19.11,1.55-38.4,5.9-57.22l1.86,12.64c-.41,12.26-2.49,24.52-.62,36.88l36.56-42.3,7.15-21.96c-95.29-20.53-195.14.48-274.59,51.33C108.81,184.09,49.67,359.37,97.11,516.5c2.59,8.56,6.94,24.14,11.08,31.56s.1,2.09,2.07,1.33,9.74-8.75,11.39-10.46c17.19-17.59,32.21-38.12,48.89-56.27.62-2.47-4.56-11.79-5.49-15.4s-.1-6.37-1.14-9.98c-1.66-6.46-7.77-11.79-10.57-17.78-9.32-20.34-.31-36.03,16.78-49.43,2.07-1.62,8.39-4.28,9.01-5.13,2.8-3.99,1.86-13.02,3.52-17.97-2.49,2.28-61.42-11.5-69.4-13.78s-5.7-.95-6.01-2.76c1.76-.48,2.9-.76,4.76-.67,14.09,1.14,35.11,5.61,49.3,8.65,3.73.76,18.64,3.71,20.61,5.04s1.04,3.14.73,3.42c2.49-7.6,19.68-22.53,27.66-25.76,4.25-1.71,13.26-2.09,16.05-5.04s4.04-13.31,6.01-17.59c1.97-4.28,5.39-9.13,7.77-13.21-2.28.1-4.45,0-6.42-1.24l-82.14-52.09-2.49-4.85,93.33,52.19,1.14,2.09c-1.24,1.33-2.59,2.38-3.52,3.9l.31-.09ZM552.75,523.91c-.1-.1-2.38-.48-3.63-1.62-7.56-6.56-17.4-17.97-25.07-23.19-1.66-1.14-2.49-2-4.87-1.62,7.77,6.75,21.86,25.86,31.8,28.52,2.18.57,2.38-1.43,1.76-2.09h0ZM498.89,512.88h-2.38v1.05h2.38v-1.05Z"/>
  </g>
  <g id="Flag">
    <path id="flag" class="cls-1" d="M432.15,317.24c32.03,7.82,69.14,32.21,78.87,63.4,2.54,7.99,2.98,16.48,5.31,24.47,7.89,27.53,32.17,39.68,59.2,47.4,5.82,1.68,6.97,1.58,12.49,2.08,13.23,1.1,28.34,1.4,41.04,3.19,19.47,2.68,23.71,6.63,17.93,23.79-5.78,17.16-14.4,25.54-8.84,45.67,11.41,41.74,103.2,70.62,136.95,36.51,23.26-37.87,39.49-81.56,63.37-118.84,21.87-34.12,54.66-52.15,74.46-87.55,3.28-6.02,10.92-20.61,11.8-26.73.33-1.87,7.63-2.66-1.65-1.58-9.29,1.08-18.38,4.03-27.87,4.52-17.62.97-51.66-4.77-59.53-22.14-4.4-9.67,13.23-22.88,16.33-31.76,7.37-20.71-20.87-44.51-38-53.11-25.32-12.75-55.9-8.72-83.13-17.03-42.52-13.05-33.36-46.39-54.49-74.43-25.24-33.56-64.59-39.91-103.57-51.58-2.78-3.65,8.83-7.98,14.5-13.01,5.67-5.03,17.79-19.92,18.68-25.93.89-6.02-1.96-14.6-7.56-17.47-.07-4.14,11.83-6.11,2.56-18.25-4.95-6.42-12.42-10.07-20.98-8.5-3.34.59.91,2.76-8.59,4.43-9.5,1.67-16.54-3.27-24.65,6.3-3.26,3.85-12.71,22.88-14.42,27.71-1.18,3.45-1.16,13.61-1.9,14.9-.32.49,1.49-3.85-3.35,1.87-4.84,5.72-9.79,11.44-14.53,17.16-52.98,63.69-105.66,127.78-159.68,190.68-2.51,1.48,33.77,14.55,16.64,6.45"/>
    <g id="orange_flag" data-name="orange flag">
      <path class="cls-3" d="M682,174.41c-2.97.74-2.54,2.73-2.86,4.64-.9,6.44-1.44,14.23-3.52,20.49-1.43,4.27-10.65,23.79-14.63,25.17-2.96.47-1.48-.81-1.73-2.07l2.53-.56c-3.21-2.79-1.83-8.24-5.75-9.94l-1.07,19.39c-.33,6.07,7.61,17.54,12.01,22.41,3.79,4.15,17.52,13.05,24.07,12.38s8.39-2.49,6.19-4.02c-18.88,1.73-32.75-12.42-33.68-27.1l.11-2.08,2.61-2.1c.63.45,2.13.71,2.44,1.07.81,1.08,1.97,5.61,3.59,7.68,5.17,6.59,11.67,10.9,21.76,11.03-9.18-6.75-17.91-11.87-22.68-21.9l.06-1.09c.37-2.81.2-5.62.46-8.34,2.53-6.54,8.24-11.64,10.37-18.81s-.99-9.6,3.79-11.71c2.08,7.51,7.26,16.09,13.23,21.95,23.58,23.25,70.18,16.85,103.04,23.39,23.3,4.68,40.57,20.36,44.36,40.09-9.54,13.55-21.82,25.57-32.73,38.4-2.67,3.09-10.94,17.27-15.16,17.02.76-3.99.85-9.52-.13-13.41s-7.1-15-9.72-12.72l4.33,8.04c2.25,2.43,3.57,17.92,5.52,18.09-1.23,6.62-6.61,9.64-8.37,2.22-1.76-7.42-4.04-9.49-8.47-15.72-4.43-6.23-7.81-13.82-10.66-11.45,2.12,4.79,6.78,8.93,9.24,13.54,2.46,4.61,8.48,21.43,6.81,26.15s-2.72,4-4.2,5.28c-2.76-9.05-6.93-17.99-12.69-25.85-1.11-1.44-2.7-2.25-4.05-1.34,5.25,11.03,16.6,27.82,5.36,38.75-.32-3.98-1.51-8.06-3.26-11.76-1.65-3.52-6.43-9.48-9.14-13.36-2.72-3.88-2.87-8.95-8.42-6.75,1.09,1.9,5.13,5.41,5.92,6.76,2.77,4.88,10.93,24.31,10.67,28.94s-4.35,6-5.74,7.64c-3.6-11.58-8.8-19.61-16.63-29.27-3.15-3.88-5.06-8.58-10.01-11.45,1.41,3.89,2.97,9.14,7.57,10.38,2.82,13.76,22.95,32.68,6.31,45-.48-11.05-5.67-23.16-12.89-32.1-.4-.54-4.09-4.51-5.24-3.42-1.15,1.09,6.27,12.29,7.34,14.64,3.66,8.41,10.69,26.67,1.3,33.51-2.14-10.41-5.08-22.08-12.32-30.65-.4-.54-4.73-4.78-5.87-3.77-1.14,1,5.68,11.2,6.54,13.28,3.05,7.78,8.77,27.95,2.75,34.87-6.03,6.92-2.64.65-2.89-.71-.91-3.26-.32-7.97-1.4-11.95-2.16-8.05-8.76-18.26-14.36-25.02-1.73-2.07-4.07-2.97-5.36-5.23-2.4,2.19,2.36,4.43,2.86,5.24.99,1.72,2.37,4.34,3.46,6.23l1.19,2.08c4.03,7.68,12.6,29.38,8.06,37.01-4.55,7.63-5.61-.7-4.07,4.91l-3.36-17.74c-4.37-3.51-4.93-12.93-8.58-15.63s-2.02-.8-2.44-1.07c-1.72-4.25-3.31-2.97-4.42-4.42s.93-3.18-1.37-2.8c-.83,5.26,2.74,5.42,5.89,7.31.19.54-.31,1.63-.11,2.08,5.88,13.56,9.97,25.86,6.54,40.83-2.19,2.28-4.18-18.73-6.39-19.9l-6.8-12.56c-1.46,4.9,3.17,9.5,4.25,13.57.18.63-.3,1.45-.11,2.08l1.13,3.17c.65,3.89.72,8.6.5,12.59l-2.44-1.07c-1.75.19-2.01,3-.17,3.17-.5,5.17-.14,8.43-2.05,13.6-3.22-6.51-3.8-13.84-6.25-20.53-.47-1.36-.15-3.17-2.52-3.52-.04,8.52,5.06,16.46,3.61,25.08-6.76.58-5.17-8.67-11.91-10.45l2.83,15.66-4.82-3.15.06-1.09c-1.2-5.79-15.76-17.4-22.85-18.73-7.09-1.32-.87.1-1.3,0-.76-1.9-2.59-2.25-4.62-2.88-30.42-9.36-71.38.91-99.87-13.89,7.28-2.03-5.5-8.58-8.78-12-3.29-3.43-2.45-4.88-5.3-6.31-1.97-5.61-5.31-14.02-6.19-19.63-1.29-8.06.52-17.31-2.72-25.44-4.63,1.29-1.4,3.81-1.45,4.72l-1.7,30.9c-2.94.11-2.3.37-2.41-1.53-.39-4.71.13-10.33-.46-15.22-5.7-.97.36,7.25-5.34,6.28.45-8.25-3.49-17.38-7.21-24.79-14.99-29.46-41.26-47.17-78.75-54.41,1.4-1.82,3.47-1.92,5.76-2.11,14.3-1.34,30.9-1.25,44.77,1.13,6.46,1.05,12.67,4.46,19.49,4.88-.89-1.63-5.37-2.96-7.29-3.59-18.55-6.16-44.89-6.83-64.83-3.65-19.93,3.18-4.64-.43-4.04,2.47-2.04-.35-4.21-.52-6.24-1.05-.31-.36.72-1.27,1.28-1.55,8.46-3.85,22.69-3.92,31.64-4.87,4.69-.48,9.66-1.95,14.45-2.25,7.29-.31,13.51,1.11,20.68.98l-8.14-1.95c-6.53.21-12.76-.84-19.26-1.08-6.5-.24-1.63,0-2.5.01-3.15.02-7.99-.77-10.05,1.14-13.8.25-21.64,2.65-34.46,4.71-1.97.28-2.56,1.1-3.29-1.34,9.1-1.59,19.88-6.08,28.74-7.4,5.58-.84,14.7-.8,20.69-1.19,21.57-1.38,29.98,1.66,49.45,2.92,1.41.08,4.62.79,4.4-1.02-20.04-4.79-43.57-7.2-64.91-6.01-21.34,1.2-21.56,3.1-31.95,4.6-2.3.28-4.33,1.65-6.62,1.94-2.3-1.53-.34-1.72,1.11-2.36,4.57-2.11,9.96-3.4,14.87-3.97,4.92-.57,2.17-.01,2.56-1.1h2.5c16.6-1.73,32.51-6.89,49.27-5.52-.33-1.9-2.39-1.89-4.23-2.06-11.45-1.03-24.13.58-34.65,2.35-4.27.66-8.44,1.49-12.71,2.15l-11.24-.94,26.56-3.31-4.77-4.14c4.42.61,8.12-1.49,12.16-2.06,7.55-1.04,21.52-2.47,28.9-2.41,7.38.05,22.53,2.96,33.05,3.09-.56-1.63-5.64-2.05-7.58-2.41-10.53-1.94-27.94-3.21-39.1-3.6-10.73-.4-21.34,1.11-32.09,1.16-.13-1.54,3.36-1.83,4.56-2.02,10.27-1.14,20.54-2.28,30.8-3.42.43-1.81-2.77-.98-4.29-.97-8.24-.23-16.3.27-24.49,1.12l3.97-3.1-6.12-3.14c1.25-1.09,2.37-1.55,3.98-3.19s1.01-.64,1.36-1.09h1.3c18.37-2.46,36.91-4,55.45-3.46.6-1.09-4.01-2.06-4.23-2.06l-32.69.17c-.98,0-12.7,1.88-13.25,2.15h-2.5c-.2-.26,1.06-1.53,1.42-2.08l1.36-1.09c.23-.27-.17-.81.06-1.09,13.96-3.15,28.19-1.32,42.25-2.3,7.3-.49,7.43-2.85.18-3.26-11.91-.66-24.03.67-35.9,1.27-1.99-1.26,6.14-5.11,7.24-5.29l33.34-2.26c.43-1.81-2.77-.98-4.29-.97-6.29-.15-24.71-.69-29.6,1.24-.85-4.34,4.71-4.64,6.67-6.83s1.26-3.18,2.65-4.82c17.77-7.34,40.1-4.74,59.26-5.56l-9.22-2.04c-12.43-.93-25.58,1.31-37.85,1.28-2.39.01-5.05,1.02-4.23-2.06,4.06-2.74,5.29-1.48,8.91-2.13,18.3-3.17,37.04-4.27,55.39-2.37.08-1.54-4.35-1.79-5.65-1.96-15.88-1.46-30.39-.11-46.36.15-1.08-.18-1.34.64-1.91,1.1-5.02.48-1.79-2.89.29-5.26,16.36-1.35,32.68-3.97,49.15-3.42l-13.02-2.02-29.6,1.24,4.15-6.27c.66-.18.91-.82,2.56-1.1,7.78-1.31,21.27-1.83,29.65-2.24,8.38-.41,11.28.12,16.94-.09l-13.13-2.02c-10.2,1.86-20.47,1.01-30.79,1.25-.42-.18,1.06-1.46,1.42-2.09s-.17-.81.06-1.09l1.36-1.09h1.3c9.17-.87,18.55-1.64,27.7-2.23l-11.83-2.11-13.2,1.25c1.03-1,1.75-2.18,2.67-3.18h2.5s.11-2.1.11-2.1c.45-.36,1.13-.82,1.36-1.09l41.43-1.3-10.53-2.03c-7.92-.14-15.97.26-23.89.12-7.92-.14-5.06,1.11-4.23-2.06.69-.73,3.12-1.38,3.92-2.1,16.46-1.17,32.64-1.35,48.92.74-.56-1.63-5.64-2.05-7.58-2.41-12.79-2.38-25.42-1.59-38.56-1.52.47-.73.84-1.45,1.42-2.09,17.02-3.53,34.54-4.26,51.59-2.35.41-1.45-2.09-1.53-3.38-1.79-4.08-.79-13.01-2.2-17.14-2.27-7.7-.23-15.79,2.89-23.24.12.8-.73,1.71-1.55,2.61-2.1l1.36-1.09h1.3c6.77-.68,17.04-1.91,23.46-2.12s12.27,1.93,17.98.81l-15.58-3-24.49,1.12c2.26-3.64,4.15-4.37,6.7-7.37l21.34-1.2c.43-1.81-2.77-.98-4.29-.97-3.58-.07-7.17.13-10.64.05l6.97-4.38c11.72-3.78,24.3-1.58,35.93,0-.13-1.54-4.32-2.42-5.82-2.78-9-2.22-22.26-3.78-31.47-2.19,8.7-6.21,12.67-7.31,24.18-5.38l-.65-1.99c43.58,7.02,87.28,19.75,95.37,60.12l-.88.28ZM714.86,238.11c-.21-.18-4.4-.88-5.99-1.69-12.59-6.01-21.56-12.66-30.26-22.22.48,6.97,11.38,16.16,17.78,20.2,5.04,3.14,10.49,4.66,16.74,5.53,2.37.35,2.45-1.19,1.73-1.91v.09ZM641.35,252.08c.36,1.36.99,1.72,1.19,2.08s-.15.73-.06,1.09c.29.72,1.14.99,1.24,1.08,1.57,2.98,2.81,6.15,5.84,8.3s3.13,2.34,6.18,2.05c1.83,2.26,2.18,3.7,4.65,6.23,3.6,3.7,9.58,11.28,15.74,9.88l-10.63-11.99c6,1.42,11.04,4.56,17.16,5.71,1.29.27,5.13,1.51,5.13-.57-2.8-.44-5.36-1.24-7.8-2.22-5.84-2.33-15.18-6.26-20.34-9.14-12.42-7-18.71-34.69-16.19-47.03l-2.58,1.55c-1.07,11.51-2.5,21.76.68,32.97h-.22ZM634.06,248.5c-.53-6.07,1.38-13.23,1.07-19.39-1.83-.26-1.95,1.82-2.33,2.91-2.96,8.35-3.7,21.76-1.98,30,1.72,8.24,7.28,25.51,20.07,21.91-6.15-10.57-15.86-23.38-16.82-35.52v.09ZM623.09,240.67c-1.76-1.62-2.29.1-2.58,1.55-3.13,15.42-4.53,34.99,6.37,47.98,4.07,4.87,7.69,8.2,15.69,6.9l-10.24-11.27c-8.47-13.82-7.47-29.86-9.24-45.16h0ZM610.75,261.66l-.23,4.17c-.16,2.99-.69,6.53-.52,9.42s.64,4.07.96,6.25c-.96,3.72.08,6.34.78,9.42,1.98,9.41,10.71,26.31,25.17,21.89-11.84-7.82-18.38-21.01-21.4-33.32-3.01-12.31-.49-8.79-1.15-12.59l-.44-15.67c-1.84-.17-2.11,2.91-2.39,4-.56,2.36-.45,4.26-.69,6.53l-.1-.09ZM600.74,283.73l-.11,2.08c-.04.72-1.24.82-1.28,1.64-.18,3.26,1.88,7.24.59,10.96h2.5c.05.98-.34,2.16-.17,3.16s-.22,0-.06,1.09c1.72,10.23,7.92,17.81,17.46,24.01,7.65,4.94,15.85,7.8,25.98,7.2-1.9-2.89-6.8-2.77-10.19-4.3-3.39-1.52-7.87-4.85-11.77-7.1l.06-1.09c-.65-2.08-.8-3.26-3.57-4.15-1.18-2.17-2.97-3.25-3.57-4.15.08-1.54-.61-2.71-2.32-3.16-6.18-10.02-9.18-28.4-10.4-39.72-.05-1-.94-12.41-3.22-10.49l-.97,3.81.94,20.29.11-.09ZM629.97,344.37c-.31-.27-6.25-2.87-7.91-4.22-24.56-19.26-21.2-36.95-29.73-61.27-.47-1.36-.15-3.17-2.52-3.52-1.16,17.04-1.45,42.05,10.7,56.03,4.29,4.87,21.27,15.93,28.7,15.07,1.08.08.87-1.91.77-2.09ZM819.45,298.36c1.41-5.9-.59-12.95-7.99-14.64l7.99,14.64ZM612.87,359.14c.26,1.18,1.58.81,2.44,1.07s.87-.1,1.3,0,.38.9,1.24,1.08,1.74-.1,2.5-.01,1.79.99,4.18,1.07,7.89.68,8.31-1.13c-4.73-.79-9.14-1.58-13.62-3.1-4.48-1.52-5.55-1.78-6.18-2.05s-.5-.72-1.24-1.08-.99.19-1.3,0-.72-.72-1.24-1.08-.83-.72-1.24-1.08c-1.45-1.26-2.31-3.43-4.77-4.14-4.49-5.14-6.87-11.2-9.08-16.44-1.25-2.98-3.1-6.78-4.03-9.58-3.62-11.22-1.45-22.91-7.49-33.48-2.16-.26-1.32,2.36-1.17,3.45,3.19,15.02-5.39,30.83.42,43.67,4.35,9.76,18.14,21.56,30.76,22.94l.22-.09ZM789.14,302.69c.8-.73-7.26-12.1-10.66-11.45-.68.55,5.75,8.03,6.77,9.12s1.26,2.8,3.89,2.34ZM767.85,302.8l3.66.52-3-2.61-.77,2.09h.11ZM600.94,370.7c5.72,4.59,14.33,4,21.65,5.14l.11-2.08c-6.22.58-10.74-2.03-16.77-3.08-8.48-5.75-16.39-11.87-21.69-20.18-7.09-11.2-7.73-25.24-12.17-37.26-1.04-2.71-2.11-6.97-5.07-8.4,1.85,7.87,4.13,15.65,4.77,23.71.41,4.44-.93,9.06-.52,13.41,1.11,11.41,16.34,26.64,29.68,28.75h0ZM556.92,350c-1.08-.18-2.62.19-3.8.02l.49-8.88-1.89-10.95c-1.69,16.86-6.34,28.39,5.13,42.92,4.67,5.86,13.18,12.98,22.38,13.56,1.3.08,4.74.61,4.51-1.11-3.75-.98-6.99-3.13-9.7-5.2-9.8-7.38-18.2-18.48-17.11-30.26,4.74.7,2.47,4.43,3.99,8.31,3.79,10.04,15.08,17.86,27.08,20.79.62.63,1.58.81,2.44,1.07.85.27.87-.1,1.3,0,3.63,1.07,6.8,2.68,11.18,2.03-1.17-2.35-4.83-3.06-7.26-4.13-17.48-7.88-27.78-15.98-31.5-33.27-1.55-7.33-.3-16.22-3.72-23.08-2.9-.53-2.07,2.19-2.16,3.73-.27,8.88-.42,15.49-1.35,24.56v-.09ZM542.43,339.02c-.66,8.07-.88,16.04-1.33,24.11s2.07,9.68,2.72,11.76c2.52,7.51,12.31,16.97,20.58,20.55,2.12.9,2.38.17,3.75-1.11-4.22-6.14-11.59-10.36-15.25-16.77-7.12-12.65-6.47-28.41-9.07-42.26-3.05.11-1.35,2.82-1.39,3.63v.09ZM534.05,355.29c-1.6,3.36-1.8,6.99-1.88,10.52-.02,2.27,1.03,2.98,1.13,3.17,1.16,18.29,4.88,27.7,24.37,36.57.32.09.69,1.36,2.07,1.8s15.02,5.27,15.26,2.82c-5.74-2.14-12.35-4.38-17.16-7.79-12.95-9.26-18.15-27.18-21.64-40.75l-.15-20.93c-1.87.46-2.69,5.45-2.87,6.81-.43,3.9.17,4.8.76,7.88l.11-.09ZM682.85,409.06c.67-.37-2.02-2.8-3.69-2.06-.67.37,2.02,2.8,3.69,2.06ZM685.75,411.67c-.41-.36-.98-3.89-1.62-.17,4.73,6.77,9.57,9.46,13.6,17.14,4.03,7.68-.92,2.9,2.7,2.25,0-7.97-8.11-14.45-14.79-19.22h.11Z"/>
      <path class="cls-3" d="M839.54,346.51c-7.52-3.64-18.21-9.44-20.19-16.61,1.01-.89,24.39,12.05,28.05,12.91s9.39,1.56,7.37-1.29c-2.02-2.85-20.82-8.47-21.49-14.92.91-.69,19.83,7.25,23.25,8.21,20.18,5.95,38.73,4.53,59.12,4.15-4.64,3.85-5.82,10.27-8.94,14.55-12.77,17.91-35.05,30.73-50.85,46.68-30.59,31.01-46.25,75.42-65.89,112.24-19.65,36.81-17.17,35.84-27.02,39.31-25.04,8.76-59.54.07-82.48-13.47l1.24-2.29c14.89,7.07,28.64,10.31,44.97,8.85l-32.91-11.18c-6.62-5.64-14.74-9.18-16.23-17.56,13.98,10.18,31.72,17.5,49.64,19.39-2.5-3.86-8.73-4.66-12.43-7.14-2.39-1.65-5.19-4.91-8.25-7.17-6.53-4.83-14.85-9.09-18.1-16.58,7.75,2.33,10.18,7.91,18.22,10.75.42.51.97,1.02,1.61,1.23s.98-.09,1.48.02l1.61,1.23c.38.11.98-.09,1.48.02l1.61,1.23,1.48.02c6.34,4.12,15.9,7.39,23.52,7.31l-19.34-8.45c-.71-2.12-3.76-1.87-4.56-2.39l-1.61-1.23c-1.86-1.34-15.52-14.33-14.4-15.32,4.61.58,6.84,4.23,10.98,6.21,4.14,1.98,12.37,4.22,17.21,5.8,5.87,2,11.94,5.92,18.97,4.93.37-3.52-1.55-1.83-3.58-2.47-3.19-1.06-8.49-2.35-11.2-3.6-9.8-4.28-25.87-14.49-25.97-23.65,6.46,5.33,15.13,10.6,23.46,13.75,2.3.84,14.71,5.36,9.98.16-4.73-5.2-11.83-7.23-16.23-10.52-4.67-3.49-8.32-8.98-11.83-13.16,6.18,1.4,24.39,15.57,29.25,15.05,4.87-.53-6.97-6.65-8.04-7.47-2.53-1.85-15.4-13.12-13.37-14.9,2.46.04,5.19,1.39,7.39,2.43l1.61,1.23c.52.31.96.92,1.61,1.23,4.82,2.59,15.09,8.99,20.19,9.57,5.1.58,2.94-1.26,1.85-2.28s-8.33-4.36-10.59-6c-4.14-3.08-8.17-6.37-12.31-9.45l-.24-2.32-2.83-.04c-6.91-6.04-8.49-7.07-2.2-14.02l9.01,7.38c1.58,1.03,1.97,3.55,2.79,4.37,2.35,2.45,3.26,2.97,6.15,4.72,2.89,1.76,1.09-.18,1.48.02,7.21,4.24,14.56,8.68,23.65,8.52l-22.66-13.13-.13-1.21c-.85-2.23-3.72-4.99-6.28-5.93-.15-.3.04-.8-.13-1.21-1.96-3.45-4.53-6.81-5.41-10.55,2.62,1.55,5.89,2.2,8.26,3.65,6.56,3.93,11.82,11.85,20.43,11.89-4.27-5.5-11.66-9.14-15.81-14.73-3.15-4.27-3.36-8.6-6.95-12.38.18-.6-.4-1.52-.24-2.32.99.02,2.33,1.14,2.95,1.15.8,1.72,2.46,2.35,4.56,2.39.41.41,1.18.72,1.61,1.23,6.27,7.04,13.98,14.91,24.62,17.79l-15.59-16.14c-4.1-5.09-5.01-6.72-5.88-12.67-.23-2.22-1.73-4.76,2.41-3.99.58.81.95.82,1.61,1.23,5.61,8.94,18.17,18.49,30.41,19.09-7.94-5.36-14.58-9.99-20.47-16.92-1.53-1.73-1.89-3.95-3.2-5.88s-2.81-.95-2.98-1.46c-.62-1.22-1.11-3.54,1.8-2.79,2.91.75,11.12,4,12.68,4.83,3.52,1.87,9.69,9.11,15.08,7.78-6.74-4.43-6.95-7.65-15.45-11.31-.2-.71.07-1.71-.24-2.32-1.33-3.34-5.65-5.82-8-8.27s-9.1-6.98-.85-8.16c4.68,9.43,19.48,18.01,31.89,19.11-2.73-4.97-10.43-8.01-14.65-11.9-2.72-2.46-6.04-6.03-6.02-9.35.78-.79,16.81,9.02,19.85,9.87,4.19,1.27,9.8,1.96,13.96,1.73-11.78-7.93-27.88-11.3-31.09-25.54,6.76,2.32,18.81,13.98,25.23,14.18,6.42.2,2.88-.66,3.11-2.06-8.54-4.06-17.66-14.76-20.8-22.46,7.17,5.04,14.3,12.09,24.13,13.15.28.31.17,1.61.98,2.33,3.12,2.77,9.49,2.56,13.3,4.84,1.25.22.64-2.1.5-2.31-1.35-1.13-13.76-5.75-16.39-7.3-6.01-5.73-13.08-10.97-16.18-18.26,2.19-2.58,2.63.44,3.42.96,2.94,2.26,9.41,7.59,11.9,9.14l2.96,1.25c1.56.83,3.28.76,4.44,1.28,1.16.52,1.69,2.04,4.5,2.99,4.58,1.48,9.81,2.07,14.47,1.94l-17.86-7.22c-2.33-1.14-7.19-5.24-9.23-7.09l-1.61-1.23c-1.38-1.43-3.12-3.97-4.92-5.91l-.13-1.21c.17-1.91,2.58-1.17,4.25-.54,4.64,1.98,12.22,8.64,18.11,10.85,3.59,1.36,6.38,2.21,10.28,1.87.48-2.51-2-2.65-3.59-3.78-8.37-5.97-17.28-9.93-22.87-18.67,12.33,2.61,23.33,14.85,36.46,15.76,1.36.02,4.98.58,2.83-1.16-14.01-4.55-20.02-11.48-29.3-20.18-1.09-1.02-3.32-1.16-3.58-1.26-.81-.72-.9-2.73,1.74-2.19,5.04,1.19,13.4,6.95,18.95,9.45.62,1.22,1.67,1.84,3.08,2.36,1.41.53,2.91.75,4.44,1.28,3.68,1.06,6.88,3.43,11.58,2.5-1.7-3.35-7.75-3.54-10.47-4.79l-1-.12ZM782.03,453.04v1.24c.95-.46.96-.87,0-1.24Z"/>
    </g>
  </g>
  <g id="hand_pole">
    <g id="pole">
      <g id="flag_handle_hand" data-name="flag handle hand">
        <path class="cls-1" d="M170.08,467.59c1.72.75,9.5,7.45,10.01,8.36,1.81,3.32-4.04,11.16,1.65,11.48-45.49,52.88-89.86,106.88-136.15,159.13-2.15,2.48-13.71,13.25-14.12,14.32-1.24,2.81,7.29,3.72,8.2,4.25s4.43,5.88,5.85,7.01c.49,2.38-.23,3.53-2.37,4.44-.61-.52-1.62-.75-2.33-1.27-6.47-4.68-15.97-12.42-24.04-6.63-1.02.75-5.02,5.42-5.23,6.2-.42,2.44,2.12,2.25,3.34,2.79-1.86,5.05.44,9.56-.1,14.76-3.23-3.96-7.27-6.97-8.76-12.83-3.76-14.61,6.9-13.91,14.87-19.31,3.68-2.42,12.28-13.01,15.97-17.1,47-52.13,89.76-107.08,137.37-158.6,1.34-2.8-2.96-13.01-4.05-17.18l-.1.19Z"/>
        <path class="cls-4" d="M187.56,483.03c.92-.95,3.81-7.14,6.35-6.55,8.39,6.33,12.19,16.21,19.36,22.89l-155.12,182.91c-1.23,1.13-1.43.93-2.44-.29-2.32-2.75-4.03-5.47-6.86-8.14s-3.14-1.4-3.55-1.81c-1.41-1.24-4.73-6.38-5.85-7.01l149.76-172.88c2.16-3.36-2.1-5.69-1.67-9.12h0Z"/>
        <path class="cls-5" d="M39.46,665.13c-.91-.53-9.44-1.54-8.2-4.25s11.97-11.84,14.12-14.32c46.4-52.25,90.77-106.25,136.15-159.13,1.13-1.24,4.59-2.97,5.92-4.3-.43,3.53,3.92,5.86,1.67,9.12l-149.76,172.88h.1Z"/>
        <path class="cls-5" d="M40.61,675.41l-8.3,9.92c-4.86-3.34-12.16-5.29-17.53-7.46s-3.76-.34-3.34-2.79,4.2-5.55,5.23-6.2c8.07-5.79,17.57,1.95,24.04,6.63l-.1-.1Z"/>
        <path class="cls-4" d="M42.94,676.58c9.5,7.94,14.95,13.66,8.06,25.31-1.73.43-1.93-.57-2.94-1.2-4.75-3.33-10.79-12.03-15.75-15.37l8.3-9.92c.71.52,1.72.75,2.33,1.27v-.1Z"/>
        <path class="cls-6" d="M200.71,564.84c-1.41-2.12-8.35-12.82-9.26-13.44-4.15-2.82-3.36,1.25-4.9,3.06-41.18,47.73-80.45,97.79-122.44,145.09-1.23,31.84-32.72,13.71-46.45,0-1.82-1.84-2.31-3.83-3.42-5.35.54-5.2-1.76-9.81.1-14.76,5.47,2.28,12.78,4.13,17.53,7.46,4.86,3.34,11,12.03,15.75,15.37,1.01.73,1.11,1.62,2.94,1.2,6.89-11.64,1.54-17.46-8.06-25.31,2.14-.9,2.86-2.06,2.37-4.44.4.31,2.23.48,3.55,1.81,2.93,2.67,4.54,5.39,6.86,8.14s1.21,1.42,2.44.29l155.12-182.91"/>
      </g>
      <g id="top_pole" data-name="top pole">
        <path class="cls-1" d="M585.2,9.95c-3.3-3.1-11.5-1.8-13.6,2.6l13.8,6.4c-.5-2.4,1.6-7.2-.2-9Z"/>
        <path class="cls-1" d="M587.8,35.05c.4-2.6-.9-3.5-2.3-5.2-5.9-7.4-30.9-20.3-38-11.4s-9.2,18-9.4,19.5c-.3,2.6.4,1.2,1.6,1.8,2.6,1.2,5,1.5,7.6,2.2l-1.2,3.5c4.8-1,3.1,2,3.5,2.3-7.4-2.2-13-3.8-17.3,4,5.7,1.1,12,1.8,17.3,4.1,3.9,1.6,21.5,15.5,23.1,13.9.9-6.9-9.1-15.5-15-17.3-.3-.4-.7-1-1.2-1.2l-1.2-4.6h2.3c2.4,1.3,5.7,2.3,8,4.1l8.7,7.4c2.6-1.2,8.3-13.2,11-15.7s7.9-.2,2.4-7.5l.1.1Z"/>
        <path class="cls-1" d="M539.2,68.65c.3-.3-.3-1.3,0-1.6,2.6-3,2.4,1.9,3.2,3.5,1.6,3.2,3.9,7.5,5.7,10.5,1.3,2.1,1.1,1.6,3.8,1.4-3.7-7.9-10-29.9-20.2-16.2-51.2,69.6-110.5,135.4-161.7,204.8-1.4,1.9-5.9,7.2-6.3,8.8-1.1,4.9,3.1,4.6,3.3,4.9,3.1,5,4.5,9.7,9.1,15.8s.6,6.7,6,2.1c51.1-66.8,101.7-134.2,153.2-200.5,1.4-1.8,4.8-2.8,5.7-4.8,1.5-3.4-4.6-14.6-5.3-19l4.6.6,1.1,2.3c2.7-5-.7-4.5-.9-5.2-.3-1.5.9-5.2-1.4-7.5l.1.1Z"/>
        <path class="cls-4" d="M539.2,68.65c2.3,2.3,1.1,6,1.4,7.5s3.6.2.9,5.2l-1.1-2.3-4.6-.6c.6,4.4,6.8,15.6,5.3,19s-4.3,3-5.7,4.8c-51.5,66.3-102.2,133.7-153.2,200.5-5.3,4.6-4.1.3-6-2.1-4.6-6.1-6-10.8-9.1-15.8,51.8-63.4,102-128.1,152.6-192.5,6.3-8,12.8-16,19.6-23.7h-.1ZM506.1,118.75c5.6-6.3,16.6-17.2,20.4-24.1,3.8-6.9,1.4-3.1,1.1-5.3-3.2,1-3.5,5.9-5,7.7s-2.7,1.4-3.7,2.6c-5.2,6.5-9.6,13.5-14.6,20.2s-5.2,3.4-5,6.5c3.9-1.7,4.5-5.1,6.8-7.7v.1ZM496.4,132.25l.6-3.4-2.9,1.1v2.3h2.3Z"/>
        <path class="cls-5" d="M367,284.85c-.2-.3-4.3,0-3.3-4.9s4.9-6.9,6.3-8.8c51.1-69.4,110.4-135.1,161.7-204.8,10.2-13.7,16.5,8.3,20.2,16.2-2.7.1-2.5.7-3.8-1.4-1.8-3-4.1-7.3-5.7-10.5s-.6-6.5-3.2-3.5.3,1.3,0,1.6c-6.8,7.8-13.3,15.7-19.6,23.7-50.6,64.3-100.8,129-152.6,192.5v-.1Z"/>
        <path class="cls-4" d="M587.8,35.05c5.5,7.3.9,4.5-2.4,7.5s-8.4,14.5-11,15.7l-8.7-7.4c-2.3-1.8-5.6-2.8-8-4.1s-4.2-4.2-5.8-4.6c2.4-9.8,10.9-18.9,21.7-15.3s12.8,6.5,14.2,8.4v-.2Z"/>
        <path class="cls-5" d="M587.8,35.05c-1.4-1.9-11.5-7.5-14.2-8.4-10.7-3.6-19.2,5.5-21.7,15.3-1.2-.3-3.3.3-4.6,0-2.6-.7-5-1-7.6-2.2s-2,.8-1.6-1.8,8.2-18,9.4-19.5c7.1-8.9,32.1,4,38,11.4s2.7,2.6,2.3,5.2h0Z"/>
        <path class="cls-4" d="M557.7,52.45c5.9,1.8,15.9,10.5,15,17.3-1.6,1.7-19.2-12.2-23.1-13.9v-4.6c2.2-.2,3.8,1.5,5.8,1.9s2.2-.7,2.3-.7Z"/>
        <path class="cls-5" d="M549.6,47.85c2.1,2.1,4.4,2.5,6.9,3.5s.9.7,1.2,1.2c-.1,0-.8,1-2.3.7s-3.6-2.1-5.8-1.9v4.6c-5.4-2.3-11.7-3-17.4-4.1,4.4-7.8,10-6.3,17.3-4h.1Z"/>
        <path class="cls-5" d="M585.2,9.95c1.9,1.7-.2,6.5.2,9l-13.8-6.4c2.1-4.4,10.3-5.7,13.6-2.6Z"/>
        <path class="cls-2" d="M551.9,42.05c1.6.4,4.8,4.1,5.8,4.6h-2.3l1.2,4.6c-2.5-1-4.8-1.4-6.9-3.5s1.3-3.3-3.5-2.3l1.2-3.5c1.3.3,3.4-.3,4.6,0l-.1.1Z"/>
        <path class="cls-2" d="M535.8,140.35c.4-.3.7-1,1.2-1.2l-1.2,1.2Z"/>
        <path class="cls-5" d="M506.1,118.75c-2.3,2.6-2.9,5.9-6.8,7.7-.2-3.1,3.6-4.6,5-6.5,5-6.6,9.4-13.7,14.6-20.2s2.9-1.6,3.7-2.6c1.5-1.8,1.8-6.7,5-7.7.3,2.2,0,3.4-1.1,5.3-3.9,6.8-14.8,17.8-20.4,24.1v-.1Z"/>
        <polygon class="cls-5" points="496.4 132.25 494.1 132.25 494.1 129.95 497 128.75 496.4 132.25"/>
      </g>
    </g>
    <g id="hand">
      <path class="cls-5" d="M298.98,500.81c1.66-1.43,3.94-2.57,5.39-4.37h1.76c.21.67-.21,1.81,0,2.19-2.69,3.61-7.15,14.16-7.15,18.16v18.73c0,.29,1.24,6.08,2.38,6.08-.31-6.37-.83-12.74.1-19.11.62-4.56,4.76-17.87,7.04-21.58s4.56-3.52,4.76-3.33v3.33c-1.45.67-1.04,1.05-1.14,2.19s0,.76,0,1.14c.1,1.81,1.14,2.95,1.24,3.33.21,1.43-.21,3.04,0,4.37,2.38,15.78,6.42,32.41,19.16,43.92,12.74,11.5,2.07,1.71,4.76,3.33s1.76.76,2.38,1.14c.93,1.24,1.66,4.09,3.63,5.51l-6.01,1.14,6.01,3.33-7.15,1.14c2.9,0,5.59.86,8.39,1.14s1.66,0,2.38,0h2.38c.1.48,2.18,1.05,2.38,1.81,1.24,4.75-10.67,4.28-13.15,8.08,3.52-.19,8.8-.48,12.02-1.62,5.49-2,3.11-5.04,11.5-2.95,1.14.29,3.83-.48,2.8,1.81-1.45,3.23-17.4,9.13-21.44,11.12-4.66,2.28-14.19,8.65-18.02,9.79-4.45,1.33-7.15-.86-9.94-.38-4.45.76-10.57,6.84-16.47,5.23l16.78-13.21c-9.63,2.38-18.23,10.27-28.69,10.93,1.86-3.52,6.01-4.75,9.12-7.03s6.32-4.66,2.28-3.99c-3.83.86-22.37,12.93-24.55,11.03s.41-2.66,1.45-3.61,16.05-9.79,14.09-11.79c-8.18,2.66-15.02,9.6-23.93,9.89l14.4-13.21c-8.18,1.43-14.09,9.03-22.79,9.89-2.49-2.28,13.05-9.41,11.91-13.21-6.21.76-9.94,6.84-16.78,5.51.73-2.19,14.09-10.17,12.02-12.07-5.8.95-11.19,7.22-17.3,6.56-2.07-2.28,5.18-5.04,7.77-7.13,2.49-2.09,4.76-4.18,6.01-7.13l-19.16,7.7c-1.55-4.47,3.83-10.93,8.91-9.98,1.35.29,0,2.76,1.86,2.28-.83-4.56,1.35-6.65,4.76-9.32l-7.15.57,1.76-15.4,4.25-9.89c.83-.57.83-1.52,1.24-2.19.73-1.24,3.73-5.32,4.76-6.56s1.66-1.43,2.38-2.19c2.49,1.05.41,3.42-.21,4.75-2.18,5.61-4.04,10.55-4.66,16.63l1.14,9.32c.73-13.59,5.8-25.38,14.4-36.22,1.14-1.43,5.28-6.27,6.42-7.32s4.56-3.23,6.73-3.71c-.31.48,0,1.9-.62,3.23-2.9,5.51-8.29,11.03-7.15,17.68,6.63-8.17,10.36-18.16,18.54-25.28v-.19Z"/>
      <path class="cls-5" d="M345.7,327.15c-.52-1.33-1.86-2.57-1.04-4.18.93-1.43,30.25-9.89,34.91-11.41,13.26-4.47,21.13-12.74,34.49-1.43,13.36,11.31,8.39,12.17,12.64,18.06,11.19,15.68,51.38,62.36,51.69,77.57,0,2.47-.83,8.36-2.8,10.46-1.86-3.99-2.18-9.51-6.53-12.07,5.08,23.48,4.45,47.72-16.78,64.26,3-.38,6.42-2.38,8.8-3.99s3.83-5.7,4.35-2.57c.62,4.09-7.87,11.88-11.39,14.83-5.08,4.18-13.26,9.22-19.68,11.03,0,2.28,4.56.67,5.8.38,4.25-1.24,9.74-3.99,13.78-6.08s11.08-8.17,9.22-3.61-10.98,10.55-13.98,12.45c-6.94,4.56-15.02,8.46-23.1,11.22-.31,1.9,2.69,1.05,3.94.86,10.25-2.09,15.54-5.04,24.24-9.7,1.14-.57,3.21-2.09,4.25-.57-10.36,10.84-27.35,19.87-43.09,21.48-1.24,3.61,6.53,2.28,8.7,1.9,10.98-1.81,23.51-8.17,32.63-13.97,1.86,4.37-7.77,9.32-11.5,11.41-12.64,7.32-29.31,12.36-44.23,12.74.52,1.9,2.07,2.19,4.04,2.09,4.66,0,13.88-1.71,18.75-2.66,11.5-2.19,21.65-6.75,32.21-11.03-7.35,9.89-24.24,15.21-36.56,18.06-12.33,2.85-14.5,3.42-17.92,3.42h-17.4l11.39,2.19c18.54.95,36.15-2.66,53.24-8.75-16.47,17.11-47.65,14.92-70.64,15.4l12.53,2.19c16.47,2.47,30.56-2.28,45.58-4.28,2.49-.38,3.31-.57,2.9,2.09-22.27,8.94-51.17,14.07-74.58,6.37-8.6-2.85-16.05-9.03-24.86-10.74,20.41,18.63,51.89,18.92,79.03,16.44l-11.7,4.09c-23.2,4.47-44.75,1.62-66.19-7.41-3.42,3.14,11.7,9.22,13.78,9.89,11.29,3.71,20.41,2.76,31.7,4.37-.41,2-2.38,2-4.14,2.19-10.57,1.14-22.48-2.19-32.94-3.33-.83-2.85-7.25-5.23-9.53-6.56-.62-.86-2.28-.95-2.38-1.14-.83-.95-3-3.61-3.63-4.37-9.84-13.31-5.39-14.45-6.32-27.95-.1-2-1.97-3.33-2.07-3.99-.31-1.81-1.04-3.52-1.24-4.37s0-.76,0-1.14c-.31-3.14.21-6.65,0-9.89h1.24c1.14.95,2.28,1.05,2.38,1.14.31,1.9-.52,4.28.93,6.27l7.46,11.31c-2.07-5.61-4.56-13.02-8.39-17.59-.93-5.23-1.76-9.98-1.24-15.4,0,0,.52-1.14,1.14-1.14,2.9,9.13,4.66,19.96,13.15,26.43-6.01-11.41-8.91-22.43-9.53-35.17v-4.37c4.76-.38,3-.19,3.63,2.66,1.04,4.37,1.97,8.65,4.14,12.74,3.21,0-2.9-14.54-3-15.4s0-.76,0-1.14c-.21-1.33.1-2.95,0-4.37-.52-6.08-1.45-13.69,3.63-18.73.41,3.8.93,8.36,1.55,12.36.21,1.71,1.24,6.75,3.31,7.41-.62-7.7-1.76-15.3-1.14-23.1s1.55-5.8,1.24-8.84h3.63c.31,4.28-.52,9.03,0,13.21.21,1.9,1.14,2.09,1.24,2.19,0,.67-.1,1.52,0,2.19.41,2.09.41,4.85,1.76,6.56,1.14,0,.52-5.23.62-6.56.21-7.22.73-13.78,1.24-20.91,1.97-3.52,4.45-5.13,7.15-7.7.21,3.71.41,8.56,1.24,12.07s.83,6.56,3.63,7.7c.52-3.04-1.04-5.89-1.14-8.75-.21-4.37.21-8.84,0-13.21,3.31-2.95,5.18-8.08,10.77-8.75,1.14,3.71,1.55,7.6,2.8,11.22s.31,3.33,2.07,3.04v-18.16c0-1.33,7.46-4.47,8.39-3.9,1.04,4.18,2.18,8.36,3.94,12.36,1.76,3.99,2.49,6.18,4.45,7.41-1.04-6.84-7.98-18.25-3.42-24.62.93-1.33,1.45-2.19,3.42-1.81.52,5.51,5.59,10.46,9.53,14.26-.31-3.8-2.69-7.41-4.25-10.93s-.31-4.09-.52-4.37c.73,0,1.66-.1,2.38,0,6.21.95,7.77,6.75,13.15,6.08l-6.63-7.13c11.81,3.04,24.34,4.47,36.56,2.19.31-1.9-2.69-1.05-4.14-1.05-9.63-.29-17.51-1.05-26.93-3.33.31-1.62,4.14-2.47,5.7-3.04,5.18-1.81,12.22-2.19,15.85-5.8h-25.79c-.62,0-2.59-1.62-4.14-1.14-1.76-1.52,20.92-7.51,21.54-10.93-9.74.95-18.75,5.32-28.69,4.37,2.59-4.56,1.76-2,5.9-3.9.83-.38,1.14-1.43,1.35-1.52,2.49-1.24,8.08-1.43,9.53-5.51-3.52,0-7.56,2.85-10.77,3.33-4.56.67-7.35-.57-10.77-1.14,6.63-3.42,13.47-7.51,17.92-13.21l-20.3,7.7c-2.8-2.47,19.16-12.26,17.92-16.44l-13.15,6.56c-2.18-2,11.5-12.17,9.01-15.4l-7.77,6.08,7.15-14.83-5.7,6.27c-1.76,1.52-5.9,14.73-7.35,8.56l-3.63-10.46v17.02c0,.48-3.83,3.71-4.76,2.76.31-2.76-.83-5.13-1.86-7.7s-1.24-5.13-4.14-4.37c1.04,5.89,3.31,11.41,2.38,17.59-6.53,1.52-3.52-8.56-9.53-8.75-.62.57,5.28,14.92-3.63,13.21.21-3.99-1.24-8.56-3-12.07s.21-2.76-2.9-2.19c-.73,5.23,2.07,9.22.62,14.35-2.49,8.65-5.9-8.94-6.42-10.65s.93-3.14-2.59-2.57v17.59c-2.59.48-2.8-1.14-3.63-2.66-2.38-4.18-3.11-11.22-3.52-15.97-2.07.48-2.49,5.7-2.49,7.13,0,4.56,4.25,15.11-2.9,10.46l-5.39-15.4v15.4c-2.49.29-1.97.19-2.69-1.33-1.97-4.28-2.28-11.5-3.31-16.16-1.66.38-2.38,6.08-2.38,7.22s2.9,12.93-1.14,9.32-6.73-15.4-7.25-18.63c-2.07-.29-1.14,2.47-1.14,3.8-.1,3.23,0,6.18.62,9.32-5.28-4.09-5.39-10.74-6.63-16.44-3.42.95,1.35,11.79-3,10.93-4.45-.86-7.66-9.32-6.63-13.12-1.86-.48-.52,4.18-3.63,1.62s-2.8-14.92,3-14.92,11.5,9.7,16.99,10.74,11.19.48,13.88-.76.41-2.47.73-3.33c-7.87,1.33-10.15,3.8-18.33-.19-1.45-.76-8.7-5.99-9.12-6.94-1.04-2.47,7.15-2.38,8.39-3.8l7.15-2.19h2.38c3.52-.38,8.8-1.81,12.02-3.33h2.38c.62,1.43,2.28,1.05,3.63,1.14.62,1.71,2.28,4.94,2.38,6.18.41,5.51-9.63,6.56-10.77,9.22.83-.1,2.49,1.24,4.76.57,2.9-.86,10.67-8.17,10.77-10.93s-1.66-3.42-2.38-4.94l-.52-.38ZM368.38,541.5l-20.41-6.56c2.38,2.85,7.98,5.04,11.7,6.37,3.73,1.33,10.05,4.47,8.7.29v-.1Z"/>
      <path class="cls-5" d="M446.27,575.53c2.28,2,10.98-11.22,13.15-12.07-.1,5.51-4.45,10.36-6.32,15.59s-1.86,3.33.31,3.04c.21-2.09,10.15-13.78,12.02-12.07l-4.76,10.46c2.69,3.61,5.7-3.8,9.53-2.76l-3.63,7.7c11.91-3.99,4.87,6.27,6.01,7.7l4.76-2.19c-1.35,4.28,1.55,3.9,2.8,5.7,15.95,23.1,29.93,48.19,44.95,71.96,16.57,26.14,36.67,53.52,51.89,79.85,1.35,2.28,4.56,6.08,2.28,7.89s-13.05,5.04-16.16,6.08c-21.03,7.13-43.09,11.98-65.26,14.92l-39.26-76.14-3.83-2.47,27.55,81.27c-15.02-1.05-30.56,3.23-44.95-1.05-7.04-24.62-15.54-49.05-24.44-73.1-12.74-34.41-28.8-66.82-42.47-100.57-3.94-9.79-8.08-18.54,5.39-23.1-.21,2.09-1.55,3.14-.62,5.42,1.45,3.71,11.91,13.78,15.23,19.11,25.17,41.44,42.16,101.99,62.36,147.15,1.04,2.38,1.86,6.18,4.45,7.41-12.95-49.71-27.14-101.33-48.16-148.67-2.28-5.04-11.81-19.49-11.7-23.38,0-3.04,8.49-4.28,11.08-3.61,5.59,1.52,18.96,22.72,22.06,28.23l44.64,83.74c-.73-9.51-6.32-18.92-9.63-27.95-7.98-21.96-27.24-68.25-28.59-89.26-.31-4.28.93-6.18,3.63-9.6l14.19-13.88-8.39,18.63h-.1Z"/>
      <path class="cls-5" d="M182.87,445.87c-.73-2.57.52-7.03,0-9.89l-7.15,6.56v-14.26l-6.01,7.7,2.38-26.33-5.7,17.3-2.69,1.43c-4.56-11.22,9.94-29.75,21.23-32.7,1.55-.38,4.56-1.14,3.94,1.43-5.39,3.23-9.84,6.27-13.15,11.5,4.66.57,6.42-3.9,9.63-5.99,8.6-5.61,10.77-3.99,18.44,1.62,12.02,8.75,27.24,21.01,38.32,30.7,11.08,9.7,16.16,16.82,24.55,25,1.55,6.46-18.96,25.95-25.17,28.9s-1.66-.19-2.38,0l14.81-14.35,5.49-9.79c-7.77,6.75-14.19,17.11-25.17,19.77-2.59-2.47,10.25-10.17,11.6-11.41s1.76-2.76,2.8-3.99c2.8-3.14,6.21-6.08,7.25-10.46-1.97-2.38-2.07.1-2.8.86-2.07,2.09-3.94,4.47-4.45,7.41l-17.92,13.21c-1.14.1-2.49-.19-3.63,0,2.9-5.51,11.7-11.03,14.4-15.97s.31-2-1.14-1.62c-.21,3.61-16.88,13.21-17.92,12.07.41-8.08,11.19-12.64,12.53-20.82-5.8,5.51-12.02,12.17-19.78,15.4-.41-.48-.83-.76-1.24-1.14l-1.24-9.89c-3.63.19-3.94,3.61-4.76,4.37s-1.76-.1-2.38,0c.31-2.57.73-5.04,1.14-7.6-3.11-.1-5.39-2.09-7.98-2.95-2.9-.95-6.94,2.09-6.32-5.89l-3.52,2.19-1.86-4.37-1.76,4.37c-.52-.76-2.28-1.81-2.38-2.19v-.19Z"/>
      <path class="cls-5" d="M272.67,355.76c-.83,1.81-.73,4.75-3.63,5.51-1.04-5.89,1.24-10.93,2.38-16.44-3.83,2.09-4.04,8.56-9.53,8.75l2.38-12.07-9.53,5.51,1.14-9.89-4.76,4.94c-4.87.48,0-7.22-1.24-8.27h-4.76l2.49-4.94c-4.87,0,.83-10.55,2.49-13.02,5.28-7.79,22.58-15.59,32.52-13.59,9.94,2,22.58,17.11,24.86,25-12.02,2-25.48,6.75-27.45,19.3-1.45,9.41,5.59,17.68-6.11,22.43.21-3.61.73-7.32,1.14-11.03.31-2.19,2.38-5.61,1.14-8.75-2.07.76-2.69,4.66-3.63,6.56h.1Z"/>
      <path class="cls-5" d="M416.86,753.57c.83,0,2.49-1.81,4.14-1.05,3,8.17,8.91,16.92,11.6,25.09.31.86,1.14,2.28-.21,2.38l-34.08-3.33,23.93-4.37-28.69-2.19v-3.23c7.87-1.52,16.37-1.62,24.13-3.61,1.24-.29,3.63-.29,3.31-1.81-4.97.19-28.8,0-31.18-2.95s-1.14-3.33-1.14-4.75c9.32-.38,18.85.57,28.17,0v-.19Z"/>
      <path class="cls-5" d="M410.12,728.47c.62.38,3.83,9.79,1.97,9.79-10.77-3.8-31.8,3.42-34.08-10.46l32.21.67h-.1Z"/>
      <path class="cls-5" d="M384.54,722.86c-7.66-.86-11.81-3.42-12.02-10.93,8.29,3.8,22.27.48,29.73,2.09,1.55.38,3.73,7.03,3.21,8.84-6.63-.57-14.4.76-20.92,0Z"/>
      <path class="cls-5" d="M418.72,750.33c-1.14,1.05-29.11-1.43-31.49-2.38-2.59-1.05-3.11-5.04-3.21-7.51,8.39,3.14,24.44-.95,31.59,1.24,7.15,2.19,3.21,6.37,3.11,8.65h0Z"/>
      <path class="cls-5" d="M398.32,708.51c-8.49-1.14-29.93,2.28-29.93-8.75,9.63,1.33,28.07-2.85,29.93,8.75Z"/>
      <path class="cls-5" d="M385.78,687.69c1.04.29,6.32,6.94,5.39,7.7-8.39.67-16.57-1.43-24.96-1.24l-2.59-6.37c5.9.95,16.99-1.33,22.17,0v-.1Z"/>
      <path class="cls-5" d="M382.78,682.18c-.73.67-19.68-.29-21.34-1.33s-3.11-5.99-2.59-6.37c8.18,2.95,24.34-3.42,23.93,7.7h0Z"/>
      <path class="cls-5" d="M373.66,666.4c1.35,1.24,3.73,1.24,3.11,3.71-8.18-2.57-21.44,2.76-22.68-7.7,8.8.19,13.15-1.81,19.58,3.99h0Z"/>
      <path class="cls-5" d="M367.24,657.94c-7.25-.19-15.64,2.28-16.78-6.56,6.84.1,16.47-2.09,16.78,6.56Z"/>
      <path class="cls-5" d="M357.51,639.5l1.35,6.46c-5.7-.19-12.12,2-13.15-4.94s.1-1.43,1.76-1.62,9.32-.29,10.05.19v-.1Z"/>
      <path class="cls-5" d="M230.72,350.24c.21,0,1.24-1.24,2.9-1.24,4.35,0,9.94,4.18,13.26,6.65,12.64,9.6,30.25,28.9,41.85,40.68,2.9,2.95,8.7,11.41,10.57,12.93s2.59,0,3.31.95c1.24,1.62.73,5.32,1.14,5.99-1.86-.1-.93,1.71-1.24,2.19-5.18,7.98-9.43,17.11-18.75,21.86s-4.04,2.19-5.18.76c6.73-5.99,13.57-13.69,16.99-21.77s1.97-3.33.31-4.09c-6.73,10.93-15.02,20.63-27.55,26.33,4.45-7.89,13.26-13.4,15.02-23-1.97.95-2.38,3.52-4.14,5.51s-16.37,15.4-17.4,14.26l4.76-14.26-10.77,11.03,2.38-9.89-7.15,6.56,1.14-11.03c-4.35-.19-4.76,5.32-8.39,6.56l3.52-15.4-8.91,9.89c-4.35-.86,3.31-11.41,1.76-14.26l-8.91,8.84c-.21-4.66,4.66-7.98,3-13.21l-6.63,7.7-3-1.71,2.38-8.17-7.15,6.56,1.14-9.89-4.76,1.62,3.63-9.89-9.53,6.08,1.76-15.4-9.01,11.03,3.52-16.44c-5.7,6.08-3.21,3.8-9.53,2.19,3.11-15.4,16.16-24.05,32.32-26.33l-7.15,7.13c3.52,1.81,8.8-3.61,8.39-7.13l.1-.19Z"/>
      <path class="cls-5" d="M350.46,635.98h-7.15v-5.51c5.28-.48,7.98,0,7.15,5.51Z"/>
      <path class="cls-5" d="M313.38,310.7c.52-5.32,2.59-8.27,3.63-13.21-1.97-2.09-7.25,8.36-9.01,8.75-1.66-6.75,5.8-12.64,5.39-19.77l-10.77,13.21c-.83-6.56.52-11.79,4.76-17.01l-10.77,6.08,2.38-9.89-3.52,1.62c6.84-15.4,29.52-24.62,44.85-12.64,4.97,3.8,22.37,30.32,25.07,36.31s1.04,2.76.62,4.28c-4.25-.29-20.41,8.17-22.68,6.65l2.38-3.23c-3.21-.86-1.86,1.33-3.21,2.19s-7.46,4.28-8.18,4.37c-5.8.95,5.28-8.27,4.76-9.89l-16.78,12.07c1.66-6.27,8.39-9.79,11.39-15.4-1.66-1.43-15.23,10.65-16.16,13.21-1.04-.57-.73-3.23-.62-4.37.41-4.94,5.7-5.32,6.01-11.03l-9.53,7.7h0Z"/>
      <g>
        <path class="cls-5" d="M252.27,529.42c-.21.95.31,2.57,0,3.33-3,7.79-2.38,14.26-10.77,17.59-.73-5.7,3.83-15.68,7.87-19.77,1.14-1.14,2.49-.76,2.9-1.05v-.1Z"/>
        <path class="cls-5" d="M337.31,559.08c-2.69-1.52-2.28-.95-4.76-3.33l1.24-1.14c.62.76,2.8,3.42,3.63,4.37l-.1.1Z"/>
        <path class="cls-5" d="M349.22,566.78c.41,1.52-.41,4.09,0,5.51h-2.38l-1.76-1.14-.62,1.14c-2.8-.29-5.49-1.14-8.39-1.14l7.15-1.14-6.01-3.33,6.01-1.14c-1.97-1.43-2.69-4.28-3.63-5.51,2.38,1.33,8.8,3.8,9.53,6.56l.1.19Z"/>
        <path class="cls-5" d="M248.64,551.38c-1.45,3.23-.52,5.51,0,8.75l-8.91,3.42c-6.42-1.52,7.15-13.88,8.91-12.07v-.1Z"/>
        <path class="cls-5" d="M303.75,416.21c.93,1.43,2.8.76,3.63,6.56s-.1,1.52,0,2.19c-3.73,4.18-6.42,7.22-10.77,11.03,1.76-3.42,4.25-8.56,5.49-12.07s.21-3.9.52-5.51,1.86-.29,1.24-2.19h-.1Z"/>
        <path class="cls-5" d="M271.43,467.83c-.31.38-.93.76-1.24,1.14-2.07,2.66-1.24,1.71-2.38,4.37-3.21,1.24-6.53,5.04-9.53,7.7.31-.48-.21-2.09.62-3.23,2.59-3.61,7.66-7.03,7.77-12.17l4.76,2.19h0Z"/>
        <path class="cls-5" d="M254.65,484.37c-.73,1.14-1.66,2.19-2.38,3.33h-1.24c0-.1-1.86-1.05-.73-2.19s3.52-.76,4.25-1.05l.1-.1Z"/>
        <path class="cls-5" d="M229.48,540.36c0-.1,1.66.29,2.38-.76,1.66-2.38,4.87-9.6,7.25-7.41-.41,1.14-.62,2.76-1.24,3.8-1.86,3.52-9.12,11.6-13.15,13.21,1.86-2.57,4.14-4.09,4.56-4.66.83-1.24-.1-3.42.21-4.18Z"/>
        <path class="cls-5" d="M296.6,435.98c-1.45,2.85-5.49,6.65-8.39,8.75s-6.11,2.66-7.98,5.42c-1.35.38-1.35-.86-1.66-1.05,3.63-1.81,7.66-4.66,10.88-7.13s5.18-4.47,7.15-6.08v.1Z"/>
        <path class="cls-5" d="M368.38,541.5c1.35,4.18-6.73.38-8.7-.29-3.73-1.33-9.22-3.42-11.7-6.37l20.41,6.56v.1Z"/>
        <path class="cls-5" d="M248.64,466.78c.52-2.85,2.38-5.32,4.45-7.41s.83-3.23,2.8-.86c-.93,4.28-4.45,7.22-7.25,10.46,0-.67-.1-1.52,0-2.19Z"/>
      </g>
    </g>
  </g>
</svg>