<?xml version="1.0" encoding="UTF-8"?>
<svg id="Layer_2" xmlns="http://www.w3.org/2000/svg" version="1.1" viewBox="0 0 2883.2 1043.9">
  <!-- Generator: Adobe Illustrator 29.5.0, SVG Export Plug-In . SVG Version: 2.1.0 Build 137)  -->
  <defs>
    <style>
      .st0 {
        fill: #0c0b0a;
      }

      .st1 {
        fill: #2d2e2d;
      }

      .st2 {
        fill: #fff;
        fill-rule: evenodd;
      }

      .st3 {
        fill: #231f20;
      }

      .st4 {
        fill: #e83226;
      }

      .st5 {
        fill: #89969d;
      }

      .st6, .st7 {
        fill: #f6f0e0;
      }

      .st8 {
        fill: #0a0a0a;
      }

      .st7 {
        stroke: #000;
        stroke-miterlimit: 10;
        stroke-width: 15px;
      }
    </style>
  </defs>
  <g id="Layer_1-2">
    <g>
      <g>
        <path class="st3" d="M1136,345.5c-17.6-11.9-40-17.1-63.8-17.1-55.8,0-99,42.7-99,94.1s43.1,95.9,99,95.9,46.2-5.3,63.8-17.1v81.8c-20.7,10.1-44,14.1-69.1,14.1-104.7,0-179.4-77.8-179.4-174.2s74.8-173.3,179.4-173.3,48.4,4.8,69.1,14.5v81.4h0Z"/>
        <path class="st3" d="M1261.3,259.3v250.7h109.1v77.4h-194.4v-328.1h85.3Z"/>
        <path class="st3" d="M1609.7,542.1h-124l-16.3,45.3h-88.8l126.2-328.1h84l126.2,328.1h-91.5l-15.8-45.3ZM1586.3,475.7l-38.3-108.6-38.7,108.6h77Z"/>
        <path class="st3" d="M1740.3,259.3h85.3v328.1h-85.3v-328.1h0Z"/>
        <path class="st3" d="M1954.4,587.4h-84.4v-328.1h87.5l96.3,131.1,91-131.1h86.6v328.1h-84.4v-168l.4-22.4-91.5,126.2h-6.6l-95.4-127.5.4,23.3v168.4h0Z"/>
      </g>
      <g>
        <path class="st3" d="M989.1,856h-4.8v104.7h-85.3v-328.1h98.1c63.3,0,132.4,21.1,132.4,114.3s-23.8,71.2-55,88.8l86.6,124.9h-102l-69.9-104.7h0ZM984.3,708.3v81.4h15.8c28.6,0,45.3-13.6,45.3-41.3s-20.2-40-45.7-40h-15.4Z"/>
        <path class="st3" d="M1188.8,632.6h194.8v75.2h-109.5v52.8h97.6v68.2h-97.6v56.7h113v75.2h-198.3v-328.1h0Z"/>
        <path class="st3" d="M1660.7,718.8c-17.6-11.9-40-17.2-63.8-17.2-55.8,0-98.9,42.7-98.9,94.1s43.1,95.9,98.9,95.9,46.2-5.3,63.8-17.2v81.8c-20.7,10.1-44,14.1-69.1,14.1-104.7,0-179.4-77.8-179.4-174.2s74.8-173.3,179.4-173.3,48.4,4.8,69.1,14.5v81.4h0Z"/>
        <path class="st3" d="M2177,856h-4.8v104.7h-85.3v-328.1h98.1c63.3,0,132.4,21.1,132.4,114.3s-23.8,71.2-55,88.8l86.6,124.9h-102l-69.9-104.7ZM2172.1,708.3v81.4h15.8c28.6,0,45.3-13.6,45.3-41.3s-20.2-40-45.7-40h-15.4Z"/>
        <path class="st3" d="M2376.6,632.6h102.5c91.5,0,175.9,46.6,175.9,163.6s-82.2,164.5-175,164.5h-103.4v-328.1h0ZM2461.9,883.3h22.4c45.7,0,85.3-28.2,85.3-87.1s-39.6-85.8-85.3-86.2h-22.4v173.3h0Z"/>
        <path class="st3" d="M2867.4,707.4c-15.8-7.5-40-12.8-60.2-12.8s-36.1,6.2-36.1,18.9,16.3,24.6,44,51.5c51.9,48.4,68.2,76.1,68.2,110.4,0,56.7-53.2,90.6-120.5,90.6s-61.6-4.8-78.7-11l.4-72.6c17.6,6.6,48.4,15,77.4,15s34.7-9.2,34.7-21.1-14.9-29-44.4-56.3c-52.8-47.1-70.8-67.7-70.8-106.9s37.4-87.1,120.9-87.1,46.6,2.2,65.5,8.8l-.4,72.6h0Z"/>
        <g>
          <path class="st3" d="M2058,796.2c0,96.8-80,175-182.1,175s-182.5-78.3-182.5-175,79.6-174.2,182.5-174.2,182.1,77.8,182.1,174.2ZM1828.3,796.7c0,26.3,20.3,47.3,47.5,47.3s47.3-20.9,47.3-47.3-20.5-47.3-47.3-47.3-47.5,20.7-47.5,47.3Z"/>
          <path class="st2" d="M2012.9,720.4c13.4,16.9,23.5,35.8,32.3,56.2,0,0,.1-98.2-130.2-144.1,0,0,26.6,16.3,57.1,44.3-15.9-11.9-35.9-22.9-61.2-31.8,0,0,31.8,19.5,64.5,52.2-16-14.5-37.9-28.3-67.8-38.8,0,0,24.9,15.3,52.3,41.2-13.2-10.2-30.2-19.8-51.8-27.4,0,0,27.3,16.8,54.8,44.7-13.6-12.9-32.6-25.3-59.1-34.7,0,0,26.2,16.1,52.3,42.9-11.8-11.5-28.5-22.5-52.1-30.8,0,0,19.6,12,40.4,32.3-9.8-8.2-22.6-15.9-39.7-21.9,0,0,17,10.4,35.1,28.1-8-6.7-18.6-13-32.6-18,0,0,12.2,7.5,25.9,20.3-6-4.4-13.5-8.5-22.9-11.8,0,0,11.9,7.3,24.3,19.6-5.9-5-13.8-9.7-24.6-13.3,0,0,8.3,4.8,17.8,13.2-3-1.9-6.6-3.6-10.9-5,0,0,17.4,11.4,24.9,28.3,0,0,1.9-4.3-1-9.9,4.1,5,5.7,10.5,8.4,16.5,0,0,1.9-9-5.1-19.4,4.9,6.1,7.4,13,10.6,20.4,0,0,1.8-9.8-5.4-21.5,6.1,7.5,9.6,16,13.5,25.2,0,0,1.7-14.6-9.9-30.8,8.5,10,14.3,21.5,19.8,34.2,0,0,1.7-17.7-12.4-37.3,9.6,11.5,16.5,24.6,22.7,38.9,0,0,1.5-24.4-19.5-49.4,13,14.5,23.3,31.7,31.6,50.8,0,0,1.5-27.3-21.6-55.6,13.2,15.1,23.7,32.7,32.1,52.2,0,0,1.6-21.3-13.9-46.3,10.8,13.8,18.5,29.2,25.7,45.8,0,0,1.4-30.8-24-63.6,15.4,18,27.8,38.7,37.7,61.6,0,0,1.5-26.6-18.1-57.7h0Z"/>
        </g>
      </g>
    </g>
  </g>
  <g>
    <circle class="st7" cx="438.8" cy="591" r="415.6"/>
    <circle cx="439.6" cy="590.7" r="390.1"/>
    <path class="st0" d="M165,648.7c-3.6-13.2-4.2-14.6-9.9-26.5-8.3-17.5-5.5-34.5,10-46.8s11.8-6,14.3-10,1.8-11.7,3.6-17.2c2.8-8.8,10.5-17.4,18.2-22.2,5.6-3.5,19.7-6.5,22.2-9s2.5-9.4,3.8-13.5c4-12.9,11.3-22.3,23.3-28.7,5.5-3,16.1-4.9,19.7-8,4.3-3.6,7.3-17.4,12.1-23.7,10.8-14,29.9-20,46.4-11.8s10.5,9.6,12.9,8.1c51.3-63.8,101.3-128.8,151.6-193.4,4.5-5.8,9.2-11.6,13.8-17.4s2.9-1.4,3.2-1.9c.7-1.3.6-11.6,1.7-15.1,1.6-4.9,10.5-24.2,13.6-28.1,7.7-9.7,14.5-4.7,23.6-6.4s5-3.9,8.2-4.5c8.2-1.6,15.4,2.1,20.2,8.6,9,12.3-2.4,14.3-2.3,18.5,5.4,2.9,8.2,11.6,7.4,17.7s-12.3,21.2-17.7,26.3-16.5,9.5-13.8,13.2c37.5,11.8,75.3,18.2,99.8,52.2,20.5,28.4,12,62.2,52.9,75.4,26.2,8.4,55.5,4.3,79.9,17.2,16.5,8.7,43.8,32.8,36.9,53.8-2.9,9-19.7,22.4-15.4,32.2,7.7,17.6,40.4,23.4,57.3,22.4,9.1-.5,17.8-3.5,26.7-4.6s1.9-.3,1.6,1.6c-.8,6.2-8,21-11.1,27.1-18.7,35.9-50,54.2-70.7,88.8-22.6,37.8-37.8,82.1-59.8,120.5-32.1,34.6-120.4,5.4-131.7-36.9-5.5-20.4,2.7-28.9,8.1-46.3s1.3-21.4-17.4-24.1c-12.2-1.8-26.7-2.1-39.4-3.2-5.3-.5-6.4-.4-12-2.1-26-7.8-49.4-20.1-57.2-48-2.3-8.1-2.8-16.7-5.3-24.8-9.6-31.6-45.4-56.3-76.2-64.2,10.8,24.6,31.6,43,46.5,65.1,3.6,5.3,9.2,12.5,10,18.9,2.5,18.3-11.5,64.1-15.5,84.9s-3.3,28.1-6.7,41.9c-1.9,7.8-5.3,15.1-7.3,22.9,43,75.3,85.9,151,131.3,224.9,4.3,1.3,5.4,1.4,4.1-2.9-4.5-14.6-30.2-43.4-31.8-56.6-.6-4.9,2.1-12.9-3.5-15.6-1.4-.7-4.3-.5-4.5-.7-.4-.4.2-4.3-.3-6-.5-1.5-2-2.7-2.7-4.3-2.1-5.3,1-9.1-8.6-5.8-25-43-50.2-86.1-74.7-129.5-.6-2.3,2.3-13.4,3-16.8s-.8-2,2.3-1.7c13.1,46.7,41.7,88.2,66.5,129.5.9,1.5-.2,2.9,2.9,2.3,1.1-1.4-10.1-21.4-11.8-24.6-17-33.2-35.5-72.4-48-108-.6-1.7-.9-3.1,1.4-2.6l35.3,54.6c33.5,43.1,58.9,95.6,84.9,145.4l1.7,1.2c.4-.6-.8-7-1.3-8.3s-1.7-.9-2.1-1.8c-18.9-48.3-47.1-96.2-75.5-138.1l-32.1-59.3c-.5-1.4.3-2.3,1.7-1.7,2.6,1.1,16.2,16.9,19.1,20.3,14.6,17.3,29.7,37.8,43.3,56.1,30,40.5,56.9,83,85,124.8.5-3.1-.9-5.1-2.1-7.7-9.8-20.9-31.1-51.2-44.1-71.5-26.8-41.8-57-80.7-84.7-121s-5.3-12.3-10.1-14.8c.5-2.9,1.7-.8,2.7.1,5.4,4.9,10.3,10.7,15.7,15.5,23,20.3,48.7,50,71.8,66.9s6.7,5.3,10.3,5.3c2-1.7-31.8-37.5-34.7-40.5l1.2-2.3c1.7,1.4,7.5,5.7,9.2,6.4s4,1.6,3.5-1.2l-63.6-67.1c4.2-1,9.9,3.5,13.8,5.9,30.1,18.6,57.5,50.6,87.6,67.3,1.3.7,2.1,1.7,3.8,1.4l1.2-3.5c-.1.5.3,1.3.6,1.1,2.9-1.3,7.1-6.2,9.5-6.7s8.9,1.9,9.5,2.1c2.8,1.1,3.4,2.7,4.6,3.5-2.6.8.3,3.2,1.1,4.2,2.2,2.8,9.2,9.2,5.9,11.4s-6.8,1-8.2,0c-2.6-1.8,0-10-1.3-12s-3.3-.7-4.5-1.9c-2.2-2.3.9-4.7-5.2-4.1-6.7.7-2.3,5.7-5.7,8.3s-3.7.6-4.9,1.4-1.8,3.1-5,3.8-3.3-3.2-6.9-3v9.2c5.3-3,5.8,2.4,8.9,3.2,2.5.7,6.8-.5,8.5.7s.3,5.2,2.2,7.1,5.4,1.1,7,2.3,9.8,14.6,11.6,16.1,4.4,1,6.1,2c6.9,3.9,5.8,10.7,8.3,13.6s10.3,8.1,11,8.6c1.4.9,3.6.5,4.6,1.2s6.3,12.2,9.2,15.1,8.4,3.5,8.9,8.2-1,3.1-.8,4.4c.9,5,3.9,12.5,4.6,17.4,1.1,7.7-5.1,5.2-5.9,10.5-.2,1.6,0,9.5,3.5,8.6-76.3,80.5-177.3,126.2-290.1,111-1.2-2.8,4.9-5.4,3.5-6.9s-6.4,0-8.4-.2c-2.9-.4-6.3-5.1-7.8,2.5,4.1-.3,8.7-.6,9.2,4.6-16.2-2.4-32.8-5.2-48-11.6l-57.4-155.3c-20.6-22.2-55.1-20.2-74.8-45.4-.9-1.2-.9-3.4-1.3-3.9h2.9s-.6,1.1-.6,1.1c5.2-2.1,7,10.3,10.4,7s-1.2-10.8-1.3-13.3,1.5-6.4,1-10.1-3.8-9.8-4.8-11-6.4-2.4-7.1-3.8c-2.2-4.5.6-4.1,1.7-5.8,4-1.7,10.9-10.2,12.7-13.9l3.4,4.1-5.5,2-6,12.5c5.3,1.4,7.1,1.4,8.1-4.6,2-.5.7,1.8,1.2,2.2,1.3,1.1,2.1-1,2.3-1.1,8.1-3.5,7.5-10.3,10.4-18.5h3.5l-4.1,10.4-1.7,16.2,6.9-.6c-3.4,2.8-5.5,5-4.6,9.8-1.9.5-.6-2.1-1.8-2.4-4.8-1-10,5.8-8.6,10.5l18.5-8.1c-1.2,3.1-3.4,5.4-5.8,7.5-2.5,2.3-9.5,5.1-7.5,7.5,5.9.7,11.1-5.9,16.7-6.9,2,2-10.8,10.4-11.6,12.7,6.5,1.4,10.2-4.9,16.2-5.8,1.1,4-14,11.5-11.5,13.9,8.3-.9,14.1-8.9,22-10.4l-13.9,13.9c8.6-.3,15.2-7.6,23.1-10.4,2,2.1-12.2,11-13.6,12.4s-2.8,2.5-1.4,3.8c2,2.1,20-10.7,23.7-11.6,3.9-.7-2,4-2.2,4.2-3,2.4-7,3.7-8.8,7.4,10.2-.7,18.4-9,27.7-11.5l-16.2,13.9c5.7,1.6,11.6-4.7,15.9-5.5,2.7-.5,5.2,1.8,9.6.4,3.8-1.2,12.9-7.9,17.4-10.3,3.9-2.1,19.2-8.3,20.7-11.7s-1.6-1.6-2.7-1.9c-8.1-2.2-5.8,1-11.1,3.1s-8.2,1.5-11.6,1.7c2.4-4,14-3.5,12.7-8.5s-2.2-1.4-2.3-1.9c-.4-1.5.4-4.2,0-5.8,10.1,1.2,21.6,4.7,31.8,3.5,1.7-.2,3.6-.2,4-2.3-11-1.7-19.8-.7-30.6-4.6-2-.7-16.5-7.1-13.3-10.4,20.7,9.5,41.4,12.5,63.9,7.8l11.3-4.3c-26.2,2.5-56.6,2.3-76.3-17.3,8.5,1.7,15.6,8.3,24,11.3,22.6,8.1,50.5,2.7,72-6.7.5-2.8-.4-2.6-2.8-2.2-14.5,2.2-28.1,7.2-44,4.5l-12.1-2.3c22.2-.5,52.2,1.8,68.2-16.2-16.5,6.4-33.5,10.2-51.4,9.2l-11-2.3h16.8c3.3,0,13.4-2.6,17.3-3.6,11.9-3,28.2-8.6,35.3-19-10.2,4.5-20.1,9.3-31.1,11.6-4.7,1-13.6,2.7-18.1,2.8s-3.4-.2-3.9-2.2c14.4-.4,30.4-5.7,42.7-13.4,3.6-2.3,12.8-7.5,11.1-12-8.8,6.1-20.9,12.8-31.5,14.7-2.1.4-9.6,1.8-8.4-2,15.2-1.7,31.6-11.2,41.6-22.6-.9-1.7-3,0-4.1.6-8.4,4.9-13.5,8-23.4,10.2-1.2.3-4.1,1.2-3.8-.9,7.8-2.8,15.6-6.9,22.3-11.8s12.4-10.2,13.5-13.1c1.8-4.7-7.9,3.3-8.9,3.8-3.8,2.2-9.1,5.1-13.3,6.4s-5.6,2.1-5.6-.4c6.2-1.9,14.1-7.2,19-11.6s11.6-11.3,11-15.6c-.4-3.3-3.6,2.3-4.2,2.7-2.3,1.7-5.7,3.8-8.5,4.2,20.5-17.5,21-42.9,16.2-67.6,4.2,2.7,4.5,8.5,6.3,12.7,1.8-2.2,2.7-8.4,2.7-11-.3-16-39.2-65.1-49.9-81.6-4.1-6.2-6.3-13.6-12.2-19-12.9-11.9-20.5-3.2-33.3,1.5-4.5,1.6-32.8,10.5-33.7,12-.8,1.7.5,3,1,4.4-1.5,0-3.1,0-4.6,0-.2-.6.2-1.6,0-2.3-1.6-.7-3.2,1.1-3.5,1.2-.8,0-1.5,0-2.3,0s-2-1.7-5.1-1.1c-1.7.3-7.6,2.5-6.5,4.6-.8,0-1.6,0-2.3,0s-7.7-2.6-6.9,2.3c-1.2,1.6-9.1,1.4-8.1,4s7.4,6.6,8.8,7.3c7.9,4.2,10.1,1.6,17.7.2-.4,1,.9,2.7-.7,3.5-2.7,1.4-10.4,1.5-13.4.8-5.4-1.1-13.9-11.3-16.4-11.3-5.6,0-6.7,12.3-2.9,15.7s1.6-2.2,3.5-1.7c-1.1,4.1,2.1,12.9,6.4,13.8,4.1.9-.4-10.5,2.9-11.5,1.2,6,1.3,13.1,6.4,17.3-.6-3.3-.7-6.4-.6-9.8s-.9-4.3,1.1-4c.5,3.5,5.2,17.9,7,19.6,3.9,3.9,1.1-8.9,1.1-9.8s.7-7.2,2.3-7.6c1,5,1.3,12.5,3.2,17s.2,1.7,2.6,1.4v-16.2l5.2,16.2c6.9,4.9,2.8-6.2,2.8-11s.4-7,2.4-7.5c.4,5,1.1,12.4,3.4,16.8s1.1,3.3,3.5,2.8v-18.5c3.4-.6,1.9.8,2.5,2.7s3.8,20.4,6.2,11.2c1.4-5.4-1.3-9.6-.6-15.1,3-.6,2,.6,2.8,2.3,1.8,3.8,3.1,8.6,2.9,12.7,8.6,1.8,2.9-13.2,3.5-13.9,5.8.3,2.9,10.9,9.2,9.2.9-6.5-1.3-12.3-2.3-18.5,2.8-.8,3.3,2.8,4,4.6,1,2.7,2,5.1,1.8,8.1.9,1,4.6-2.4,4.6-2.9v-17.9l3.5,11c1.5,6.4,5.5-7.4,7.1-9l5.5-6.6-6.9,15.6,7.5-6.4c2.4,3.4-10.7,14.1-8.7,16.2l12.7-6.9c1.2,4.4-20,14.7-17.3,17.3l19.6-8.1c-4.4,6-10.9,10.3-17.3,13.9-8.4-1.3-20.1.3-29.5,0-5.2-.1-9-4.1-8.6,4.6-4.1-3.2-9.5,1.1-10.8,1s-4.2-3.8-6.2-4.2c-3.5-.7-11.9,3.8-15.1,1.8s-.3-3.9-4-3c-8,2.1-8.7,4.4-7.8,12.5l-3.4-.6c.8,1.6,2.2,4.6,4.5,2.9s.3-7,4.7-6.9c1.9,6.3.1,3.6-1.6,5.9s-.8,2.3-1.5,3.3c-1.1,1.6-3.9,1-2.7,5.1s6,3.3,1.8,4.2c-6,1.4-2.5-6-2.9-9.2l-5.2,3.5-1.2-3.6h-8.6c0,0,8.7,14,8.7,14h22c4.7,7.8-3.5,2.6-5.9,2.3-9.3-1.1-1.5,13.3-10.9,15-.8-6.1-2.6-5.5-3.5-6.9s.1-4.6-1.1-6.3-2.6-.4-3.2-1c-1.7-1.6-7.4-10.5-10.2-13.6-11.3-12.4-28.3-32.7-40.4-42.8-3.2-2.6-8.7-6.9-12.8-7s-2.6,1.2-2.8,1.3c-.4,0-.8,0-1.2,0-15.6,2.4-28.2,11.6-31.2,27.7,6.1,1.7,3.7,4.1,9.2-2.3l-3.4,17.3,8.7-11.6-1.7,16.2,9.2-6.4-3.5,10.4,4.6-1.7-1.1,10.4,6.9-6.9-2.3,8.6,2.9,1.8,6.4-8.1c1.6,5.5-3,9-2.9,13.9l8.6-9.3c1.5,3.1-5.9,14.1-1.7,15l8.6-10.4-3.4,16.2c3.5-1.3,3.9-7.1,8.1-6.9l-1.1,11.6,6.9-6.9-2.3,10.4,10.4-11.6-4.6,15c1,1.2,15.5-13.5,16.8-15s2.1-4.8,4-5.8c-1.7,10.2-10.2,15.9-14.5,24.2,12.1-6,20.1-16.2,26.6-27.7,1.5.7,0,3.2-.3,4.3-3.4,8.5-9.9,16.6-16.4,22.9,1.1,1.6,3.8,0,5-.8,9-5,13.1-14.6,18.1-23-.3,1.7.2,3.7-.5,5.8-1.1,3.7-3.6,9-5.3,12.7,4.2-3.9,6.8-7.2,10.4-11.6.3,1.7-.3,3.8.3,6,1.3,5.2,11,17-3.1,14.7-3.2-.5-5.3-3.8-8.1-3.5s-3.8,7.6-7.5,3.6c2.8-2.2,6.7-6.3,8.1-9.2-1.9,1.8-4.8,4.6-6.9,6.4-3,2.6-6.9,5.6-10.5,7.5-1.8-1.1-3.2-4.3-4.2-4.5-1.5-.4-3.2,1-4.5.9s-6-4.7-7.3-.3,3,4.3,5.2,6.2,1.3,4,4.8,4.4c2.8.3,21.9-3.3,19.8,5.3-1.4,5.8-13.6,1.1-16.4,2s-3,4-4.2,5.7l-4.6-2.3c-.1,5.4-5,9-7.5,12.8s-.3,2.9-.6,3.4c-1.1,1.1-.6.2-2.3,2.3s-.9.7-1.2,1.2c-.7.4-2.7-.5-4.1,1.1s.7,2.2.7,2.3c-1,4.1-1.4,3-1.5,7.8-.2,10.3-6.4-3.7-7.8-6.7,6.1-3.1,25.8-23.6,24.3-30.4-8.1-8.6-15.1-18.1-23.7-26.3s-25.5-23.1-37-32.3c-7.4-5.9-9.5-7.5-17.8-1.7-3.1,2.2-4.9,6.8-9.3,6.3,3.2-5.6,7.5-8.7,12.7-12.1.6-2.7-2.3-1.9-3.8-1.5-10.9,3.2-24.9,22.6-20.5,34.4l2.6-1.5,5.5-18.2-2.3,27.7,5.8-8.1v15s6.9-6.9,6.9-6.9c.5,3-.7,7.7,0,10.4l-11.6-1.2c.1,2.3-.5,5.1.2,7.3s3.8,2.6,4.2,3.3c1.1,1.9-1.5,10.3-4.4,11.4ZM569.3,177.3c-3.3-3.1-11.5-1.8-13.6,2.6l13.8,6.4c-.5-2.4,1.6-7.2-.2-9ZM571.9,202.4c.4-2.6-.9-3.5-2.3-5.2-5.9-7.4-30.9-20.3-38-11.4s-9.2,18-9.4,19.5c-.3,2.6.4,1.2,1.6,1.8,2.6,1.2,5,1.5,7.6,2.2l-1.2,3.5c4.8-1,3.1,2,3.5,2.3-7.4-2.2-13-3.8-17.3,4,5.7,1.1,12,1.8,17.3,4.1,3.9,1.6,21.5,15.5,23.1,13.9.9-6.9-9.1-15.5-15-17.3-.3-.4-.7-1-1.2-1.2l-1.2-4.6h2.3c2.4,1.3,5.7,2.3,8,4.1l8.7,7.4c2.6-1.2,8.3-13.2,11-15.7s7.9-.2,2.4-7.5ZM523.3,236c.3-.3-.3-1.3,0-1.6,2.6-3,2.4,1.9,3.2,3.5,1.6,3.2,3.9,7.5,5.7,10.5,1.3,2.1,1.1,1.6,3.8,1.4-3.7-7.9-10-29.9-20.2-16.2-51.2,69.6-110.5,135.4-161.7,204.8-1.4,1.9-5.9,7.2-6.3,8.8-1.1,4.9,3.1,4.6,3.3,4.9,3.1,5,4.5,9.7,9.1,15.8s.6,6.7,6,2.1c51.1-66.8,101.7-134.2,153.2-200.5,1.4-1.8,4.8-2.8,5.7-4.8,1.5-3.4-4.6-14.6-5.3-19l4.6.6,1.1,2.3c2.7-5-.7-4.5-.9-5.2-.3-1.5.9-5.2-1.4-7.5ZM651.6,341.2c-9.5-44.6-50.3-59-90.9-66.9l.7,2.2c-10.6-2.2-14.3-1-22,5.8s-.6-.7-2.8,3-3.1,0-.7,4c-6.7-1.1-5.2,3.1-6.9,5.8s-3.9,4.1-5.8,8.1-1.6,1.8-1.2,3.5c-.4,0-.8,0-1.2,0-.5.1-.8.9-1.2,1.2-.8.6-1.6,1.5-2.3,2.3s0,2.2-1.8,3.4c-3.4,2.2-2.7-.6-5.1,3.6-.4.7-.7,1.6-1.2,2.3-1.1,2-.5,1.4-2.3,3.5s-2.8,1.5-3.5,2.3c-1.6,2-1.2,4.1-2.3,5.8s-.8.7-1.2,1.2-.6.2-2.3,2.3-1.5,2.4-2.3,3.5-2.7,1.2-2.3,3.5c-.4,0-.8,0-1.2,0-.9.2-.8.6-1.2,1.2s.1.8,0,1.2c-3.4-.9-2.4,3.3-3.5,5.8-1.5.3-1.8.9-2.3,1.2-6.6,2.6-4,5-6.1,8.4s-2.5,2.2-3.2,3.2c-1.8,2.6-4.6,6.3,0,5.8-.7.7-.9,2.4-1.2,3.5-3.3.7-4.5-.7-8.1,2.3s-5,6.7-6.9,9.2-1.2,3.8-2.2,5.3c-1.8,2.3-6.8,2.6-5.8,7.5-.3.2-5.6,4-5.8,4.3-1,1.1-4.6,6.6-5.7,8.4s.2.9,0,1.2-.9.7-1.2,1.2-1.4,2.1-1.2,2.3h2.3c-.3.2-.1,3-4.6,3.5-.4,0-.8,0-1.2,0s-.9.7-1.2,1.2c-1.4,1.8-2.3,2.3-3.5,3.5-3.3,3.5-1.5,4.9-3.4,7.6s-8.7,4.2-8.2,6.8,13.1,0,16.8.6,3.6.8,1.7,2.3c-4,0-26,4.9-26.6,7.7-1.7,7.8,7.8,4.6,11.6,3.9s7.7-1.6,11.6-2.3c.8,4.4-7.6,1.2-9.2,5.8-.8,0-1.6,0-2.3,0s-1.1-2.2-2.3,1.2c-4.6.6-9.5,2-13.5,4.3s-3.1.9-.9,2.6c2.1-.3,3.9-1.7,6-2.1,9.6-1.5,19.5-4.2,29.2-4.9l12.7,1.2-2.3,3.5c-5.5.4-13.9.3-19,1.2-8.1,1.4-17.8,6.3-26.1,8,.8,2.7,1.4,1.8,3.1,1.5,11.8-2.2,18.9-4.8,31.5-5,2.9,0,7.3.9,9.2-1.2.8,0,1.5,0,2.3,0v2.3s-6.9,0-6.9,0v2.3c-8.2,1-21.3,1-28.9,5.2s-1.5,1.3-1.1,1.7c1.9.6,3.9.8,5.8,1.2,1.9.4,3.8.7,5.8,1.2,34.9,8.2,60.1,27.9,75.3,60.5,3.8,8.2,7.9,18.2,7.9,27.4,5.3,1.1-.7-8,4.6-6.9.8,5.4.5,11.6,1.2,16.8s-.3,1.9,2.3,1.7v-34.1c0-1-3-3.8,1.1-5.2,3.4,9,2.2,19.1,3.8,28.1,1.1,6.1,4.6,15.5,6.7,21.7s0,3.3,1.1,5,7.7,4.4,1.5,6.8l-.2,1.5c.9,2.6,5.2,2.6,5.6,3.1.7.9-.3,3.5.3,4.3s4.5.5,5.9,1.3c6.2,3.3,9.9,6,17.9,7.8,26.3,5.8,52.1,1.8,78.9,9.5.3.1.8,0,1.2,0l17.5,17.7,4.4,3.1c0,.4,0,.8,0,1.2.4,1.7-.4,4.2,0,6.1s1.9.9,2.2,1.7c.8,2.1.8,5.8,1.8,7.2,4.8,6.5,4.6-6.3,5.5-7.8s2-.8,2.9-2.2.6-4,1.7-4.8,2.4,0,3-.4c.7-.6,0-2.5.2-3.3,1.5-5.8,1-9.3,1.2-15s0-2.3,0-3.5l2.3,1.2c0-4.4-.4-9.6-1.1-13.9s-1-2.8-1.2-3.5.2-1.7,0-2.3l2.3-1.2c2.1,1.3,5.1,24.5,6.9,22,2.4-16.5-2-30.1-8.1-45.1l2.3-1.2c3.4,3,4.4,13.5,8.7,17.3l4,19.6c-1.7-6.2,2.8-3.8,3.5-5.4,3.8-8.4-5.2-32.4-9.3-40.9-.4-.8-.8-1.5-1.2-2.3-1.1-2.2-2.4-5-3.5-6.9h2.3c5.5,7.5,12.1,18.8,14.5,27.7,1.2,4.4.9,9.5,1.9,13.2s1.5,2.5,2.7.8c5.2-7.6-1.1-29.9-4.3-38.5s-7.4-13.9-6.7-14.7,5.2,3.6,5.6,4.2c7.1,9.6,10.4,22.5,12.9,33.9,8.3-7.4.9-27.7-2.9-37-1.1-2.6-8.4-15-7.5-16.2s4.6,3.2,5,3.8c7.2,9.9,12.6,23.3,13.5,35.5,14.7-13.6-4.8-34.5-8.1-49.7.8.3,1.5.8,2.3,1.2,7.6,10.6,12.9,19.5,16.8,32.4,1.2-1.9,4.9-6.5,4.9-8.4,0-5.2-8.5-26.7-11.3-32h2.3c2.7,4.3,7.5,10.9,9.1,14.8,1.7,4.1,3,8.5,3.6,13,9.7-11.9-1.5-30.5-6.9-42.8,1.1-1,2.7-.2,3.8,1.5,5.7,8.7,10,18.6,13,28.6,1.3-1.4,3.1-4,3.6-5.8,1.3-5.2-4.9-23.4-7.6-28.9l1.2-2.3c4.4,6.9,6.7,9.7,8.6,17.4s6.8,4.9,7.6-2.4c3.9.3,10.9-15.2,13.1-18.7,9.4-14.1,20.1-27.3,28.2-42.2-4.4-21.8-21.2-39.2-42.9-44.5-30.6-7.5-73.2-.7-96.1-26.4-5.7-6.4-11-15.9-13.3-24.3-4.4,2.3-2.3,9.7-2.9,12.9-1.6,7.9-6.6,13.4-8.6,20.7s-2.9,6.5,0,9.2c0,.4,0,.8,0,1.2-.2,2.1.9,3.8-2.3,3.5-.3-.4-1.7-.7-2.3-1.2-1.2-.9-3.4-3-4.6-2.3-.3,5.9,1.5,3.8,2.3,4.6s0,1.8,0,2.3c-.1.7-1.4,1.3-1.1,3.8s1.5,4.5,2.3,6.6c-2.5.5-2.7-1.1-3.5-2.8-3.7-7.3-5-18-4.5-26.1,2.7.6,1.9,2.9,2.3,4.6s-1,2.8,1.7,2.3c3.5-1.6,11.1-23,12.2-27.7,4.1-.2,6.5-12.5,6.9-15.7.7-6-1.3-7.6-2.2-12ZM306,489.2c0,1.2-.5,4,.6,4.6.9-2.7,14-15.4,15.6-13.9-2.9,5.9-9.4,9.5-11,16.2l16.2-12.7c.5,1.7-10.2,11.4-4.6,10.4.7-.1,6.7-3.9,7.9-4.6s0-3.2,3.1-2.3l-2.3,3.4c2.2,1.6,17.8-7.3,21.9-7,.4-1.6,0-3-.6-4.5-2.5-6.3-19.4-34.2-24.2-38.2-14.8-12.5-36.7-2.9-43.3,13.3l3.4-1.7-2.3,10.4,10.4-6.4c-4.1,5.5-5.4,11.1-4.6,17.9l10.4-13.9c.4,7.5-6.8,13.7-5.2,20.8,1.7-.4,6.8-11.4,8.7-9.2-.9,5.2-3,8.3-3.5,13.9s-1.9.9-.7,2.3l4.1,1.1ZM265.6,535.4c-.5,3.8-.9,7.7-1.1,11.6,11.3-5,4.5-13.7,5.9-23.6,1.9-13.3,14.9-18.2,26.5-20.3-2.2-8.3-15.3-24.5-24-26.3s-26.3,6.2-31.4,14.3c-1.6,2.6-7.1,13.7-2.4,13.7l-2.4,5.2h4.6c1.2,1.1-3.5,9.2,1.2,8.7l4.6-5.2-1.1,10.4,9.2-5.8-2.3,12.7c5.3-.2,5.5-7,9.2-9.2-1.1,5.9-3.3,11.2-2.3,17.3,2.8-.8,2.6-3.9,3.5-5.8l2.3,2.3ZM662,725c17.5,13.1,44.8,21.3,65.9,12.1s20.6-30.4,25.3-39.5c19.1-36.9,35.6-81.3,63.1-112.6,14.2-16.1,33.3-29.2,45.3-47.2,2.9-4.4,4.4-10.7,8.5-14.6-16.5.7-31.8,2.4-47.7-3.2-2.7-.9-17.4-8.5-18.2-7.8,0,6.3,15,12.1,16.2,14.5s-5.1,1.7-6.1,1.4c-2.9-.9-20.8-13.3-21.7-12.4,1,7,9.3,12.7,15,16.2l-1.2,2.3c-1.1-.4-2.2-.5-3.5-1.2-.4-1.3-1.3-1.7-2.3-2.3-4.3-2.5-10.5-8.1-14.6-9.1s-2.2,1.5-1.6,2.2,1.9.2,2.8,1.2c6.7,8.5,11.1,15.3,22.1,19.6,1.6,1.7-1.3,1.3-2.4,1.2-10.6-.7-18.5-12.7-28.3-15.1,3.8,8.6,10.7,12.4,17,18.2s3.2,1.2,2.6,3.7c-3.2.5-5.4-.4-8.2-1.7-4.6-2.1-10.2-8.6-13.8-10.5s-3.2-1.3-3.5.6l-1.1.6c0,.4,1,.3,1.1.6,1.3,1.9,2.4,4.4,3.5,5.8s.8.7,1.2,1.2c1.5,1.8,5.1,5.8,6.9,6.9l-1.2,2.3c-.8-.4-2.3-.4-3.5-1.2s-2.2-1-2.3-1.2c-2-1.5-6.7-6.8-8.9-8.9s-.7-3.5-2.7-.9c1.9,7.2,7.2,12.3,11.6,17.9s.7,1.7,1.2,2.3c-7.9-.9-13.1-7.9-18.5-12.7,1.9,7.6,8.4,18.1,15,22-.2,1.4-1.3,2.1-2.7,2.1-5.2-.1-14-11.5-19.3-13.7,1.4,14,14.2,17.2,23.1,24.9-3.5.3-8-.3-11.2-1.5-2.4-.9-14.6-10.3-15.3-9.5-.2,3.3,2.1,6.7,4.1,9.2,3.1,3.8,9.1,6.7,10.9,11.6-10-.9-21.3-9.2-24.3-18.5-6.8,1.3-2.1,5.2,0,8.1-.2,4.1,1.9,6.9,5.8,8.1.2.7-.1,1.6,0,2.3-.6-.3-2.5.3-3.4-.6l-11-7.5c-5.1,2.2,6.5,17.3,5.2,18.5-5.3,1.1-2.6-2-3.6-3.3s-1.9,0-2.1-.2c-.5-.4-.7-.4-1.2-1.2-.9-1.6,1.5-3.1-4.6-2.3,0,6-.8,11.4,2.3,16.8l-3.5.6c-.3-.4-.9-.7-1.2-1.2s0-2-1.2-3-2.2.7-2.3.7c-.5,0-1.4-1.1-2.3-1.1-.2.7.1,1.7,0,2.3-1.1,4.3,1.5,5.8,1.1,10.4-3.5-.5-3.8-1.2-6.9,0s-1-.2-1.2,0c-2.9,2.9,0,11.5,4.6,11.6.1.3-.1.8,0,1.2,1.2,3,.8,5.1,4.6,5.8,0,.3,0,.8,0,1.2.1,1.5.5,3.9-1.2,4.6-.3-.2-.9.2-1.2,0l-4.6-4.6c-.6-.8-.7-3.3-1.9-4.3l-6.7-7.2c-5.7,6.9-4.6,8,.6,13.9,1.5,1.7,1.2,1.3,2.3,2.3,3.1,3,6.1,6.2,9.2,9.2v2.3c-3.7.7-5.8-2.9-9.2-3.5-.4-.3-.7-.9-1.2-1.2s-.7-.9-1.2-1.2c-1.6-1-3.8-2.4-5.8-2.3-1.7,1.8,7.8,12.8,9.6,14.6s11.1,6.6,5.9,7.3-17.6-13.2-22.5-14.5c2.5,4.2,4.9,9.5,8.5,12.9,3.4,3.2,9.2,5.5,12.3,10.2s-6.4.9-8.1,0c-6.4-3-13.1-8.1-17.9-13.3-.7,9.2,11.4,19,19.1,23.1l-3.5,1.2c-3.8-1.5-10.2-3.6-13.5-5.5s-4.8-5.5-8.4-6c-1,1,9,13.7,10.4,15s.7.8,1.2,1.2,3.1.2,3.5,2.3c-1,.5-2.3,1.2-3.5,1.2s-.8,0-1.2,0-.5-1-1.2-1.2-.9.1-1.2,0-.5-.9-1.2-1.2-.8.1-1.2,0c-.3-.4-.7-1-1.2-1.2-6.2-2.7-7.8-8.2-13.9-10.4,2,7.4,8.5,11.4,13.3,16.2,2.2,2.1,4.2,5.4,6.1,7,2.8,2.4,7.9,3.1,9.5,6.9-14.5-1.6-28.2-8.6-38.7-18.5.5,8.3,6.8,11.6,11.7,17.2l25.8,10.6c-13.4,1.8-24.3-1.3-35.8-8.1-3.4-2-6.1-6.4-10.4-6.9-.8.7,5.6,7.5,6.3,8.1,1.1.9,2.5.8,2.9,1.1ZM275.8,543.7l-4.4-1.3c-.6,1.8,1.3,3.9,1.2,5.1s-8.5,5.6-2.9,7.6-.3-2.5,1.4-3.5,3.3,0,4.4-2.2,1.1-4.9.4-5.7ZM671.3,690.3v-2.3h-1.1v2.3h1.1ZM652.8,712.3l-3.4-.6,1.1,2.9h2.3s0-2.3,0-2.3ZM595,757.4c-.1-4.5,4.9-14.3.9-18.2-.4-.4-9.7-2.7-10.7-2.6-3.4.4-5.6,6.3-7-3.4-.4-2.7,2.5-6.7-1.7-5.8.5,4.5-3.6,10.2-3.5,14.4s5.3,4.6,3.5,8.8c15.5-3.9,6.9,4,6.9,8.7s10.3,7.5,11.5.6c8.4,9.9,18.7,17.9,27.8,27.1,18.2,18.4,38.6,43.7,58.9,59,.9.7,2.2,3.2,3.5,1.2-5.8-8.7-13.1-17.1-20.2-24.9-11.3-12.3-23.8-24.9-35.7-36.5-6.9-6.6-21.8-22.1-28.8-26.7-1.6-1-3.7-1-5.4-1.5ZM218.2,738.9h-2.3v1.1h2.3v-1.1ZM240.1,738.9c-1.8-1.8-14.8,11.1-8.6,12.7l8.6-3.6c-.5-3.4-1.3-5.8,0-9.2ZM430.9,764.3l8.1-19.6-13.7,14.6c-2.6,3.5-3.8,5.5-3.5,10.1,1.3,22,19.9,70.8,27.6,93.9,3.2,9.6,8.6,19.4,9.3,29.4l-43.1-88.1c-3-5.7-15.8-28.1-21.3-29.7-2.5-.7-10.6.6-10.7,3.8,0,4.1,9.1,19.4,11.3,24.6,20.3,49.8,34,104.1,46.5,156.4-2.5-1.3-3.3-5.3-4.3-7.8-19.5-47.5-35.9-111.3-60.2-154.8-3.2-5.7-13.3-16.3-14.7-20.1s.4-3.5.6-5.7c-13,4.7-9,14-5.2,24.3,13.2,35.5,28.7,69.6,41,105.8,8.6,25.4,16.8,51,23.6,76.9,13.9,4.5,28.8,0,43.4,1.1l-26.6-85.5,3.7,2.6,37.9,80.1c21.4-3.1,42.8-8.1,63-15.7,3-1.1,14-5,15.6-6.4s-.9-5.9-2.2-8.3c-14.7-27.7-34.1-56.5-50.1-84-14.5-25-27.9-51.4-43.4-75.7-1.2-1.9-4-1.6-2.7-6l-4.6,2.3c-1.1-1.5,5.7-12.3-5.8-8.1l3.5-8.1c-3.7-1.1-6.6,6.7-9.2,2.9l4.6-11c-1.7-1.8-11.4,10.6-11.6,12.7-2.2.3-.7-2.2-.3-3.2,1.8-5.5,6-10.6,6.1-16.4-2.1.9-10.5,14.8-12.7,12.7ZM596.9,796c-1.2-1.1-8.8-8.1-8.8-3.3l69.3,81.5c.3-2.1-.2-3.5-1.1-5.3-3-6.2-19.6-26-25-32.8-9.5-11.9-23.7-30.2-34.4-40.2ZM528.9,803.9c-2.9-1.6-6.8,3.3-6.5,5.9s3.6,4.7,4.2,7.3-.3,5.5.4,7.7,4.1,2.3,5,4.2.3,4.8,1.1,7,2.6,3.6,3.3,5.9c1.6,5.4,0,24,6.5,25.9,3.1.9,7.2.8,10.4,1.7-.7,6.7-4.6,12.1.6,18.4,3.1.6,1.8-4.9,3-5.7s4.3-.2,5.2,1c2.3,3.2-1.3,6.7-1.6,9-.4,3.4,1.3,7.5-1.4,11.9,5.9-1.9,11.2-.9,9.3-8.5-.3-1.1-2.1-.7-2.3-.8-1.8-2.2,1.8-2.1,2.2-3.1,1.7-3.8,2.8-9.9.1-13.5-.9-1.2-3.1-.4-3.4-.8-.8-.9.9-6-1.2-7.5-15.7,2.5-8.2-6.2-8.2-13.6s-2.2-10.2-4.5-12.9-7.8-4.8-8.7-6.3-.1-5-.8-7.3-3.4-2.4-4.1-3.4c-1.5-2.2-4-15.3-4.9-18.5,0-.3-3.4-4-3.7-4.1ZM338.4,827.9c.8-5.7-1.9-6.3-6.9-5.8v5.8s6.9,0,6.9,0ZM345.2,831.6c-.7-.5-8.2-.4-9.7-.2s-2-.6-1.7,1.7c1,7.3,7.3,5,12.7,5.2l-1.3-6.8ZM354.6,851c-.2-9.1-9.6-6.8-16.2-6.9,1.1,9.3,9.2,6.8,16.2,6.9ZM360.8,859.9c-6.3-6.1-10.5-4-18.9-4.2,1.3,11,14.1,5.4,21.9,8.1.6-2.6-1.7-2.6-3-3.9ZM369.6,876.5c.4-11.7-15.2-4.9-23.1-8.1-.5.4,2.2,6.5,2.5,6.7,1.6,1,19.8,2.1,20.6,1.4ZM372.5,882.3c-5-1.4-15.7,1-21.4,0l2.5,6.7c8.1-.2,16,2,24.1,1.3.9-.8-4.2-7.8-5.2-8.1ZM384.6,904.2c-1.8-12.3-19.6-7.9-28.9-9.2,0,11.7,20.7,8.1,28.9,9.2ZM371.3,919.3c6.3.8,13.8-.6,20.2,0,.5-1.8-1.6-8.9-3.1-9.3-7.2-1.7-20.7,1.7-28.7-2.2.1,7.9,4.1,10.6,11.6,11.5ZM396,925.2l-31.1-.7c2.2,14.6,22.5,7,32.9,11,1.8,0-1.3-9.9-1.9-10.3ZM404.3,948.2c0-2.4-.6-8.3-3-9.1-6.9-2.3-22.4,2-30.5-1.3.1,2.6.6,6.8,3.1,7.9,2.3,1,29.3,3.6,30.4,2.5ZM402.5,951.6c-9,.6-18.2-.4-27.2,0,0,1.5.2,3.8,1.1,5,2.3,3.1,25.3,3.2,30.1,3.1.3,1.7-2,1.6-3.2,1.9-7.5,2.1-15.7,2.2-23.3,3.8v3.4s27.7,2.3,27.7,2.3l-23.1,4.6,32.9,3.5c1.2,0,.4-1.5.2-2.5-2.6-8.6-8.2-17.8-11.2-26.4-1.6-.7-3.2,1.1-4,1.1Z"/>
    <path class="st0" d="M260.9,652.2v4.6c-.7.2-1.8-.2-2.3,0-.8,2-4.8,10.4-4.7,11s9.8,2.8,5.3,9.9-6.3-6.8-9.5-7.9c-5.7-2-3.3,2.7-3.8,3.3l-2.3-1.2c.7-1.2,1.6-2.3,2.3-3.5.5-.2.8-.9,1.2-1.2,1.2-.9,1.5-.9,2.3-2.3,2.9-2.8,6.2-6.8,9.2-8.1,1.1-2.8.3-1.8,2.3-4.6Z"/>
    <path class="st0" d="M292.2,599c.3-.5-.7-2.4,1.2-2.3.6,2.1-1.1,2.2-1.2,2.3Z"/>
    <path class="st6" d="M585.7,182.8c.1.3,1.1,3.3,1.2,3.5,1.1,8-3.4,9.7-3.5,12.1s5.2,10.5,5.5,15.3c.6,9.3-10,24-16.4,30.4-4.3,4.2-7.4,4.9-11.8,7.8-1.1.7-2.1-.1-1.5,2.6,37.9,7.4,77.4,22.4,99.2,56.3,4.2,6.6,8.7,14.6,9.5,22.3.6.8,5.5-6.2,6.9-4.6,2,2.2-3.6,5.7-4.1,7-2.1,4.9,10,30.1,16.2,33.5,2.6-1.7,14.1-16.3,16.8-13.8-.4,4.8-13.6,12.5-12.6,16.6,14.3,10.7,33,11.4,50.1,13.5,1.4.2,2.6,1.6,3.8,1.8,7.3,1.2,6-.8,3.6-5.7-23.4-48-75.3-100.6-119-130.7-5.1-3.5-20.5-11.1-23.6-14.6s-2.6-13.1-4.1-18.5c1.3-1.2,18.4,9,21.2,10.6,51.7,31,98.7,79.9,130.3,131,2.9,4.7,15.7,25.3,16,28.9s-1.1,2.8-1,2.9c.3.5,9.2,2,11.6,2.9,5,1.9,11.7,5.7,16.2,8.7s5.1,2.9,5.8,3.5c10.8,8.7,26.5,31.3,25.5,45.6-.3,4.8-2.5,7.2-4.7,11s-1.6,3.4-2.3,4.6c-2.3,3.9-11.5,14-10.2,18.9s15,11.9,18.3,13.5,1.5.9,2.3,1.2c20.8,8,47.4,2.3,68.2-3.5-6.1,27.6-20.9,55.2-39.9,76.3-6.2,6.9-13.6,13-20.2,19.6s-1.4,1.4-2.3,2.3c-21,22-32.6,48.9-46.1,75.9-11.1,22.4-22.5,53.9-35.8,74.1-10.4,15.7-41.2,20.2-58.6,18.8-21.9-1.7-41.1-12.3-59.5-23.1-1.2-.7-1.8-2.4-4.6-3.5-2.7-2.6-6.6-8.4-9.2-10.4-.2-2-3.3-2.1-3.5-2.3-4.7-6.1-9.6-25.1-9.3-33s15.7-41.5,12.6-46.6-37.8-5-44.9-6l39.1,17.5.2,3.3c-2.1,2.1-46.9-16.6-53.4-18.8-10.8-3.7-29.2-10.2-39.9-12.1s-4-.4-6.1-.3l25,14.9c23.4,9,46.1,19.3,68.6,30.3l-1.1,6.9c-1.6.2-3.1-.1-4.6-.5-14.8-4.2-38.8-20.6-54.7-27.4-7.7-3.3-16.7-7.5-25-7.9l25.3,15.7,55.6,39.2c1.6,1.2,2.4,9.8-.5,8.6-18.6-12.3-37.2-24.8-56.5-36-9.4-5.5-20.8-12.4-30.4-16.9s-3-1.7-5-1.3c7,7.8,16.3,13.4,24.3,20.2,19.2,16.5,40.7,40,61.2,53.8.5.4,1,1.8,2.3,2.3l3.5,3.5c2.2,4.8,6.8,3.2,6.9,6.9l-1.2,3.5c-1.7.3-2.6-.7-3.8-1.4-30.1-16.7-57.5-48.7-87.6-67.3-3.8-2.4-9.6-6.9-13.8-5.9l63.6,67.1c.5,2.8-2.1,1.8-3.5,1.2s-7.5-5-9.2-6.4-.1-1.9-1.2-2.8c-4.4-3.7-9.8-8.3-14.9-10.5,3.6,6.4,10.1,10.5,15,15.6,2.8,3,36.7,38.7,34.7,40.5-3.6,0-7.4-3.2-10.3-5.3-23.1-16.9-48.8-46.7-71.8-66.9-5.5-4.8-10.3-10.6-15.7-15.5s-2.2-3-2.7-.1c4.8,2.5,6.9,10.2,10.1,14.8,27.7,40.4,57.9,79.3,84.7,121,13.1,20.3,34.3,50.6,44.1,71.5,1.2,2.6,2.6,4.6,2.1,7.7-28.2-41.7-55.1-84.3-85-124.8-13.6-18.3-28.7-38.8-43.3-56.1-2.8-3.4-16.5-19.2-19.1-20.3s-2.2.3-1.7,1.7l32.1,59.3c28.4,41.8,56.6,89.8,75.5,138.1.4.9,1.8,1,2.1,1.8.4,1.3,1.7,7.7,1.3,8.3l-1.7-1.2c-26-49.7-51.4-102.3-84.9-145.4l-35.3-54.6c-2.3-.5-2,.9-1.4,2.6,12.5,35.6,31,74.8,48,108,1.7,3.2,12.9,23.2,11.8,24.6-3.1.7-2-.8-2.9-2.3-24.8-41.3-53.4-82.8-66.5-129.5-3.1-.3-1.9,0-2.3,1.7-.8,3.3-3.7,14.5-3,16.8,24.5,43.3,49.7,86.4,74.7,129.5,6.2,10.8,11.4,23,19.6,32.4,1.6,13.2,27.3,42.1,31.8,56.6s.2,4.2-4.1,2.9c-45.4-73.8-88.3-149.5-131.3-224.9,1.9-7.8,5.4-15.1,7.3-22.9,3.4-13.8,4-28,6.7-41.9,4.1-20.8,18-66.6,15.5-84.9-.9-6.3-6.5-13.6-10-18.9-14.9-22-35.7-40.5-46.5-65.1,30.9,7.9,66.6,32.6,76.2,64.2,2.5,8.1,3,16.7,5.3,24.8,7.8,27.9,31.2,40.2,57.2,48,5.6,1.7,6.6,1.6,12,2.1,12.6,1.1,27.2,1.4,39.4,3.2,18.8,2.7,23.2,5.3,17.4,24.1s-13.6,25.9-8.1,46.3c11.4,42.2,99.7,71.5,131.7,36.9,22.1-38.4,37.2-82.7,59.8-120.5,20.7-34.7,52-52.9,70.7-88.8,3.1-6,10.3-20.9,11.1-27.1.3-1.9.2-1.9-1.6-1.6-8.8,1.1-17.6,4.1-26.7,4.6-16.9.9-49.6-4.8-57.3-22.4-4.3-9.8,12.5-23.2,15.4-32.2,6.9-21.1-20.4-45.1-36.9-53.8-24.4-12.9-53.7-8.8-79.9-17.2-40.9-13.2-32.4-47-52.9-75.4-24.6-34-62.3-40.4-99.8-52.2-2.6-3.8,11.2-10.8,13.8-13.2,5.5-5.1,16.8-19.2,17.7-26.3s-2-14.7-7.4-17.7c0-4.2,11.4-6.2,2.3-18.5-4.8-6.5-12-10.2-20.2-8.6-3.2.6-5,3.9-8.2,4.5-9.2,1.7-15.9-3.2-23.6,6.4-3.1,3.8-12,23.2-13.6,28.1-1.1,3.4-1,13.8-1.7,15.1s-2.4.9-3.2,1.9c-4.6,5.8-9.3,11.6-13.8,17.4-50.3,64.7-100.3,129.6-151.6,193.4-2.5,1.4-9.5-6.4-12.9-8.1-16.4-8.1-35.5-2.2-46.4,11.8s-7.9,20.1-12.1,23.7c-3.7,3.1-14.2,5-19.7,8-12,6.5-19.3,15.8-23.3,28.7s-.6,10.4-3.8,13.5-16.7,5.5-22.2,9c-7.7,4.8-15.4,13.5-18.2,22.2s-1.1,13.1-3.6,17.2-10.4,6.9-14.3,10c-15.5,12.3-18.3,29.2-10,46.8,5.6,11.9,6.2,13.4,9.9,26.5s.9,2.4,1.2,3.5c1.1,4.2,5.4,14.4,4.1,17.3-46.5,54.2-88.2,111.8-134.1,166.5-3.5,4.2-12,15.3-15.6,18-7.8,5.8-18.4,5.5-14.5,20.2,1.5,5.9,5.5,8.8,8.7,12.7s1.6,3.5,3.4,5.3c13.6,13.5,44.7,30.6,45.7-1.8,41-49.8,79.2-102.1,119.5-152.2s.7-6,4.8-3.3,7.8,11.2,9.2,13.3c2.3,3.4,4.6,7,6.9,10.4,3.9,5.7,6.2,8.6,10.4,13.9s.4,2.7,1.3,3.9c19.7,25.2,54.2,23.2,74.8,45.4l57.4,155.3c15.2,6.3,31.8,9.2,48,11.6,1.1.2,2.4-.2,3.5,0,99.8,13.6,213.8-30.5,290.1-111,25.8-27.2,41.5-50.1,60.3-82.5,8.9-15.4,23.5-39,29.6-54.8,7.2-18.9,12.5-39.5,20.2-58.4l8.9-19.4c-21.7,162.1-146.1,312.5-310.5,333.7-143.3,18.4-258.6-27.8-341.4-132-4.9-6.2-19.9-24.9-22.2-30.9s-1.4-3.5-.7-5.8,7.2-11.5,8.5-11.2c1.8.4,17.6,26.7,20.9,31.1,39.2,52,93.4,95.5,153.9,120.1l23.4,7.8-55-150.8c-14.2-13.5-34.8-15.7-51.7-25.8-22.9-13.6-32.4-33.4-47.6-54.1l-115.5,146.9c-4,5.6-3.3,13.3-8.1,18.4-15.6,16.7-50.5-12-58.9-26.7-9.8-17.1-2.1-26.2,13.7-33.5,20.5-24.5,39.7-50.1,59.6-75.1.5-.6,1.5-1.3,2.3-2.3,3.1-3.9,15.2-16.2,15-20.1-49-123.4-41-266.6,25.2-381.9,72.2-125.6,212.7-209.2,360.1-192.2,12.2,1.4,24,4.4,36,6.9,4.4.2,4.9-4.9,7.5-7.6,7.1-7.4,15.2-4.8,23.1-6.4s.8-1.1,1.2-1.2c8-2.6,9.8-5,19.4-2.7,6.7,1.6,16,9.1,18.7,15.4ZM232.1,479.9c4.8-.3,8.6-5.7,13.1-8.3,4.8-2.8,19.3-7.6,21.6-9.6s4.1-10.9,5.8-14.4c-3.6,0-6.1-2.5-8.7-4.6-14.2-11.5-30-32.1-43.3-45.7s-29.5-27.8-43.3-42.3c-1.1-1.2-2.2-3.1-3-4.5,2.5-2.2,18.6,13.9,22,15.6l78.2,75.6c4.4,1.2,6.8-9.2,11.9-9.1v-1.7s-33.5-45.7-33.5-45.7l6.5,3.9,32.8,36c4,2.5,13.8-3.7,18.5-4.1l-29.5-55.5c5.7,5.5,10.8,11.7,15.4,18.1s18.8,33.7,23.6,38.2,8.5,3.4,10.9,4.7c6.1,3.2,11.9,12.1,10-1.9-17.3-48.8-39.5-97-56.7-145.6s-4.8-13.2-6.1-19.9l70.5,160.7c4.1-3.2,10-8.7,9.2-14.3-7.4-29.6-18.1-58.5-23-88.6,3.1-.6,2,.7,2.8,2.3,5.6,11.4,11.3,28.7,15.7,41,4.4,12.7,8.7,25.7,11.5,38.8,4.6-4.7,9.2-10.5,11.6-16.7.1-7-9.6-45.9-7-49.2,2.7-.6,1.9.3,2.6,1.5,5.9,9.5,8.9,30.1,11.3,41.3,2.4-1.6,7.7-7,8.6-9.3,2.9-7.2-.3-32.1-.6-40.9-.5-19.2,0-38.6-2.3-57.8v-52.7c0,0,2.4,4,2.4,4l8.1,135.9c4.6-3.9,18.6-19.6,18.4-24.7s-2.3-5.1-2.3-5.9v-35.8c0-.2,1.1-3.4,2.3-2.9l5.2,40.5c12.6-17.4,27.5-33,39.3-50.8,1.9-20.1,1.5-40.4,5.7-60.2l1.8,13.3c-.4,12.9-2.4,25.8-.6,38.8l35.3-44.5,6.9-23.1c-92-21.6-188.4.5-265.1,54-141.5,98.7-198.6,283.1-152.8,448.4,2.5,9,6.7,25.4,10.7,33.2s.1,2.2,2,1.4,9.4-9.2,11-11c16.6-18.5,31.1-40.1,47.2-59.2.6-2.6-4.4-12.4-5.3-16.2s-.1-6.7-1.1-10.5c-1.6-6.8-7.5-12.4-10.2-18.7-9-21.4-.3-37.9,16.2-52,2-1.7,8.1-4.5,8.7-5.4,2.7-4.2,1.8-13.7,3.4-18.9-2.4,2.4-59.3-12.1-67-14.5s-5.5-1-5.8-2.9c1.7-.5,2.8-.8,4.6-.7,13.6,1.2,33.9,5.9,47.6,9.1,3.6.8,18,3.9,19.9,5.3s1,3.3.7,3.6c2.4-8,19-23.7,26.7-27.1,4.1-1.8,12.8-2.2,15.5-5.3s3.9-14,5.8-18.5,5.2-9.6,7.5-13.9c-2.2.1-4.3,0-6.2-1.3l-79.3-54.8-2.4-5.1,90.1,54.9,1.1,2.2c-1.2,1.4-2.5,2.5-3.4,4.1ZM533.7,710c-.1-.1-2.3-.5-3.5-1.7-7.3-6.9-16.8-18.9-24.2-24.4-1.6-1.2-2.4-2.1-4.7-1.7,7.5,7.1,21.1,27.2,30.7,30,2.1.6,2.3-1.5,1.7-2.2ZM481.7,698.4h-2.3v1.1h2.3v-1.1Z"/>
    <path class="st6" d="M703.6,810.6c-1.5,1.3-11.1-5.8-13.1-7.1-8-5.6-17.3-12.8-24.9-19s-15.9-12.5-14-14.3c3.4.8,7.5,3.3,10.3,5.3,12.1,8.2,28.4,21.4,39.3,31.2,1.3,1.2,2.9,1.7,2.4,3.9Z"/>
    <path class="st6" d="M282.9,853.4c0,2.4.2,4.8-.3,7.2-1.7,8.9-17.5,35.8-23.6,42.9-1.2,1.4,1.2,4.1-3.8,3,9-16.2,15.1-34.2,24.2-50.3.9-1.6,1-3.4,3.5-2.8Z"/>
    <path class="st6" d="M257.9,828.3c-10.1,11.8-18.7,25.7-28.6,37.9s0,2.9-3,2.2c-.4-2.1.2-3.4,1.1-5.3,2.9-6.2,19.7-30.8,24.4-35.7s3.8-5.1,7.4-4-.5,4.1-1.2,5Z"/>
    <path class="st6" d="M229.7,812.9c-9.1,3.7-14.6,16.1-21.9,21.5-1.6,1.2-2.4,2.1-4.7,1.7,4.7-5,16.3-27,20.8-29.5,2.9-1.6,6.3,5.7,5.8,6.4Z"/>
    <path class="st1" d="M822.7,462.6c4.2,8.8,8.5,21.3,10.1,30.9s1.3,5.7-2,7.2c-.8-.3-1.5-.8-2.3-1.2-2-10.8-4.4-22.1-8.1-32.4.7-1.2,1.3-2.9,2.3-4.6Z"/>
    <path class="st6" d="M204.3,785.2c.7,3.9-1.1,5.2-3.4,7.5-7,7-17.2,12.4-23.6,20.3l-5.3,1.1c2.3-3.1,29.7-31.8,32.4-28.9Z"/>
    <path class="st6" d="M293.3,918.1c-.4.3-3.9,1-3.3-1.6.9-3.9,2.9-10.3,4.4-14.1s.3-3.5,2.4-3.9c2.3,2.6-2.7,18.9-3.5,19.6Z"/>
    <polygon class="st6" points="291 919.3 290.4 922.7 288.7 921 288.7 919.3 291 919.3"/>
    <path class="st4" d="M651.6,341.2c-2.7.8-2.2,3-2.4,5.1-.5,7.1-.6,15.7-2.2,22.6-1.1,4.7-8.6,26.2-12.2,27.7-2.7.5-1.4-.9-1.7-2.3l2.3-.6c-3.1-3.1-2.1-9.1-5.8-11v21.4c0,6.7,7.9,19.4,12.2,24.8,3.7,4.6,16.8,14.5,22.8,13.8s7.6-2.7,5.5-4.4c-17.3,1.8-30.8-13.9-32.4-30.1,0-.5,0-2.2,0-2.3l2.3-2.3c.6.5,2,.8,2.3,1.2.8,1.2,2.1,6.2,3.7,8.5,5.1,7.3,11.3,12.1,20.6,12.3-8.8-7.5-17.1-13.2-22-24.3,0-.4,0-.8,0-1.2.2-3.1-.1-6.2,0-9.2,2-7.2,7-12.8,8.6-20.7s-1.4-10.6,2.9-12.9c2.3,8.3,7.5,17.8,13.3,24.3,22.9,25.8,65.5,19,96.1,26.4,21.7,5.3,38.4,22.7,42.9,44.5-8.1,14.9-18.8,28.1-28.2,42.2-2.3,3.4-9.2,19-13.1,18.7.5-4.4.3-10.5-.8-14.8s-7.3-16.6-9.6-14.1l4.4,8.9c2.2,2.7,4.2,19.8,6,20-.8,7.3-5.6,10.6-7.6,2.4s-4.2-10.5-8.6-17.4-7.9-15.3-10.4-12.7c2.2,5.3,6.7,9.9,9.2,15s8.9,23.7,7.6,28.9-2.3,4.4-3.6,5.8c-3-10-7.3-19.9-13-28.6-1.1-1.6-2.6-2.5-3.8-1.5,5.4,12.2,16.7,30.8,6.9,42.8-.5-4.4-1.8-8.9-3.6-13-1.7-3.9-6.4-10.5-9.1-14.8s-3.1-9.9-8.1-7.5c1.1,2.1,5,6,5.8,7.5,2.8,5.4,11.3,26.9,11.3,32s-3.7,6.6-4.9,8.4c-3.9-12.8-9.1-21.7-16.8-32.4-3.1-4.3-5.1-9.5-9.8-12.7,1.5,4.3,3.2,10.1,7.5,11.5,3.3,15.2,22.8,36.2,8.1,49.7-1-12.2-6.4-25.6-13.5-35.5-.4-.6-4-5-5-3.8s6.4,13.6,7.5,16.2c3.8,9.3,11.2,29.5,2.9,37-2.5-11.5-5.8-24.4-12.9-33.9-.4-.6-4.6-5.3-5.6-4.2s5.8,12.4,6.7,14.7c3.2,8.6,9.5,30.9,4.3,38.5s-2.4.7-2.7-.8c-1-3.6-.7-8.8-1.9-13.2-2.4-8.9-9-20.2-14.5-27.7-1.7-2.3-3.9-3.3-5.2-5.8-2.1,2.4,2.4,4.9,2.9,5.8,1,1.9,2.4,4.8,3.5,6.9l1.2,2.3c4.1,8.5,13.1,32.5,9.3,40.9s-5.2-.8-3.5,5.4l-4-19.6c-4.2-3.9-5.2-14.3-8.7-17.3s-1.9-.9-2.3-1.2c-1.8-4.7-3.2-3.3-4.3-4.9s.7-3.5-1.4-3.1c-.5,5.8,2.8,6,5.8,8.1.2.6-.2,1.8,0,2.3,6.1,15,10.5,28.6,8.1,45.1-1.9,2.5-4.8-20.7-6.9-22l-6.9-13.9c-1.1,5.4,3.4,10.5,4.6,15,.2.7-.2,1.6,0,2.3l1.2,3.5c.8,4.3,1.1,9.5,1.1,13.9l-2.3-1.2c-1.6.2-1.7,3.3,0,3.5-.2,5.7.3,9.3-1.2,15-3.3-7.2-4.2-15.3-6.8-22.7-.5-1.5-.3-3.5-2.5-3.9.4,9.4,5.5,18.2,4.6,27.7-6.2.6-5.2-9.6-11.5-11.6l3.4,17.3-4.6-3.5c0-.4,0-.8,0-1.2-1.4-6.4-15.4-19.3-22-20.8s-.8.1-1.2,0c-.8-2.1-2.5-2.5-4.4-3.2-28.5-10.5-65.7.6-92.7-15.9,6.6-2.2-5.5-9.5-8.7-13.3s-2.5-5.4-5.2-7c-2.1-6.2-5.6-15.5-6.7-21.7-1.6-8.9-.4-19.1-3.8-28.1-4.2,1.4-1.1,4.2-1.1,5.2v34.1c-2.7.1-2.1.4-2.3-1.7-.6-5.2-.4-11.4-1.2-16.8-5.3-1.1.7,8-4.6,6.9,0-9.1-4.1-19.2-7.9-27.4-15.3-32.6-40.4-52.3-75.3-60.5,1.2-2,3.1-2.1,5.2-2.3,13.1-1.4,28.4-1.2,41.3,1.5,6,1.2,11.9,5,18.2,5.5-.9-1.8-5.1-3.3-6.9-4-17.4-6.9-41.7-7.8-59.9-4.4s-4.3-.5-3.6,2.7c-1.9-.4-3.9-.6-5.8-1.2-.3-.4.6-1.4,1.1-1.7,7.6-4.2,20.7-4.2,28.9-5.2,4.3-.5,8.8-2.1,13.2-2.4,6.7-.3,12.5,1.3,19.1,1.2l-7.6-2.2c-6,.2-11.8-1-17.8-1.3s-1.5,0-2.3,0c-2.9,0-7.4-.9-9.2,1.2-12.7.2-19.8,2.8-31.5,5-1.8.3-2.3,1.2-3.1-1.5,8.3-1.7,18-6.6,26.1-8,5.1-.9,13.5-.8,19-1.2,19.8-1.4,27.7,2,45.7,3.5,1.3.1,4.3.9,4-1.1-18.7-5.4-40.5-8.2-60.1-7s-19.7,3.3-29.2,4.9c-2.1.3-3.9,1.8-6,2.1-2.2-1.7-.4-1.9.9-2.6,4.1-2.3,9-3.7,13.5-4.3s2,0,2.3-1.2c.8,0,1.6,0,2.3,0,15.2-1.8,29.6-7.4,45.1-5.8-.4-2.1-2.3-2.1-4-2.3-10.6-1.2-22.2.5-31.8,2.4-3.9.7-7.7,1.6-11.6,2.3l-10.4-1.1,24.3-3.5-4.6-4.6c4.1.7,7.4-1.6,11.1-2.2,6.9-1.1,19.7-2.6,26.5-2.5s20.9,3.4,30.6,3.6c-.6-1.8-5.3-2.3-7.1-2.7-9.8-2.2-25.9-3.7-36.2-4.2-9.9-.5-19.6,1.1-29.5,1.1-.2-1.7,3-2,4.1-2.2,9.4-1.2,18.8-2.4,28.2-3.6.3-2-2.6-1.1-4-1.1-7.6-.3-15,.2-22.5,1.1l3.5-3.4-5.8-3.5c1.1-1.2,2.1-1.7,3.5-3.5s.9-.7,1.2-1.2c.4,0,.8,0,1.2,0,16.8-2.6,33.8-4.2,50.9-3.5.5-1.2-3.8-2.3-4-2.3h-30.1c-.9,0-11.6,2-12.1,2.3h-2.3c-.2-.3.9-1.7,1.2-2.3l1.2-1.2c.2-.3-.2-.9,0-1.2,12.7-3.4,25.9-1.3,38.8-2.3,6.7-.5,6.7-3.1,0-3.6-11-.8-22.1.6-33,1.2-1.9-1.4,5.4-5.6,6.4-5.8l30.6-2.3c.3-2-2.6-1.1-4-1.1-5.8-.2-22.8-.9-27.2,1.2-1-4.8,4.1-5.1,5.8-7.5s1-3.5,2.2-5.3c16-8,36.7-5,54.3-5.8l-8.6-2.3c-11.5-1.1-23.5,1.3-34.8,1.2-2.2,0-4.6,1.1-4-2.3,3.6-3,4.8-1.6,8.1-2.3,16.7-3.4,33.9-4.5,50.9-2.3,0-1.7-4.1-2-5.3-2.2-14.7-1.7-28-.3-42.7-.1-1-.2-1.2.7-1.7,1.2-4.6.5-1.8-3.2,0-5.8,15-1.4,29.9-4.2,45.1-3.5l-12.1-2.3-27.2,1.2,3.5-6.9c.6-.2.8-.9,2.3-1.2,7.1-1.4,19.5-1.9,27.2-2.3s10.4.2,15.6,0l-12.2-2.3c-9.3,2-18.8,1-28.3,1.2-.4-.2.9-1.6,1.2-2.3s-.2-.9,0-1.2l1.2-1.2c.3,0,.8,0,1.2,0,8.4-.9,17-1.7,25.4-2.3l-11-2.4-12.1,1.3c.9-1.1,1.5-2.4,2.3-3.5h2.3s0-2.3,0-2.3c.4-.4,1-.9,1.2-1.2l38.1-1.2-9.8-2.3c-7.3-.2-14.7.2-22,0s-4.6,1.2-4-2.3c.6-.8,2.8-1.5,3.5-2.3,15.1-1.2,30-1.3,45.1,1.1-.6-1.8-5.3-2.3-7.1-2.7-11.9-2.7-23.5-1.9-35.6-1.9.4-.8.7-1.6,1.2-2.3,15.5-3.8,31.6-4.5,47.4-2.3.3-1.6-2-1.7-3.2-2-3.8-.9-12.1-2.5-15.9-2.6-7.1-.3-14.4,3.1-21.4,0,.7-.8,1.5-1.7,2.3-2.3l1.2-1.2c.3,0,.8,0,1.2,0,6.2-.7,15.6-2,21.5-2.2s11.4,2.2,16.6,1l-14.5-3.4-22.5,1.1c1.9-4,3.6-4.8,5.8-8.1l19.6-1.2c.3-2-2.6-1.1-4-1.1-3.3-.1-6.6.1-9.8,0l6.2-4.8c10.6-4.1,22.3-1.6,33.1.2-.2-1.7-4.1-2.7-5.5-3.1-8.4-2.5-20.7-4.3-29.1-2.6,7.7-6.8,11.3-8,22-5.8l-.7-2.2c40.5,8,81.4,22.3,90.9,66.9ZM685.1,411.7c-.2-.2-4.1-1-5.6-1.9-11.9-6.7-20.5-14.1-29-24.7.8,7.7,11.3,17.9,17.4,22.4,4.8,3.5,9.9,5.2,15.7,6.2,2.2.4,2.2-1.3,1.5-2.1ZM618.1,426.7c.4,1.5,1,1.9,1.2,2.3s-.1.8,0,1.2c.3.8,1.1,1.1,1.2,1.2,1.6,3.3,2.9,6.8,5.8,9.2s3,2.6,5.8,2.3c1.8,2.5,2.2,4.1,4.6,6.9,3.5,4.1,9.4,12.5,15,11l-10.4-13.3c5.6,1.6,10.4,5.1,16.1,6.4,1.2.3,4.8,1.7,4.7-.6-2.6-.5-5-1.4-7.3-2.5-5.5-2.6-14.3-7-19.2-10.2-11.8-7.8-19-38.4-17.3-52l-2.3,1.7c-.4,12.7-1.2,24,2.3,36.4ZM611.2,422.7c-.8-6.7.6-14.6,0-21.4-1.7-.3-1.7,2-2,3.2-2.3,9.2-2.3,24-.3,33.1s8,28.2,19.6,24.3c-6.2-11.7-15.8-25.9-17.3-39.3ZM600.7,414c-1.7-1.8-2.1.1-2.3,1.7-2.1,17-2.4,38.6,8.3,53,4,5.4,7.5,9.1,14.8,7.7l-10-12.5c-8.5-15.3-8.4-33-10.8-49.9ZM590.4,437.1c0,1.5,0,3.1,0,4.6,0,3.3-.3,7.2,0,10.4s.8,4.5,1.2,6.9c-.7,4.1.4,7,1.2,10.4,2.3,10.4,11.2,29.1,24.3,24.3-11.3-8.7-18-23.3-21.4-36.9s-.9-9.7-1.7-13.9l-1.2-17.3c-1.7-.2-1.8,3.2-2,4.4-.4,2.6-.2,4.7-.3,7.2ZM582.3,461.4c0,.8,0,1.5,0,2.3s-1.1.9-1.1,1.8c0,3.6,2.1,8,1.1,12.1h2.3c.1,1.1-.2,2.4,0,3.5s-.2,0,0,1.2c2.1,11.3,8.2,19.7,17.3,26.6,7.3,5.5,15,8.7,24.3,8.1-1.9-3.2-6.4-3.1-9.6-4.8s-7.5-5.4-11.2-7.9c0-.4,0-.8,0-1.2-.7-2.3-.9-3.6-3.5-4.6-1.2-2.4-2.9-3.6-3.5-4.6,0-1.7-.7-3-2.3-3.5-6.2-11.1-9.9-31.4-11.6-43.9-.1-1.1-1.5-13.7-3.5-11.6l-.7,4.2,1.9,22.4ZM612.3,528.5c-.3-.3-5.9-3.2-7.5-4.7-23.6-21.4-21.4-40.9-30.5-67.8-.5-1.5-.3-3.5-2.5-3.9-.2,18.8.8,46.4,12.7,61.9,4.2,5.4,20.4,17.7,27.2,16.8,1,.1.7-2.1.6-2.3ZM784.5,478.8c1-6.5-1.2-14.3-8.1-16.2l8.1,16.2ZM597.3,544.7c.3,1.3,1.5.9,2.3,1.2s.8-.1,1.2,0,.4,1,1.2,1.2,1.6-.1,2.3,0,1.7,1.1,3.9,1.2,7.3.8,7.6-1.2c-4.4-.9-8.5-1.8-12.7-3.5s-5.2-2-5.8-2.3-.5-.8-1.2-1.2-.9.2-1.2,0-.7-.8-1.2-1.2-.8-.8-1.2-1.2c-1.4-1.4-2.3-3.8-4.6-4.6-4.4-5.7-6.9-12.4-9.2-18.2-1.3-3.3-3.2-7.5-4.2-10.6-3.9-12.4-2.5-25.3-8.6-37-2-.3-1.1,2.6-.9,3.8,3.7,16.6-3.4,34,2.6,48.2,4.5,10.8,17.8,23.9,29.5,25.5ZM756.8,483.4c.7-.8-7.3-13.4-10.4-12.7-.6.6,5.7,8.9,6.7,10.1s1.3,3.1,3.7,2.6ZM737.2,483.4l3.4.6-2.9-2.9-.6,2.3ZM586.9,557.4c5.5,5.1,13.4,4.5,20.2,5.8v-2.3c-5.7.6-10-2.3-15.6-3.5-8.1-6.4-15.7-13.2-21-22.4-7.1-12.4-8.4-27.9-13.1-41.2-1.1-3-2.3-7.7-5.1-9.3,2.1,8.7,4.6,17.3,5.6,26.2.6,4.9-.4,10,.2,14.8,1.6,12.6,16.4,29.5,28.8,31.9ZM545.3,534.3c-1-.2-2.4.2-3.5,0v-9.8s-2.3-12.1-2.3-12.1c-.7,18.6-4.4,31.3,6.9,47.4,4.6,6.5,12.8,14.4,21.3,15.1,1.2.1,4.4.7,4.1-1.2-3.5-1.1-6.6-3.5-9.2-5.8-9.4-8.2-17.7-20.5-17.3-33.5,4.4.8,2.5,4.9,4.1,9.2,4,11.1,14.8,19.8,26,23.1.6.7,1.5.9,2.3,1.2s.8-.1,1.2,0c3.4,1.2,6.4,3,10.4,2.3-1.2-2.6-4.6-3.4-6.9-4.6-16.5-8.8-26.4-17.8-30.7-36.9-1.8-8.1-1.1-17.9-4.6-25.5-2.7-.6-1.8,2.4-1.8,4.1.2,9.8.4,17.1,0,27.1ZM531.4,522.1c-.2,8.9,0,17.7,0,26.6s2.4,10.7,3.1,13c2.7,8.3,12.2,18.8,20,22.8,2,1,2.2.2,3.4-1.2-4.2-6.8-11.2-11.5-14.9-18.6-7.2-14-7.4-31.4-10.5-46.7-2.8.1-1.1,3.1-1.1,4ZM524.5,540c-1.3,3.7-1.3,7.7-1.2,11.6.1,2.5,1.1,3.3,1.2,3.5,2,20.2,5.9,30.6,24.3,40.5.3.1.7,1.5,2,2s14.1,5.9,14.2,3.2c-5.4-2.4-11.6-4.9-16.2-8.7-12.4-10.3-18.1-30.1-22-45.1l-1.2-23.1c-1.7.5-2.2,6-2.3,7.5-.2,4.3.4,5.3,1.1,8.7ZM664.3,600.2c.6-.4-2-3.1-3.5-2.3-.6.4,2,3.1,3.5,2.3ZM667.1,603.1c-.4-.4-1.1-4.3-1.5-.2,4.7,7.5,9.3,10.5,13.4,19s-.7,3.2,2.6,2.5c-.4-8.8-8.2-16-14.6-21.3Z"/>
    <path class="st6" d="M288.7,685.7c1.6-1.5,3.8-2.7,5.2-4.6h1.7c.2.7-.2,1.9,0,2.3-2.6,3.8-6.9,14.9-6.9,19.1v19.7c0,.3,1.2,6.4,2.3,6.4-.3-6.7-.8-13.4.1-20.1.6-4.8,4.6-18.8,6.8-22.7s4.4-3.7,4.6-3.5v3.5c-1.4.7-1,1.1-1.1,2.3s0,.8,0,1.2c.1,1.9,1.1,3.1,1.2,3.5.2,1.5-.2,3.2,0,4.6,2.3,16.6,6.2,34.1,18.5,46.2s2,1.8,4.6,3.5,1.7.8,2.3,1.2c.9,1.3,1.6,4.3,3.5,5.8l-5.8,1.2,5.8,3.5-6.9,1.2c2.8,0,5.4.9,8.1,1.2s1.6,0,2.3,0,1.5,0,2.3,0c.1.5,2.1,1.1,2.3,1.9,1.2,5-10.3,4.5-12.7,8.5,3.4-.2,8.5-.5,11.6-1.7,5.3-2.1,3-5.3,11.1-3.1,1.1.3,3.7-.5,2.7,1.9-1.4,3.4-16.8,9.6-20.7,11.7-4.5,2.4-13.7,9.1-17.4,10.3-4.3,1.4-6.9-.9-9.6-.4-4.3.8-10.2,7.2-15.9,5.5l16.2-13.9c-9.3,2.5-17.6,10.8-27.7,11.5,1.8-3.7,5.8-5,8.8-7.4s6.1-4.9,2.2-4.2c-3.7.9-21.6,13.6-23.7,11.6s.4-2.8,1.4-3.8,15.5-10.3,13.6-12.4c-7.9,2.8-14.5,10.1-23.1,10.4l13.9-13.9c-7.9,1.5-13.6,9.5-22,10.4-2.4-2.4,12.6-9.9,11.5-13.9-6,.8-9.6,7.2-16.2,5.8.7-2.3,13.6-10.7,11.6-12.7-5.6,1-10.8,7.6-16.7,6.9-2-2.4,5-5.3,7.5-7.5,2.4-2.2,4.6-4.4,5.8-7.5l-18.5,8.1c-1.5-4.7,3.7-11.5,8.6-10.5,1.3.3,0,2.9,1.8,2.4-.8-4.8,1.3-7,4.6-9.8l-6.9.6,1.7-16.2,4.1-10.4c.8-.6.8-1.6,1.2-2.3.7-1.3,3.6-5.6,4.6-6.9s1.6-1.5,2.3-2.3c2.4,1.1.4,3.6-.2,5-2.1,5.9-3.9,11.1-4.5,17.5l1.1,9.8c.7-14.3,5.6-26.7,13.9-38.1,1.1-1.5,5.1-6.6,6.2-7.7s4.4-3.4,6.5-3.9c-.3.5,0,2-.6,3.4-2.8,5.8-8,11.6-6.9,18.6,6.4-8.6,10-19.1,17.9-26.6Z"/>
    <path class="st6" d="M333.8,503c-.5-1.4-1.8-2.7-1-4.4.9-1.5,29.2-10.4,33.7-12,12.8-4.7,20.4-13.4,33.3-1.5s8.1,12.8,12.2,19c10.8,16.5,49.6,65.6,49.9,81.6,0,2.6-.8,8.8-2.7,11-1.8-4.2-2.1-10-6.3-12.7,4.9,24.7,4.3,50.2-16.2,67.6,2.9-.4,6.2-2.5,8.5-4.2s3.7-6,4.2-2.7c.6,4.3-7.6,12.5-11,15.6-4.9,4.4-12.8,9.7-19,11.6,0,2.4,4.4.7,5.6.4,4.1-1.3,9.4-4.2,13.3-6.4s10.7-8.6,8.9-3.8-10.6,11.1-13.5,13.1c-6.7,4.8-14.5,8.9-22.3,11.8-.3,2,2.6,1.1,3.8.9,9.9-2.2,15-5.3,23.4-10.2,1.1-.6,3.1-2.2,4.1-.6-10,11.4-26.4,20.9-41.6,22.6-1.2,3.8,6.3,2.4,8.4,2,10.6-1.9,22.7-8.6,31.5-14.7,1.8,4.6-7.5,9.8-11.1,12-12.2,7.7-28.3,13-42.7,13.4.5,2,2,2.3,3.9,2.2,4.5,0,13.4-1.8,18.1-2.8,11.1-2.3,20.9-7.1,31.1-11.6-7.1,10.4-23.4,16-35.3,19s-14,3.6-17.3,3.6h-16.8l11,2.3c17.9,1,34.9-2.8,51.4-9.2-15.9,18-46,15.7-68.2,16.2l12.1,2.3c15.9,2.6,29.5-2.4,44-4.5,2.4-.4,3.2-.6,2.8,2.2-21.5,9.4-49.4,14.8-72,6.7-8.3-3-15.5-9.5-24-11.3,19.7,19.6,50.1,19.9,76.3,17.3l-11.3,4.3c-22.4,4.7-43.2,1.7-63.9-7.8-3.3,3.3,11.3,9.7,13.3,10.4,10.9,3.9,19.7,2.9,30.6,4.6-.4,2.1-2.3,2.1-4,2.3-10.2,1.2-21.7-2.3-31.8-3.5-.8-3-7-5.5-9.2-6.9-.6-.9-2.2-1-2.3-1.2-.8-1-2.9-3.8-3.5-4.6-9.5-14-5.2-15.2-6.1-29.4-.1-2.1-1.9-3.5-2-4.2-.3-1.9-1-3.7-1.2-4.6s0-.8,0-1.2c-.3-3.3.2-7,0-10.4h1.2c1.1,1,2.2,1.1,2.3,1.2.3,2-.5,4.5.9,6.6l7.2,11.9c-2-5.9-4.4-13.7-8.1-18.5-.9-5.5-1.7-10.5-1.2-16.2,0,0,.5-1.2,1.1-1.2,2.8,9.6,4.5,21,12.7,27.8-5.8-12-8.6-23.6-9.2-37,0-1.5,0-3.1,0-4.6,4.6-.4,2.9-.2,3.5,2.8,1,4.6,1.9,9.1,4,13.4,3.1,0-2.8-15.3-2.9-16.2s0-.8,0-1.2c-.2-1.4.1-3.1,0-4.6-.5-6.4-1.4-14.4,3.5-19.7.4,4,.9,8.8,1.5,13,.2,1.8,1.2,7.1,3.2,7.8-.6-8.1-1.7-16.1-1.1-24.3s1.5-6.1,1.2-9.3h3.5c.3,4.5-.5,9.5,0,13.9.2,2,1.1,2.2,1.2,2.3,0,.7-.1,1.6,0,2.3.4,2.2.4,5.1,1.7,6.9,1.1,0,.5-5.5.6-6.9.2-7.6.7-14.5,1.2-22,1.9-3.7,4.3-5.4,6.9-8.1.2,3.9.4,9,1.2,12.7s.8,6.9,3.5,8.1c.5-3.2-1-6.2-1.1-9.2-.2-4.6.2-9.3,0-13.9,3.2-3.1,5-8.5,10.4-9.2,1.1,3.9,1.5,8,2.7,11.8s.3,3.5,2,3.2v-19.1c0-1.4,7.2-4.7,8.1-4.1,1,4.4,2.1,8.8,3.8,13s2.4,6.5,4.3,7.8c-1-7.2-7.7-19.2-3.3-25.9.9-1.4,1.4-2.3,3.3-1.9.5,5.8,5.4,11,9.2,15-.3-4-2.6-7.8-4.1-11.5s-.3-4.3-.5-4.6c.7,0,1.6-.1,2.3,0,6,1,7.5,7.1,12.7,6.4l-6.4-7.5c11.4,3.2,23.5,4.7,35.3,2.3.3-2-2.6-1.1-4-1.1-9.3-.3-16.9-1.1-26-3.5.3-1.7,4-2.6,5.5-3.2,5-1.9,11.8-2.3,15.3-6.1h-24.9c-.6,0-2.5-1.7-4-1.2-1.7-1.6,20.2-7.9,20.8-11.5-9.4,1-18.1,5.6-27.7,4.6,2.5-4.8,1.7-2.1,5.7-4.1.8-.4,1.1-1.5,1.3-1.6,2.4-1.3,7.8-1.5,9.2-5.8-3.4,0-7.3,3-10.4,3.5-4.4.7-7.1-.6-10.4-1.2,6.4-3.6,13-7.9,17.3-13.9l-19.6,8.1c-2.7-2.6,18.5-12.9,17.3-17.3l-12.7,6.9c-2.1-2.1,11.1-12.8,8.7-16.2l-7.5,6.4,6.9-15.6-5.5,6.6c-1.7,1.6-5.7,15.5-7.1,9l-3.5-11v17.9c0,.5-3.7,3.9-4.6,2.9.3-2.9-.8-5.4-1.8-8.1s-1.2-5.4-4-4.6c1,6.2,3.2,12,2.3,18.5-6.3,1.6-3.4-9-9.2-9.2-.6.6,5.1,15.7-3.5,13.9.2-4.2-1.2-9-2.9-12.7s.2-2.9-2.8-2.3c-.7,5.5,2,9.7.6,15.1-2.4,9.1-5.7-9.4-6.2-11.2s.9-3.3-2.5-2.7v18.5c-2.5.5-2.7-1.2-3.5-2.8-2.3-4.4-3-11.8-3.4-16.8-2,.5-2.4,6-2.4,7.5,0,4.8,4.1,15.9-2.8,11l-5.2-16.2v16.2c-2.4.3-1.9.2-2.6-1.4-1.9-4.5-2.2-12.1-3.2-17-1.6.4-2.3,6.4-2.3,7.6s2.8,13.6-1.1,9.8-6.5-16.2-7-19.6c-2-.3-1.1,2.6-1.1,4-.1,3.4,0,6.5.6,9.8-5.1-4.3-5.2-11.3-6.4-17.3-3.3,1,1.3,12.4-2.9,11.5-4.3-.9-7.4-9.8-6.4-13.8-1.8-.5-.5,4.4-3.5,1.7s-2.7-15.7,2.9-15.7,11.1,10.2,16.4,11.3,10.8.5,13.4-.8.4-2.6.7-3.5c-7.6,1.4-9.8,4-17.7-.2-1.4-.8-8.4-6.3-8.8-7.3-1-2.6,6.9-2.5,8.1-4l6.9-2.3c.8,0,1.6,0,2.3,0,3.4-.4,8.5-1.9,11.6-3.5.8,0,1.5,0,2.3,0,.6,1.5,2.2,1.1,3.5,1.2.6,1.8,2.2,5.2,2.3,6.5.4,5.8-9.3,6.9-10.4,9.7.8-.1,2.4,1.3,4.6.6,2.8-.9,10.3-8.6,10.4-11.5s-1.6-3.6-2.3-5.2ZM355.7,728.5l-19.7-6.9c2.3,3,7.7,5.3,11.3,6.7s9.7,4.7,8.4.3Z"/>
    <path class="st6" d="M430.9,764.3c2.2,2.1,10.6-11.8,12.7-12.7-.1,5.8-4.3,10.9-6.1,16.4s-1.8,3.5.3,3.2c.2-2.2,9.8-14.5,11.6-12.7l-4.6,11c2.6,3.8,5.5-4,9.2-2.9l-3.5,8.1c11.5-4.2,4.7,6.6,5.8,8.1l4.6-2.3c-1.3,4.5,1.5,4.1,2.7,6,15.4,24.3,28.9,50.7,43.4,75.7,16,27.5,35.4,56.3,50.1,84,1.3,2.4,4.4,6.4,2.2,8.3s-12.6,5.3-15.6,6.4c-20.3,7.5-41.6,12.6-63,15.7l-37.9-80.1-3.7-2.6,26.6,85.5c-14.5-1.1-29.5,3.4-43.4-1.1-6.8-25.9-15-51.6-23.6-76.9-12.3-36.2-27.8-70.3-41-105.8-3.8-10.3-7.8-19.5,5.2-24.3-.2,2.2-1.5,3.3-.6,5.7,1.4,3.9,11.5,14.5,14.7,20.1,24.3,43.6,40.7,107.3,60.2,154.8,1,2.5,1.8,6.5,4.3,7.8-12.5-52.3-26.2-106.6-46.5-156.4-2.2-5.3-11.4-20.5-11.3-24.6,0-3.2,8.2-4.5,10.7-3.8,5.4,1.6,18.3,23.9,21.3,29.7l43.1,88.1c-.7-10-6.1-19.9-9.3-29.4-7.7-23.1-26.3-71.8-27.6-93.9-.3-4.5.9-6.5,3.5-10.1l13.7-14.6-8.1,19.6Z"/>
    <path class="st8" d="M381.2,555.1c3.3.5,6,1.8,10.4,1.2l1.2,2.3c-.2.1-.4,1.2-1.3,1.6-4,2-3.1-.7-5.7,4.1-1.7,3.2-4.2,8.7.8,10.2s8.1-2.3,5.9,6.4-5.7.7-3.2,4.3c-.7-.1-1.6,0-2.3,0-.2-.3-5.8-3.3-6.1-3.3-.6,0-10.5,4.3-10.9,4.7-1.1,1.1-1.2,4.2-1.4,4.4-.5.4-10.7-4.2-12.5,2s0,8.5-1.6,9.4-7.2-.3-9.7.1c-6,1.1-3.7,14.3-4,18.5-.5,7.4-1,14.4-1.2,22h-2.3c-.1-.7,0-1.6,0-2.3l-1.2-2.3c-.5-4.4.3-9.4,0-13.9h-3.5c.4,3.2-.9,6.2-1.2,9.3l-1.2-2.3c-2.5.6-2.5,3.6-2.3,5.8-4.9,5.3-3.9,13.2-3.5,19.7l-4.6-1.2c0,2.3,0,4.6,0,6.9s0,3.1,0,4.6c-3.5,1.3-3.4-2.1-3.6-2.2-3.2-1.8-7.2,12.6-1,12.6-.6,5.7.3,10.7,1.2,16.2,0-.1-1.2-.1-2.3-1.2-1.7-1.5-3.1-2.2-3.3-2.4-.4-.5.7-8.9-8.2-4.5v-3.5c-.2-.2-4.5,3.2-4.6,3.5-.7-.8-1.8-1.4-2.3-2.3s.2-1.6,0-2.3h-1.7c-1.4,1.9-3.6,3.1-5.2,4.6.5-3.7-1.3-2.1-3.5-1.8-5.7.9-4.5,1.5-6.9,6.4-2.1.4-5.1,2.4-6.5,3.9s-5.1,6.2-6.2,7.7c-3.7-2.8-8,3.1-10.4,5.8s-1.7,1.5-2.3,2.3c-4.3-1.2-4.7,3.4-6.1,4.3s-1.8.2-2,.3c-.4.3-.8.9-1.2,1.2s-1.8,0-2.8,1.1c-3.9,4.3-8.3,14.8-7.6,20.8-.1,0-.9,2.2-2.3,1.1s.8-2.7-1.2-2.2c-1,6-2.8,6.1-8.1,4.6l6-12.5,5.5-2-3.4-4.1c.5-1.1.7-2.8,1.2-4-2.3-2.2-5.3,5.3-7,7.8s-2.3.7-2.3.8c1.2-1.2-1-3.6-2.3-2.3s1.1,3.5,2.3,2.3c-.3.7.6,3.1-.2,4.4s-2.6,2.2-4.4,4.9-4,1.3-1.7,5.8,6.4,2.8,7.1,3.8,4.6,9.4,4.8,11c.5,3.7-1.1,6.5-1,10.1s2.3,12.3,1.3,13.3c-3.4,3.3-5.2-9.1-10.4-7l.6-1.1h-2.9c-4.2-5.3-6.5-8.2-10.4-13.9,3.6,1.7,4.9-2.2,5.4-2.3,5-1,7.5,1.6,8.4-6.4s-7.1,2.4-9.2.6l-1.2-42.7c-8.1,1.2-4.2,7.2-5.1,10.5s-3.9,3.1-4.2,4.2c-1.4,5.5,3.5,6.4,4.4,9.2s.2,16.6-5.5,16.5c-1.4-2.1-8.3-12.7-9.2-13.3-4.1-2.7-3.3,1.4-4.8,3.3-40.2,50.1-78.5,102.5-119.5,152.2-1,32.4-32.1,15.2-45.7,1.8-1.8-1.8-2.3-3.8-3.4-5.3.5-5.3-1.8-9.9,0-15,5.4,2.1,12.6,3.7,17.3,6.9,4.8,3.2,10.9,11.8,15.6,15,1,.7,1.1,1.6,2.9,1.1,6.7-12.1,1.4-17.8-8.1-25.4,2.1-1,2.8-2.2,2.3-4.6.4.3,2.2.4,3.5,1.7,2.9,2.6,4.5,5.3,6.8,8s1.2,1.4,2.4.2l151.4-191.9c-7.1-6.4-10.9-16.4-19.2-22.5-2.5-.6-5.3,5.8-6.2,6.9s-4.7,3.3-5.8,4.6c-5.6,0,.2-8.3-1.7-11.6s-8.2-7.4-9.9-8.1c-.3-1.1-.8-2.2-1.2-3.5,2.9-1.1,5.6-9.4,4.4-11.4s-3.4-.7-4.2-3.3,0-5-.2-7.3l11.6,1.2c.1.5,1.9,1.5,2.3,2.3,2.6,4.3,4.7,5.9,2.3,11.6,6.3-1.5,3.6,2.5,6.4,4.5.7.5,8.2,3.4,9.2,3.6,2.9.4,1.5-2.6,1.7-4.6.6-.1,2.1.2,2.3,0,.4,3.4,5.2,5.2,5.8,5.8s.8.7,1.2,1.2c4.7,5.8-3.4,12.3,8.9,12.7s2.3-1,2.7-1.1c1-.2,2.4.1,3.5,0-1.1,6.9,1.9,3.7,3.5,4.6s1.8,5.2,2.4,5.7,2-1.1,2.2-1.1c.7-.2,1.9.2,2.3,0,1.3,3,7.5,17,7.8,6.7.1-4.8.5-3.7,1.5-7.8h1.2l2.3,1.2c.6-.6-1.8-5.2,3.8-3.3s6.6,12.4,9.5,7.9c4.5-7.1-5.2-9.3-5.3-9.9s3.8-8.9,4.7-11c.5-.2,1.6.2,2.3,0v-4.6c.3-.4.8-.7,1.2-1.2,1.3-1.6,2.8-5.2,4.2-5.7,2.8-.9,15,3.8,16.4-2,2.1-8.6-17.1-4.9-19.8-5.3-3.5-.4-3.1-2.9-4.8-4.4s-6.8-1-5.2-6.2,5.5.3,7.3.3,3-1.3,4.5-.9,2.4,3.4,4.2,4.5.2,1.5,1.6,1.1c1.8-2.9,5.9-4.3,7.7-5.7,3.7,4,4.3-3.3,7.5-3.6s4.9,3,8.1,3.5c14.2,2.3,4.5-9.6,3.1-14.7s0-4.3-.3-6,0-1.6,0-2.3c9.4-1.8,1.5-16.1,10.9-15s10.5,5.5,5.9-2.3h-22l-8.7-13.9h8.6c0,0,1.2,3.5,1.2,3.5l5.2-3.5c.4,3.2-3.1,10.6,2.9,9.2s-1.6-3.6-1.8-4.2c-1.2-4.1,1.6-3.5,2.7-5.1s.8-2.3,1.5-3.3c1.7-2.3,3.4.4,1.6-5.9-4.3,0-3.9,6.3-4.7,6.9-2.4,1.7-3.7-1.3-4.5-2.9l3.4.6c-.9-8.1-.2-10.5,7.8-12.5,3.7-.9,2.9,2.4,4,3,3.2,2,11.6-2.6,15.1-1.8s4.6,4,6.2,4.2,6.6-4.2,10.8-1c-.4-8.7,3.4-4.7,8.6-4.6,9.4.2,21.1-1.4,29.5,0ZM309.5,572.4c-1.3-1.3-3.6,1-2.3,2.3s3.6-1,2.3-2.3ZM322.2,646.4c.7-5.6,1.8-10.7-5.9-8.8-1.5,1.1-1.6,6.2-.6,7.7l6.4,1.1ZM189.3,653.4c-11.1-5-14.6,11.2-2,3.2s2.5-1,2-3.2ZM281.7,660.3h-2.3v3.5h2.3v-3.5ZM299.1,677.6c-1.3-1.3-3.6,1-2.3,2.3s3.6-1,2.3-2.3ZM311.8,679.9h-3.5v2.3h3.5v-2.3ZM240.1,711.2h-2.3v3.5h2.3v-3.5ZM224.5,755.1v1.2c.8-.4.8-.8,0-1.2Z"/>
    <path class="st8" d="M248.2,716.9c-.4.7-.4,1.7-1.2,2.3h-3.5c.3-.8-.2-2.4,0-3.5h1.2l3.5,1.2Z"/>
    <path class="st5" d="M523.3,236c2.3,2.3,1.1,6,1.4,7.5s3.6.2.9,5.2l-1.1-2.3-4.6-.6c.6,4.4,6.8,15.6,5.3,19s-4.3,3-5.7,4.8c-51.5,66.3-102.2,133.7-153.2,200.5-5.3,4.6-4.1.3-6-2.1-4.6-6.1-6-10.8-9.1-15.8,51.8-63.4,102-128.1,152.6-192.5,6.3-8,12.8-16,19.6-23.7ZM490.2,286.1c5.6-6.3,16.6-17.2,20.4-24.1s1.4-3.1,1.1-5.3c-3.2,1-3.5,5.9-5,7.7s-2.7,1.4-3.7,2.6c-5.2,6.5-9.6,13.5-14.6,20.2s-5.2,3.4-5,6.5c3.9-1.7,4.5-5.1,6.8-7.7ZM480.5,299.6l.6-3.4-2.9,1.1v2.3s2.3,0,2.3,0Z"/>
    <path class="st6" d="M176.6,627.9c-.7-2.7.5-7.4,0-10.4l-6.9,6.9v-15s-5.8,8.1-5.8,8.1l2.3-27.7-5.5,18.2-2.6,1.5c-4.4-11.8,9.6-31.3,20.5-34.4,1.5-.4,4.4-1.2,3.8,1.5-5.2,3.4-9.5,6.6-12.7,12.1,4.5.6,6.2-4.1,9.3-6.3,8.3-5.9,10.4-4.2,17.8,1.7,11.6,9.2,26.3,22.1,37,32.3s15.6,17.7,23.7,26.3c1.5,6.8-18.3,27.3-24.3,30.4s-1.6-.2-2.3,0l14.3-15.1,5.3-10.3c-7.5,7.1-13.7,18-24.3,20.8-2.5-2.6,9.9-10.7,11.2-12s1.7-2.9,2.7-4.2c2.7-3.3,6-6.4,7-11-1.9-2.5-2,.1-2.7.9-2,2.2-3.8,4.7-4.3,7.8l-17.3,13.9c-1.1.1-2.4-.2-3.5,0,2.8-5.8,11.3-11.6,13.9-16.8s.3-2.1-1.1-1.7c-.2,3.8-16.3,13.9-17.3,12.7.4-8.5,10.8-13.3,12.1-21.9-5.6,5.8-11.6,12.8-19.1,16.2-.4-.5-.8-.8-1.2-1.2l-1.2-10.4c-3.5.2-3.8,3.8-4.6,4.6s-1.7-.1-2.3,0c.3-2.7.7-5.3,1.1-8-3-.1-5.2-2.2-7.7-3.1-2.8-1-6.7,2.2-6.1-6.2l-3.4,2.3-1.8-4.6-1.7,4.6c-.5-.8-2.2-1.9-2.3-2.3Z"/>
    <path class="st6" d="M263.3,533.1c-.8,1.9-.7,5-3.5,5.8-1-6.2,1.2-11.5,2.3-17.3-3.7,2.2-3.9,9-9.2,9.2l2.3-12.7-9.2,5.8,1.1-10.4-4.6,5.2c-4.7.5,0-7.6-1.2-8.7h-4.6s2.4-5.2,2.4-5.2c-4.7,0,.8-11.1,2.4-13.7,5.1-8.2,21.8-16.4,31.4-14.3s21.8,18,24,26.3c-11.6,2.1-24.6,7.1-26.5,20.3-1.4,9.9,5.4,18.6-5.9,23.6.2-3.8.7-7.7,1.1-11.6.3-2.3,2.3-5.9,1.1-9.2-2,.8-2.6,4.9-3.5,6.9Z"/>
    <path class="st6" d="M351.1,452.2c-.2-.3-4.3,0-3.3-4.9s4.9-6.9,6.3-8.8c51.1-69.4,110.4-135.1,161.7-204.8,10.2-13.7,16.5,8.3,20.2,16.2-2.7.1-2.5.7-3.8-1.4-1.8-3-4.1-7.3-5.7-10.5s-.6-6.5-3.2-3.5.3,1.3,0,1.6c-6.8,7.8-13.3,15.7-19.6,23.7-50.6,64.3-100.8,129-152.6,192.5Z"/>
    <path class="st8" d="M528.9,803.9c.2.1,3.6,3.8,3.7,4.1.9,3.2,3.5,16.2,4.9,18.5s3.4,1,4.1,3.4-.5,5.2.8,7.3,6.9,4.3,8.7,6.3,4.5,9.4,4.5,12.9c0,7.5-7.5,16.2,8.2,13.6,2.2,1.6.4,6.6,1.2,7.5s2.5-.4,3.4.8c2.7,3.6,1.6,9.7-.1,13.5s-4,.9-2.2,3.1,2-.3,2.3.8c2,7.6-3.3,6.6-9.3,8.5,2.6-4.4.9-8.5,1.4-11.9s3.9-5.8,1.6-9-4.2-1.6-5.2-1,0,6.3-3,5.7c-5.3-6.3-1.3-11.8-.6-18.4-3.3-.9-7.3-.8-10.4-1.7-6.5-1.9-4.9-20.5-6.5-25.9-.7-2.3-2.6-3.9-3.3-5.9s0-5-1.1-7-4.4-2.2-5-4.2.1-5.2-.4-7.7-3.9-5.1-4.2-7.3,3.6-7.6,6.5-5.9Z"/>
    <path class="st5" d="M571.9,202.4c5.5,7.3.9,4.5-2.4,7.5s-8.4,14.5-11,15.7l-8.7-7.4c-2.3-1.8-5.6-2.8-8-4.1s-4.2-4.2-5.8-4.6c2.4-9.8,10.9-18.9,21.7-15.3s12.8,6.5,14.2,8.4Z"/>
    <path class="st6" d="M402.5,951.6c.8,0,2.4-1.9,4-1.1,2.9,8.6,8.6,17.8,11.2,26.4.3.9,1.1,2.4-.2,2.5l-32.9-3.5,23.1-4.6-27.7-2.3v-3.4c7.6-1.6,15.8-1.7,23.3-3.8,1.2-.3,3.5-.3,3.2-1.9-4.8.2-27.8,0-30.1-3.1s-1.1-3.5-1.1-5c9-.4,18.2.6,27.2,0Z"/>
    <path class="st6" d="M595,757.4c1.7.6,3.8.5,5.4,1.5,7,4.6,21.9,20.1,28.8,26.7,12,11.6,24.4,24.2,35.7,36.5,7.2,7.8,14.4,16.1,20.2,24.9-1.2,2-2.5-.5-3.5-1.2-20.2-15.3-40.7-40.6-58.9-59-9.1-9.2-19.4-17.2-27.8-27.1,0-.8,0-1.5,0-2.3Z"/>
    <path class="st6" d="M571.9,202.4c-1.4-1.9-11.5-7.5-14.2-8.4-10.7-3.6-19.2,5.5-21.7,15.3-1.2-.3-3.3.3-4.6,0-2.6-.7-5-1-7.6-2.2s-2,.8-1.6-1.8,8.2-18,9.4-19.5c7.1-8.9,32.1,4,38,11.4s2.7,2.6,2.3,5.2Z"/>
    <path class="st1" d="M429.7,421l5.8,3.5-3.5,3.4c7.5-.9,14.9-1.5,22.5-1.1,1.4,0,4.3-.9,4,1.1-9.4,1.2-18.8,2.4-28.2,3.6s-4.3.5-4.1,2.2c9.9,0,19.5-1.7,29.5-1.1,10.3.6,26.4,2,36.2,4.2,1.8.4,6.5.9,7.1,2.7-9.8-.1-21.1-3.5-30.6-3.6s-19.6,1.4-26.5,2.5-7,2.9-11.1,2.2l4.6,4.6-24.3,3.5,10.4,1.1c-3.8.7-13.3,3.9-11.6-3.9.6-2.8,22.7-7.7,26.6-7.7,1.9-1.5-.2-2.1-1.7-2.3-3.7-.5-16,2.9-16.8-.6s6.8-4.9,8.2-6.8,0-4.1,3.4-7.6Z"/>
    <path class="st6" d="M596.9,796c10.7,10,24.9,28.3,34.4,40.2s22.1,26.5,25,32.8c.9,1.8,1.4,3.2,1.1,5.3l-69.3-81.5c0-4.8,7.6,2.2,8.8,3.3Z"/>
    <path class="st8" d="M595,759.7c-1.2,6.9-11.4,5.1-11.5-.6s8.5-12.6-6.9-8.7c1.9-4.2-3.4-8.3-3.5-8.8-.2-4.1,3.9-9.9,3.5-14.4,4.1-.8,1.3,3.2,1.7,5.8,1.4,9.7,3.7,3.8,7,3.4s10.3,2.2,10.7,2.6c4,3.9-1,13.8-.9,18.2s0,1.5,0,2.3Z"/>
    <path class="st8" d="M599.6,728.5c1-5.1,6.2-7.2,10.4-4s3.4,7.3,7,4.5v-3.3c-.2-1,2.2-.7,2.3-.6s-.3,1.5.3,2c1,.9,2.9,0,3.2.3,2.6,2,6.6,7.8,9.2,10.4-.7-.3-9.1-2.2-9.5-2.1-2.5.5-6.6,5.4-9.5,6.7s-.7-.6-.6-1.1c0-3.7-4.8-2.1-6.9-6.9s.3-3.1,0-3.5-2.6.3-3.5,0c-1.3-.5-1.8-2-2.3-2.3Z"/>
    <path class="st1" d="M680.5,645.3c-.2.8.5,2.7-.2,3.3s-2.3,0-3,.4c-1.1.8-.8,3.5-1.7,4.8s-2.6,1.7-2.9,2.2c-.9,1.5-.7,14.2-5.5,7.8s-1.1-5.1-1.8-7.2-2-.8-2.2-1.7c-.5-1.9.3-4.4,0-6.1l4.6,3.5-3.4-17.3c6.4,2,5.3,12.1,11.5,11.6.9-9.6-4.2-18.3-4.6-27.7,2.1.4,1.9,2.4,2.5,3.9,2.5,7.4,3.5,15.5,6.8,22.7Z"/>
    <path class="st6" d="M396,925.2c.6.4,3.7,10.3,1.9,10.3-10.4-4-30.7,3.6-32.9-11l31.1.7Z"/>
    <path class="st6" d="M371.3,919.3c-7.4-.9-11.4-3.6-11.6-11.5,8,4,21.5.5,28.7,2.2,1.5.4,3.6,7.4,3.1,9.3-6.4-.6-13.9.8-20.2,0Z"/>
    <path class="st6" d="M404.3,948.2c-1.1,1.1-28.1-1.5-30.4-2.5-2.5-1.1-3-5.3-3.1-7.9,8.1,3.3,23.6-1,30.5,1.3s3.1,6.7,3,9.1Z"/>
    <path class="st1" d="M731.4,605.9c.2.2,1.6-.4,2.1.2,1.1,1.3-1.6,4.4,3.6,3.3,1.3-1.2-10.3-16.3-5.2-18.5l11,7.5c.9.9,2.8.3,3.4.6,6.6,3.4,6.5,6.7,11.6,11-4.5,1.3-8.8-5.8-11.6-7.5.3.3,1.2-.2,1.2-.6,0-1.3-1.7,0-1.2.6-1.2-.8-8.6-4.2-9.9-4.6-2.3-.6-2.1,1.7-1.7,2.8s1.9.6,2.3,1.4c.9,1.8,1.1,4.1,2.1,5.8,4.2,6.8,9.3,11.3,15.2,16.5-9.9-.4-19.3-9.7-23.1-18.5Z"/>
    <path class="st1" d="M529.1,587.4c2.7,1.5,3.2,4.6,5.2,7,3.2,3.8,15.3,11,8.7,13.3,27,16.5,64.2,5.5,92.7,15.9,1.8.7,3.6,1.1,4.4,3.2-26.8-7.7-52.6-3.7-78.9-9.5-8-1.8-11.7-4.5-17.9-7.8-1.4-.8-5.6-.8-5.9-1.3-.6-.8.4-3.4-.3-4.3s-4.7-.5-5.6-3.1l.2-1.5c6.2-2.4-.4-5.2-1.5-6.8s-.6-3.6-1.1-5Z"/>
    <path class="st6" d="M384.6,904.2c-8.2-1.2-28.9,2.4-28.9-9.2,9.3,1.4,27.1-3,28.9,9.2Z"/>
    <path class="st1" d="M539.5,282.2c8.4-1.6,20.8.2,29.1,2.6s5.3,1.4,5.5,3.1c-10.8-1.8-22.5-4.3-33.1-.2l-6.2,4.8c3.3.1,6.6-.1,9.8,0s4.3-.9,4,1.1l-19.6,1.2c1.8-2.7.2-6.9,6.9-5.8-2.4-4,0-2.9.7-4,2.2-3.6,1.4-1.7,2.8-3Z"/>
    <path class="st8" d="M529.1,860.3c9.7-3.3,6.5.5,8.6,5.8s2.2,2.8,2.7,4.3c.5,1.8,0,5.7.3,6s3.1,0,4.5.7c5.6,2.6,2.9,10.7,3.5,15.6-8.3-9.4-13.4-21.6-19.6-32.4Z"/>
    <path class="st6" d="M372.5,882.3c1,.3,6.1,7.3,5.2,8.1-8.1.7-16-1.5-24.1-1.3l-2.5-6.7c5.7,1,16.4-1.4,21.4,0Z"/>
    <path class="st1" d="M420.5,476.5c-.7-3.1,1.6-2.3,3.6-2.7,18.3-3.4,42.5-2.5,59.9,4.4,1.9.8,6,2.2,6.9,4-6.3-.5-12.2-4.2-18.2-5.5-12.9-2.7-28.3-2.9-41.3-1.5-2,.2-4,.4-5.2,2.3-1.9-.5-3.9-.7-5.8-1.2Z"/>
    <path class="st5" d="M541.8,219.8c5.9,1.8,15.9,10.5,15,17.3-1.6,1.7-19.2-12.2-23.1-13.9v-4.6c2.2-.2,3.8,1.5,5.8,1.9s2.2-.7,2.3-.7Z"/>
    <path class="st1" d="M637.7,408.2c1.5,16.2,15,31.9,32.4,30.1,2.2,1.7-4.6,4.3-5.5,4.4-6,.8-19-9.1-22.8-13.8-4.3-5.4-12.2-18-12.2-24.8v-21.4c3.7,1.9,2.7,7.9,5.8,11l-2.3.6c-.4-1.7.4-4-2.3-4.6-.5,8.1.9,18.8,4.5,26.1s1,3.3,3.5,2.8c-.8-2.1-2.1-4.3-2.3-6.6s1-3.1,1.1-3.8Z"/>
    <path class="st1" d="M440.1,454.5c19.6-1.3,41.4,1.6,60.1,7,.3,2-2.7,1.2-4,1.1-18-1.5-25.9-4.8-45.7-3.5l2.3-3.5-12.7-1.2Z"/>
    <path class="st1" d="M451.7,395.5c4.3-2.1,21.4-1.4,27.2-1.2,1.4,0,4.3-.9,4,1.1l-30.6,2.3c-1,.2-8.2,4.3-6.4,5.8,10.9-.6,22-2,33-1.2,6.7.5,6.7,3.1,0,3.6-12.8,1-26.1-1.1-38.8,2.3,1.1-1.8,4.7-7.3,5.7-8.4s5.5-4.1,5.8-4.3Z"/>
    <path class="st6" d="M369.6,876.5c-.7.7-19-.3-20.6-1.4s-3-6.3-2.5-6.7c7.9,3.1,23.5-3.6,23.1,8.1Z"/>
    <path class="st1" d="M724.4,619.8l3.5-.6c-3.1-5.4-2.4-10.8-2.3-16.8,6.1-.7,3.7.7,4.6,2.3-3.3-.7-2.4,1.8-2.3,4,.2,5.9.8,7.5,3.7,12.5l11.3,15.8c-8.4-2.7-14-10.4-18.5-17.3Z"/>
    <path class="st1" d="M644.7,401.3c4.9,11,13.1,16.8,22,24.3-9.3-.2-15.5-5-20.6-12.3s-2.8-7.3-3.7-8.5c3.2.3,2.1-1.3,2.3-3.5Z"/>
    <path class="st1" d="M485.2,350.4l-3.5,6.9,27.2-1.2,12.1,2.3c-15.1-.7-30.1,2-45.1,3.5.7-.9,2.1-1.5,3.2-3.2,2.1-3.4-.5-5.8,6.1-8.4Z"/>
    <path class="st1" d="M433.2,447.5c9.7-1.8,21.2-3.5,31.8-2.4s3.6.2,4,2.3c-15.5-1.6-29.9,4-45.1,5.8,1.7-4.6,10-1.4,9.2-5.8Z"/>
    <path class="st1" d="M466.7,373.6c-.7,3.4,1.8,2.3,4,2.3,11.3.1,23.2-2.3,34.8-1.2l8.6,2.3c-17.6.7-38.3-2.2-54.3,5.8,1.9-2.6,4.9-7.5,6.9-9.2Z"/>
    <path class="st6" d="M533.7,215.2c2.1,2.1,4.4,2.5,6.9,3.5s.9.7,1.2,1.2c-.1,0-.8,1-2.3.7s-3.6-2.1-5.8-1.9v4.6c-5.4-2.3-11.7-3-17.4-4.1,4.4-7.8,10-6.3,17.3-4Z"/>
    <path class="st1" d="M517.5,310c6.9,3.1,14.2-.3,21.4,0s12.1,1.7,15.9,2.6,3.5.3,3.2,2c-15.8-2.2-31.9-1.5-47.4,2.3,2.4-4.2,1.8-1.4,5.1-3.6s1.5-3,1.8-3.4Z"/>
    <path class="st6" d="M360.8,859.9c1.3,1.3,3.6,1.3,3,3.9-7.9-2.7-20.7,2.9-21.9-8.1,8.5.2,12.7-1.9,18.9,4.2Z"/>
    <path class="st1" d="M717.5,617.5c2.6,3.7,2.4,8,4.6,12.2,2.9,5.5,8.6,9,11.6,14.4-7,0-10.6-7.7-15.6-11.5s-4.3-1.9-6.4-3.5v-1.2c3.1-1.2,3.4-.5,6.9,0,.4-4.6-2.3-6.1-1.1-10.4Z"/>
    <path class="st1" d="M711.7,629.1c.4,3.7,2.1,7.1,3.5,10.4-4.6,0-7.5-8.7-4.6-11.6.4.4.7.8,1.2,1.2Z"/>
    <path class="st1" d="M440.1,412.9c.5-.3,11.3-2.3,12.1-2.3h30.1c.2,0,4.5,1.1,4,2.3-17.1-.7-34,.8-50.9,3.5,4.5-.5,4.3-3.3,4.6-3.5Z"/>
    <path class="st1" d="M475.9,367.8c.4-.5.6-1.3,1.7-1.2,14.7-.2,28-1.6,42.7.1,1.2.1,5.4.5,5.3,2.2-17-2.2-34.2-1.1-50.9,2.3.3-1,.5-2.7,1.2-3.5Z"/>
    <path class="st1" d="M523.3,303l22.5-1.1,14.5,3.4c-5.3,1.2-12-1.2-16.6-1s-15.3,1.5-21.5,2.2c-.5-1.7.7-2.4,1.2-3.5Z"/>
    <path class="st1" d="M647,368.9c1.6-6.9,1.7-15.5,2.2-22.6.2-2.1-.3-4.3,2.4-5.1,1,4.5,2.9,6,2.2,12s-2.8,15.5-6.9,15.7Z"/>
    <path class="st1" d="M509.5,319.2c12.2,0,23.7-.7,35.6,1.9,1.8.4,6.5.9,7.1,2.7-15-2.4-30-2.4-45.1-1.1,1.8-2,1.2-1.4,2.3-3.5Z"/>
    <path class="st6" d="M244.8,715.8h-1.2c.4-.3.7-.8,1.2-1.2v1.2Z"/>
    <path class="st6" d="M243.6,715.8c-.2,1,.3,2.7,0,3.5-2.9,8.2-2.3,15-10.4,18.5-.7-6,3.7-16.5,7.6-20.8,1.1-1.2,2.4-.8,2.8-1.1Z"/>
    <path class="st1" d="M503.7,325c-.6,3.5,1.8,2.2,4,2.3,7.3.2,14.7-.2,22,0l9.8,2.3-38.1,1.2c1.1-1.6.7-3.7,2.3-5.8Z"/>
    <path class="st1" d="M491,343.5c-.2.7-1.5,2.1-1.2,2.3,9.4-.2,19,.8,28.3-1.2l12.2,2.3c-5.2.2-10.4-.3-15.6,0-7.7.4-20,.9-27.2,2.3,1-2.5,0-6.7,3.5-5.8Z"/>
    <path class="st6" d="M569.3,177.3c1.9,1.7-.2,6.5.2,9l-13.8-6.4c2.1-4.4,10.3-5.7,13.6-2.6Z"/>
    <path class="st6" d="M354.6,851c-7-.2-15.1,2.4-16.2-6.9,6.6.1,15.9-2.2,16.2,6.9Z"/>
    <path class="st1" d="M325.7,747c-2.6-1.6-2.2-1-4.6-3.5l1.2-1.2c.6.8,2.7,3.6,3.5,4.6Z"/>
    <path class="st1" d="M337.2,755.1c.4,1.6-.4,4.3,0,5.8-.8,0-1.5,0-2.3,0l-1.7-1.2-.6,1.2c-2.7-.3-5.3-1.2-8.1-1.2l6.9-1.2-5.8-3.5,5.8-1.2c-1.9-1.5-2.6-4.5-3.5-5.8,2.3,1.4,8.5,4,9.2,6.9Z"/>
    <path class="st1" d="M328,748.2c-.6-.4-1.4-.6-2.3-1.2.2.2,1.7.3,2.3,1.2Z"/>
    <path class="st6" d="M345.2,831.6l1.3,6.8c-5.5-.2-11.7,2.1-12.7-5.2s.1-1.5,1.7-1.7,9-.3,9.7.2Z"/>
    <path class="st8" d="M325.7,501.9c.3,0,1.8-1.9,3.5-1.2.2.7-.2,1.8,0,2.3,1.5,0,3.1,0,4.6,0,.6,1.6,2.3,3.4,2.3,5.2-.1,3-7.6,10.6-10.4,11.5-2.2.7-3.8-.7-4.6-.6,1.1-2.8,10.8-3.9,10.4-9.7,0-1.3-1.7-4.7-2.3-6.5-1.3,0-2.9.4-3.5-1.2Z"/>
    <path class="st1" d="M719.8,647.6l17.3,12.7c-7.4.3-13-4-18.5-8.1,1.6-.7,1.3-3.2,1.2-4.6Z"/>
    <path class="st6" d="M240.1,738.9c-1.4,3.4-.5,5.8,0,9.2l-8.6,3.6c-6.2-1.6,6.9-14.6,8.6-12.7Z"/>
    <path class="st6" d="M222.8,527.3c.2,0,1.2-1.3,2.8-1.3,4.2,0,9.6,4.4,12.8,7,12.2,10.1,29.2,30.4,40.4,42.8,2.8,3.1,8.4,12,10.2,13.6s2.5,0,3.2,1c1.2,1.7.7,5.6,1.1,6.3-1.8-.1-.9,1.8-1.2,2.3-5,8.4-9.1,18-18.1,23s-3.9,2.3-5,.8c6.5-6.3,13.1-14.4,16.4-22.9s1.9-3.5.3-4.3c-6.5,11.5-14.5,21.7-26.6,27.7,4.3-8.3,12.8-14.1,14.5-24.2-1.9,1-2.3,3.7-4,5.8s-15.8,16.2-16.8,15l4.6-15-10.4,11.6,2.3-10.4-6.9,6.9,1.1-11.6c-4.2-.2-4.6,5.6-8.1,6.9l3.4-16.2-8.6,10.4c-4.2-.9,3.2-12,1.7-15l-8.6,9.3c-.2-4.9,4.5-8.4,2.9-13.9l-6.4,8.1-2.9-1.8,2.3-8.6-6.9,6.9,1.1-10.4-4.6,1.7,3.5-10.4-9.2,6.4,1.7-16.2-8.7,11.6,3.4-17.3c-5.5,6.4-3.1,4-9.2,2.3,3-16.2,15.6-25.3,31.2-27.7l-6.9,7.5c3.4,1.9,8.5-3.8,8.1-7.5Z"/>
    <path class="st6" d="M293.3,596.7c.9,1.5,2.7.8,3.5,6.9s-.1,1.6,0,2.3c-3.6,4.4-6.2,7.6-10.4,11.6,1.7-3.6,4.1-9,5.3-12.7s.2-4.1.5-5.8,1.8-.3,1.2-2.3Z"/>
    <path class="st1" d="M495.6,337.7l12.1-1.3,11,2.4c-8.5.6-17,1.4-25.4,2.3-.4-2.3,1.7-2.6,2.3-3.5Z"/>
    <path class="st1" d="M663.2,647.6l-4.4-3.1-17.5-17.7c6.6,1.5,20.6,14.4,22,20.8Z"/>
    <path class="st1" d="M556.8,732l-1.2,2.3c-4.9-5.1-11.4-9.3-15-15.6,5.1,2.2,10.5,6.8,14.9,10.5s1,2.7,1.2,2.8Z"/>
    <path class="st1" d="M536,209.4c1.6.4,4.8,4.1,5.8,4.6h-2.3s1.2,4.6,1.2,4.6c-2.5-1-4.8-1.4-6.9-3.5s1.3-3.3-3.5-2.3l1.2-3.5c1.3.3,3.4-.3,4.6,0Z"/>
    <path class="st1" d="M451.7,463.7c6,.3,11.8,1.5,17.8,1.3l7.6,2.2c-6.6,0-12.4-1.5-19.1-1.2s-8.9,1.8-13.2,2.4v-2.3s6.9,0,6.9,0v-2.3Z"/>
    <path class="st6" d="M245.9,668.4c.2-.4.8-.8,1.2-1.2-.4.3-.7.9-1.2,1.2Z"/>
    <path class="st6" d="M249.4,664.9c-.8,1.4-1.1,1.5-2.3,2.3,1.7-2.1,1.2-1.3,2.3-2.3Z"/>
    <path class="st6" d="M262.1,651c-.3.4-.9.8-1.2,1.2-2,2.8-1.2,1.8-2.3,4.6-3.1,1.3-6.3,5.3-9.2,8.1.3-.5-.2-2.2.6-3.4,2.5-3.8,7.4-7.4,7.5-12.8l4.6,2.3Z"/>
    <path class="st6" d="M245.9,668.4c-.7,1.2-1.6,2.3-2.3,3.5h-1.2c0-.1-1.8-1.1-.7-2.3s3.4-.8,4.1-1.1Z"/>
    <path class="st1" d="M784.5,556.2l13.9,6.9c-3.8.2-8-.4-11.6-1.7s-2.9-2.6-3.4-2.9l1.2-2.3Z"/>
    <path class="st1" d="M695.5,704.2l15,8.1c-6.2.2-13.7-2.9-18.5-6.9,1.1,0,2.5-.6,3.5-1.2Z"/>
    <path class="st1" d="M302.6,485.7l9.2-8.1c-.3,5.9-5.4,6.4-5.8,11.6l-4.1-1.1c-1.2-1.4.6-2.1.7-2.3Z"/>
    <path class="st1" d="M275.8,543.7c.7.8.2,4.5-.4,5.7-1.1,2.2-3.4,1.6-4.4,2.2-1.6,1-.2,3.9-1.4,3.5-5.5-2,2.9-7.2,2.9-7.6,0-1.2-1.8-3.3-1.2-5.1l4.4,1.3ZM274.8,547v-2.3h-1.1v2.3h1.1Z"/>
    <path class="st1" d="M705.9,696.1c2.2,1.2,6.3,2.4,8.8,3.4s3.4-1.1,2.7,2.4c-5.8,1-10.4-2.8-15-4.6l3.5-1.2Z"/>
    <path class="st1" d="M751,498.4l-1.2,2.3c-2.5-5.1-7-9.8-9.2-15,2.5-2.5,9.6,11.4,10.4,12.7Z"/>
    <path class="st6" d="M338.4,827.9h-6.9s0-5.8,0-5.8c5.1-.5,7.7,0,6.9,5.8Z"/>
    <path class="st5" d="M221.6,727.3c0-.1,1.6.3,2.3-.8,1.6-2.5,4.7-10.1,7-7.8-.4,1.2-.6,2.9-1.2,4-1.8,3.7-8.8,12.2-12.7,13.9,1.8-2.7,4-4.3,4.4-4.9.8-1.3-.1-3.6.2-4.4Z"/>
    <path class="st1" d="M684,607.1l-2.3,1.2c-1.2-4.5-5.8-9.6-4.6-15l6.9,13.9Z"/>
    <path class="st1" d="M707.1,660.3c3.4.5,5.5,4.2,9.2,3.5v-2.3c1.7,1.6,7.7,5.4,8.1,5.8.8.9.4,2.6-1.7,2.3-4.2-.6-11.9-6.7-15.6-9.2Z"/>
    <path class="st1" d="M777.6,564.3c2.1,1.5,11.7,5.8,12.7,7s.4,2.4-.6,2.3c-2.9-2.2-8.1-1.9-10.4-4.6s-.4-2-.6-2.3c-.5-.6-.7-1.7-1.2-2.3Z"/>
    <path class="st1" d="M663.2,722.7l-1.2,2.3c-.4-.3-1.8-.2-2.9-1.1s-7.1-7.4-6.3-8.1c4.3.6,7,4.9,10.4,6.9Z"/>
    <path class="st1" d="M718.7,528.5c-.8-.3-1.5-.9-2.3-1.2-4.3-1.4-6.1-7.3-7.5-11.5,4.7,3.2,6.7,8.4,9.8,12.7Z"/>
    <path class="st1" d="M731.4,520.4h-2.3c-.8-1.5-4.7-5.4-5.8-7.5,5-2.3,6.3,4.6,8.1,7.5Z"/>
    <path class="st8" d="M323.4,501.9c-3.1,1.6-8.1,3.1-11.6,3.5-1.1-2.1,4.8-4.3,6.5-4.6,3.1-.5,4.7,1.1,5.1,1.1Z"/>
    <path class="st1" d="M807.7,531.9c2,1.2,7,1.3,8.1,4.6-4,1-6.4-1.3-9.2-2.3l1.2-2.3Z"/>
    <path class="st1" d="M222.8,527.3c.4,3.8-4.7,9.4-8.1,7.5l6.9-7.5c.4,0,.8,0,1.2,0Z"/>
    <path class="st1" d="M265.6,535.4l-2.3-2.3c.9-2.1,1.5-6.1,3.5-6.9,1.1,3.4-.9,7-1.1,9.2Z"/>
    <path class="st1" d="M746.4,596.7c-3.9-1.2-5.9-4-5.8-8.1,1.7,2.4,5,4.7,5.8,8.1Z"/>
    <path class="st8" d="M309.5,505.4l-6.9,2.3c-.8-4.9,6.3-2.2,6.9-2.3Z"/>
    <path class="st1" d="M640.1,403.6l-2.3,2.3c-.8-.8-2.6,1.2-2.3-4.6,1.2-.7,3.5,1.4,4.6,2.3Z"/>
    <path class="st5" d="M286.4,617.5c-1.4,3-5.3,7-8.1,9.2s-5.9,2.8-7.7,5.7c-1.3.4-1.3-.9-1.6-1.1,3.5-1.9,7.4-4.9,10.5-7.5s5-4.7,6.9-6.4Z"/>
    <path class="st1" d="M687.4,564.3c-.5-.9-5-3.4-2.9-5.8,1.3,2.5,3.5,3.5,5.2,5.8h-2.3Z"/>
    <path class="st1" d="M644.7,400.1c-2.9-2.8-.7-6.6,0-9.2-.1,3.1.2,6.2,0,9.2Z"/>
    <path class="st1" d="M449.3,463.7c-1.9,2.1-6.3,1.1-9.2,1.2,1.9-2,6.4-1.2,9.2-1.2Z"/>
    <path class="st1" d="M723.3,618.7c-1.7,0-3-.7-3.5-2.3.1,0,1.1-1.6,2.3-.7s.8,2.4,1.2,3Z"/>
    <path class="st1" d="M719.8,646.4c-3.8-.7-3.5-2.8-4.6-5.8,2.1.9,4.1,3.6,4.6,5.8Z"/>
    <path class="st1" d="M500.2,331.9v2.3s-2.3,0-2.3,0c1.7-2.1,2-2,2.3-2.3Z"/>
    <path class="st1" d="M682.8,581.7c-2.9-2.1-6.3-2.2-5.8-8.1,2.1-.4.6,2,1.4,3.1,1.2,1.7,2.6.2,4.3,4.9.4.3,1.2.2,2.3,1.2l-2.3,1.2c-.2-.6.2-1.7,0-2.3Z"/>
    <path class="st1" d="M704.8,649.9h2.3s0,2.3,0,2.3c-1.1-1.1-.8-.6-2.3-2.3Z"/>
    <polygon class="st1" points="652.8 712.3 652.8 714.6 650.5 714.6 649.3 711.7 652.8 712.3"/>
    <path class="st1" d="M682.8,614l-1.2-3.5c.2.6.8,1.5,1.2,3.5Z"/>
    <path class="st1" d="M681.7,630.2c-1.7-.2-1.6-3.3,0-3.5,0,1.2,0,2.3,0,3.5Z"/>
    <path class="st1" d="M421.6,453.3c-.3,1.2-1.4,1-2.3,1.2,1.2-3.3,2.1-1.1,2.3-1.2Z"/>
    <rect class="st8" x="215.9" y="738.9" width="2.3" height="1.1"/>
    <path class="st1" d="M692.1,573.6l-1.2-2.3c.4.8.8,1.5,1.2,2.3Z"/>
    <rect class="st4" x="670.1" y="688" width="1.1" height="2.3"/>
    <path class="st1" d="M779.9,557.4l-2.3-1.2c.2.1,1.3.5,2.3,1.2Z"/>
    <path class="st6" d="M302.6,485.7c.5-5.6,2.5-8.7,3.5-13.9-1.9-2.2-7,8.8-8.7,9.2-1.6-7.1,5.6-13.3,5.2-20.8l-10.4,13.9c-.8-6.9.5-12.4,4.6-17.9l-10.4,6.4,2.3-10.4-3.4,1.7c6.6-16.2,28.5-25.9,43.3-13.3,4.8,4,21.6,31.9,24.2,38.2s1,2.9.6,4.5c-4.1-.3-19.7,8.6-21.9,7l2.3-3.4c-3.1-.9-1.8,1.4-3.1,2.3s-7.2,4.5-7.9,4.6c-5.6,1,5.1-8.7,4.6-10.4l-16.2,12.7c1.6-6.6,8.1-10.3,11-16.2-1.6-1.5-14.7,11.2-15.6,13.9-1-.6-.7-3.4-.6-4.6.4-5.2,5.5-5.6,5.8-11.6l-9.2,8.1Z"/>
    <path class="st4" d="M807.7,531.9c-5.8-3.5-14-9.1-15-16.2.9-.9,18.8,11.6,21.7,12.4s7.5,1.4,6.1-1.4-16.2-8.1-16.2-14.5c.8-.7,15.5,6.9,18.2,7.8,15.9,5.6,31.1,3.9,47.7,3.2-4.1,3.9-5.6,10.3-8.5,14.6-11.9,18-31.1,31.1-45.3,47.2-27.5,31.3-44,75.7-63.1,112.6s-17,35.9-25.3,39.5c-21.1,9.1-48.4,1-65.9-12.1l1.2-2.3c11.5,6.8,22.4,9.8,35.8,8.1l-25.8-10.6c-4.9-5.5-11.2-8.9-11.7-17.2,10.5,9.9,24.3,16.9,38.7,18.5-1.7-3.8-6.7-4.5-9.5-6.9-1.8-1.6-3.8-4.8-6.1-7-4.9-4.7-11.3-8.8-13.3-16.2,6.1,2.2,7.6,7.7,13.9,10.4.3.5.7,1,1.2,1.2s.8-.1,1.2,0l1.2,1.2c.3.1.8-.1,1.2,0l1.2,1.2c.4,0,.8,0,1.2,0,4.8,4,12.3,7.1,18.5,6.9l-15-8.1c-.4-2.1-2.9-1.8-3.5-2.3l-1.2-1.2c-1.4-1.3-11.4-14-10.4-15,3.7.5,5.2,4.1,8.4,6s9.7,4,13.5,5.5c4.6,1.9,9.2,5.7,15,4.6.6-3.5-1.1-1.8-2.7-2.4-2.5-1-6.7-2.2-8.8-3.4-7.6-4.1-19.8-14-19.1-23.1,4.8,5.2,11.4,10.3,17.9,13.3,1.8.8,11.5,5.1,8.1,0s-9-7-12.3-10.2c-3.5-3.4-6-8.8-8.5-12.9,4.9,1.3,18.5,15.1,22.5,14.5s-5.1-6.5-5.9-7.3c-1.9-1.8-11.4-12.8-9.6-14.6,2,0,4.1,1.3,5.8,2.3l1.2,1.2c.4.3.7.9,1.2,1.2,3.7,2.5,11.5,8.7,15.6,9.2s2.5-1.3,1.7-2.3-6.4-4.2-8.1-5.8c-3.1-3-6.1-6.2-9.2-9.2v-2.3s-2.3,0-2.3,0c-5.1-5.9-6.3-6.9-.6-13.9l6.7,7.2c1.2,1,1.3,3.5,1.9,4.3,1.7,2.4,2.4,2.9,4.6,4.6s.9-.2,1.2,0c5.5,4.1,11.1,8.4,18.5,8.1l-17.3-12.7c0-.4,0-.8,0-1.2-.5-2.2-2.6-4.9-4.6-5.8-.1-.3.1-.8,0-1.2-1.3-3.4-3.1-6.7-3.5-10.4,2,1.5,4.6,2.1,6.4,3.5,5,3.8,8.6,11.6,15.6,11.5-3-5.4-8.7-8.9-11.6-14.4-2.2-4.2-2-8.5-4.6-12.2.2-.6-.2-1.5,0-2.3.8,0,1.8,1.1,2.3,1.1.5,1.7,1.8,2.3,3.5,2.3.3.4.9.7,1.2,1.2,4.5,6.9,10.1,14.6,18.5,17.3l-11.3-15.8c-2.9-5-3.5-6.6-3.7-12.5,0-2.2-1-4.7,2.3-4,.4.8.7.8,1.2,1.2,3.8,8.8,13.2,18.1,23.1,18.5-6-5.2-11-9.7-15.2-16.5-1.1-1.7-1.2-3.9-2.1-5.8s-2.2-.9-2.3-1.4c-.4-1.2-.6-3.5,1.7-2.8s8.7,3.8,9.9,4.6c2.7,1.8,7.1,8.9,11.6,7.5-5.1-4.3-5-7.5-11.6-11-.1-.7.2-1.7,0-2.3-.8-3.3-4.1-5.7-5.8-8.1s-6.8-6.8,0-8.1c3,9.3,14.3,17.6,24.3,18.5-1.8-4.9-7.8-7.8-10.9-11.6-2-2.4-4.4-5.9-4.1-9.2.7-.8,12.9,8.7,15.3,9.5,3.3,1.2,7.8,1.8,11.2,1.5-8.9-7.7-21.7-10.8-23.1-24.9,5.3,2.2,14.1,13.6,19.3,13.7s2.4-.7,2.7-2.1c-6.6-3.9-13.1-14.4-15-22,5.4,4.9,10.6,11.8,18.5,12.7.2.3,0,1.6.6,2.3,2.3,2.7,7.5,2.4,10.4,4.6,1,.2.7-2.1.6-2.3-1-1.1-10.7-5.5-12.7-7-4.4-5.6-9.7-10.7-11.6-17.9,2-2.6,2.1.4,2.7.9,2.2,2.2,7,7.4,8.9,8.9l2.3,1.2c1.2.8,2.6.7,3.5,1.2s1.2,2,3.4,2.9c3.6,1.4,7.8,1.9,11.6,1.7l-13.9-6.9c-1.8-1.1-5.4-5.1-6.9-6.9l-1.2-1.2c-1-1.4-2.2-3.9-3.5-5.8v-1.2c.3-1.9,2.2-1.2,3.5-.6,3.6,1.9,9.2,8.4,13.8,10.5,2.8,1.3,5,2.1,8.2,1.7.6-2.5-1.4-2.6-2.6-3.7-6.3-5.8-13.2-9.6-17-18.2,9.8,2.4,17.7,14.4,28.3,15.1,1.1,0,4,.5,2.4-1.2-11-4.3-15.3-11.1-22.1-19.6-.8-1-2.6-1.1-2.8-1.2-.6-.7-.5-2.7,1.6-2.2,4,1.1,10.3,6.7,14.6,9.1.4,1.2,1.2,1.8,2.3,2.3s2.3.7,3.5,1.2c2.9,1,5.3,3.3,9.2,2.3-1.1-3.3-6-3.4-8.1-4.6ZM744.7,637.2v1.2c.8-.4.8-.8,0-1.2Z"/>
    <path class="st4" d="M711.7,629.1c-.4-.3-.8-.8-1.2-1.2.2-.2.8.1,1.2,0v1.2Z"/>
    <path class="st1" d="M705.9,659.1l-1.2-1.2c.5.3.8.9,1.2,1.2Z"/>
    <path class="st1" d="M803,533.1c-1.1-.6-1.9-1.1-2.3-2.3,1.1.6,1.9,1,2.3,2.3Z"/>
    <path class="st1" d="M692.1,701.9c-.4-.4-.8-.8-1.2-1.2l1.2,1.2Z"/>
    <path class="st1" d="M686.3,703.1c-.5-.2-.9-.7-1.2-1.2.5.2.8.7,1.2,1.2Z"/>
    <path class="st1" d="M688.6,704.2l-1.2-1.2c.6.3,1,1.1,1.2,1.2Z"/>
    <path class="st1" d="M690.9,705.4l-1.2-1.2c.6.2,1.1,1.1,1.2,1.2Z"/>
    <path class="st1" d="M717.5,652.2c-2.2-1.8-2.9-2.3-4.6-4.6l4.6,4.6Z"/>
    <path class="st1" d="M777.6,549.3c-.3-.4-.8-.7-1.2-1.2l1.2,1.2Z"/>
    <path class="st1" d="M433.2,417.5c.3-.4.7-1.1,1.2-1.2-.3.5-.9.8-1.2,1.2Z"/>
    <path class="st1" d="M773,542.4c-.2-.2-1.1-.2-1.1-.6l1.1-.6v1.2Z"/>
    <path class="st1" d="M438.9,410.6c.3-.5.9-.8,1.2-1.2l-1.2,1.2Z"/>
    <path class="st1" d="M491,342.3c.4-.5.3-.9,1.2-1.2l-1.2,1.2Z"/>
    <path class="st1" d="M519.9,307.7c.4-.3.7-1,1.2-1.2l-1.2,1.2Z"/>
    <path class="st0" d="M599.6,728.5c-20.5-13.7-42-37.3-61.2-53.8-8-6.8-17.3-12.4-24.3-20.2,2-.4,3.4.6,5,1.3,9.6,4.6,21.1,11.5,30.4,16.9,19.3,11.2,37.9,23.7,56.5,36,3,1.2,2.1-7.4.5-8.6l-55.6-39.2-25.3-15.7c8.4.4,17.3,4.5,25,7.9,15.9,6.8,39.9,23.2,54.7,27.4,1.6.4,3,.8,4.6.5l1.1-6.9c-22.5-11-45.2-21.3-68.6-30.3l-25-14.9c2,0,4.1-.1,6.1.3,10.7,2,29.1,8.4,39.9,12.1,6.5,2.2,51.4,20.9,53.4,18.8l-.2-3.3-39.1-17.5c7.1,1,41.8.9,44.9,6s-12.2,36.2-12.6,46.6,4.6,26.8,9.3,33,3.3.3,3.5,2.3c-.3-.2-2.2.6-3.2-.3s-.2-1.9-.3-2-2.5-.4-2.3.6v3.3c-3.6,2.8-4.6-2.7-6.9-4.5-4.2-3.2-9.4-1.1-10.4,4Z"/>
    <path class="st0" d="M166.2,652.2c1.7.7,9.4,7.2,9.9,8.1,1.8,3.3-3.9,11.5,1.7,11.6-44.4,55.5-87.7,112.1-132.9,167-2.1,2.6-13.4,14-13.8,15.1-1.2,2.9,7.2,3.5,8.1,4s4.4,5.8,5.8,6.9c.5,2.4-.2,3.6-2.3,4.6-.6-.5-1.6-.7-2.3-1.2-6.4-4.5-15.8-12-23.7-5.8-1,.8-4.9,5.7-5.1,6.5-.4,2.5,2.1,2.2,3.3,2.7-1.8,5.2.5,9.7,0,15-3.2-3.9-7.2-6.8-8.7-12.7-3.8-14.7,6.7-14.4,14.5-20.2,3.6-2.6,12-13.7,15.6-18,45.9-54.8,87.6-112.3,134.1-166.5,1.3-2.9-3-13.1-4.1-17.3Z"/>
    <path class="st0" d="M197.4,748.2c5.7,0,6.6-13.1,5.5-16.5s-5.8-3.7-4.4-9.2,3.5-1.5,4.2-4.2-3-9.2,5.1-10.5l1.2,42.7c2,1.8,9.7-5.9,9.2-.6-.9,8-3.4,5.4-8.4,6.4-.5.1-1.9,4-5.4,2.3-2.4-3.4-4.6-7-6.9-10.4Z"/>
    <path class="st8" d="M828.5,499.6c-3.3-1.6-17.6-10.8-18.3-13.5-1.2-4.8,8-15,10.2-18.9,3.7,10.3,6.1,21.5,8.1,32.4Z"/>
    <path class="st0" d="M533.7,710c.6.7.5,2.8-1.7,2.2-9.6-2.8-23.2-22.9-30.7-30,2.3-.5,3.1.5,4.7,1.7,7.4,5.5,16.9,17.5,24.2,24.4,1.2,1.2,3.4,1.5,3.5,1.7Z"/>
    <path class="st0" d="M601.9,730.8c.8.3,3.1-.3,3.5,0s-.3,2.7,0,3.5l-3.5-3.5Z"/>
    <rect class="st0" x="479.4" y="698.4" width="2.3" height="1.1"/>
    <path class="st0" d="M597.3,544.7c-11.7-1.6-24.9-14.7-29.5-25.5-6-14.2,1.1-31.7-2.6-48.2-.3-1.2-1.2-4.1.9-3.8,6.2,11.8,4.8,24.6,8.6,37,1,3.2,2.9,7.3,4.2,10.6,2.3,5.9,4.7,12.5,9.2,18.2s2.4,3.7,4.6,4.6c.4.4.7.8,1.2,1.2l1.2,1.2c.3.2.9-.2,1.2,0l1.2,1.2c.6.3,4.6,1.8,5.8,2.3l1.2,3.5c-.7-.1-1.7.2-2.3,0l-1.2-1.2c-.4-.1-.8.1-1.2,0-.3-1.2-1.4-1-2.3-1.2Z"/>
    <path class="st0" d="M612.3,528.5c.1.1.4,2.4-.6,2.3-6.8.9-23-11.4-27.2-16.8-11.9-15.5-12.9-43-12.7-61.9,2.1.4,1.9,2.4,2.5,3.9,9.1,26.8,6.9,46.3,30.5,67.8,1.6,1.5,7.2,4.3,7.5,4.7Z"/>
    <path class="st0" d="M586.9,557.4c-12.4-2.4-27.2-19.3-28.8-31.9-.6-4.8.3-9.9-.2-14.8-1.1-8.9-3.5-17.5-5.6-26.2,2.8,1.6,4.1,6.3,5.1,9.3,4.7,13.3,6,28.8,13.1,41.2,5.3,9.1,12.9,15.9,21,22.4-.2,0-2,.5-4.6,0Z"/>
    <path class="st0" d="M582.3,565.5v2.3s-3.5,0-3.5,0c-.3-.1-.8.1-1.2,0-.4-1.2-1.5-.9-2.3-1.2-11.2-3.4-22-12.1-26-23.1s.3-8.4-4.1-9.2c-.4,13,8,25.3,17.3,33.5,0,8-3.4,1.6-5,.4-3-2.4-2.3-2.4-3.8-3.9-1.7-1.5-5-4-7.3-4.6-11.3-16.1-7.6-28.8-6.9-47.4l2.3,12.1v9.8c1.1.1,2.5-.2,3.5,0,.3-10,.1-17.4,0-27.1s-.9-4.7,1.8-4.1c3.5,7.6,2.8,17.4,4.6,25.5,4.2,19.2,14.2,28.1,30.7,36.9Z"/>
    <path class="st0" d="M584.6,446.4c1.7,12.6,5.4,32.9,11.6,43.9.8,1.4,1.7,2.4,2.3,3.5s2.2,2.2,3.5,4.6-.8,4.9,3.5,4.6c0,.3,0,.8,0,1.2.2,1.4-.1,3,1.1,4.1l-4.6.6c-9.1-6.9-15.2-15.3-17.3-26.6v-1.2c-.2-1.1.1-2.3,0-3.5-.5-4.4-.9-10.2-2.3-13.9,0-.8,0-1.5,0-2.3v-16.8s2.3,1.7,2.3,1.7Z"/>
    <path class="st0" d="M600.7,414c2.4,16.9,2.3,34.6,10.8,49.9l10,12.5c-7.3,1.4-10.8-2.3-14.8-7.7-10.6-14.4-10.4-36-8.3-53,.2-1.6.6-3.5,2.3-1.7Z"/>
    <path class="st0" d="M531.4,522.1c0-.9-1.6-3.9,1.1-4,3.2,15.3,3.4,32.6,10.5,46.7,3.7,7.2,10.7,11.9,14.9,18.6-1.3,1.4-1.4,2.2-3.4,1.2-7.8-4-17.2-14.5-20-22.8s-3.1-11.2-3.1-13c0-8.9-.2-17.7,0-26.6Z"/>
    <path class="st0" d="M611.2,422.7c1.6,13.4,11.2,27.6,17.3,39.3-11.6,3.9-17.7-15.7-19.6-24.3s-2-24,.3-33.1c.3-1.2.3-3.5,2-3.2.6,6.8-.8,14.7,0,21.4Z"/>
    <path class="st0" d="M590.4,437.1h2.3c-.8,2.3.9,4.4,1.2,5.8.8,4.2.6,9.3,1.7,13.9,3.4,13.7,10.1,28.3,21.4,36.9-13.1,4.9-21.9-13.9-24.3-24.3.9-3.9-.7-7.3-1.2-10.4s-.9-4.3-1.2-6.9c1.9-2.2,1.9-8.2,0-10.4,0-1.5,0-3.1,0-4.6Z"/>
    <path class="st0" d="M526.8,547c3.8,15,9.5,34.8,22,45.1v3.5c-18.4-9.9-22.3-20.2-24.3-40.5l-1.2-3.5c-.2-3.9-.1-7.8,1.2-11.6.4,1.9,1.8,5,2.3,6.9Z"/>
    <path class="st0" d="M618.1,426.7c-3.5-12.4-2.7-23.8-2.3-36.4l2.3-1.7c-1.7,13.7,5.6,44.3,17.3,52-2.6,2.7,4.9,7.3,3.5,9.2h-2.3c-2.4-2.9-2.9-4.4-4.6-6.9s-2.6-2.6-5.8-2.3c-2.9-2.5-4.2-6-5.8-9.2l-1.2-1.2c-.1-.3.1-.8,0-1.2l-1.2-2.3Z"/>
    <path class="st1" d="M635.4,440.6c4.9,3.2,13.7,7.6,19.2,10.2s4.8,2,7.3,2.5c.2,2.3-3.5.9-4.7.6-5.7-1.3-10.5-4.9-16.1-6.4l10.4,13.3c-5.6,1.5-11.5-6.8-15-11h2.3c1.5-1.9-6.1-6.6-3.5-9.2Z"/>
    <path class="st1" d="M685.1,411.7c.7.8.7,2.5-1.5,2.1-5.8-1.1-11-2.7-15.7-6.2-6.1-4.6-16.7-14.8-17.4-22.4,8.5,10.7,17.1,18,29,24.7,1.6.9,5.4,1.7,5.6,1.9Z"/>
    <path class="st1" d="M605.4,504.2c3.6,2.5,7.3,5.8,11.2,7.9s7.7,1.6,9.6,4.8c-9.3.6-17-2.6-24.3-8.1l4.6-.6c-1.3-1.1-.9-2.7-1.1-4.1Z"/>
    <path class="st1" d="M767.2,513.5c-1.8-.1-3.9-17.3-6-20l-4.4-8.9c2.4-2.5,9.2,12.4,9.6,14.1,1,4.3,1.2,10.4.8,14.8Z"/>
    <path class="st1" d="M667.1,603.1c6.4,5.3,14.2,12.6,14.6,21.3-3.3.6-1.8-1-2.6-2.5-4.2-8.5-8.7-11.5-13.4-19,.3-4.1,1-.1,1.5.2Z"/>
    <path class="st1" d="M784.5,478.8l-8.1-16.2c6.9,1.9,9.1,9.7,8.1,16.2Z"/>
    <path class="st1" d="M584.6,446.4l-2.3-1.7v16.8s-1.9-22.4-1.9-22.4l.7-4.2c2-2.1,3.3,10.5,3.5,11.6Z"/>
    <path class="st1" d="M526.8,547c-.5-1.9-1.9-5.1-2.3-6.9-.8-3.4-1.4-4.4-1.1-8.7,0-1.5.6-7,2.3-7.5l1.2,23.1Z"/>
    <path class="st1" d="M548.7,592.1c4.6,3.8,10.8,6.3,16.2,8.7-.1,2.7-12.9-2.6-14.2-3.2s-1.7-1.9-2-2v-3.5Z"/>
    <path class="st1" d="M591.5,557.4c5.6,1.2,9.9,4.1,15.6,3.5v2.3c-6.8-1.3-14.7-.7-20.2-5.8,2.6.5,4.4,0,4.6,0Z"/>
    <path class="st1" d="M546.4,559.7c2.3.5,5.7,3.1,7.3,4.6,1.6,1.4.8,1.5,3.8,3.9s5.1,7.7,5-.4c2.7,2.3,5.8,4.7,9.2,5.8.3,1.9-2.9,1.3-4.1,1.2-8.6-.7-16.8-8.6-21.3-15.1Z"/>
    <path class="st1" d="M593.8,442.9c-.3-1.4-2-3.4-1.2-5.8h-2.3c.1-2.5,0-4.6.3-7.2s.3-4.6,2-4.4l1.2,17.3Z"/>
    <path class="st1" d="M756.8,483.4c-2.4.5-2.6-1.2-3.7-2.6s-7.3-9.5-6.7-10.1c3.1-.7,11.1,11.9,10.4,12.7Z"/>
    <path class="st1" d="M603.1,543.5c4.2,1.6,8.3,2.6,12.7,3.5-.3,2-6.2,1.3-7.6,1.2-2.2-.2-3.2-1.1-3.9-1.2l-1.2-3.5Z"/>
    <path class="st1" d="M584.6,477.6h-2.3c1-4.1-1.1-8.5-1.1-12.1s1.1-1.6,1.1-1.8c1.4,3.7,1.8,9.5,2.3,13.9Z"/>
    <path class="st1" d="M582.3,565.5c2.3,1.2,5.8,2,6.9,4.6-4,.7-7-1.1-10.4-2.3h3.5s0-2.3,0-2.3Z"/>
    <path class="st1" d="M592.7,469.5c-.8-3.5-1.9-6.3-1.2-10.4.5,3.1,2.1,6.5,1.2,10.4Z"/>
    <path class="st1" d="M590.4,452.2c-.3-3.2,0-7.1,0-10.4,1.9,2.2,1.9,8.2,0,10.4Z"/>
    <path class="st1" d="M605.4,503c-4.3.3-2.8-3.3-3.5-4.6,2.6,1.1,2.8,2.3,3.5,4.6Z"/>
    <path class="st1" d="M632,442.9c-2.8.3-3.9-.7-5.8-2.3,3.2-.3,4-.2,5.8,2.3Z"/>
    <path class="st1" d="M664.3,600.2c-1.4.8-4-1.8-3.5-2.3,1.4-.8,4,1.8,3.5,2.3Z"/>
    <polygon class="st1" points="737.2 483.4 737.7 481.1 740.6 484 737.2 483.4"/>
    <path class="st1" d="M524.5,555.1c0-.2-1-1-1.2-3.5l1.2,3.5Z"/>
    <path class="st1" d="M619.3,429.1c-.1-.4-.7-.9-1.2-2.3l1.2,2.3Z"/>
    <path class="st1" d="M577.6,567.8c-.8-.3-1.7-.5-2.3-1.2.9.3,1.9,0,2.3,1.2Z"/>
    <path class="st1" d="M598.4,493.8c-.6-1-1.5-2.1-2.3-3.5,1.7.5,2.3,1.8,2.3,3.5Z"/>
    <path class="st1" d="M599.6,545.8c-.8-.3-2,.1-2.3-1.2,1,.1,2,0,2.3,1.2Z"/>
    <path class="st1" d="M584.6,482.2c-.2-1.1,0-1.1,0-1.2v1.2Z"/>
    <path class="st1" d="M592.7,537.7c-2.2-.9-3.2-2.8-4.6-4.6,2.4.8,3.2,3.2,4.6,4.6Z"/>
    <path class="st1" d="M620.4,431.4c0-.1-.8-.3-1.2-1.2l1.2,1.2Z"/>
    <path class="st1" d="M595,540l-1.2-1.2c.4.4.8.9,1.2,1.2Z"/>
    <path class="st1" d="M597.3,541.2l-1.2-1.2c.6.4,1,1.1,1.2,1.2Z"/>
    <path class="st1" d="M601.9,547c-.8-.2-1.1-1.1-1.2-1.2l1.2,1.2Z"/>
    <path class="st0" d="M386.9,585.1c.2.3,0,3.2.5,4.6,1.5,3.8,3.8,7.5,4.1,11.5-3.9-4-8.8-9.3-9.2-15-1.9-.4-2.4.5-3.3,1.9-4.3,6.6,2.3,18.7,3.3,25.9-2-1.3-3.5-5.6-4.3-7.8-1.6-4.2-2.7-8.6-3.8-13-.9-.7-8.1,2.6-8.1,4.1v19.1c-1.7.3-1.6-2-2-3.2-1.2-3.8-1.6-7.9-2.7-11.8-5.4.7-7.2,6.1-10.4,9.2s-1.8.6-3.5,2.3c-2.7,2.6-5,4.4-6.9,8.1.3-4.2-2-17.4,4-18.5s8.2.8,9.7-.1,1-7.5,1.6-9.4c1.8-6.2,11.9-1.5,12.5-2s.3-3.3,1.4-4.4,10.4-4.7,10.9-4.7,5.9,3,6.1,3.3ZM349.9,609.4c.3-2.2,0-4-2.3-4.6v4.6s2.3,0,2.3,0Z"/>
    <path class="st0" d="M302.6,697.3c7-3.8,5.5,5.5,10.4,5.8,0,.4,0,.8,0,1.2-6.5,4-1.9,8.7-2.3,15,2.3-.2.8-4.8,1.1-6.5s0-2.8,2.4-3.9c.1.6,1.8,2.1,2,4.2,1,14.2-3.3,15.4,6.1,29.4l-1.2,1.2c-12.3-12.1-16.2-29.7-18.5-46.2ZM312.4,721.6v1.2c.8-.4.8-.8,0-1.2Z"/>
    <path class="st0" d="M315.3,677.6c-6.1,0-2.2-14.4,1-12.6s0,3.5,3.6,2.2c.6,13.3,3.4,25,9.2,37-8.3-6.7-9.9-18.1-12.7-27.8-.6,0-1,1.2-1.1,1.2Z"/>
    <path class="st0" d="M302.6,685.7c8.9-4.4,7.8,4.1,8.2,4.5s1.7.9,3.3,2.4h-11.6c0-.4-1-1.5-1.2-3.5l2.3-.6-2.3-.6c.2-1.2-.3-1.6,1.2-2.3Z"/>
    <path class="st8" d="M313,692.7c.2,3.4-.3,7.1,0,10.4-4.9-.2-3.4-9.6-10.4-5.8-.2-1.5.2-3.1,0-4.6h10.4ZM311.8,698.4v-3.5h-1.1v3.5h1.1Z"/>
    <path class="st0" d="M331.5,633.7c-.6,8.1.5,16.2,1.1,24.3-2-.7-2.9-6-3.2-7.8-.5-4.2-1.1-9-1.5-13s-.2-5.1,2.3-5.8l1.2,2.3Z"/>
    <path class="st8" d="M351.1,610.6c.2,4.6-.2,9.3,0,13.9l-2.3,1.2c-.7-3.7-1-8.8-1.2-12.7,1.7-1.7,3.2-2.1,3.5-2.3Z"/>
    <path class="st1" d="M355.7,728.5c1.3,4.4-6.5.4-8.4-.3-3.6-1.4-8.9-3.6-11.3-6.7l19.7,6.9Z"/>
    <path class="st0" d="M324.5,656.8c.1,1.5-.2,3.2,0,4.6l-1.1.6,1.1.6c.1.9,6,16.2,2.9,16.2-2.1-4.3-3-8.8-4-13.4s1.1-3.2-3.5-2.8c0-2.3,0-4.6,0-6.9l4.6,1.2Z"/>
    <path class="st8" d="M314.1,708.8c-2.3,1.1-2.1,1.7-2.4,3.9s1.3,6.3-1.1,6.5c.4-6.3-4.2-11,2.3-15,.1.9.9,2.7,1.2,4.6Z"/>
    <path class="st0" d="M316.4,693.8c3.7,4.8,6.1,12.6,8.1,18.5l-7.2-11.9c-1.4-2.1-.6-4.6-.9-6.6Z"/>
    <path class="st0" d="M391.6,556.2c3.1-.5,7-3.5,10.4-3.5-1.5,4.3-6.8,4.5-9.2,5.8l-1.2-2.3Z"/>
    <path class="st0" d="M351.1,624.4c.1,3.1,1.6,6.1,1.1,9.2-2.6-1.2-3-5.6-3.5-8.1l2.3-1.2Z"/>
    <path class="st0" d="M339.5,642.9c0,1.5.5,6.9-.6,6.9-1.4-1.8-1.3-4.8-1.7-6.9h2.3Z"/>
    <path class="st0" d="M337.2,640.6c0-.1-.9-.3-1.2-2.3l1.2,2.3Z"/>
    <path class="st8" d="M324.5,662.6l-1.1-.6,1.1-.6c0,.4,0,.8,0,1.2Z"/>
    <path class="st5" d="M183.5,667.2c.9-1,3.7-7.4,6.2-6.9,8.3,6.1,12.1,16,19.2,22.5l-151.4,191.9c-1.2,1.2-1.4,1-2.4-.2-2.3-2.7-4-5.4-6.8-8s-3.1-1.3-3.5-1.7c-1.4-1.2-4.7-6.3-5.8-6.9l146.2-181.5c2.1-3.5-2.1-5.7-1.7-9.2Z"/>
    <path class="st6" d="M39,858c-.9-.5-9.3-1.2-8.1-4s11.7-12.5,13.8-15.1c45.3-54.9,88.6-111.5,132.9-167,1.1-1.3,4.5-3.2,5.8-4.6-.4,3.6,3.9,5.8,1.7,9.2l-146.2,181.5Z"/>
    <path class="st6" d="M40.2,868.4l-8.1,10.4c-4.8-3.2-12-4.9-17.3-6.9s-3.7-.2-3.3-2.7,4.1-5.8,5.1-6.5c7.9-6.2,17.3,1.3,23.7,5.8Z"/>
    <path class="st5" d="M42.5,869.5c9.4,7.7,14.8,13.3,8.1,25.4-1.7.5-1.9-.5-2.9-1.1-4.7-3.2-10.7-11.8-15.6-15l8.1-10.4c.7.5,1.7.7,2.3,1.2Z"/>
    <path class="st0" d="M178.9,630.2l1.7-4.6,1.8,4.6,3.4-2.3c-.5,8.4,3.3,5.2,6.1,6.2,2.5.9,4.7,3,7.7,3.1-.5,2.7-.8,5.3-1.1,8s1.2,5.1-1.7,4.6-8.5-3.1-9.2-3.6c-2.8-2.1-.2-6-6.4-4.5,2.4-5.7.3-7.2-2.3-11.6Z"/>
    <path class="st0" d="M207.8,652.2c7.5-3.4,13.5-10.3,19.1-16.2-1.4,8.7-11.7,13.4-12.1,21.9,1.1,1.2,17.1-8.9,17.3-12.7,1.4-.4,1.5.9,1.1,1.7-2.6,5.2-11.1,11-13.9,16.8-.4,0-.9,1.2-2.7,1.1-12.3-.4-4.2-6.8-8.9-12.7Z"/>
    <path class="st0" d="M278.3,690.3c2.4-4.9,1.1-5.5,6.9-6.4,2.2-.3,4.1-1.9,3.5,1.8-7.9,7.5-11.5,18-17.9,26.6-1.1-7.1,4.1-12.8,6.9-18.6s.4-2.8.6-3.4Z"/>
    <path class="st0" d="M297.9,685.7c-2.2,3.9-6.2,17.9-6.8,22.7-.9,6.7-.4,13.4-.1,20.1-1.1,0-2.3-6-2.3-6.4v-19.7c0-4.2,4.3-15.3,6.9-19.1.5.9,1.6,1.6,2.3,2.3Z"/>
    <path class="st0" d="M265.6,701.9c-8.3,11.4-13.2,23.9-13.9,38.1l-1.1-9.8c.6-6.4,2.3-11.6,4.5-17.5s2.6-3.9.2-5c2.4-2.7,6.7-8.6,10.4-5.8Z"/>
    <path class="st0" d="M226.3,668.4c10.5-2.9,16.8-13.7,24.3-20.8l-5.3,10.3-14.3,15.1c-.2,0-1.3,1.9-2.2,1.1s-2.1-5.6-2.4-5.7c-1.6-.9-4.6,2.3-3.5-4.6l17.3-13.9c-.1.7,0,1.6,0,2.3-1,1.3-1.6,3-2.7,4.2s-13.7,9.4-11.2,12Z"/>
    <path class="st0" d="M322.2,646.4l-6.4-1.1c-1-1.4-1-6.6.6-7.7,7.6-1.9,6.6,3.2,5.9,8.8Z"/>
    <path class="st0" d="M189.3,653.4c.5,2.1-.6,2.3-2,3.2-12.6,8-9.1-8.2,2-3.2Z"/>
    <path class="st0" d="M206.6,651c-.5-.6-5.4-2.4-5.8-5.8.8-.9,1.1-4.4,4.6-4.6l1.2,10.4Z"/>
    <path class="st0" d="M252.9,710c-1,1.3-3.9,5.6-4.6,6.9l-3.5-1.2v-1.2c.2-.1,1.2.2,2-.3,1.4-1,1.8-5.5,6.1-4.3Z"/>
    <rect class="st0" x="279.4" y="660.3" width="2.3" height="3.5"/>
    <rect class="st0" x="308.3" y="679.9" width="3.5" height="2.3"/>
    <rect class="st0" x="237.8" y="711.2" width="2.3" height="3.5"/>
    <path class="st0" d="M299.1,677.6c1.3,1.3-1,3.6-2.3,2.3s1-3.6,2.3-2.3Z"/>
    <path class="st0" d="M221.6,727.3c-1.2,1.2-3.6-1-2.3-2.3s3.5,1.1,2.3,2.3Z"/>
    <path class="st0" d="M309.5,572.4c1.3,1.3-1,3.6-2.3,2.3s1-3.6,2.3-2.3Z"/>
    <path class="st0" d="M224.5,755.1c.8.4.8.8,0,1.2v-1.2Z"/>
    <path class="st0" d="M385.8,564.3c9.6.9,18.4-3.6,27.7-4.6-.6,3.6-22.5,9.9-20.8,11.5,1.5-.5,3.4,1.2,4,1.2h24.9c-3.5,3.8-10.3,4.2-15.3,6.1-1.5.6-5.2,1.4-5.5,3.2,9.1,2.3,16.7,3.1,26,3.5s4.3-.9,4,1.1c-11.8,2.4-23.8.9-35.3-2.3l6.4,7.5c-5.2.8-6.7-5.3-12.7-6.4-2.5-3.6,2.2-.3,3.2-4.3,2.3-8.7-1.4-5-5.9-6.4s-2.5-7-.8-10.2Z"/>
    <path class="st1" d="M744.7,637.2c.8.4.8.8,0,1.2v-1.2Z"/>
    <path class="st0" d="M334.9,760.9c-.8,0-1.6,0-2.3,0l.6-1.2,1.7,1.2Z"/>
    <path class="st8" d="M301.4,688l2.3.6-2.3.6c0-.4,0-.8,0-1.2Z"/>
    <path class="st6" d="M490.2,286.1c-2.3,2.6-2.9,5.9-6.8,7.7-.2-3.1,3.6-4.6,5-6.5,5-6.6,9.4-13.7,14.6-20.2s2.9-1.6,3.7-2.6c1.5-1.8,1.8-6.7,5-7.7.3,2.2,0,3.4-1.1,5.3-3.9,6.8-14.8,17.8-20.4,24.1Z"/>
    <polygon class="st6" points="480.5 299.6 478.2 299.6 478.2 297.3 481.1 296.1 480.5 299.6"/>
    <path class="st1" d="M240.1,649.9c.5-3,2.3-5.6,4.3-7.8s.8-3.4,2.7-.9c-.9,4.5-4.3,7.6-7,11,0-.7-.1-1.6,0-2.3Z"/>
    <path class="st0" d="M746.4,602.5c-.5-.5,1.1-1.8,1.2-.6s-.9.8-1.2.6Z"/>
    <rect class="st0" x="273.7" y="544.7" width="1.1" height="2.3"/>
    <path class="st6" d="M259.8,461.4c-3.8.5-7.1,2.4-10.3-.6l-83.3-72.2c2.2-.4,3.4.1,5.2,1.1,7.9,4.1,25.6,19.7,33.9,26.2,16,12.4,38.6,28.4,52.7,42.1,1.1,1.1,2.2,1.5,1.8,3.4Z"/>
    <path class="st6" d="M131.4,454.6l85.5,39.3-1.2,5.6c-3.5.6-6.5-1.2-9.5-2.4-25.1-10.1-49.8-28.4-75-39.1l-2-3.5h2.3Z"/>
    <path class="st6" d="M279.9,332.6c9.5,7.1,35.9,56.4,40.3,69,.6,1.8,1.2,3.5.9,5.5-7.3-7.3-13.4-17.9-18.7-27-9.1-15.4-16.6-31.9-25.2-47.6,3.1-3.5,1.7-.6,2.7.1Z"/>
    <path class="st6" d="M350,231.4l3.4,2.9c2.4,25.3,15.6,54,17.3,78.7,0,1.5,0,5-1.6,5-4.8,0-19.5-77.9-19.1-86.7Z"/>
    <path class="st6" d="M277.1,390.9l-56.6-72.8c2.9-.5,4,1.1,5.8,2.8,7.7,7.5,17.9,20.8,24.7,29.6s20.3,26,26.1,40.3Z"/>
    <path class="st6" d="M434.3,294.9c-3.3,3-4.6-10.6-4.7-12.1-.5-7.5-.9-15.7-1.2-23.1-.6-17.2-.3-35.6,1.2-52.6l2.3,16.8c.6,18.1,1.7,36.2,2.3,54.3.2,5.5,2.5,10.7,0,16.8Z"/>
    <path class="st6" d="M124.3,485.9c.2.1.2,1.8,1.8,2.3,21.2,6.3,39.8,12.5,59.4,21.7,1.8.8,9,.2,8.3,4.7-25-7.8-50.2-15.6-74-26.6-.2-1.7,3.5-2.5,4.4-2.1Z"/>
    <path class="st6" d="M316.1,245.5c5.3,19,14,37.6,15.3,57.5-2.9.8-3.2-2.7-4-4.6-2.5-6-16.2-52.1-14.5-54.3l3.2,1.4Z"/>
    <path class="st6" d="M158.1,564.3c1.6,1.7,0,2.1-1.7,2.3-5,.6-11-.4-16.2,0l-37.6-8.1c6.3-.8,53.5,3.8,55.5,5.8Z"/>
    <path class="st6" d="M138.4,624.4l-2.9,3.5-39.9,1.2c.7-2,5.8-3.1,7.6-3.4,7.6-1.2,21.2-2.3,28.8-2.4,2.2,0,4.2,1.3,6.4,1.2Z"/>
    <path class="st6" d="M227.4,366.6c-2.2.5-2.7-1.2-4-2.3-4.8-4-9.1-9.7-13.9-13.9l-14.4-18.5c2.2-.5,2.7,1.2,4,2.3,5.3,4.4,12.6,12.1,17.4,17.3,1.6,1.8,12.3,13.6,11,15Z"/>
    <path class="st6" d="M97.4,602.5c-.4-.1-2.1-2-1.7-2.3,3.8,1.6,5.8-.7,8.7-1.1,7.7-1.1,17.7-1.9,25.4-1.3,7.6.6,6,4.7,1.1,4.7-7.5,0-27.8,1.5-33.5,0Z"/>
    <path class="st6" d="M148.8,656.8c.3.3.4,2.7-.7,3.5-2.9,2.4-25.5,6.6-30.1,6.8-2.1.1-3.6.3-5-1.7,4.2-1.6,34.6-10,35.8-8.7Z"/>
    <path class="st6" d="M252.6,292.9c1.6,1,17.9,29.4,16.4,31-2.1.4-2.9-1-4-2.4-3.4-4.2-8.9-14.4-11.7-19.6s-7.3-13.3-.8-9Z"/>
    <path class="st6" d="M195.6,514.6c.8.4.8.8,0,1.2v-1.2Z"/>
    <path class="st6" d="M705.4,352.7c.8.4.8.8,0,1.2v-1.2Z"/>
    <path class="st8" d="M349.9,609.4h-2.3s0-4.6,0-4.6c2.3.6,2.6,2.5,2.3,4.6Z"/>
    <path class="st8" d="M312.4,721.6c.8.4.8.8,0,1.2v-1.2Z"/>
    <rect class="st0" x="310.7" y="695" width="1.1" height="3.5"/>
    <path d="M88.4,762.6l23.6-31.1-16.3-102.5-4.2-98.3s33.9-109.2,37.7-120.8c3.8-11.6,79.7-121.7,79.7-121.7l131.6-75-72.8,26.7-68.1,43.1-70.5,70.2-44.7,71.5-19.7,66.7-10.5,49.7,3.7,109.8,30.4,111.6Z"/>
    <polygon points="560.2 959.8 611.9 940.8 669 909.5 697.2 882.1 747.1 830.4 786.1 770.1 808.3 681.5 808.3 644.7 801.5 661.2 776.5 703.7 760.9 741.6 744.8 764.4 710.5 806.4 707.4 818.5 672.2 876.1 560.2 959.8"/>
    <polygon points="754.3 354.7 707.8 307.6 678 284.4 637.7 256.4 616.9 266.2 636.6 282.1 672.5 307.6 710.4 342.1 730.6 362.7 748.4 387.7 768.9 390.9 779.9 393.8 754.3 354.7"/>
    <polygon points="150.6 799.5 120.7 826.8 135.6 847.6 180.4 892.7 238.4 934.1 301.4 964.9 340.7 975.3 310.7 947.8 263.3 939.6 226.1 906.8 166.2 836.1 150.6 799.5"/>
  </g>
</svg>