<?xml version="1.0" encoding="UTF-8"?>
<svg id="Layer_2" data-name="Layer 2" xmlns="http://www.w3.org/2000/svg" viewBox="0 0 1995.72 721.63">
  <defs>
    <style>
      .cls-1 {
        fill: #fff;
        fill-rule: evenodd;
      }

      .cls-2 {
        fill: #231f20;
      }
    </style>
  </defs>
  <g id="Layer_1-2" data-name="Layer 1">
    <g>
      <g>
        <path class="cls-2" d="M248.48,95.87c-17.59-11.87-40.02-17.15-63.77-17.15-55.85,0-98.95,42.66-98.95,94.11s43.1,95.87,98.95,95.87c23.75,0,46.18-5.28,63.77-17.15v81.8c-20.67,10.12-43.98,14.07-69.05,14.07C74.76,347.43,0,269.59,0,173.28S74.76,0,179.43,0c25.07,0,48.38,4.84,69.05,14.51v81.36Z"/>
        <path class="cls-2" d="M373.82,9.68v250.68h109.07v77.4h-194.39V9.68h85.32Z"/>
        <path class="cls-2" d="M722.12,292.46h-124.02l-16.27,45.3h-88.84L619.21,9.68h84l126.22,328.08h-91.48l-15.83-45.3ZM698.82,226.05l-38.26-108.63-38.7,108.63h76.96Z"/>
        <path class="cls-2" d="M852.73,9.68h85.32v328.08h-85.32V9.68Z"/>
        <path class="cls-2" d="M1066.9,337.76h-84.44V9.68h87.52l96.31,131.06,91.04-131.06h86.64v328.08h-84.44v-168l.44-22.43-91.48,126.22h-6.6l-95.43-127.54.44,23.31v168.44Z"/>
      </g>
      <g>
        <path class="cls-2" d="M101.59,606.41h-4.84v104.67H11.44v-328.08h98.07c63.33,0,132.38,21.11,132.38,114.34,0,41.78-23.75,71.25-54.97,88.84l86.64,124.9h-102.03l-69.93-104.67ZM96.75,458.64v81.36h15.83c28.59,0,45.3-13.63,45.3-41.34s-20.23-40.02-45.74-40.02h-15.39Z"/>
        <path class="cls-2" d="M301.25,383h194.83v75.2h-109.51v52.78h97.63v68.17h-97.63v56.73h113.03v75.21h-198.35v-328.08Z"/>
        <path class="cls-2" d="M773.14,469.19c-17.59-11.87-40.02-17.15-63.77-17.15-55.85,0-98.95,42.66-98.95,94.11s43.1,95.88,98.95,95.88c23.75,0,46.18-5.28,63.77-17.15v81.8c-20.67,10.12-43.98,14.07-69.05,14.07-104.67,0-179.43-77.84-179.43-174.16s74.76-173.28,179.43-173.28c25.07,0,48.38,4.84,69.05,14.51v81.36Z"/>
        <path class="cls-2" d="M1289.44,606.41h-4.84v104.67h-85.32v-328.08h98.07c63.33,0,132.38,21.11,132.38,114.34,0,41.78-23.75,71.25-54.97,88.84l86.64,124.9h-102.03l-69.93-104.67ZM1284.6,458.64v81.36h15.83c28.59,0,45.3-13.63,45.3-41.34s-20.23-40.02-45.74-40.02h-15.39Z"/>
        <path class="cls-2" d="M1489.09,383h102.47c91.48,0,175.92,46.62,175.92,163.6s-82.24,164.48-175.04,164.48h-103.35v-328.08ZM1574.41,633.67h22.43c45.74,0,85.32-28.15,85.32-87.08s-39.58-85.76-85.32-86.2h-22.43v173.28Z"/>
        <path class="cls-2" d="M1979.89,457.76c-15.83-7.48-40.02-12.75-60.25-12.75-23.75,0-36.06,6.16-36.06,18.91,0,14.95,16.27,24.63,43.98,51.46,51.89,48.38,68.17,76.08,68.17,110.39,0,56.73-53.21,90.6-120.5,90.6-25.95,0-61.57-4.84-78.72-10.99l.44-72.57c17.59,6.6,48.38,14.95,77.4,14.95,21.11,0,34.74-9.24,34.74-21.11,0-14.95-14.95-29.03-44.42-56.29-52.78-47.06-70.81-67.73-70.81-106.87,0-44.86,37.38-87.08,120.94-87.08,21.55,0,46.62,2.2,65.53,8.8l-.44,72.57Z"/>
        <g>
          <path class="cls-2" d="M1170.45,546.6c0,96.75-80.04,175.04-182.07,175.04s-182.51-78.28-182.51-175.04,79.6-174.16,182.51-174.16,182.07,77.84,182.07,174.16ZM940.79,547.04c0,26.33,20.29,47.26,47.48,47.26s47.26-20.93,47.26-47.26-20.5-47.26-47.26-47.26-47.48,20.72-47.48,47.26Z"/>
          <path class="cls-1" d="M1125.34,470.78c13.36,16.91,23.5,35.78,32.32,56.21,0,0,.11-98.2-130.25-144.1,0,0,26.57,16.3,57.09,44.29-15.9-11.88-35.94-22.92-61.23-31.82,0,0,31.75,19.48,64.52,52.19-16.04-14.5-37.93-28.28-67.83-38.81,0,0,24.87,15.26,52.33,41.24-13.25-10.23-30.18-19.76-51.81-27.38,0,0,27.31,16.75,54.77,44.74-13.59-12.93-32.57-25.33-59.08-34.67,0,0,26.25,16.1,52.31,42.93-11.84-11.49-28.53-22.55-52.05-30.83,0,0,19.56,11.99,40.42,32.28-9.75-8.19-22.64-15.88-39.7-21.89,0,0,17.02,10.44,35.11,28.07-8.01-6.72-18.6-13.03-32.6-17.96,0,0,12.2,7.49,25.94,20.29-5.98-4.42-13.49-8.53-22.93-11.85,0,0,11.92,7.31,24.27,19.6-5.88-4.98-13.84-9.69-24.63-13.28,0,0,8.29,4.85,17.81,13.22-3.03-1.86-6.64-3.57-10.94-5.02,0,0,17.45,11.44,24.9,28.29,0,0,1.94-4.35-.96-9.89,4.06,4.98,5.73,10.53,8.41,16.53,0,0,1.87-9.01-5.11-19.36,4.9,6.1,7.37,12.95,10.58,20.39,0,0,1.81-9.85-5.37-21.48,6.06,7.55,9.57,16.02,13.54,25.22,0,0,1.71-14.63-9.88-30.76,8.48,10.03,14.33,21.54,19.78,34.17,0,0,1.65-17.71-12.36-37.27,9.62,11.47,16.5,24.58,22.7,38.94,0,0,1.52-24.43-19.48-49.42,13.01,14.55,23.34,31.71,31.57,50.78,0,0,1.47-27.26-21.62-55.58,13.25,15.1,23.68,32.73,32.11,52.23,0,0,1.58-21.27-13.94-46.31,10.77,13.85,18.51,29.22,25.67,45.81,0,0,1.4-30.79-23.96-63.64,15.43,17.97,27.8,38.72,37.67,61.58,0,0,1.48-26.59-18.1-57.7Z"/>
        </g>
      </g>
    </g>
  </g>
</svg>