<?xml version="1.0" encoding="UTF-8"?>
<svg id="Layer_2" data-name="Layer 2" xmlns="http://www.w3.org/2000/svg" viewBox="0 0 910.94 1043.91">
  <defs>
    <style>
      .cls-1 {
        fill: #231f20;
      }

      .cls-2 {
        fill: #2b364e;
      }

      .cls-3 {
        fill: #fff;
      }

      .cls-4 {
        fill: #ec4824;
      }

      .cls-5 {
        fill: none;
        stroke: #231f20;
        stroke-miterlimit: 10;
        stroke-width: 3px;
      }
    </style>
  </defs>
  <g id="Layer_1-2" data-name="Layer 1">
    <g>
      <g>
        <circle class="cls-3" cx="420.37" cy="623.53" r="410.37"/>
        <path class="cls-1" d="M420.37,1043.91c-56.75,0-111.8-11.12-163.63-33.04-50.06-21.17-95.01-51.48-133.62-90.08-38.6-38.6-68.91-83.56-90.09-133.62C11.12,735.33,0,680.28,0,623.53s11.12-111.8,33.04-163.63c21.17-50.06,51.48-95.01,90.08-133.62,38.6-38.6,83.56-68.91,133.62-90.08,51.83-21.92,106.89-33.04,163.63-33.04s111.8,11.12,163.63,33.04c50.06,21.17,95.01,51.48,133.62,90.08,38.6,38.6,68.91,83.56,90.08,133.62,21.92,51.83,33.04,106.89,33.04,163.63s-11.12,111.8-33.04,163.63c-21.17,50.06-51.48,95.01-90.09,133.62-38.6,38.6-83.56,68.91-133.62,90.08-51.83,21.92-106.89,33.04-163.63,33.04ZM420.37,223.16c-54.05,0-106.49,10.58-155.84,31.46-47.68,20.17-90.49,49.03-127.27,85.81-36.77,36.77-65.64,79.59-85.81,127.27-20.87,49.35-31.46,101.79-31.46,155.84s10.58,106.49,31.46,155.84c20.17,47.67,49.03,90.49,85.81,127.27,36.77,36.77,79.59,65.64,127.27,85.81,49.35,20.88,101.79,31.46,155.84,31.46s106.49-10.58,155.84-31.46c47.67-20.17,90.49-49.03,127.27-85.81,36.77-36.77,65.64-79.59,85.81-127.27,20.87-49.35,31.46-101.79,31.46-155.84s-10.58-106.49-31.46-155.84c-20.17-47.67-49.03-90.49-85.81-127.27-36.77-36.77-79.59-65.64-127.27-85.81-49.35-20.88-101.79-31.46-155.84-31.46Z"/>
      </g>
      <polygon class="cls-3" points="72.85 438.08 72.85 413.44 61.24 394.69 98.76 358.38 114.9 370.75 72.85 438.08"/>
      <g>
        <g>
          <path class="cls-2" d="M363.97,19.54c.03-.73.07-1.48.06-2.19,0-.66.02-1.3-.09-1.94-.2-1.16-.16-2.31-.46-3.47-.11-.44.16-1.04.13-1.54-.06-.99-.23-1.97-.27-2.96-.04-1.02-.04-2.04-.12-3.05-.05-.62-.14-1.24-.19-1.86-.05-.62.16-1.25.01-1.87-.04-.18.22-.47.4-.67.14.81.36,1.67.4,2.48.04.82.13,1.62.23,2.42.21,1.75.47,3.48.63,5.24.15,1.61.56,3.2.91,4.79.21.95.32,1.95.12,2.94.4.69.46,1.45.53,2.19.07.72.17,1.44.27,2.16.09.67.31,1.33.35,2.02.02.32-.12.64-.13.95-.06.99.33,1.98.41,2.96.08.97.37,1.92.51,2.9.09.67.12,1.38.17,2.06.04.66-.18,1.31-.21,1.98-.02.51.39,1.02.47,1.53.09.61.05,1.24.12,1.86.03.29.12.58.15.89-.29.09-.12-.23-.12-.33-.04-1.32-.73-2.54-.98-3.81-.11-.57-.28-1.14-.37-1.72-.18-1.15-.43-2.29-.69-3.43-.17-.72-.14-1.46-.1-2.24.02-.37-.1-.85-.24-1.2-.31-.77-.32-1.56-.54-2.35-.08-.29-.02-.66-.11-.97-.2-.72-.37-1.38-.35-2.17.01-.56-.61-1.11-.9-1.6Z"/>
          <path class="cls-2" d="M417.81,349.93c-.99-9.19-1.97-18.68-3.1-27.69-1.04-8.34-1.92-16.55-3.34-24.74-2.61-15.04-4.23-29.64-7.3-44.79-1.16-5.72-.9-12.92-1.81-19.43-1.75-12.62-3.99-25.4-5.69-37.99-1.76-13.06-3.3-25.94-5.21-39-1.17-7.98-2.51-15.99-3.67-23.97-1.16-7.98-1.23-15.61-2.82-23.73-.47-2.38.21-5.64.69-7.85,1.85,10.51,4.09,21.75,5.53,32.18,1.45,10.54,3.04,20.73,4.69,31.16,3.58,22.53,7.34,44.98,10.74,67.57,3.11,20.67,7.28,41.48,11.23,62.23,2.35,12.37,4.35,25.23,5,37.51,2.79,9.38,4.17,19.1,5.61,28.64,1.4,9.29,2.96,18.57,4.48,27.83,1.42,8.68,3.37,17.38,4.6,26.18.58,4.14.49,7.92.89,11.92,1.28,12.55,4.47,25.65,6.31,38.23,1.83,12.51,4.55,25,6.61,37.58,1.43,8.7,2.65,17.69,3.88,26.49,1.19,8.47,1.25,16.41,2.16,24.87.69,6.39,3.23,13.58,4.35,20.22,1.34,7.91,2.11,15.85,3.37,23.77.6,3.77,1.41,7.5,1.99,11.57-1.09.67-.85-3.11-1.03-4.43-2.21-16.81-7.01-33.4-10.03-49.96-1.36-7.46-2.93-14.92-4.21-22.4-2.55-14.94-5.33-29.72-8.2-44.6-1.82-9.47-2.83-18.82-3.85-28.56-.5-4.74-1.72-10.93-2.88-15.65-2.52-10.3-3.76-20.28-5.93-30.68-.8-3.86-1.13-8.48-1.97-12.56-1.98-9.51-3.69-18.16-4.82-28.12-.81-7.16-4.31-15.06-6.29-21.77Z"/>
          <path class="cls-2" d="M481.58,686.55c.03-.71.07-1.45.07-2.14,0-.64.02-1.28-.08-1.9-.19-1.14-.15-2.27-.45-3.4-.11-.43.16-1.02.14-1.52-.05-.97-.22-1.93-.26-2.9-.04-1-.03-2-.11-2.99-.05-.61-.14-1.22-.18-1.83-.05-.61.16-1.22.02-1.83-.04-.18.22-.46.4-.66.14.79.35,1.63.39,2.43.04.81.12,1.58.22,2.38.2,1.71.45,3.41.61,5.14.14,1.58.54,3.13.89,4.69.21.93.31,1.91.11,2.88.4.67.45,1.42.52,2.15.07.71.17,1.41.27,2.11.09.66.31,1.3.34,1.98.02.32-.12.63-.14.94-.06.98.33,1.94.4,2.9.08.96.37,1.88.5,2.84.09.66.12,1.35.16,2.02.04.65-.18,1.29-.21,1.94-.02.5.38,1,.46,1.5.09.6.04,1.22.12,1.82.03.29.12.56.14.87-.29.09-.12-.23-.12-.33-.04-1.29-.72-2.49-.96-3.74-.11-.56-.27-1.12-.36-1.68-.18-1.13-.42-2.24-.68-3.36-.16-.71-.13-1.44-.09-2.19.02-.37-.1-.83-.24-1.18-.31-.76-.32-1.53-.54-2.3-.08-.29-.02-.65-.11-.96-.2-.71-.36-1.36-.34-2.13.02-.55-.61-1.09-.89-1.57Z"/>
          <path class="cls-2" d="M322.54,82.11c.08-.68.19-1.38.2-2.02,0-.59.09-1.2-.09-1.71-.33-.95-.21-2.02-.74-2.91-.2-.34.35-1.03.31-1.47-.07-.87-.35-1.67-.4-2.54-.04-.91,0-1.83-.12-2.71-.07-.54-.22-1.05-.29-1.59-.07-.54.35-1.22.09-1.7-.08-.14.43-.54.79-.82.24.66.62,1.32.67,2.04.05.73.18,1.4.34,2.08.33,1.48.75,2.92,1,4.43.22,1.38.93,2.61,1.54,3.87.36.75.53,1.6.11,2.61.74.41.81,1.07.92,1.71.1.62.28,1.22.44,1.81.15.56.54,1.04.59,1.65.02.28-.24.64-.29.94-.15.94.56,1.62.67,2.47.11.84.64,1.55.85,2.36.15.56.18,1.18.24,1.79.05.58-.39,1.29-.47,1.91-.06.47.7.72.83,1.15.15.51.04,1.1.16,1.62.06.25.21.46.24.73-.55.23-.21-.15-.22-.24-.03-1.17-1.29-1.92-1.71-2.94-.19-.46-.48-.89-.63-1.37-.3-.95-.72-1.85-1.18-2.75-.29-.57-.2-1.26-.1-1.98.05-.35-.15-.72-.41-.96-.56-.54-.55-1.24-.94-1.84-.15-.22-.02-.59-.17-.83-.36-.55-.64-1.06-.58-1.79.05-.52-1.12-.68-1.64-.98Z"/>
          <path class="cls-2" d="M414.85,352.67c-1.82-7.72-3.64-15.7-5.64-23.21-1.85-6.95-3.47-13.85-5.87-20.53-4.41-12.27-7.35-24.52-12.42-36.72-1.91-4.6-1.85-11.03-3.44-16.43-3.07-10.45-6.83-20.88-9.81-31.32-3.09-10.84-5.86-21.6-9.17-32.38-2.02-6.59-4.3-13.14-6.31-19.74-2.01-6.59-2.44-13.28-5.08-19.84-.77-1.92.06-5.04.66-7.16,3.12,8.57,6.82,17.63,9.34,26.27,2.54,8.73,5.26,17.12,8.09,25.68,6.11,18.5,12.49,36.87,18.35,55.48,5.36,17.03,12.25,33.81,18.82,50.61,3.91,10.01,7.34,20.59,8.81,31.15,4.41,7.23,6.82,15.27,9.3,23.13,2.42,7.65,5.05,15.25,7.64,22.83,2.42,7.11,5.59,14.05,7.74,21.34,1.01,3.42,1.04,6.79,1.8,10.15,2.38,10.57,7.53,20.92,10.72,31.3,3.17,10.33,7.61,20.32,11.12,30.62,2.43,7.12,4.57,14.59,6.72,21.87,2.08,7.02,2.5,13.97,4.17,21.08,1.26,5.37,5.23,10.76,7.13,16.18,2.26,6.47,3.72,13.16,5.87,19.67,1.02,3.09,2.35,6.08,3.36,9.44-1.54.99-1.36-2.42-1.67-3.52-3.9-13.98-11.52-26.81-16.58-40.26-2.28-6.06-4.85-12.05-7.02-18.16-4.32-12.2-8.95-24.18-13.71-36.22-3.03-7.66-4.88-15.52-6.77-23.7-.92-3.98-2.94-8.98-4.81-12.71-4.06-8.13-6.28-16.46-9.84-24.8-1.32-3.1-1.98-7.04-3.38-10.32-3.25-7.64-6.09-14.62-8.14-22.96-1.47-6-6.85-11.67-9.98-16.84Z"/>
          <path class="cls-2" d="M520.35,625.56c.09-.66.2-1.36.21-1.99.01-.58.1-1.18-.08-1.68-.32-.93-.2-1.98-.72-2.85-.2-.33.35-1.01.32-1.45-.06-.85-.34-1.64-.38-2.5-.04-.89.01-1.8-.1-2.66-.07-.53-.21-1.03-.28-1.56-.06-.53.36-1.2.1-1.68-.07-.14.44-.54.79-.81.23.65.61,1.3.65,2,.05.71.18,1.37.32,2.04.32,1.45.73,2.86.97,4.34.21,1.36.91,2.56,1.51,3.79.36.73.52,1.57.09,2.56.74.4.8,1.05.9,1.67.1.61.27,1.19.42,1.78.14.55.53,1.02.58,1.61.02.28-.25.63-.3.92-.16.92.55,1.59.66,2.42.11.83.62,1.52.83,2.31.15.55.18,1.16.23,1.75.05.57-.4,1.27-.48,1.88-.06.46.69.7.82,1.12.15.5.04,1.08.15,1.59.05.24.21.45.24.72-.55.23-.21-.14-.21-.23-.02-1.15-1.27-1.88-1.69-2.88-.19-.45-.47-.87-.62-1.34-.3-.93-.71-1.81-1.16-2.69-.28-.56-.19-1.24-.09-1.94.05-.34-.15-.7-.4-.94-.56-.52-.54-1.22-.93-1.81-.14-.22-.02-.58-.17-.81-.35-.54-.64-1.04-.56-1.75.05-.51-1.11-.67-1.63-.95Z"/>
          <path class="cls-2" d="M257.83,67.72c-.21-.68-.42-1.38-.66-2.03-.22-.6-.41-1.2-.72-1.75-.56-1-.91-2.07-1.58-3.02-.25-.36-.19-1.01-.39-1.46-.38-.89-.86-1.73-1.23-2.62-.38-.92-.71-1.85-1.12-2.76-.25-.55-.54-1.09-.79-1.65-.25-.55-.26-1.2-.61-1.72-.1-.15.05-.51.16-.75.4.69.89,1.41,1.2,2.14.31.74.65,1.44,1.01,2.15.77,1.53,1.58,3.04,2.32,4.59.67,1.42,1.57,2.74,2.43,4.08.51.8.94,1.68,1.08,2.66.61.49.9,1.17,1.22,1.83.3.64.64,1.26.97,1.89.31.58.73,1.11.99,1.73.12.29.1.62.19.92.27.93.97,1.7,1.36,2.57.4.87.98,1.64,1.43,2.48.31.59.57,1.22.84,1.84.26.59.26,1.27.46,1.89.15.47.7.8.94,1.25.29.53.45,1.12.73,1.66.13.26.3.49.43.77-.24.18-.19-.17-.22-.26-.48-1.19-1.52-2.08-2.17-3.16-.29-.49-.63-.95-.91-1.45-.55-1-1.15-1.95-1.77-2.91-.39-.61-.61-1.3-.83-2.02-.11-.35-.37-.74-.62-1.02-.55-.6-.81-1.32-1.28-1.97-.17-.24-.24-.6-.43-.86-.43-.59-.8-1.14-1.04-1.87-.17-.52-.94-.81-1.37-1.16Z"/>
          <path class="cls-2" d="M417.18,352.42c-3.96-8.09-8-16.46-12.03-24.35-3.72-7.3-7.25-14.53-11.28-21.55-7.41-12.9-13.73-25.75-21.61-38.6-2.97-4.85-5.11-11.55-8.1-17.22-5.8-10.98-12.11-21.94-17.85-32.91-5.95-11.38-11.64-22.67-17.74-34-3.73-6.92-7.62-13.81-11.34-20.74-3.72-6.93-6.3-13.91-10.47-20.81-1.22-2.03-1.66-5.25-1.94-7.45,5.2,9.01,11.01,18.56,15.79,27.63,4.84,9.17,9.68,17.98,14.67,26.98,10.78,19.45,21.7,38.76,32.34,58.32,9.73,17.9,20.49,35.56,31.03,53.25,6.28,10.54,12.39,21.66,17.05,32.7,5.7,7.65,10.2,16.09,14.7,24.35,4.38,8.04,8.89,16.03,13.37,24,4.19,7.48,8.88,14.79,12.94,22.44,1.9,3.6,3.07,7.1,4.76,10.63,5.33,11.08,12.64,22,18.51,32.91,5.84,10.85,12.5,21.38,18.58,32.21,4.21,7.49,8.31,15.33,12.37,22.98,3.91,7.37,6.58,14.64,10.22,22.09,2.75,5.63,7.5,11.35,10.74,17.05,3.86,6.8,7.2,13.82,10.99,20.66,1.8,3.25,3.79,6.4,5.68,9.93-.8.99-1.83-2.56-2.42-3.71-7.61-14.67-17.58-28.24-25.87-42.4-3.74-6.38-7.66-12.68-11.33-19.11-7.32-12.83-14.8-25.44-22.38-38.11-4.83-8.06-8.86-16.3-13.03-24.89-2.03-4.18-5.21-9.44-7.85-13.37-5.75-8.58-10.21-17.32-15.67-26.11-2.02-3.26-3.85-7.39-5.99-10.85-4.99-8.05-9.45-15.39-13.78-24.15-3.12-6.29-9.01-12.34-13.07-17.81Z"/>
          <path class="cls-2" d="M587.89,639.39c-.21-.67-.41-1.36-.64-1.99-.22-.59-.4-1.18-.7-1.72-.55-.98-.89-2.03-1.54-2.97-.25-.35-.18-.99-.37-1.44-.37-.87-.84-1.7-1.2-2.57-.37-.91-.69-1.82-1.09-2.71-.25-.54-.53-1.07-.77-1.61-.24-.54-.25-1.18-.59-1.69-.1-.15.05-.5.16-.74.39.68.87,1.38,1.17,2.1.31.73.64,1.41.99,2.11.75,1.5,1.55,2.98,2.27,4.5.66,1.4,1.54,2.69,2.38,4,.5.78.92,1.64,1.05,2.61.6.48.89,1.15,1.19,1.79.3.63.62,1.24.95,1.85.3.57.72,1.09.97,1.7.12.28.1.61.18.91.26.92.95,1.67,1.33,2.52.39.85.96,1.6,1.4,2.43.3.57.56,1.2.82,1.8.25.58.25,1.25.44,1.86.14.46.69.79.93,1.22.28.52.44,1.1.71,1.63.13.25.3.48.42.75-.24.18-.18-.17-.22-.26-.46-1.17-1.49-2.04-2.14-3.1-.29-.48-.62-.93-.89-1.42-.54-.98-1.13-1.91-1.74-2.85-.39-.6-.6-1.27-.81-1.98-.1-.34-.36-.73-.61-1-.54-.59-.8-1.29-1.26-1.93-.17-.24-.24-.59-.42-.84-.42-.58-.79-1.12-1.02-1.84-.17-.51-.93-.79-1.35-1.13Z"/>
          <path class="cls-2" d="M222.04,116.59c-.18-.7-.35-1.43-.59-2.07-.22-.59-.38-1.22-.75-1.67-.68-.84-.98-1.94-1.84-2.65-.32-.27-.07-1.13-.27-1.57-.4-.84-.99-1.55-1.36-2.4-.39-.89-.71-1.82-1.16-2.66-.28-.51-.62-.97-.89-1.49-.27-.51-.13-1.33-.57-1.72-.13-.12.2-.68.44-1.07.48.58,1.1,1.12,1.43,1.81.33.7.72,1.33,1.13,1.96.89,1.36,1.85,2.66,2.67,4.08.75,1.3,1.9,2.29,2.97,3.35.64.63,1.13,1.42,1.11,2.56.87.17,1.19.8,1.54,1.4.34.58.74,1.12,1.12,1.66.36.51.92.86,1.2,1.45.13.27.01.72.08,1.03.22.98,1.16,1.43,1.6,2.23.43.8,1.21,1.33,1.73,2.07.36.51.63,1.12.92,1.7.27.56.12,1.41.29,2.05.13.49.95.49,1.24.87.34.45.47,1.08.78,1.56.15.23.38.39.52.65-.43.41-.26-.08-.3-.17-.49-1.16-1.97-1.49-2.78-2.37-.36-.4-.8-.73-1.13-1.15-.66-.85-1.41-1.61-2.19-2.35-.5-.47-.68-1.19-.86-1.93-.09-.36-.43-.66-.77-.83-.75-.35-1.01-1.06-1.62-1.53-.23-.17-.25-.58-.49-.76-.55-.43-1.03-.85-1.24-1.59-.16-.53-1.33-.32-1.95-.44Z"/>
          <path class="cls-2" d="M415.11,355.7c-4.73-7.08-9.56-14.43-14.39-21.25-4.47-6.31-8.68-12.64-13.56-18.51-8.96-10.77-16.53-21.99-26.1-32.48-3.61-3.96-6.05-10.36-9.65-15.21-6.98-9.4-14.62-18.54-21.51-27.96-7.15-9.77-13.97-19.57-21.32-29.22-4.49-5.9-9.2-11.68-13.68-17.58-4.48-5.9-7.48-12.41-12.54-18.08-1.49-1.66-1.89-5.03-2.14-7.33,6.3,7.51,13.35,15.32,19.11,23.1,5.82,7.86,11.66,15.32,17.68,22.92,13.01,16.41,26.22,32.61,39.04,49.22,11.73,15.2,24.81,29.65,37.6,44.23,7.62,8.69,14.99,18.1,20.49,28.11,7.02,5.76,12.44,12.98,17.86,19.99,5.28,6.82,10.74,13.52,16.15,20.23,5.07,6.29,10.79,12.16,15.67,18.71,2.29,3.08,3.62,6.41,5.65,9.51,6.37,9.74,15.3,18.36,22.37,27.65,7.04,9.24,15.15,17.74,22.5,26.85,5.08,6.3,10.02,13.02,14.9,19.57,4.7,6.3,7.8,13.08,12.15,19.61,3.29,4.93,9.16,9,13.08,13.79,4.67,5.7,8.66,11.88,13.23,17.65,2.18,2.75,4.6,5.28,6.87,8.3-1.09,1.48-2.24-1.97-2.96-2.96-9.15-12.63-21.4-22.93-31.44-34.66-4.53-5.29-9.31-10.41-13.74-15.78-8.85-10.73-17.93-21.15-27.14-31.57-5.86-6.63-10.68-13.85-15.66-21.37-2.42-3.66-6.29-7.97-9.52-11.08-7.04-6.77-12.38-14.33-19.02-21.48-2.46-2.65-4.62-6.36-7.23-9.17-6.07-6.55-11.49-12.56-16.68-20.2-3.73-5.49-11.07-9.39-16.07-13.51Z"/>
          <path class="cls-2" d="M621.7,592.88c-.17-.69-.34-1.41-.57-2.04-.21-.58-.36-1.2-.73-1.65-.67-.82-.96-1.9-1.8-2.6-.32-.26-.06-1.12-.26-1.54-.39-.83-.96-1.52-1.33-2.36-.38-.87-.68-1.79-1.12-2.61-.27-.5-.6-.96-.87-1.46-.27-.51-.12-1.31-.55-1.7-.13-.11.21-.67.45-1.06.48.57,1.08,1.09,1.4,1.78.32.69.7,1.31,1.1,1.93.87,1.34,1.81,2.61,2.61,4,.73,1.28,1.86,2.25,2.91,3.28.63.61,1.1,1.39,1.08,2.52.86.16,1.17.78,1.51,1.37.33.57.72,1.1,1.09,1.63.35.5.9.84,1.18,1.42.13.27,0,.71.07,1.01.21.96,1.14,1.4,1.56,2.19.42.79,1.18,1.31,1.69,2.03.35.5.62,1.1.9,1.67.27.55.11,1.39.27,2.03.12.48.94.48,1.22.85.34.44.45,1.06.76,1.53.15.22.37.38.51.64-.43.41-.26-.07-.3-.16-.47-1.14-1.94-1.46-2.73-2.32-.36-.39-.79-.71-1.11-1.13-.65-.83-1.38-1.57-2.15-2.3-.49-.46-.66-1.16-.84-1.9-.08-.36-.42-.65-.75-.81-.74-.34-.99-1.04-1.59-1.49-.22-.17-.24-.57-.48-.75-.55-.42-1.01-.83-1.22-1.56-.15-.52-1.32-.3-1.93-.42Z"/>
          <path class="cls-2" d="M200.14,166.9c-.37-.51-.74-1.05-1.13-1.52-.36-.44-.69-.9-1.1-1.25-.77-.66-1.36-1.46-2.21-2.04-.32-.22-.44-.81-.73-1.13-.57-.63-1.23-1.19-1.79-1.83-.58-.66-1.12-1.35-1.73-1.99-.37-.39-.77-.75-1.14-1.14-.37-.39-.55-.95-1-1.27-.13-.09-.09-.46-.06-.72.54.45,1.16.89,1.63,1.42.48.53.96,1.01,1.47,1.49,1.09,1.05,2.22,2.05,3.28,3.13.98.99,2.13,1.8,3.25,2.64.67.5,1.28,1.11,1.66,1.91.67.2,1.12.68,1.57,1.14.44.44.9.86,1.36,1.28.43.39.95.7,1.35,1.13.19.21.26.51.41.73.49.71,1.31,1.12,1.9,1.73.58.61,1.31,1.06,1.93,1.63.43.39.83.85,1.23,1.29.39.42.57,1.01.91,1.48.26.36.84.44,1.17.73.4.35.7.81,1.09,1.18.18.17.4.31.59.51-.17.25-.21-.08-.27-.15-.74-.86-1.91-1.24-2.78-1.94-.39-.31-.82-.59-1.2-.92-.76-.66-1.55-1.27-2.35-1.87-.51-.38-.89-.9-1.27-1.45-.19-.27-.53-.51-.83-.66-.65-.32-1.08-.84-1.67-1.23-.22-.14-.38-.43-.61-.59-.54-.36-1.02-.7-1.43-1.24-.29-.39-1.05-.35-1.53-.5Z"/>
          <path class="cls-2" d="M419.62,352.96c-5.87-5.33-11.92-10.85-17.74-16.04-5.39-4.8-10.63-9.57-16.1-14.17-10.04-8.45-19.39-16.91-29.7-25.3-3.89-3.17-8.05-7.63-12.3-11.36-8.24-7.21-16.78-14.39-24.97-21.6-8.49-7.48-16.8-14.91-25.36-22.35-5.23-4.54-10.56-9.06-15.79-13.61-5.23-4.55-9.78-9.19-15.28-13.7-1.61-1.32-3.25-3.51-4.36-4.99,7.03,5.9,14.66,12.13,21.46,18.09,6.87,6.03,13.6,11.81,20.49,17.71,14.89,12.75,29.82,25.41,44.68,38.24,13.59,11.74,27.72,23.28,41.72,34.84,8.34,6.89,16.83,14.18,24.39,21.5,6.76,4.94,13.12,10.49,19.39,15.91,6.11,5.28,12.28,10.51,18.42,15.74,5.76,4.9,11.75,9.67,17.5,14.69,2.7,2.36,4.9,4.7,7.45,7.03,7.99,7.31,17.12,14.4,25.38,21.57,8.2,7.12,16.78,13.99,25.12,21.09,5.77,4.91,11.63,10.06,17.37,15.08,5.54,4.84,10.26,9.67,15.67,14.58,4.08,3.71,9.44,7.38,13.86,11.12,5.27,4.46,10.3,9.09,15.54,13.57,2.49,2.13,5.05,4.18,7.71,6.5-.07.72-2.21-1.66-3.07-2.41-10.92-9.65-22.82-18.43-33.93-27.69-5.01-4.17-10.1-8.29-15.09-12.5-9.96-8.4-19.92-16.65-29.97-24.93-6.4-5.27-12.38-10.7-18.59-16.36-3.02-2.75-7.22-6.19-10.52-8.75-7.19-5.58-13.64-11.33-20.74-17.07-2.63-2.13-5.51-4.86-8.3-7.12-6.49-5.25-12.35-10.05-18.74-15.82-4.59-4.14-10.79-7.99-15.61-11.52Z"/>
          <path class="cls-2" d="M646.14,541.14c-.36-.5-.72-1.03-1.1-1.5-.35-.43-.67-.88-1.08-1.23-.75-.64-1.33-1.44-2.16-2.01-.31-.21-.42-.8-.71-1.12-.56-.62-1.2-1.16-1.75-1.79-.57-.65-1.1-1.33-1.69-1.95-.36-.38-.76-.73-1.12-1.12-.36-.38-.53-.94-.97-1.25-.13-.09-.08-.46-.05-.71.53.45,1.14.87,1.6,1.39.46.52.94.99,1.44,1.47,1.07,1.03,2.17,2.01,3.22,3.08.95.97,2.09,1.76,3.18,2.59.65.49,1.26,1.09,1.63,1.88.66.19,1.1.66,1.54,1.11.43.44.88.84,1.33,1.26.42.39.93.68,1.32,1.11.18.2.25.5.4.72.48.7,1.29,1.1,1.86,1.7.57.6,1.29,1.03,1.89,1.59.42.39.81.84,1.21,1.26.38.41.55.99.88,1.46.25.35.82.42,1.15.71.39.35.69.8,1.06,1.16.18.17.39.3.58.5-.17.25-.21-.08-.26-.14-.72-.85-1.87-1.21-2.73-1.89-.38-.31-.8-.58-1.17-.9-.74-.65-1.52-1.24-2.31-1.83-.5-.37-.87-.89-1.24-1.42-.18-.26-.52-.5-.81-.64-.64-.31-1.05-.83-1.64-1.21-.22-.14-.37-.43-.59-.58-.53-.35-1-.68-1.4-1.22-.29-.39-1.04-.34-1.51-.48Z"/>
          <path class="cls-2" d="M148.91,197.44c-.42-.6-.84-1.24-1.29-1.76-.42-.48-.79-1.02-1.3-1.33-.94-.56-1.62-1.5-2.68-1.89-.4-.15-.46-1.05-.81-1.39-.68-.66-1.48-1.13-2.14-1.81-.69-.71-1.31-1.48-2.04-2.12-.44-.39-.93-.71-1.37-1.11-.44-.39-.6-1.21-1.15-1.44-.16-.07-.05-.71.04-1.16.66.38,1.44.69,2,1.23.56.55,1.15,1.02,1.76,1.47,1.32.99,2.69,1.89,3.97,2.96,1.17.98,2.61,1.53,4,2.16.83.38,1.57.96,1.96,2.04.88-.13,1.41.36,1.96.81.53.44,1.09.81,1.65,1.2.52.36,1.18.51,1.65.96.22.21.27.67.44.94.55.85,1.61.96,2.31,1.58.7.61,1.62.86,2.37,1.38.52.36,1,.84,1.47,1.3.46.44.61,1.29,1,1.84.29.42,1.07.15,1.48.41.49.31.83.87,1.29,1.21.22.17.5.24.72.44-.27.53-.28.01-.34-.06-.87-.93-2.4-.75-3.47-1.31-.48-.25-1.02-.42-1.48-.71-.92-.58-1.9-1.05-2.91-1.49-.64-.28-1.06-.89-1.5-1.54-.21-.31-.64-.49-1.02-.52-.83-.08-1.33-.66-2.07-.9-.28-.09-.44-.46-.73-.56-.68-.22-1.27-.46-1.74-1.08-.34-.45-1.38.15-2.01.24Z"/>
          <path class="cls-2" d="M419.4,353.61c-7.3-4.57-14.82-9.31-22.03-13.74-6.68-4.1-13.19-8.19-19.9-12.07-12.33-7.14-23.94-14.39-36.53-21.43-4.75-2.66-10.07-6.59-15.32-9.77-10.17-6.14-20.66-12.2-30.78-18.35-10.5-6.37-20.79-12.73-31.36-19.05-6.46-3.86-13-7.68-19.46-11.55-6.45-3.87-12.22-7.92-18.95-11.72-1.97-1.11-4.16-3.09-5.64-4.44,8.63,4.98,17.95,10.22,26.35,15.29,8.49,5.13,16.77,10.04,25.26,15.04,18.33,10.81,36.68,21.52,55,32.42,16.75,9.98,34.02,19.66,51.16,29.39,10.21,5.8,20.66,11.99,30.16,18.32,8.13,4.05,15.99,8.77,23.72,13.38,7.53,4.48,15.12,8.91,22.67,13.33,7.08,4.15,14.38,8.13,21.48,12.41,3.34,2.01,6.15,4.07,9.31,6.06,9.94,6.27,21.02,12.17,31.2,18.26,10.12,6.06,20.57,11.8,30.83,17.81,7.1,4.16,14.34,8.54,21.43,12.82,6.84,4.12,12.83,8.34,19.55,12.55,5.07,3.18,11.46,6.14,16.89,9.31,6.47,3.77,12.74,7.75,19.19,11.54,3.07,1.81,6.18,3.52,9.47,5.5.08.74-2.67-1.37-3.73-2.01-13.51-8.23-27.85-15.44-41.47-23.25-6.14-3.52-12.36-6.96-18.48-10.53-12.23-7.11-24.43-14.05-36.73-21.01-7.83-4.43-15.26-9.09-22.98-13.94-3.76-2.36-8.89-5.25-12.89-7.38-8.72-4.64-16.72-9.55-25.37-14.35-3.21-1.78-6.81-4.14-10.22-6.03-7.92-4.4-15.09-8.43-23.02-13.37-5.7-3.55-13-6.56-18.81-9.47Z"/>
          <path class="cls-2" d="M696.25,513.45c-.41-.59-.82-1.22-1.26-1.74-.41-.48-.77-1.01-1.27-1.31-.92-.55-1.58-1.48-2.62-1.85-.39-.14-.45-1.04-.79-1.37-.66-.65-1.45-1.11-2.09-1.78-.67-.7-1.28-1.46-1.99-2.09-.43-.39-.91-.7-1.34-1.09-.43-.39-.58-1.2-1.12-1.42-.16-.07-.04-.71.05-1.15.65.38,1.41.67,1.96,1.21.55.55,1.13,1,1.72,1.45,1.29.97,2.63,1.86,3.88,2.91,1.14.96,2.56,1.5,3.92,2.12.81.37,1.54.94,1.91,2.02.87-.14,1.39.35,1.92.79.52.43,1.07.8,1.61,1.18.51.36,1.15.49,1.62.94.22.21.26.67.43.93.54.84,1.57.94,2.26,1.55.68.6,1.58.84,2.32,1.35.51.35.97.83,1.44,1.28.45.43.59,1.28.97,1.83.28.41,1.06.13,1.45.39.48.31.81.85,1.26,1.2.22.16.49.23.7.43-.27.53-.27.02-.34-.05-.85-.92-2.36-.72-3.41-1.27-.47-.25-1-.41-1.45-.69-.91-.57-1.87-1.02-2.85-1.45-.63-.27-1.04-.88-1.47-1.52-.21-.31-.62-.48-1-.51-.82-.07-1.3-.65-2.03-.88-.27-.09-.43-.46-.72-.55-.67-.21-1.25-.44-1.71-1.06-.33-.45-1.36.16-1.98.25Z"/>
          <path class="cls-2" d="M117.79,243.06c-.59-.38-1.19-.78-1.78-1.12-.55-.31-1.07-.65-1.65-.87-1.06-.4-2-.99-3.11-1.29-.42-.11-.78-.64-1.22-.87-.85-.43-1.75-.76-2.59-1.21-.87-.46-1.71-.96-2.59-1.38-.54-.26-1.1-.48-1.64-.74-.54-.26-.96-.75-1.54-.92-.17-.05-.28-.42-.35-.67.74.27,1.56.5,2.26.86.71.36,1.4.67,2.12.98,1.55.67,3.12,1.29,4.66,2,1.41.65,2.93,1.07,4.42,1.54.89.28,1.77.67,2.49,1.33.77-.02,1.43.31,2.08.61.63.29,1.28.55,1.92.81.6.25,1.26.38,1.85.68.28.14.47.41.73.58.8.54,1.81.67,2.66,1.08.85.41,1.78.61,2.65.97.6.25,1.2.56,1.8.86.57.29,1,.8,1.54,1.15.41.26,1.04.16,1.5.34.55.22,1.05.56,1.6.8.26.11.54.17.81.31-.07.29-.25-.01-.34-.06-1.11-.6-2.47-.6-3.65-1.01-.53-.18-1.08-.32-1.61-.52-1.05-.4-2.11-.74-3.18-1.07-.68-.21-1.28-.59-1.9-1-.3-.2-.75-.33-1.12-.38-.79-.11-1.45-.48-2.22-.67-.28-.07-.56-.3-.86-.38-.7-.18-1.33-.36-1.97-.75-.46-.29-1.22-.01-1.77,0Z"/>
          <path class="cls-2" d="M417.48,359.86c-8.01-3.9-16.25-7.99-24.2-11.62-7.36-3.35-14.51-6.85-22-9.61-13.76-5.07-26.51-11.22-40.67-15.74-5.34-1.71-10.93-6.14-16.74-8.64-11.26-4.84-22.97-9.12-34.15-14.02-11.61-5.08-22.93-10.35-34.65-15.22-7.16-2.98-14.46-5.75-21.61-8.74-7.15-2.99-13.3-7.23-20.85-9.73-2.22-.73-4.37-3.49-5.82-5.39,9.64,3.51,20.11,6.91,29.4,10.92,9.39,4.05,18.6,7.74,28.03,11.47,20.39,8.04,40.84,15.8,61.16,24.11,18.59,7.6,38,13.88,57.21,20.42,11.45,3.9,23.06,8.55,33.32,14.65,9.35,1.62,18.04,5.3,26.63,8.81,8.36,3.41,16.82,6.62,25.23,9.86,7.88,3.04,16.13,5.39,23.99,8.76,3.69,1.58,6.66,3.86,10.13,5.59,10.89,5.43,23.47,8.63,34.76,13.33,11.22,4.67,23.01,8.16,34.44,12.56,7.9,3.04,15.91,6.53,23.76,9.88,7.57,3.23,13.95,7.67,21.32,11.27,5.57,2.72,13,3.42,19.05,5.7,7.22,2.72,14.08,6.2,21.25,9.02,3.41,1.34,6.93,2.39,10.57,3.92-.18,1.83-3.05-.63-4.22-1.15-14.91-6.61-31.36-9.65-46.61-15.04-6.87-2.43-13.87-4.58-20.71-7.13-13.64-5.09-27.31-9.79-41.1-14.43-8.78-2.95-16.93-6.93-25.4-11.1-4.12-2.03-9.88-3.92-14.42-5.07-9.9-2.5-18.72-6.52-28.46-9.54-3.62-1.12-7.53-3.32-11.36-4.51-8.92-2.78-16.97-5.4-25.69-9.57-6.26-2.99-14.91-2.82-21.58-4Z"/>
          <path class="cls-2" d="M729.22,465.61c-.58-.37-1.17-.77-1.75-1.1-.54-.31-1.05-.64-1.61-.86-1.04-.39-1.96-.97-3.04-1.26-.41-.11-.76-.64-1.19-.86-.83-.42-1.71-.75-2.53-1.19-.85-.45-1.67-.94-2.54-1.36-.53-.26-1.08-.47-1.61-.73-.53-.26-.93-.74-1.51-.91-.17-.05-.27-.42-.34-.67.73.27,1.53.49,2.21.84.69.36,1.38.66,2.08.97,1.52.66,3.06,1.27,4.56,1.97,1.38.64,2.87,1.05,4.33,1.51.87.27,1.74.66,2.44,1.31.76-.02,1.4.3,2.04.59.62.29,1.26.54,1.88.8.59.24,1.23.37,1.81.66.27.14.46.41.71.57.78.53,1.77.66,2.6,1.06.83.4,1.74.6,2.6.95.59.24,1.18.55,1.76.85.56.28.98.79,1.51,1.13.4.26,1.02.15,1.47.33.54.21,1.03.55,1.57.79.25.11.53.17.8.3-.07.29-.24,0-.33-.06-1.09-.59-2.42-.59-3.57-.98-.52-.18-1.06-.31-1.58-.51-1.03-.39-2.07-.73-3.12-1.05-.67-.2-1.26-.59-1.86-.99-.3-.2-.74-.32-1.09-.37-.78-.1-1.42-.47-2.17-.65-.28-.07-.55-.3-.85-.37-.69-.17-1.3-.35-1.93-.74-.45-.28-1.2,0-1.74,0Z"/>
          <path class="cls-2" d="M103.55,299.46c-.62-.42-1.25-.88-1.87-1.22-.57-.32-1.12-.7-1.73-.82-1.11-.21-2.09-.87-3.25-.87-.44,0-.82-.83-1.28-1.03-.89-.39-1.83-.57-2.71-.98-.91-.43-1.79-.95-2.72-1.31-.57-.22-1.15-.36-1.72-.58-.57-.22-1-.94-1.62-.97-.18,0-.3-.66-.38-1.11.78.14,1.63.16,2.36.49.74.33,1.47.57,2.22.79,1.63.48,3.27.87,4.88,1.45,1.47.53,3.06.56,4.62.69.93.08,1.85.38,2.61,1.27.8-.42,1.49-.14,2.17.1.66.23,1.34.39,2.01.57.63.16,1.31.08,1.93.35.29.13.5.54.76.74.84.62,1.89.36,2.78.71.89.34,1.86.26,2.78.5.63.16,1.26.46,1.88.72.6.26,1.05,1.01,1.62,1.4.43.3,1.09-.23,1.57-.12.58.13,1.1.54,1.68.71.27.08.56.06.85.17-.07.59-.26.11-.35.06-1.17-.58-2.58.11-3.81-.06-.56-.08-1.13-.05-1.68-.17-1.1-.23-2.21-.34-3.33-.42-.71-.05-1.34-.48-2-.94-.32-.22-.79-.24-1.17-.15-.83.2-1.52-.17-2.32-.15-.3,0-.59-.29-.9-.28-.73.02-1.39,0-2.06-.43-.48-.31-1.28.6-1.85.9Z"/>
          <path class="cls-2" d="M419.27,358.07c-8.61-2.15-17.47-4.4-25.96-6.36-7.86-1.81-15.54-3.74-23.39-5.15-14.41-2.58-28.1-5.95-42.77-8.14-5.54-.82-11.93-3.48-18.1-4.81-11.95-2.58-24.21-4.75-36.1-7.38-12.34-2.72-24.46-5.58-36.86-8.16-7.58-1.57-15.24-3-22.81-4.58-7.57-1.58-14.47-4.07-22.31-5.3-2.3-.36-5.01-2.09-6.84-3.28,10.09,1.78,20.96,3.44,30.82,5.58,9.98,2.16,19.68,4.09,29.62,6.03,21.48,4.18,42.95,8.17,64.43,12.53,19.65,4,39.78,7.05,59.78,10.29,11.92,1.93,24.17,4.36,35.44,7.86,9.38.52,18.59,2.48,27.66,4.32,8.83,1.79,17.71,3.44,26.55,5.11,8.29,1.57,16.77,2.65,25.11,4.44,3.92.84,7.29,2.2,11.03,3.15,11.73,3,24.58,4.39,36.53,6.87,11.88,2.47,24.03,4.1,36.04,6.37,8.31,1.57,16.81,3.44,25.15,5.22,8.03,1.72,15.19,4.33,23.11,6.31,5.98,1.49,13.3,1.51,19.66,2.68,7.57,1.39,14.98,3.32,22.53,4.79,3.59.7,7.22,1.19,11.08,2,.24,1.25-3.09-.24-4.33-.52-15.88-3.55-32.42-4.59-48.34-7.3-7.17-1.22-14.41-2.24-21.58-3.55-14.31-2.6-28.55-4.94-42.9-7.23-9.13-1.46-17.89-3.64-27-5.94-4.43-1.12-10.41-2.04-15.05-2.54-10.11-1.08-19.52-3.26-29.6-4.7-3.74-.54-8.01-1.78-11.97-2.35-9.23-1.33-17.59-2.61-26.93-4.89-6.71-1.64-15.01-.99-21.7-1.37Z"/>
          <path class="cls-2" d="M743.42,412.29c-.6-.42-1.22-.88-1.83-1.22-.56-.31-1.1-.69-1.69-.81-1.09-.21-2.05-.86-3.19-.86-.43,0-.8-.83-1.25-1.03-.87-.39-1.79-.56-2.65-.97-.89-.43-1.75-.95-2.66-1.3-.55-.22-1.13-.35-1.68-.57-.55-.22-.98-.93-1.59-.96-.18,0-.29-.65-.37-1.1.76.14,1.6.15,2.32.48.72.33,1.44.56,2.18.79,1.59.48,3.2.86,4.78,1.43,1.44.52,3,.55,4.53.67.91.08,1.82.37,2.56,1.26.79-.43,1.46-.14,2.13.09.65.23,1.31.39,1.97.56.62.16,1.29.08,1.89.34.28.13.48.54.74.74.82.61,1.85.35,2.73.7.87.34,1.82.25,2.72.49.62.16,1.24.45,1.84.72.58.25,1.03,1,1.58,1.39.42.29,1.07-.23,1.54-.12.57.13,1.08.53,1.64.7.27.08.55.05.83.17-.07.59-.25.11-.34.06-1.14-.58-2.53.12-3.74-.05-.55-.07-1.11-.05-1.65-.16-1.07-.23-2.16-.33-3.26-.41-.7-.05-1.32-.48-1.95-.94-.31-.22-.77-.24-1.15-.14-.81.21-1.49-.17-2.27-.14-.29.01-.58-.29-.89-.28-.72.02-1.36,0-2.02-.43-.47-.31-1.25.61-1.82.91Z"/>
          <path class="cls-2" d="M420.06,361.76c-9.19-.93-18.68-1.95-27.72-2.64-8.37-.63-16.58-1.48-24.86-1.51-15.22-.06-29.83-1.48-45.24-.88-5.82.22-12.84-2.03-19.39-2.39-12.69-.69-25.63-.72-38.28-1.5-13.12-.81-26.04-1.88-39.19-2.45-8.04-.35-16.14-.46-24.17-.82-8.04-.36-15.54-2.25-23.79-2.01-2.42.07-5.5-1.78-7.59-3.07,10.64,0,22.07-.38,32.55.21,10.6.6,20.88.92,31.41,1.19,22.74.58,45.43.87,68.2,1.73,20.83.79,41.98.05,63.04-.38,12.55-.25,25.52.15,37.69,2.38,9.69-1.67,19.48-1.19,29.09-.83,9.36.34,18.75.47,28.1.63,8.77.16,17.65-.45,26.5.03,4.16.22,7.86,1.35,11.86,1.79,12.55,1.38,25.95.08,38.62.63,12.6.55,25.33-.2,38.04.02,8.79.15,17.83.7,26.68,1.16,8.53.45,16.33,2.43,24.79,3.29,6.39.65,13.89-1.23,20.6-1.16,8,.08,15.93,1.01,23.92,1.21,3.8.1,7.6-.13,11.7.07.47,1.78-3.2.45-4.52.36-16.89-1.11-34.01,1.66-50.79,1.81-7.56.07-15.15.44-22.72.38-15.11-.12-30.11.14-45.21.5-9.61.23-18.97-.72-28.71-1.74-4.74-.5-11.03-.3-15.86.17-10.54,1.04-20.56.27-31.14.77-3.93.18-8.52-.54-12.68-.35-9.68.44-18.47.73-28.44-.21-7.17-.67-15.54,2.45-22.46,3.62Z"/>
          <path class="cls-2" d="M761.59,354.51c-.69-.15-1.41-.33-2.09-.44-.63-.11-1.25-.25-1.88-.25-1.15,0-2.25-.25-3.42-.15-.44.04-.97-.34-1.46-.4-.96-.12-1.94-.12-2.89-.25-.99-.13-1.97-.31-2.96-.41-.61-.06-1.22-.08-1.83-.14s-1.17-.37-1.8-.34c-.18.01-.42-.3-.57-.51.8,0,1.67-.06,2.46.03.8.1,1.58.15,2.37.2,1.72.1,3.43.15,5.15.29,1.57.13,3.17,0,4.76-.06.95-.04,1.93.02,2.85.4.73-.28,1.47-.2,2.2-.14.71.06,1.42.08,2.12.11.66.03,1.33-.07,2,0,.31.04.59.22.9.3.95.23,1.96.01,2.92.11.95.09,1.91-.03,2.87,0,.66.03,1.35.12,2.01.19.64.07,1.23.41,1.87.55.48.11,1.05-.21,1.56-.19.6.01,1.2.17,1.81.2.29.02.57-.02.88.01.04.3-.24.07-.34.06-1.28-.19-2.57.28-3.83.3-.57.01-1.14.07-1.72.06-1.14-.02-2.27.02-3.41.08-.73.04-1.43-.12-2.17-.29-.36-.08-.83-.05-1.2.03-.8.17-1.55.05-2.35.13-.3.03-.64-.09-.96-.06-.73.07-1.39.12-2.15-.03-.54-.11-1.17.41-1.7.6Z"/>
          <path class="cls-2" d="M421.16,356.55c-7.95,1.09-16.16,2.19-23.96,3.33-7.22,1.06-14.32,2.02-21.44,3.27-13.07,2.29-25.71,4.03-38.91,6.56-4.98.95-11.15,1.28-16.79,2.15-10.94,1.69-22.06,3.65-32.97,5.31-11.32,1.72-22.47,3.33-33.8,5.13-6.92,1.1-13.89,2.29-20.81,3.39-6.92,1.1-13.48,1.62-20.55,2.94-2.08.39-4.83.25-6.7.14,9.14-1.61,18.93-3.47,27.97-4.86,9.14-1.41,17.99-2.86,27.04-4.37,19.56-3.25,39.07-6.59,58.68-9.76,17.93-2.9,36.06-6.34,54.12-9.67,10.76-1.98,21.93-3.82,32.51-4.93,8.23-2.02,16.66-3.34,24.94-4.68,8.06-1.3,16.13-2.69,24.17-4.05,7.54-1.28,15.13-2.82,22.76-4,3.59-.56,6.83-.75,10.29-1.21,10.85-1.45,22.29-3.9,33.21-5.64,10.85-1.73,21.75-3.9,32.67-5.75,7.56-1.28,15.35-2.47,22.98-3.66,7.35-1.14,14.17-1.67,21.49-2.67,5.53-.75,11.86-2.51,17.63-3.5,6.88-1.18,13.74-2.08,20.61-3.22,3.27-.54,6.52-1.19,10.05-1.75.51.51-2.72.63-3.86.8-14.57,2.19-29.12,5.69-43.52,8.28-6.49,1.17-12.99,2.44-19.5,3.57-12.98,2.25-25.85,4.6-38.8,7.01-8.24,1.53-16.34,2.64-24.76,3.77-4.1.55-9.49,1.57-13.62,2.46-9,1.94-17.65,3.2-26.7,4.97-3.36.65-7.35,1.11-10.91,1.8-8.29,1.61-15.82,3.04-24.44,4.24-6.19.87-13.2,3.16-19.08,4.59Z"/>
          <path class="cls-2" d="M714.49,304.83c-.65-.2-1.32-.43-1.95-.55-.58-.11-1.16-.3-1.7-.21-.99.16-2.02-.14-2.98.23-.36.14-.95-.52-1.4-.56-.86-.08-1.7.06-2.57-.05-.9-.11-1.8-.32-2.68-.36-.54-.02-1.07.03-1.61,0-.54-.03-1.14-.56-1.66-.39-.15.05-.46-.52-.67-.92.69-.12,1.41-.38,2.12-.3.72.07,1.41.06,2.11.03,1.51-.07,3-.23,4.52-.21,1.4.02,2.73-.46,4.07-.84.8-.23,1.66-.24,2.58.35.53-.66,1.19-.61,1.84-.61.63,0,1.24-.06,1.86-.11.58-.05,1.12-.35,1.72-.29.28.03.59.35.87.45.89.31,1.69-.27,2.54-.23.85.04,1.63-.36,2.47-.43.58-.05,1.2.03,1.8.08.58.05,1.2.61,1.8.8.45.14.83-.56,1.27-.62.52-.06,1.09.15,1.62.12.25-.01.49-.13.76-.11.13.58-.18.18-.27.17-1.16-.17-2.11.93-3.19,1.17-.49.11-.96.32-1.45.39-.99.13-1.94.39-2.9.68-.61.18-1.27-.02-1.96-.24-.34-.11-.73.03-1.02.24-.62.46-1.32.32-1.98.61-.24.1-.58-.08-.84.03-.6.26-1.16.45-1.86.26-.5-.14-.87.98-1.25,1.45Z"/>
          <path class="cls-2" d="M423.88,362.45c-7.66,1.8-15.58,3.59-23.03,5.58-6.9,1.84-13.74,3.43-20.37,5.81-12.17,4.37-24.32,7.28-36.42,12.32-4.57,1.9-10.95,1.82-16.3,3.39-10.37,3.04-20.71,6.77-31.08,9.72-10.75,3.05-21.43,5.8-32.13,9.08-6.54,2.01-13.04,4.26-19.58,6.25-6.54,1.99-13.18,2.41-19.68,5.02-1.91.77-5-.07-7.11-.68,8.5-3.09,17.49-6.77,26.06-9.26,8.67-2.52,16.99-5.21,25.48-8.01,18.35-6.06,36.57-12.38,55.05-18.19,16.9-5.31,33.54-12.15,50.2-18.67,9.93-3.88,20.43-7.28,30.9-8.72,7.16-4.39,15.14-6.77,22.94-9.24,7.59-2.4,15.13-5.01,22.65-7.57,7.05-2.4,13.94-5.55,21.17-7.68,3.4-1,6.74-1.02,10.08-1.77,10.49-2.35,20.75-7.46,31.05-10.63,10.25-3.14,20.16-7.55,30.38-11.03,7.07-2.41,14.47-4.53,21.7-6.66,6.96-2.06,13.87-2.46,20.92-4.11,5.33-1.25,10.67-5.19,16.05-7.08,6.42-2.25,13.06-3.68,19.51-5.81,3.07-1.01,6.03-2.33,9.37-3.34.99,1.54-2.4,1.35-3.49,1.66-13.87,3.86-26.59,11.44-39.93,16.46-6.02,2.26-11.95,4.82-18.01,6.96-12.1,4.28-23.99,8.88-35.92,13.6-7.59,3.01-15.39,4.83-23.52,6.7-3.95.91-8.91,2.92-12.61,4.77-8.06,4.04-16.33,6.23-24.6,9.77-3.07,1.31-6.99,1.96-10.24,3.35-7.58,3.23-14.5,6.05-22.78,8.07-5.95,1.45-11.57,6.81-16.69,9.93Z"/>
          <path class="cls-2" d="M694.08,256.39c-.61.06-1.24.1-1.82.2-.54.08-1.08.13-1.58.31-.92.33-1.88.42-2.78.85-.34.16-.89-.04-1.31.05-.8.17-1.59.45-2.39.61-.84.16-1.68.28-2.5.48-.5.12-1,.28-1.5.4-.51.12-1.06-.01-1.55.21-.14.06-.43-.16-.63-.31.64-.23,1.31-.54,1.97-.68.67-.14,1.31-.31,1.96-.5,1.4-.41,2.79-.86,4.21-1.22,1.3-.33,2.53-.91,3.78-1.44.74-.31,1.55-.54,2.41-.45.49-.47,1.11-.61,1.71-.77.58-.15,1.16-.34,1.73-.52.54-.17,1.04-.46,1.6-.58.26-.06.55.04.82.02.84-.06,1.57-.56,2.36-.75.79-.19,1.52-.59,2.29-.83.54-.17,1.11-.28,1.67-.4.54-.12,1.12.02,1.68-.03.42-.04.77-.5,1.18-.63.49-.16,1.02-.19,1.51-.33.23-.07.45-.19.71-.25.13.27-.17.14-.25.16-1.08.2-1.96,1.01-2.96,1.4-.45.18-.89.4-1.35.56-.92.31-1.81.68-2.7,1.07-.57.25-1.18.3-1.83.36-.31.03-.68.19-.95.38-.58.39-1.22.49-1.83.8-.23.11-.54.1-.78.22-.56.28-1.07.52-1.73.59-.47.05-.8.72-1.15,1.06Z"/>
          <path class="cls-2" d="M423.68,360.09c-7.93,3.86-16.13,7.81-23.85,11.74-7.15,3.64-14.23,7.08-21.11,11.02-12.63,7.25-25.21,13.42-37.79,21.14-4.75,2.91-11.32,4.97-16.87,7.9-10.75,5.67-21.48,11.85-32.22,17.45-11.14,5.81-22.2,11.37-33.3,17.33-6.78,3.64-13.53,7.46-20.31,11.09-6.78,3.64-13.63,6.14-20.39,10.22-1.98,1.2-5.15,1.6-7.31,1.86,8.82-5.09,18.16-10.78,27.04-15.45,8.98-4.73,17.61-9.46,26.42-14.34,19.04-10.54,37.94-21.23,57.09-31.63,17.52-9.51,34.81-20.06,52.11-30.38,10.31-6.15,21.2-12.12,32.02-16.66,7.47-5.6,15.74-10,23.83-14.4,7.87-4.28,15.69-8.7,23.5-13.08,7.32-4.1,14.47-8.7,21.97-12.66,3.52-1.86,6.96-2.98,10.42-4.64,10.86-5.2,21.53-12.37,32.22-18.11,10.62-5.71,20.93-12.24,31.53-18.19,7.33-4.12,15.01-8.13,22.5-12.09,7.21-3.82,14.34-6.41,21.64-9.96,5.51-2.68,11.1-7.36,16.68-10.53,6.66-3.78,13.53-7.04,20.23-10.74,3.18-1.76,6.26-3.71,9.72-5.56.99.8-2.5,1.79-3.63,2.37-14.37,7.44-27.63,17.23-41.48,25.34-6.24,3.66-12.41,7.5-18.7,11.09-12.56,7.16-24.9,14.48-37.3,21.91-7.89,4.73-15.96,8.66-24.37,12.73-4.09,1.98-9.24,5.1-13.09,7.69-8.39,5.64-16.95,10-25.55,15.34-3.19,1.98-7.24,3.76-10.62,5.86-7.88,4.89-15.06,9.26-23.64,13.49-6.16,3.04-12.06,8.85-17.41,12.84Z"/>
          <path class="cls-2" d="M705.25,194.18c-.73.06-1.49.11-2.17.24-.63.12-1.28.17-1.81.46-.96.53-2.11.65-2.98,1.38-.33.27-1.14-.12-1.61.01-.91.26-1.72.72-2.64.95-.96.24-1.94.4-2.86.71-.56.19-1.09.45-1.65.64-.56.19-1.35-.09-1.82.28-.14.11-.64-.32-.99-.61.67-.38,1.32-.91,2.07-1.12.76-.21,1.46-.49,2.16-.79,1.52-.65,2.99-1.39,4.56-1.96,1.43-.53,2.64-1.5,3.88-2.39.74-.53,1.62-.88,2.75-.68.33-.83,1.02-1.05,1.68-1.29.64-.24,1.25-.54,1.86-.83.57-.27,1.03-.77,1.66-.95.3-.09.72.1,1.04.09,1.02-.05,1.64-.91,2.52-1.21.88-.3,1.55-.97,2.38-1.37.58-.27,1.23-.44,1.86-.63.61-.18,1.43.11,2.1.06.51-.04.66-.86,1.1-1.08.51-.26,1.16-.28,1.7-.51.25-.11.45-.31.74-.4.33.5-.13.25-.22.27-1.24.29-1.85,1.71-2.88,2.36-.46.29-.87.67-1.36.93-.97.51-1.86,1.13-2.75,1.78-.56.41-1.31.48-2.09.53-.38.03-.74.31-.96.62-.49.68-1.24.82-1.82,1.35-.22.19-.62.15-.85.36-.53.48-1.03.88-1.81.97-.56.07-.56,1.27-.8,1.86Z"/>
          <path class="cls-2" d="M426.81,362.27c-7.25,4.87-14.76,9.84-21.75,14.8-6.46,4.59-12.94,8.93-18.95,13.93-11.04,9.19-22.53,16.97-33.29,26.78-4.06,3.7-10.59,6.24-15.56,9.94-9.63,7.17-19,15.01-28.65,22.09-10.01,7.35-20.04,14.36-29.93,21.91-6.04,4.61-11.97,9.44-18.01,14.04-6.05,4.6-12.68,7.71-18.5,12.9-1.71,1.52-5.13,1.98-7.46,2.25,7.7-6.46,15.72-13.68,23.68-19.6,8.05-5.98,15.69-11.97,23.48-18.15,16.82-13.35,33.42-26.9,50.44-40.06,15.57-12.04,30.4-25.44,45.35-38.55,8.91-7.81,18.55-15.37,28.79-21.05,5.93-7.16,13.32-12.73,20.51-18.29,6.99-5.42,13.86-11.02,20.73-16.57,6.44-5.2,12.47-11.05,19.18-16.06,3.15-2.35,6.55-3.74,9.72-5.83,9.96-6.55,18.82-15.69,28.34-22.95,9.47-7.23,18.19-15.53,27.53-23.07,6.45-5.21,13.34-10.29,20.04-15.3,6.45-4.83,13.37-8.05,20.05-12.52,5.04-3.38,9.25-9.37,14.15-13.39,5.84-4.79,12.17-8.89,18.08-13.59,2.81-2.23,5.42-4.71,8.51-7.05,1.49,1.08-2.03,2.29-3.04,3.02-12.93,9.4-23.53,21.91-35.57,32.21-5.43,4.64-10.68,9.53-16.19,14.08-11,9.08-21.69,18.38-32.38,27.82-6.8,6.01-14.18,10.96-21.89,16.09-3.75,2.49-8.17,6.46-11.36,9.76-6.96,7.19-14.7,12.69-22.03,19.49-2.72,2.52-6.51,4.75-9.4,7.42-6.72,6.22-12.89,11.76-20.7,17.1-5.61,3.84-9.66,11.3-13.92,16.41Z"/>
          <path class="cls-2" d="M669.17,149.44c-.6.3-1.23.61-1.8.93-.52.3-1.06.57-1.52.95-.84.69-1.79,1.18-2.57,1.96-.29.3-.92.33-1.31.58-.77.49-1.48,1.08-2.25,1.56-.8.5-1.62.95-2.4,1.48-.48.32-.93.68-1.41,1-.48.32-1.09.43-1.51.83-.12.12-.49.02-.74-.04.58-.49,1.16-1.06,1.8-1.46.64-.41,1.24-.84,1.84-1.29,1.3-.97,2.57-1.97,3.91-2.9,1.22-.85,2.3-1.92,3.4-2.94.66-.61,1.41-1.15,2.31-1.42.35-.66.94-1.04,1.5-1.44.55-.38,1.07-.8,1.6-1.21.5-.38.92-.87,1.45-1.21.25-.16.57-.19.84-.32.83-.4,1.43-1.18,2.18-1.69.75-.51,1.36-1.19,2.08-1.74.5-.38,1.05-.73,1.58-1.07.51-.33,1.15-.44,1.71-.72.42-.21.63-.79,1-1.09.45-.36.98-.6,1.44-.94.22-.16.4-.36.65-.53.22.21-.13.2-.21.25-1.04.63-1.68,1.77-2.58,2.56-.41.36-.78.75-1.2,1.09-.84.68-1.63,1.4-2.42,2.13-.5.47-1.11.78-1.75,1.09-.31.15-.63.47-.85.75-.46.62-1.09.98-1.62,1.52-.19.2-.52.32-.73.54-.48.5-.93.94-1.58,1.28-.46.24-.59,1.02-.84,1.49Z"/>
          <path class="cls-2" d="M226.35,593.42c-.66.3-1.35.6-1.94.94-.54.32-1.13.58-1.52,1.03-.71.82-1.74,1.31-2.29,2.27-.21.36-1.1.26-1.49.54-.76.54-1.35,1.24-2.13,1.76-.8.54-1.67,1.01-2.42,1.61-.46.36-.85.78-1.31,1.14-.46.36-1.28.36-1.6.86-.09.15-.71-.08-1.13-.25.49-.58.91-1.28,1.54-1.73.64-.45,1.19-.94,1.74-1.45,1.19-1.11,2.3-2.28,3.55-3.34,1.15-.96,1.93-2.27,2.78-3.51.51-.74,1.2-1.36,2.33-1.54.02-.89.59-1.31,1.11-1.76.52-.44.97-.92,1.44-1.39.44-.44.69-1.06,1.22-1.44.25-.18.7-.14,1-.26.93-.39,1.21-1.39,1.92-1.96.72-.57,1.1-1.42,1.74-2.06.44-.44.99-.82,1.51-1.2.5-.37,1.37-.37,1.97-.64.46-.21.32-1.02.64-1.37.39-.42.98-.65,1.4-1.04.2-.19.31-.44.55-.62.48.36-.03.27-.11.32-1.06.68-1.13,2.2-1.86,3.15-.33.43-.58.92-.94,1.32-.72.8-1.34,1.67-1.94,2.56-.38.57-1.05.88-1.76,1.19-.34.15-.58.53-.68.9-.22.8-.87,1.18-1.23,1.86-.13.25-.53.35-.67.61-.33.62-.66,1.16-1.35,1.5-.5.25-.08,1.37-.1,2Z"/>
          <path class="cls-2" d="M426.21,359.75c-5.92,6.09-12.06,12.35-17.77,18.44-5.28,5.63-10.57,11.07-15.5,16.9-9.04,10.72-18.42,20.42-27.25,31.56-3.33,4.2-8.64,8.19-12.71,12.67-7.87,8.66-15.55,17.79-23.44,26.38-8.18,8.92-16.38,17.57-24.47,26.61-4.94,5.52-9.79,11.19-14.74,16.71-4.95,5.52-10.35,10.01-15.12,15.93-1.4,1.74-4.17,3.12-6.06,4.04,6.31-7.51,12.88-15.74,19.39-22.89,6.58-7.23,12.84-14.35,19.21-21.66,13.77-15.8,27.36-31.7,41.28-47.4,12.74-14.36,24.89-29.61,37.14-44.66,7.3-8.97,15.19-17.95,23.54-25.58,4.89-7.56,10.93-14.26,16.81-20.89,5.72-6.46,11.34-13.03,16.97-19.56,5.27-6.12,10.22-12.65,15.71-18.69,2.58-2.84,5.34-4.97,7.93-7.6,8.14-8.26,15.41-18.28,23.2-26.99,7.74-8.66,14.9-17.97,22.54-26.84,5.28-6.14,10.92-12.28,16.4-18.33,5.28-5.83,10.91-10.48,16.37-16.09,4.12-4.23,7.6-10.33,11.61-15.04,4.78-5.61,9.95-10.81,14.79-16.36,2.3-2.64,4.44-5.42,6.97-8.23,1.19.43-1.67,2.45-2.49,3.35-10.57,11.45-19.3,24.72-29.16,36.62-4.44,5.37-8.75,10.88-13.26,16.2-9.01,10.62-17.76,21.31-26.52,32.12-5.57,6.88-11.6,13.08-17.89,19.52-3.06,3.13-6.69,7.65-9.31,11.27-5.72,7.89-12.04,14.63-18.05,22.31-2.23,2.85-5.32,5.78-7.69,8.8-5.51,7.02-10.57,13.35-16.95,19.99-4.59,4.77-7.95,12.01-11.45,17.41Z"/>
          <path class="cls-2" d="M626.27,116.82c-.65.29-1.33.58-1.91.91-.54.31-1.12.57-1.5,1-.69.8-1.71,1.27-2.25,2.22-.2.36-1.09.25-1.48.52-.74.53-1.33,1.21-2.09,1.72-.79.53-1.64.99-2.38,1.56-.45.35-.84.76-1.29,1.11-.45.35-1.27.35-1.58.84-.09.14-.7-.09-1.12-.25.48-.57.89-1.26,1.51-1.69.63-.44,1.17-.92,1.71-1.42,1.17-1.09,2.25-2.23,3.49-3.26,1.13-.94,1.89-2.23,2.72-3.44.5-.72,1.18-1.33,2.29-1.5,0-.87.57-1.29,1.09-1.73.51-.42.96-.9,1.42-1.36.43-.43.67-1.04,1.19-1.41.24-.17.69-.13.99-.25.91-.37,1.18-1.37,1.89-1.92.7-.55,1.08-1.39,1.71-2.02.43-.44.98-.8,1.49-1.17.5-.36,1.35-.35,1.95-.62.45-.2.31-1,.62-1.35.38-.41.97-.63,1.38-1.01.2-.18.31-.43.54-.61.48.36-.03.27-.11.32-1.04.66-1.1,2.17-1.81,3.09-.32.42-.57.9-.92,1.29-.71.78-1.31,1.63-1.9,2.52-.37.56-1.03.86-1.73,1.16-.34.15-.57.52-.67.88-.21.78-.85,1.15-1.2,1.82-.13.25-.52.34-.66.6-.32.61-.64,1.14-1.32,1.47-.49.24-.07,1.35-.08,1.97Z"/>
          <path class="cls-2" d="M429.96,360.57c-4.81,6.47-9.82,13.11-14.35,19.58-4.19,5.99-8.5,11.76-12.13,17.99-6.67,11.45-14.26,21.75-20.46,33.67-2.34,4.5-7.35,8.67-10.51,13.43-6.13,9.22-11.78,18.97-17.96,28.11-6.41,9.49-12.96,18.69-19.19,28.32-3.8,5.88-7.42,11.94-11.23,17.81-3.81,5.88-8.71,10.59-12.1,16.93-.99,1.86-3.94,3.26-5.96,4.19,4.64-8.02,9.28-16.83,14.35-24.44,5.13-7.69,9.88-15.29,14.7-23.08,10.4-16.85,20.53-33.82,31.19-50.55,9.75-15.31,18.32-31.63,27.11-47.71,5.24-9.59,11.24-19.17,18.46-27.23,2.77-8.14,7.45-15.28,11.94-22.35,4.37-6.88,8.56-13.9,12.78-20.87,3.95-6.53,7.29-13.53,11.56-19.97,2-3.02,4.59-5.25,6.71-8.05,6.66-8.77,11.37-19.52,17.36-28.8,5.96-9.22,10.85-19.2,16.57-28.67,3.96-6.55,8.36-13.09,12.62-19.53,4.1-6.2,9.21-11.09,13.64-17.05,3.34-4.49,4.98-11.09,7.96-16.11,3.56-5.99,7.81-11.5,11.46-17.43,1.74-2.82,3.2-5.8,5.15-8.79,1.75.54-1,2.64-1.65,3.59-8.32,12.18-13.37,26.47-20.54,39.19-3.23,5.74-6.21,11.64-9.56,17.32-6.68,11.33-12.99,22.77-19.25,34.33-3.98,7.36-8.88,13.94-14.01,20.77-2.49,3.32-5.06,8.16-6.76,12.05-3.69,8.47-8.71,15.64-12.89,23.86-1.55,3.05-4.18,6.15-5.82,9.38-3.83,7.52-7.41,14.29-12.56,21.34-3.7,5.07-4.64,12.94-6.64,18.74Z"/>
          <path class="cls-2" d="M572.34,99.46c-.44.45-.9.9-1.29,1.36-.37.42-.76.82-1.03,1.29-.51.86-1.19,1.58-1.61,2.5-.16.35-.71.56-.98.9-.52.66-.95,1.4-1.47,2.05-.55.68-1.13,1.33-1.64,2.03-.31.43-.6.88-.91,1.31s-.83.7-1.07,1.19c-.07.14-.44.16-.69.18.35-.61.67-1.29,1.1-1.84.43-.55.82-1.11,1.2-1.69.83-1.25,1.62-2.51,2.49-3.74.8-1.12,1.39-2.39,2.02-3.62.38-.74.86-1.44,1.58-1.95.08-.69.47-1.21.84-1.73.36-.5.68-1.03,1.01-1.55.31-.49.51-1.04.87-1.51.17-.22.45-.34.65-.53.61-.6.86-1.47,1.36-2.15.49-.67.8-1.46,1.25-2.16.31-.49.69-.96,1.04-1.42.34-.45.89-.73,1.29-1.14.3-.31.28-.89.51-1.27.28-.45.67-.82.96-1.26.14-.21.23-.44.39-.66.27.12-.04.22-.1.29-.72.87-.88,2.07-1.41,3.04-.24.44-.43.9-.69,1.33-.51.85-.97,1.73-1.41,2.61-.28.57-.73,1.02-1.2,1.49-.23.23-.41.6-.5.92-.2.69-.64,1.19-.91,1.84-.1.24-.36.44-.47.69-.25.59-.5,1.11-.96,1.6-.33.35-.16,1.09-.22,1.58Z"/>
          <path class="cls-2" d="M428.28,358.95c-3.7,8.36-7.56,16.97-11.06,25.25-3.24,7.66-6.55,15.12-9.39,22.84-5.2,14.18-11.05,27.49-15.91,41.99-1.83,5.48-5.63,11.51-8.08,17.54-4.74,11.68-9.15,23.74-13.93,35.36-4.96,12.05-10.01,23.85-14.84,35.99-2.95,7.42-5.76,14.95-8.72,22.36-2.96,7.41-6.68,13.98-9.34,21.73-.78,2.27-2.98,4.73-4.5,6.38,3.61-9.93,7.25-20.67,11.18-30.31,3.97-9.75,7.66-19.27,11.4-29.02,8.08-21.07,15.97-42.17,24.24-63.21,7.56-19.25,14.28-39.14,21.16-58.88,4.1-11.76,8.76-23.77,14.28-34.61,2.24-9.42,5.87-18.43,9.35-27.32,3.39-8.65,6.65-17.38,9.94-26.06,3.08-8.14,5.71-16.56,9.01-24.71,1.55-3.83,3.51-7.02,5.14-10.65,5.12-11.38,8.86-24.18,13.51-35.88,4.62-11.63,8.47-23.67,12.93-35.47,3.08-8.16,6.49-16.47,9.78-24.62,3.17-7.85,7.07-14.67,10.48-22.37,2.58-5.81,3.94-13.23,6.27-19.48,2.77-7.44,6.04-14.62,8.88-22.03,1.35-3.53,2.5-7.12,4.01-10.9,1.28-.03-.81,3.09-1.31,4.3-6.43,15.5-10.51,32.1-16.11,47.78-2.52,7.07-4.87,14.23-7.47,21.28-5.2,14.07-10.13,28.11-15.03,42.27-3.12,9.01-6.89,17.53-10.84,26.38-1.92,4.3-3.93,10.21-5.28,14.84-2.93,10.07-6.81,19.24-10.09,29.22-1.22,3.7-3.23,7.82-4.53,11.74-3.01,9.13-5.81,17.39-9.78,26.48-2.85,6.53-3.74,15.05-5.35,21.77Z"/>
          <path class="cls-2" d="M541.48,39.44c-.53.54-1.09,1.09-1.54,1.65-.41.52-.89,1-1.11,1.58-.41,1.07-1.23,1.93-1.44,3.09-.08.43-.96.67-1.25,1.09-.54.81-.88,1.72-1.45,2.53-.59.83-1.26,1.62-1.77,2.48-.32.53-.56,1.08-.88,1.61-.32.52-1.1.84-1.24,1.45-.04.18-.7.18-1.16.18.27-.75.45-1.6.9-2.27.46-.68.82-1.37,1.18-2.08.77-1.53,1.44-3.1,2.29-4.6.78-1.38,1.09-2.95,1.5-4.48.24-.91.7-1.78,1.71-2.38-.28-.87.13-1.51.49-2.14.35-.62.63-1.27.92-1.91.27-.6.31-1.29.69-1.86.18-.27.62-.4.86-.63.75-.73.69-1.82,1.19-2.65.5-.82.59-1.81.98-2.68.27-.6.67-1.18,1.05-1.75.36-.55,1.18-.87,1.67-1.37.37-.38-.03-1.12.16-1.58.23-.55.72-1.01.99-1.55.13-.26.16-.55.32-.82.57.17.06.28,0,.36-.78,1.06-.35,2.58-.74,3.78-.17.54-.25,1.12-.46,1.64-.42,1.05-.73,2.14-1,3.24-.17.7-.71,1.25-1.28,1.82-.28.28-.38.74-.35,1.14.06.86-.44,1.48-.56,2.28-.04.3-.39.54-.44.85-.11.73-.25,1.38-.79,1.98-.39.43.37,1.37.56,1.99Z"/>
          <path class="cls-2" d="M432.12,358.49c-2.43,8.45-5.01,17.15-7.17,25.49-2.01,7.72-4.19,15.26-5.59,23.01-2.57,14.24-6.38,27.67-8.34,42.2-.74,5.48-4.12,11.67-5.55,17.74-2.78,11.76-4.94,23.87-7.79,35.58-2.96,12.14-6.15,24.05-8.89,36.27-1.67,7.46-3.11,15.03-4.8,22.49-1.69,7.46-4.78,14.16-5.91,21.92-.33,2.28-2.66,4.84-4.28,6.57,1.76-9.96,3.27-20.73,5.58-30.44,2.34-9.82,4.35-19.39,6.35-29.2,4.33-21.19,8.36-42.38,12.97-63.55,4.21-19.36,6.98-39.3,10.04-59.08,1.82-11.79,4.36-23.87,8.56-34.87-.05-9.36,2.05-18.44,3.98-27.38,1.88-8.7,3.55-17.47,5.26-26.19,1.6-8.18,2.47-16.6,4.4-24.8.91-3.86,2.62-7.13,3.72-10.79,3.43-11.5,4.36-24.28,7-36.05,2.62-11.7,3.98-23.75,6.3-35.61,1.6-8.2,3.63-16.57,5.55-24.78,1.85-7.9,5.09-14.86,7.34-22.64,1.69-5.87,1.08-13.22,2.26-19.49,1.4-7.48,3.62-14.74,5.14-22.18.72-3.54,1.13-7.14,2-10.94,1.84-.13-.09,3.08-.39,4.3-3.88,15.62-3.98,32.13-6.6,47.86-1.18,7.09-2.07,14.26-3.38,21.34-2.61,14.13-4.83,28.21-6.97,42.41-1.36,9.04-3.84,17.63-6.46,26.57-1.27,4.35-2.12,10.27-2.45,14.88-.72,10.05-3.13,19.3-4.39,29.29-.47,3.71-1.94,7.88-2.44,11.81-1.16,9.14-2.33,17.42-4.9,26.59-1.84,6.59-.15,14.97-.14,21.66Z"/>
          <path class="cls-2" d="M481.36,37.51c-.27.62-.55,1.26-.78,1.88-.21.57-.45,1.13-.56,1.71-.2,1.07-.61,2.07-.71,3.17-.04.42-.49.85-.63,1.3-.27.88-.44,1.79-.72,2.66-.3.9-.63,1.79-.89,2.7-.16.56-.28,1.13-.44,1.68-.16.56-.56,1.03-.63,1.62-.02.17-.36.34-.6.45.13-.75.21-1.57.44-2.29.23-.73.41-1.45.59-2.19.38-1.59.71-3.19,1.13-4.77.39-1.45.53-2.97.72-4.47.11-.89.34-1.8.86-2.6-.15-.73.05-1.41.23-2.08.17-.65.31-1.31.45-1.97.14-.62.15-1.26.33-1.87.09-.29.32-.52.44-.79.38-.85.34-1.83.59-2.71.25-.87.28-1.8.48-2.69.13-.62.34-1.24.52-1.85.18-.59.6-1.08.85-1.66.19-.43-.03-1.02.07-1.49.11-.56.36-1.1.5-1.66.06-.27.07-.54.16-.83.3.02.03.24,0,.33-.39,1.16-.15,2.45-.34,3.64-.08.54-.12,1.08-.22,1.62-.21,1.06-.35,2.13-.48,3.21-.08.69-.35,1.32-.64,1.98-.14.32-.19.77-.17,1.13.04.78-.21,1.46-.26,2.22-.02.28-.2.59-.22.89-.05.7-.11,1.33-.39,2-.2.49.21,1.17.31,1.69Z"/>
          <path class="cls-2" d="M427.15,637.9c-.31.6-.65,1.21-.88,1.8-.21.54-.49,1.08-.5,1.61-.02.99-.49,1.94-.29,2.94.07.38-.68.83-.8,1.26-.23.82-.24,1.66-.5,2.49-.27.85-.63,1.69-.82,2.55-.12.52-.15,1.05-.27,1.57-.12.52-.75,1.01-.67,1.55.02.16-.59.36-1.02.49,0-.69-.13-1.43.07-2.11.2-.69.31-1.36.4-2.04.19-1.48.29-2.95.58-4.43.26-1.35.02-2.73-.13-4.09-.08-.82.05-1.66.79-2.45-.56-.63-.4-1.26-.28-1.89.11-.61.15-1.22.21-1.82.05-.57-.15-1.15,0-1.72.07-.27.45-.51.6-.77.46-.81.03-1.69.21-2.51.18-.82-.07-1.65,0-2.47.05-.57.23-1.16.39-1.73.15-.55.81-1.06,1.1-1.61.22-.42-.41-.9-.39-1.34.03-.52.34-1.03.4-1.55.03-.25-.04-.49.02-.76.59-.03.15.21.12.29-.37,1.1.55,2.21.6,3.3.02.49.15.98.13,1.48-.04.98.05,1.96.17,2.94.08.62-.24,1.23-.58,1.86-.17.31-.1.72.06,1.03.35.68.09,1.34.26,2.02.06.26-.18.55-.12.82.15.63.24,1.2-.07,1.85-.22.47.82,1.01,1.21,1.46Z"/>
          <path class="cls-2" d="M430.05,356.59c-.62,7.75-1.3,15.75-1.76,23.37-.42,7.05-.99,13.98-1.01,20.96-.04,12.83-.98,25.15-.59,38.14.15,4.9-1.35,10.82-1.59,16.35-.46,10.7-.48,21.61-1,32.27-.54,11.06-1.25,21.95-1.64,33.04-.23,6.78-.31,13.6-.55,20.38-.24,6.78-1.5,13.1-1.34,20.06.05,2.04-1.19,4.64-2.05,6.4,0-8.97-.25-18.6.14-27.44.4-8.94.61-17.6.79-26.48.39-19.17.58-38.3,1.16-57.49.52-17.56.03-35.39-.25-53.14-.17-10.58.1-21.51,1.58-31.77-1.11-8.17-.79-16.42-.55-24.52.23-7.89.31-15.8.42-23.69.11-7.39-.3-14.88.02-22.34.15-3.51.9-6.63,1.19-10,.92-10.58.05-21.88.42-32.56.37-10.62-.13-21.36.01-32.07.1-7.41.46-15.03.77-22.49.3-7.19,1.62-13.77,2.2-20.9.43-5.39-.82-11.71-.77-17.37.06-6.75.67-13.43.81-20.17.06-3.21-.08-6.41.05-9.86,1.19-.4.3,2.7.24,3.81-.74,14.24,1.11,28.67,1.2,42.81.04,6.38.29,12.77.25,19.16-.08,12.74.09,25.38.33,38.11.15,8.1-.48,15.99-1.16,24.2-.33,3.99-.2,9.29.11,13.37.69,8.89.18,17.34.51,26.25.12,3.31-.36,7.18-.24,10.69.29,8.16.48,15.57-.14,23.98-.45,6.04,1.63,13.1,2.42,18.93Z"/>
          <path class="cls-2" d="M427.15,68.68c-.31.59-.65,1.19-.88,1.76-.21.53-.49,1.06-.5,1.58-.02.97-.49,1.9-.29,2.88.07.37-.68.82-.8,1.23-.23.81-.24,1.63-.5,2.44-.27.84-.63,1.66-.82,2.49-.12.51-.15,1.03-.27,1.54-.12.51-.75.99-.67,1.51.02.15-.59.35-1.02.48,0-.68-.13-1.4.07-2.07.2-.67.31-1.33.4-2,.19-1.45.29-2.89.58-4.34.26-1.33.02-2.67-.13-4.01-.08-.8.05-1.62.79-2.4-.56-.62-.4-1.24-.28-1.85.11-.6.15-1.19.21-1.79.05-.56-.15-1.12,0-1.69.07-.26.45-.5.6-.75.46-.8.03-1.65.21-2.46.18-.8-.07-1.61,0-2.42.05-.56.23-1.13.39-1.7.15-.54.81-1.04,1.1-1.58.22-.41-.41-.88-.39-1.31.03-.51.34-1.01.4-1.52.03-.24-.04-.48.02-.74.59-.03.15.2.12.29-.37,1.08.55,2.16.6,3.23.02.48.15.96.13,1.45-.04.96.05,1.92.17,2.88.08.61-.24,1.21-.58,1.83-.17.3-.1.7.06,1.01.35.67.09,1.31.26,1.98.06.25-.18.54-.12.81.15.62.24,1.18-.07,1.81-.22.46.82.99,1.21,1.43Z"/>
        </g>
        <path d="M446.6,822.11l.18-.71c-.08.25-.13.48-.18.71Z"/>
        <path d="M447.59,844.22l.18-1.82c-.17.32-.22.97-.18,1.82Z"/>
        <g>
          <path class="cls-4" d="M206.9,580.13c-1.71.42-3.57,1.82-5.83,2.38-2.45-1.17-4-3.8-5.47-6.59-3.07-5.86-6.83-11.22-9.97-17.09-1.21-2.26-2.11-4.75-3.48-6.86-1.41-2.16-3.34-4.01-4-6.64-.11-.44.03-1.11-.27-1.52-1.78-2.43-4.08-4.53-6.13-6.61-2.24-2.27-1.7-6.36-4.08-8.39-4.2-9.02-10.41-16.66-14.91-25.46-3.27-6.39-6.9-12.53-10.17-18.93-2.1-4.11-4.12-8.29-6.31-12.34-1.55-2.85-2.93-5.73-4.73-8.53-1.69-2.63-2.9-5.85-4.38-8.73-2.5-4.87-4.93-9.81-7.66-14.51-1.98-3.41-3.72-6.96-5.45-10.47-2.73-5.55-5.05-11.32-8.18-16.6-1.55-2.62-2.53-5.57-4.47-8.04-1.82-2.32-3.19-5.26-4.6-8.01-1.09-2.12-2.24-4.17-3.52-6.16-2.32-3.61-3.19-8.04-5.12-11.87-.38-.75-1.54-1.09-1.92-1.84-.32-.63-.64-1.29-1.1-2.69-.25-.13-.47-.89-1.19-1.34-2.08-1.33-3.19-3.11-3.64-5.75-.52-3.06-2.55-5.39-4.6-7.93.19-.49,1.13-1.15,1.15-1.79.08-2.55.5-4.18,2.87-4.9.67-.21,1.65-1.03,2.2-1.65,4.37-4.9,9.4-8.93,14.18-13.28,1.93-1.76,3.01-4.65,5.8-5.17,5.54-5.4,11.82-9.55,17.72-14.39,2.54-2.09,5.48-4.07,8.6-5.37,2.76-1.15,5.66-2.25,8.23-3.89,2.17-1.38,3.96-3.4,6.13-4.76,2.06-1.29,4.59-1.64,6.23-3.7,5.71-1.04,9.72-6.15,15.47-7.08,1.24-1.8,4.12-1.37,5.01-2.67,1.43-2.12,3.9-.95,5.15-3.03,1.04-1.72,3.81-.13,4.63-2.62,4.49-.79,8-3.97,12.04-5.86,4.7-2.19,9.74-3.67,14.3-6.29,3.38-1.94,7.38-2.53,10.93-4.17,10.29-4.75,21.56-5.77,32.33-8.7,10.74-2.92,21.46-5.9,32.3-8.42,3.33-.78,6.87-.62,10.24-1.26,3.33-.63,6.54-2.36,9.87-2.28,3.92.09,7.39-1.46,11.1-2.05,1.8-.29,3.68-.24,5.49-.46,1.83-.23,3.54-.23,5.56.33,1.75.48,3.54-1.21,5.61-.86,2.14.36,4.66.7,6.88.31,4.89-.86,9.76-.53,14.64-.37,3.61.12,7.26.83,10.89.91,8.03.17,16.11-.28,24.15,1.03,2.26.37,4.54.24,6.77.74,5.37,1.19,10.77,2.46,16.11,3.83,2.08.53,4.15,1.07,6.24,1.5,3.1.64,5.69,2.65,8.56,4.24,4.1,2.27,8.67,3.51,12.9,5.46,1.74.8,3.4,1.73,5.16,2.46,1.16.48,2.38,1,3.52.97,4-.09,7.93,1.11,11.78,2.2,7,1.99,13.93,3.8,20.88,1.8,2.09-.6,4.12-.05,6.31-.88,1.97-.74,4.33-1.77,6.73-.64.75.35,1.65-.22,2.59-.45,7.2-1.77,14.46-3.32,21.7-4.95,7.31-1.65,13.53-5.68,19.78-9.84,1.83-1.22,4.94.37,6.18-2.17,4.46-.52,7.23-4.59,10.85-6.81,2.81-1.73,6.03-2.86,8.72-4.93,6.99-5.4,14.63-9.65,21.05-15.98,6.53-2.92,11.76-8.11,17.46-12.4,7.06-5.32,15.17-8.87,21.8-14.89,7.54-2.89,13.06-9.72,20.56-12.68,4.26-4.58,10.91-4.69,15.45-8.74,3,.11,4.71-3.32,7.46-4,1.75-.43,3.33-1.41,5.04-2.03,1.89-.68,3.64-.97,5.31-2.51,1.33-1.22,4.09.07,5.16-2.17.05-.11.44.21.6.15,4.17-1.4,8.19-3.24,12.39-4.56,6.96-2.19,13.7-5.25,20.88-6.73,7.11-1.46,14.16-3.09,21.15-5.04,2.04-.57,4.1.47,6.1.4,1.84-.06,3.51-2.22,5.5-.55,4.21-1.27,8.53.13,12.78.08.64,0,1.14.36,2.1.13.87.66,2.28.84,3.23,1.57.21.85.05,1.62.27,2.5-2.59,1.86-5.32,3.49-7.85,5.43-1.08.83-1.99,2.03-2.92,3.08-5.64,6.39-11.93,12.08-16.3,19.84-7.55,7.57-11.56,17.99-16.1,27.89-3.45,7.53-6.32,15.46-8.75,23.67-2.19,7.41-3.92,15-6.18,22.37-1.69,5.52-4.21,10.74-6.23,16.1-1.52,4.04-2.85,8.04-4.65,12.37,1.1-.27,2.11-.22,2.99-.87,2.4-1.77,4.9-3.19,7.55-4.36,1.53-.68,2.94-1.64,4.45-2.36,1.52-.72,3.47.26,4.36-1.98.08-.21,1,.08,1.32,0,2.25-.58,4.22-1.59,6.27-2.94,1.76-1.16,4.56-.44,6.22-2.28.48-.54,1.31-.82,2.1-1.01,8.3-2.04,16.69-3.69,25.04-5.53,3.26-.72,6.7-.39,10.02-.68,3.54-.3,7.05-.58,10.56-.52,3.79.07,7.65-.56,11.48.37.74.18,1.49.37,2.26.23,4.68-.88,9.27-.42,14.04.57,2.69.56,5.54.54,8.16.22,5.05-.61,10.04,1.24,15.07,1.24,2.21,0,4.58.18,6.82.63,2.28.45,4.58.44,6.77.83,4.2.75,8.37,1.34,12.54,2.28,6.62,1.5,13.39.14,20.01,1.83,1.75.45,3.4-.66,5.45.11,1.53.58,3.42.48,5.07.24,1.84-.26,3.49,0,5.38-.73,1.33-.51,3.33.19,4.64.5,2.08.5,3.72-.22,5.53-.55,3.15-.58,6.39-.28,9.73.69-.39,3.44-3.19,3.77-4.99,4.89-1.41.88-3.18.86-4.53,2.31-1,1.08-2.7.63-3.88,2.25-.97,1.33-4.15-.16-4.97,2.13-.04.1.09.12-.07.18-3.85,1.33-7.56,3.11-11.43,4.38-5.25,1.72-10.95,2.29-15.97,4.58-5.16,2.35-10.2,4.96-15.1,7.82-3.42,1.99-7.28,3.06-10.62,5.3-3.26,2.19-6.95,3.79-10.43,5.57-6.12,3.13-10.78,8.54-16.32,12.55-4.18,3.03-8.34,6.15-12.67,8.93-1.26.81-2.04,2.32-3.15,3.39-7.3,7.09-15.7,12.75-22.82,20.1-6.72,6.93-13.95,13.37-19.93,21.16-3.1,4.05-6.82,7.38-9.92,11.37-3.13,4.03-6.28,7.91-9.63,11.68-3.34,3.77-7.31,6.71-10.64,10.41-3.46,3.83-6.47,8.09-10.34,11.39-8.26,7.04-16.01,14.88-25.25,20.45-3.34,4.03-7.97,5.95-11.64,9.55-2.17,2.12-5.36,2.96-8,4.47-3.57,2.04-7.23,3.99-10.8,6.02-.87,2.77-4.38.8-5.27,3.54-2.79.03-4.62,2.63-7.13,3.42-1.77.55-3.96.16-5.48,1.6-1.2,1.13-3.48.07-4.37,2.27-3.1.08-5.12,2.94-8.03,3.63-8.01,1.88-15.81,5.1-23.94,6.15-9.07,1.17-17.79,3.4-26.74,4.8-5.23.82-10.75.78-16.09,1.17-2.61-1.95-5.1,1.63-7.72-.25-3.75,1.32-7.87-.41-11.66.99-1.96.72-4.22.53-6.34.86-2.07.32-4.23,1.44-5.91.71-2.35-1.02-4.08.97-6.4-.29-1.5-.82-3.73,1.45-5.66.15-4.68.81-9.47.43-14.2.47-4.43.04-8.79.13-13.25-.5-3.47-.49-6.89-1.17-10.45-1.11-3.59.07-7.15-.08-10.82-.84-1.34-.28-2.91.82-4.25.52-5.02-1.11-9.98-.05-15-.78-4.52-.66-8.98-1.65-13.5-2.08-3.33-.32-6.68-.31-10.01-.59-1.51-.13-3.01-.19-4.5-.55-4.03-.96-8.08-.45-11.92.16-4.92.77-9.69,1.66-14.79,1.46-3.01-.12-6.25.45-9.31.66-10.82.74-20.89,4.58-31.38,6.61-4.49.87-8.58,3.27-12.86,4.8-5.58,1.99-10.78,5.31-16.49,7.16-1.16,2.15-3.91,1.3-5.18,2.97-1.39,1.82-3.65.96-5.12,2.98-1.1,1.51-3.97,1.24-5.33,2.63-1.49,1.52-3.63,1.54-4.58,3.78-3.26.55-5.89,2.87-8.83,3.9-5.27,1.83-9.63,5.37-14.12,8.47-4.99,3.44-10.38,6.22-15.15,10.1-5.08,4.14-10.76,7.37-16.1,11.14-6.23,4.39-12,9.51-18.76,12.97-2.64,1.35-4.89,3.44-7.17,5.48-3.78,3.38-7.77,6.46-11.81,9.44-1.1.81-2.46,1.2-3.69,2.37ZM141.68,470.63c1.16,5.64,5.29,9.94,7.94,14.65,5.23,9.3,10.1,18.84,15.75,27.87,1.87,3,3.75,6.04,5.34,9.2,2.77,5.52,5.63,10.92,9.39,15.7.92,1.17,2.01,2.32,2.74,3.66,3.04,5.51,5.35,11.44,8.4,16.95,2.38,4.31,6.55,7.53,8.46,12.19.72,1.75.93,3.9,1.95,6.37,1.04-1.88,1.93-3.48,2.53-4.56-.22-.9-.17-1.44-.36-1.7-4.16-5.48-6.88-12.06-11.15-17.49-1.72-2.19-3.12-4.9-4.34-7.55-1.3-2.82-3.02-5.26-3.9-8.44-.77-2.76-2.7-5.15-3.97-7.78-1.73-3.58-3.18-7.45-5.15-10.73-2.95-4.93-4.53-10.47-7.01-15.57-2.06-4.24-3.19-8.96-5.29-13.19-.98-1.97-2.89-3.48-3.78-5.49-2.71-6.12-5.52-12.25-8.29-18.47,1.21,1.01,2.79,1.12,3.65,3.04.73,1.65,2.84,2.54,3.96,4.01,9,11.79,10.1,13.68,16.04,25.92,1.34,2.76,2.23,5.77,3.86,8.33,1.02,1.6,1.82,3.23,2.7,4.91,1.41,2.71,3.08,5.38,4.79,7.84,3.75,5.39,6.08,11.84,10.11,17,.55.71.26,2.29,2.6,1.89-.27.09-.67.08-.94.16.29.67.42,1.58.71,2.25.19-.08.91-.41,1.11-.49-.22-.68-.94-1.25-1.89-1.72-.32-3.13-2.01-5.54-3.48-8.12-.25-.44.03-1.08-.09-1.53-1.65-6.36-6.76-11.19-7.88-17.8-2.52-2.4-2.82-6.22-4.58-9.15-1.76-2.92-2.38-6.57-3.67-9.86-.57-1.44-1.54-2.69-1.94-4.16-.77-2.76-2.4-5.08-3.64-7.55-3.45-6.85-8.26-12.71-11.63-19.67-.72-1.5-1.25-2.95-1.92-4.38,2.92,1.68,3.88,5.32,5.59,8.02,4.13,6.56,8.27,13.13,12.47,19.64,1.66,2.56,3.48,4.98,4.99,7.52,2.75,4.62,6.37,8.51,9.46,12.91.09-.97,0-1.85-.36-2.6-1.68-3.36-3.57-6.61-5.26-9.97-2.77-5.51-6.05-10.75-8.67-16.37-1.38-2.97-2.46-6.06-4.22-8.81-2.31-3.6-3.41-7.92-5.27-11.78-1.86-3.86-4.25-7.45-6.27-11.21-.88-1.63-1.63-3.27-2.37-4.95-2.51-5.67-6.01-10.73-9.23-15.94-3.01-4.88-5.62-10.02-8.88-14.73-2.21-3.19-5.17-5.85-7.18-9.09-2.8-4.52-5.66-8.85-8.76-13.18.03,1.34.21,2.72.89,3.54,2.43,2.93,3.27,6.82,5.28,9.99,2.08,3.27,3.23,7.16,5.03,10.65,2.21,4.28,4.72,8.43,6.86,12.73,2.82,5.66,5.58,11.25,6.93,17.56-.72-.36-2.06-.41-2.33-1.01-1.99-4.39-5.06-7.99-7.35-12.17-3.33-6.08-6.06-12.64-10.65-17.77-.65-.73-1.52-1.37-2.09-2.2-2.28-3.32-3.97-7.07-6.49-10.21-2.71-3.38-4.04-8-7.47-10.75-3.68-7.13-8.6-13.19-13.46-20.78.27,1.8.47,2.46.79,2.96,3.02,4.69,4.74,10.23,7.67,14.99,2.66,4.32,5.61,8.53,7.83,13.13,2.24,4.64,4.73,9.04,6.78,13.82,1.39,3.24,4.24,5.74,5.89,8.88,2.24,4.25,4.06,8.76,6.12,13.12.78,1.66,1.5,3.09,2.27,4.76-2.29-2.18-4.88-4.05-6.14-6.83-1.29-2.84-2.69-5.33-3.51-8.53-.49-1.9-2.51-3.37-3.78-4.84-2.77-3.19-4.3-7.38-6.51-10.94-4.46-7.18-9.13-14.12-14.18-20.8-.8-1.06-1.08-2.56-1.79-3.7-2.94-4.73-5.68-9.69-8.67-14.47-.97,2.05,1.03,3.09,1.28,4.39.67,3.47,3.39,5.68,4.57,8.75,1.26,3.27,3.13,5.95,4.82,8.9,3.13,5.44,5.65,11.25,8.51,16.83,2.26,4.41,4.72,8.8,6.77,13.37.49,1.08,1.63,1.95,1.91,3.06,1.5,6.07,4.21,11.4,7,16.75,3.05,5.85,7.36,11.12,8.65,17.86.3,1.56.61,2.99,1.49,4.4,1.44,2.3,1.87,5.27,2.92,7.89.13.32.57.43.95.64ZM124.1,384.29c-.1.03-.15.31-.26.34.09.36-.17.63-.08.99.1-.03.13.02.23,0-.09-.36.2-.97.11-1.33Z"/>
          <path class="cls-5" d="M206.9,580.13c-1.71.42-3.57,1.82-5.83,2.38-2.45-1.17-4-3.8-5.47-6.59-3.07-5.86-6.83-11.22-9.97-17.09-1.21-2.26-2.11-4.75-3.48-6.86-1.41-2.16-3.34-4.01-4-6.64-.11-.44.03-1.11-.27-1.52-1.78-2.43-4.08-4.53-6.13-6.61-2.24-2.27-1.7-6.36-4.08-8.39-4.2-9.02-10.41-16.66-14.91-25.46-3.27-6.39-6.9-12.53-10.17-18.93-2.1-4.11-4.12-8.29-6.31-12.34-1.55-2.85-2.93-5.73-4.73-8.53-1.69-2.63-2.9-5.85-4.38-8.73-2.5-4.87-4.93-9.81-7.66-14.51-1.98-3.41-3.72-6.96-5.45-10.47-2.73-5.55-5.05-11.32-8.18-16.6-1.55-2.62-2.53-5.57-4.47-8.04-1.82-2.32-3.19-5.26-4.6-8.01-1.09-2.12-2.24-4.17-3.52-6.16-2.32-3.61-3.19-8.04-5.12-11.87-.38-.75-1.54-1.09-1.92-1.84-.32-.63-.64-1.29-1.1-2.69-.25-.13-.47-.89-1.19-1.34-2.08-1.33-3.19-3.11-3.64-5.75-.52-3.06-2.55-5.39-4.6-7.93.19-.49,1.13-1.15,1.15-1.79.08-2.55.5-4.18,2.87-4.9.67-.21,1.65-1.03,2.2-1.65,4.37-4.9,9.4-8.93,14.18-13.28,1.93-1.76,3.01-4.65,5.8-5.17,5.54-5.4,11.82-9.55,17.72-14.39,2.54-2.09,5.48-4.07,8.6-5.37,2.76-1.15,5.66-2.25,8.23-3.89,2.17-1.38,3.96-3.4,6.13-4.76,2.06-1.29,4.59-1.64,6.23-3.7,5.71-1.04,9.72-6.15,15.47-7.08,1.24-1.8,4.12-1.37,5.01-2.67,1.43-2.12,3.9-.95,5.15-3.03,1.04-1.72,3.81-.13,4.63-2.62,4.49-.79,8-3.97,12.04-5.86,4.7-2.19,9.74-3.67,14.3-6.29,3.38-1.94,7.38-2.53,10.93-4.17,10.29-4.75,21.56-5.77,32.33-8.7,10.74-2.92,21.46-5.9,32.3-8.42,3.33-.78,6.87-.62,10.24-1.26,3.33-.63,6.54-2.36,9.87-2.28,3.92.09,7.39-1.46,11.1-2.05,1.8-.29,3.68-.24,5.49-.46,1.83-.23,3.54-.23,5.56.33,1.75.48,3.54-1.21,5.61-.86,2.14.36,4.66.7,6.88.31,4.89-.86,9.76-.53,14.64-.37,3.61.12,7.26.83,10.89.91,8.03.17,16.11-.28,24.15,1.03,2.26.37,4.54.24,6.77.74,5.37,1.19,10.77,2.46,16.11,3.83,2.08.53,4.15,1.07,6.24,1.5,3.1.64,5.69,2.65,8.56,4.24,4.1,2.27,8.67,3.51,12.9,5.46,1.74.8,3.4,1.73,5.16,2.46,1.16.48,2.38,1,3.52.97,4-.09,7.93,1.11,11.78,2.2,7,1.99,13.93,3.8,20.88,1.8,2.09-.6,4.12-.05,6.31-.88,1.97-.74,4.33-1.77,6.73-.64.75.35,1.65-.22,2.59-.45,7.2-1.77,14.46-3.32,21.7-4.95,7.31-1.65,13.53-5.68,19.78-9.84,1.83-1.22,4.94.37,6.18-2.17,4.46-.52,7.23-4.59,10.85-6.81,2.81-1.73,6.03-2.86,8.72-4.93,6.99-5.4,14.63-9.65,21.05-15.98,6.53-2.92,11.76-8.11,17.46-12.4,7.06-5.32,15.17-8.87,21.8-14.89,7.54-2.89,13.06-9.72,20.56-12.68,4.26-4.58,10.91-4.69,15.45-8.74,3,.11,4.71-3.32,7.46-4,1.75-.43,3.33-1.41,5.04-2.03,1.89-.68,3.64-.97,5.31-2.51,1.33-1.22,4.09.07,5.16-2.17.05-.11.44.21.6.15,4.17-1.4,8.19-3.24,12.39-4.56,6.96-2.19,13.7-5.25,20.88-6.73,7.11-1.46,14.16-3.09,21.15-5.04,2.04-.57,4.1.47,6.1.4,1.84-.06,3.51-2.22,5.5-.55,4.21-1.27,8.53.13,12.78.08.64,0,1.14.36,2.1.13.87.66,2.28.84,3.23,1.57.21.85.05,1.62.27,2.5-2.59,1.86-5.32,3.49-7.85,5.43-1.08.83-1.99,2.03-2.92,3.08-5.64,6.39-11.93,12.08-16.3,19.84-7.55,7.57-11.56,17.99-16.1,27.89-3.45,7.53-6.32,15.46-8.75,23.67-2.19,7.41-3.92,15-6.18,22.37-1.69,5.52-4.21,10.74-6.23,16.1-1.52,4.04-2.85,8.04-4.65,12.37,1.1-.27,2.11-.22,2.99-.87,2.4-1.77,4.9-3.19,7.55-4.36,1.53-.68,2.94-1.64,4.45-2.36,1.52-.72,3.47.26,4.36-1.98.08-.21,1,.08,1.32,0,2.25-.58,4.22-1.59,6.27-2.94,1.76-1.16,4.56-.44,6.22-2.28.48-.54,1.31-.82,2.1-1.01,8.3-2.04,16.69-3.69,25.04-5.53,3.26-.72,6.7-.39,10.02-.68,3.54-.3,7.05-.58,10.56-.52,3.79.07,7.65-.56,11.48.37.74.18,1.49.37,2.26.23,4.68-.88,9.27-.42,14.04.57,2.69.56,5.54.54,8.16.22,5.05-.61,10.04,1.24,15.07,1.24,2.21,0,4.58.18,6.82.63,2.28.45,4.58.44,6.77.83,4.2.75,8.37,1.34,12.54,2.28,6.62,1.5,13.39.14,20.01,1.83,1.75.45,3.4-.66,5.45.11,1.53.58,3.42.48,5.07.24,1.84-.26,3.49,0,5.38-.73,1.33-.51,3.33.19,4.64.5,2.08.5,3.72-.22,5.53-.55,3.15-.58,6.39-.28,9.73.69-.39,3.44-3.19,3.77-4.99,4.89-1.41.88-3.18.86-4.53,2.31-1,1.08-2.7.63-3.88,2.25-.97,1.33-4.15-.16-4.97,2.13-.04.1.09.12-.07.18-3.85,1.33-7.56,3.11-11.43,4.38-5.25,1.72-10.95,2.29-15.97,4.58-5.16,2.35-10.2,4.96-15.1,7.82-3.42,1.99-7.28,3.06-10.62,5.3-3.26,2.19-6.95,3.79-10.43,5.57-6.12,3.13-10.78,8.54-16.32,12.55-4.18,3.03-8.34,6.15-12.67,8.93-1.26.81-2.04,2.32-3.15,3.39-7.3,7.09-15.7,12.75-22.82,20.1-6.72,6.93-13.95,13.37-19.93,21.16-3.1,4.05-6.82,7.38-9.92,11.37-3.13,4.03-6.28,7.91-9.63,11.68-3.34,3.77-7.31,6.71-10.64,10.41-3.46,3.83-6.47,8.09-10.34,11.39-8.26,7.04-16.01,14.88-25.25,20.45-3.34,4.03-7.97,5.95-11.64,9.55-2.17,2.12-5.36,2.96-8,4.47-3.57,2.04-7.23,3.99-10.8,6.02-.87,2.77-4.38.8-5.27,3.54-2.79.03-4.62,2.63-7.13,3.42-1.77.55-3.96.16-5.48,1.6-1.2,1.13-3.48.07-4.37,2.27-3.1.08-5.12,2.94-8.03,3.63-8.01,1.88-15.81,5.1-23.94,6.15-9.07,1.17-17.79,3.4-26.74,4.8-5.23.82-10.75.78-16.09,1.17-2.61-1.95-5.1,1.63-7.72-.25-3.75,1.32-7.87-.41-11.66.99-1.96.72-4.22.53-6.34.86-2.07.32-4.23,1.44-5.91.71-2.35-1.02-4.08.97-6.4-.29-1.5-.82-3.73,1.45-5.66.15-4.68.81-9.47.43-14.2.47-4.43.04-8.79.13-13.25-.5-3.47-.49-6.89-1.17-10.45-1.11-3.59.07-7.15-.08-10.82-.84-1.34-.28-2.91.82-4.25.52-5.02-1.11-9.98-.05-15-.78-4.52-.66-8.98-1.65-13.5-2.08-3.33-.32-6.68-.31-10.01-.59-1.51-.13-3.01-.19-4.5-.55-4.03-.96-8.08-.45-11.92.16-4.92.77-9.69,1.66-14.79,1.46-3.01-.12-6.25.45-9.31.66-10.82.74-20.89,4.58-31.38,6.61-4.49.87-8.58,3.27-12.86,4.8-5.58,1.99-10.78,5.31-16.49,7.16-1.16,2.15-3.91,1.3-5.18,2.97-1.39,1.82-3.65.96-5.12,2.98-1.1,1.51-3.97,1.24-5.33,2.63-1.49,1.52-3.63,1.54-4.58,3.78-3.26.55-5.89,2.87-8.83,3.9-5.27,1.83-9.63,5.37-14.12,8.47-4.99,3.44-10.38,6.22-15.15,10.1-5.08,4.14-10.76,7.37-16.1,11.14-6.23,4.39-12,9.51-18.76,12.97-2.64,1.35-4.89,3.44-7.17,5.48-3.78,3.38-7.77,6.46-11.81,9.44-1.1.81-2.46,1.2-3.69,2.37ZM141.68,470.63c1.16,5.64,5.29,9.94,7.94,14.65,5.23,9.3,10.1,18.84,15.75,27.87,1.87,3,3.75,6.04,5.34,9.2,2.77,5.52,5.63,10.92,9.39,15.7.92,1.17,2.01,2.32,2.74,3.66,3.04,5.51,5.35,11.44,8.4,16.95,2.38,4.31,6.55,7.53,8.46,12.19.72,1.75.93,3.9,1.95,6.37,1.04-1.88,1.93-3.48,2.53-4.56-.22-.9-.17-1.44-.36-1.7-4.16-5.48-6.88-12.06-11.15-17.49-1.72-2.19-3.12-4.9-4.34-7.55-1.3-2.82-3.02-5.26-3.9-8.44-.77-2.76-2.7-5.15-3.97-7.78-1.73-3.58-3.18-7.45-5.15-10.73-2.95-4.93-4.53-10.47-7.01-15.57-2.06-4.24-3.19-8.96-5.29-13.19-.98-1.97-2.89-3.48-3.78-5.49-2.71-6.12-5.52-12.25-8.29-18.47,1.21,1.01,2.79,1.12,3.65,3.04.73,1.65,2.84,2.54,3.96,4.01,9,11.79,10.1,13.68,16.04,25.92,1.34,2.76,2.23,5.77,3.86,8.33,1.02,1.6,1.82,3.23,2.7,4.91,1.41,2.71,3.08,5.38,4.79,7.84,3.75,5.39,6.08,11.84,10.11,17,.55.71.26,2.29,2.6,1.89-.27.09-.67.08-.94.16.29.67.42,1.58.71,2.25.19-.08.91-.41,1.11-.49-.22-.68-.94-1.25-1.89-1.72-.32-3.13-2.01-5.54-3.48-8.12-.25-.44.03-1.08-.09-1.53-1.65-6.36-6.76-11.19-7.88-17.8-2.52-2.4-2.82-6.22-4.58-9.15-1.76-2.92-2.38-6.57-3.67-9.86-.57-1.44-1.54-2.69-1.94-4.16-.77-2.76-2.4-5.08-3.64-7.55-3.45-6.85-8.26-12.71-11.63-19.67-.72-1.5-1.25-2.95-1.92-4.38,2.92,1.68,3.88,5.32,5.59,8.02,4.13,6.56,8.27,13.13,12.47,19.64,1.66,2.56,3.48,4.98,4.99,7.52,2.75,4.62,6.37,8.51,9.46,12.91.09-.97,0-1.85-.36-2.6-1.68-3.36-3.57-6.61-5.26-9.97-2.77-5.51-6.05-10.75-8.67-16.37-1.38-2.97-2.46-6.06-4.22-8.81-2.31-3.6-3.41-7.92-5.27-11.78-1.86-3.86-4.25-7.45-6.27-11.21-.88-1.63-1.63-3.27-2.37-4.95-2.51-5.67-6.01-10.73-9.23-15.94-3.01-4.88-5.62-10.02-8.88-14.73-2.21-3.19-5.17-5.85-7.18-9.09-2.8-4.52-5.66-8.85-8.76-13.18.03,1.34.21,2.72.89,3.54,2.43,2.93,3.27,6.82,5.28,9.99,2.08,3.27,3.23,7.16,5.03,10.65,2.21,4.28,4.72,8.43,6.86,12.73,2.82,5.66,5.58,11.25,6.93,17.56-.72-.36-2.06-.41-2.33-1.01-1.99-4.39-5.06-7.99-7.35-12.17-3.33-6.08-6.06-12.64-10.65-17.77-.65-.73-1.52-1.37-2.09-2.2-2.28-3.32-3.97-7.07-6.49-10.21-2.71-3.38-4.04-8-7.47-10.75-3.68-7.13-8.6-13.19-13.46-20.78.27,1.8.47,2.46.79,2.96,3.02,4.69,4.74,10.23,7.67,14.99,2.66,4.32,5.61,8.53,7.83,13.13,2.24,4.64,4.73,9.04,6.78,13.82,1.39,3.24,4.24,5.74,5.89,8.88,2.24,4.25,4.06,8.76,6.12,13.12.78,1.66,1.5,3.09,2.27,4.76-2.29-2.18-4.88-4.05-6.14-6.83-1.29-2.84-2.69-5.33-3.51-8.53-.49-1.9-2.51-3.37-3.78-4.84-2.77-3.19-4.3-7.38-6.51-10.94-4.46-7.18-9.13-14.12-14.18-20.8-.8-1.06-1.08-2.56-1.79-3.7-2.94-4.73-5.68-9.69-8.67-14.47-.97,2.05,1.03,3.09,1.28,4.39.67,3.47,3.39,5.68,4.57,8.75,1.26,3.27,3.13,5.95,4.82,8.9,3.13,5.44,5.65,11.25,8.51,16.83,2.26,4.41,4.72,8.8,6.77,13.37.49,1.08,1.63,1.95,1.91,3.06,1.5,6.07,4.21,11.4,7,16.75,3.05,5.85,7.36,11.12,8.65,17.86.3,1.56.61,2.99,1.49,4.4,1.44,2.3,1.87,5.27,2.92,7.89.13.32.57.43.95.64ZM124.1,384.29c-.1.03-.15.31-.26.34.09.36-.17.63-.08.99.1-.03.13.02.23,0-.09-.36.2-.97.11-1.33Z"/>
        </g>
        <path d="M84.21,373.29c-2.57-5.65-9.37-28.17-14.27-31.55,1.63-18.3-7.09-34.75-26.67-36.32-37.76-3.03-45.62,48.82-11.94,59.94-.23,8.95,3.12,18.79,12.42,21.58,7.7,2.31,6.49-1.24,11.84,7.16,17.03,26.7,33.81,59.54,49.37,87.63,24.67,44.53,47.76,89.95,72.63,134.38l.19,2.29c-14.79-.48-27.83-5.03-39.03,7.47-8.33,9.3-20.75,45.17-18.32,57.39,1.94,9.79,10.98,18.34,7.09,28.38-5.52,14.25-16.9,21.32-11.45,39.98,2.68,9.17,16.75,21.44,17.67,26.33,1.41,7.52-5.03,20.06-3.94,30.94,2.11,21.04,26.3,25.88,27.99,41.01,1.15,10.27-1.63,18.94,2.51,29.49,2.94,7.5,24.16,25.33,31.81,28.19,5.69,2.13,11.49,1.76,17.46,3.54,6.41,1.91,11.86,5.69,18.97,7.03,7.5,1.41,16.01.22,23.22,2.78,6.75,2.39,17.13,13.2,21.73,14.27,5.1,1.18,13.22-1.6,19.71-.7,4.63.64,11.57,4.67,16.82,6.18,17.41,4.98,31.11,1.44,48.56.94l50.71,85.78,8.49,1c.09-2.38-.88-4.56-1.82-6.67-4.66-10.43-14-24.59-20-35-27.01-46.82-55.49-92.84-82.07-139.93-1.27-2.56-2.21-6.29.4-8.38l110.4,188.33,8.1.64c-27.39-48.93-57.56-96.26-85.8-144.68-13.4-22.97-28.22-46.33-39.73-70.27-4.23-8.79-1.64-11.81,4.04-19.02l138.49,234.53,8-1.04-49.98-86.03c-.23-1.67-.07-1.59,1.49-1.51,4.64.26,17.38,4.88,22.17,6.85,26.82,10.99,55.22,27.5,82.11,39.89,28.09,12.95,36.28,15.27,52.61,23.61l12-4.27c-20.65-12.6-17.34-10.71-45.39-33.55.78-1.5,2.41.29,3.33.67,6.85,2.89,13.28,7.01,20.19,9.82,2.97.18.76-1.13-.17-1.84-10.45-7.92-24.25-13.5-35.66-20.34-16.64-9.99-32.71-21.98-50-31-10.64-5.55-21.92-9.47-32.97-14.03-1.27-.53-3.14-1.84-.21-1.8,29.43,7.81,53.63,26.76,79.82,41.2,10.3,5.68,21.17,10.03,31.35,15.65,35.92,19.86,43.32,26.27,53.81,21.27l-22.36-17.31c-51.69-35.85-63.79-46.8-120.1-75.31-3.03-1.53-14.99-5.91-16.05-6.95-1.6-1.56-1.77-12.9.6-13.47,2.24-.54,9.34,3.13,7.44,6.94,2.2-.81.45-4.98,4.47-3.98l2.53,6.98c3.7,1.07,1.24-4.21,1.99-5,8.56-.57,2.27,6.34,7.5,9.99,1.55-.77-1.07-9.18,1.98-7.98,4.21,2.97,1.49,8.84,4.51,12.98-9.34-3.24-19.12-10.28-28.52-12.98-1.74-.5-2.07.79-1,2,1.52,1.72,23.72,10.54,28.19,12.81,16.1,8.18,36.01,23.92,50.85,30.16.45.19,1.64.26,1.48-.48-4.82-5.93-2.49-14.74-2-22.02.1-1.49-.77-2.9,1.49-2.47,5.35,2.08.29,21.07,1.01,26.04l13.01,8.95c.2-8.77-1.15-17.68-.51-26.51.39-5.32,2.91-1.15,4.76,1.13-2.36,8.44,1.45,18.15-2.53,25.9l5.29,4.48c3.05.25.5-1.03.48-1.49-.41-8.83,0-18.11,0-27,0-.4-2.57-1.76.48-1.49l4.52,4.53-1.6,27.01,3.11,3.44,1.53-9.45-.04-21.53c6.09.69,4.14,13.52,4.04,18.54-.14,6.72-4.64,15.29,3.96,18.46v-33c1.33-.25,2.32.43,3.06,1.44,3.37,4.64-1.05,24.22-.1,31.11.29,2.12.72,3.17,2.56,4.44,2.25.42,1.39-.98,1.49-2.47.29-4.37-.23-8.69,1.07-13.01l-1.03-18.97c-9.34-5.35-18.57-11.01-28.16-15.92-26.32-13.47-55.86-25-81.41-39.59-.87-.5-5.15-2.98-5.32-3.24-.29-.43-.39-8.6-2.66-9.78l-.5,6.99c-2,2.23-4.02-5.38-4.19-9.17l-.81,8.17c-2.57.46-1.79-.42-2.44-2-1.26-3.06-1.71-6.69-1.56-9.99l-2.49,9.99c-2.96-2.75-2.7-7.29-3.52-10.99l-2,6.99c-4.13-1.83-.05-7.99-3.49-10.99l-.5,7.99-2.49-4-1.99,4-6.5-6.99c.41,7,4.12,13.96,4.87,20.63,2.58,23.25-11.43,41.18-30.85,51.37-4.99-8.41,1.42-10.33,6.48-15.99l-2.01,6.99c13.72-7.66,17.86-26.9,14.21-41.2-.33-1.28-1.41-5.33-2.71-5.79v17.5c0,3.03-4.39,14.85-6.99,17.5,2.41-9.46,5.25-19.35,2.49-29l-3.49-6.99c2.72,13.8.12,28.06-7.99,39.52-1.25,1.76-2.39,4.72-5.02,4.47,1.74-3.95,4.53-7.24,6.18-11.31,4.59-11.35,3.84-22.61-1.19-33.67-1.88-.21-.77,2.02-.54,3.04.68,3.12,2.09,6.15,2.17,9.62.18,7.66-4.19,21.55-10.61,26.33.67-3.67,3.19-6.57,4.29-10.2,3.03-9.97,1.6-18.04-3.82-26.79-2.12-2.13-1.57-.61-1.1,1.1,3.07,11.25,4.14,18.47-2.88,28.86l.44-17.42-2.95-7.55-.26,13.23c-.15,1.06-1.51,7.88-3.24,4.78l-.49-7.01-.97,2.29-2,.71-29.01-49.5,9.99,4.01c-2.61-3.24-6.43-4.96-9.67-7.33-1.23-.9-2.82-1.02-2.32-3.17.32-.32,7.31,2.67,8.52,2.98,2.91.75-.17-1.99.98-1.99l9.49,2c.23-1.44-1.69-1.31-2.74-1.73-4.53-1.79-9.52-2.57-13.85-4.16-1.45-.53-2.84-.53-.89-2.12,14.61,2.34,28.87,5.12,42.49,11-.25-1.54-1.86-1.89-3.01-2.48-9.58-4.89-20.47-8.4-30.99-10.53-.35-2.61.29-2.05,2.39-1.89,6.36.49,19.89,4.55,26.15,6.86,6.7,2.47,12.77,6.59,19.46,9.03-2.94-4.47-8.54-6.82-13.02-9.51-1.27-.76-2.53.2-1.97-2.48,3.06-.39,6.42,2.61,9.33,2.02.7-.14.53-1.75,1.37-1.99,3.48-.97,8.36-1.14,12.51-2.32,4.52-1.29,8.91-2.94,13.26-4.72l2.52,5.99c-1.38-10.79,8.45-17.79,11.74-27.77,1.27-3.83,2.11-8.27,1.26-12.22l-9.16,15.32c-4.84,6.04-14.88,13.64-22.82,13.18,19.89-8.89,29.97-27.99,28.99-49.5l-4.24,15.24c-5.25,15.74-17.01,27.83-31.25,35.75-1.69-1.17.32-2.13,1.16-2.84,2.54-2.12,6.18-3.89,8.81-6.19,12.15-10.6,18.53-25.97,19.52-41.97l-7.47,18.02c-4.27,8.1-14.09,21.39-21.99,26.01-4.1,2.4-9.17,3.03-13.03,5.97-.69.22-.72-1.03-.49-1.48.7-1.33,14.12-7.44,17.48-10.52,12.56-11.5,20.29-33.24,20.5-49.99l-5.51,18.98c-6.42,15.37-24.24,37.37-41.23,40.77-1.1.22-3.59.82-4.25-.25,5.8-3.4,12.33-5.23,17.93-9.07,14.47-9.95,24.07-31.34,26.06-48.43l-5.44,14.04c-7.92,16.53-26.86,37.61-45.28,41.72-.98.22-4.45,1.1-4.25-.75,24.93-7.32,42.68-29.02,47.98-54.01l-5.82,11.67c-8.04,14.72-30.44,37.84-47.77,39.24-2.1.17-2.75.69-2.4-1.9,24.6-5.49,44.34-27.94,49.99-52l-12.01,19.47c-9.91,11.18-23.18,23.99-37.99,28.01-2.26.61-11.51,3.81-10.99-.49,25.82-3.02,47.26-26.58,55.99-50-15.16,22.32-34.9,42.86-62.98,47-.51-2.83.67-1.65,2.19-2.25,6.9-2.74,13.97-4.87,20.47-8.57,15.61-8.89,28.87-24.4,35.32-41.17-14.8,21.37-35.93,42.02-62.99,44.99l21.67-9.82c12.77-7.96,25.33-17.92,31.32-32.17-14.32,15.96-32.33,29.42-52.99,35.99,12.22-8.96,26.27-15.54,37.03-26.46,1.04-1.05,6.66-7.39,6.96-8.05.2-.43.25-1.64-.49-1.48-13.19,11.91-29.85,22.9-46.5,28.98,2.38-3.62,7.36-5.16,10.91-7.58,8.18-5.56,21.93-15.53,28.09-22.91.94-1.12,2.43-1.62,1.99-3.5-13.41,9.96-27.34,19.8-42.99,25.99-.46-2.09,1.08-2.27,2.27-3.22,11.77-9.37,26.49-16.07,35.72-28.77l-24.33,16.16-17.67,7.82,38-30.98-23.69,15.8-17.3,8.19,30.99-25.99-34,18.98,31-25.98-32.99,18.99c-1.09-1.08,4.04-5.65,4.98-6.51,7.7-7.14,17.63-11.94,25.01-19.48l-31.51,17.98c-1.14-2,3.12-5.29,4.49-6.51,6.89-6.11,15.48-10.84,22.01-17.48l-30,15.98c.34-1.14.93-2.15,1.76-3.01,5.36-5.58,16.13-12.62,22.56-18.15.87-.75,3.26-1.95.2-1.81-4.32,2.3-9.82,4.53-13.85,7.16-1.66,1.09-12.76,10.76-13.67,9.82-.43-1.88,1.06-2.37,1.99-3.5,5.81-6.97,13.49-12.72,20-19-1.36-1.23-4.02,1-5.29,1.71-5.81,3.23-12.11,7.49-17.21,11.79-.7-1.84,2.85-5.86,3.98-7.02,8.26-8.53,21.58-14.47,30.54-22.46,2.48-2.21,13.04-13.75,13.88-16.13.63-1.76-2.04-2.17-2.9-1.87-1.48.53-9.58,8.77-11,7.48,8.48-7.97,10.69-18.61,9.99-29.99l-7.56,20.93-1.94,2.06c.2-4.59,2.82-9.45,3.38-14.62.13-1.18,1.03-5.36-.87-5.37-1.52,9.54-6.86,20.96-13.04,28.47-2.32,2.82-5.6,4.14-7.17,7.39-4.22-1.42-6.87,1.65-11.3,2.14-4.23.47-13.37.41-17.32-.71-1.36-.39-2.61.28-2.18-1.78l6.83-5.18,3.16-34.33c-2.88,1.44-1.65,6.49-2.25,9.24-.25,1.14-4.02,17.76-6.74,14.75,1.91-7.38,3.57-14.67,2.87-22.37-.1-1.1-.45-5.52-1.87-5.62v17.5c0,.55-1.47,2.2-1.01,3.5-1.95,2.08-2.05-13.09-2.25-14.24-.94-5.67-3.81-11.57-6.26-16.74-2.01-2.12-1.75-.66-1.06,1.06,2.23,5.49,5.19,10.83,5.57,16.92-2.65.5-1.74-.55-2.44-2-2.54-5.24-4.55-11.3-9.54-14.99,6.42,13.42,9.54,34.53,5.46,48.97-7.74,27.43-48.38,47.09-74.15,34.21-6.21-3.11-11.35-8.78-10.31-16.17,13.34,2.92,34.18,7.35,44.51-3.98,5.13-5.62,13.19-25.17,8.56-31.6-2.45-3.4-19.09-7.59-23.44-7.37-8.35.42-10.32,4.93-15.63,9.94,1.69-5.22,4.52-9.99,6.28-15.21,4.93-14.69,4.38-39.3,23.45-42.55,12.23-2.08,33.74,4.71,46.89,6.63,6.67.97,16.59,2.79,22.89,3.11,15.22.78,28.59-7.66,42.48,5.52,11.64,11.06,18.55,28.91,21.02,44.49,2.75-1.5-.73-6.6,0-8.99l2.52,2.97,3.47,18.03v-16l28.51,40.99c1.5-.78-.29-2.41-.67-3.33-.94-2.23-8.51-15.94-7.83-16.66l15.93,10.56c27.43,34.92,47.13,91.92,11.03,128.12,2.65,6.19-1.07,19.94,2.46,24.4,20.43,10.24,42.27,18.37,63.26,27.74,46.6,20.8,93.98,41.02,140,63,25.7,12.28,12.04,5.72,37.31,18.86,2.95.19,11.52,1.53,10.5.85-12.39-8.26,2.07,2.42-9.49-7.03l1.1-4.62h-1l-1.1,5.12-7-5.5v-32.5c-1.76-.22-.95,2.26-1,3.49-.39,9.49-.33,19.03-1.01,28.51-7.64-2.18-3.49-8.01-5.99-13.5l.11-9.01-1.99,10.51-1.14,5.99-3.04-.44-1.95-34.55-1.99,7.49v23.5c-2.61.36-4.53-.95-4.97-3.53l-3.24-8.47-.8,8-2.98-2.5-2.02-31.49-1.98,12.5-1.01,17.49-2.99-2.5-2.03-17-1.98,14.5h-3.99c.05-8.83-.36-17.75-.95-26.56-.11-1.71.09-3.31-1.56-4.44-1.61,7.65-.35,17.87-1.77,25.26-.91,4.75-3.72,2.57-3.72.23l1.2,3.88c0-1.21-.97-6.88-1.25-8.76-.13-.86-.45-3.01-1.74-2.73l-2.21,6.11c-1.1.18-1.9,0-2.51-.98-1.4-2.25-1.18-14.99-1.5-18.5l-1.98-10.5-2.02,25c-1.93-.27-3.99-2.66-3.99-4.5l-.75-5.74c0-.17-1.35-1.57-1.99-1.5.14,6.52.3-3.2-.22,3.29-.14,1.79.29,3.23-1.54,4.44-4.21-3.97-1.95-10.32-2.51-15.47l-1.98-11.51c-.97,6.06-.56,12.31-1.13,18.37-.1,1.09-.35,6.19-2.36,5.61-2.86-6.03-.33,2.53-1.3-4.09-.26-1.78-.7-5.11-2.74-5.76l-1.48,4.87h-2.99c-1.66-7.05-.21-14.52-2.01-21.49-.36-1.39.03-3.12-1.99-3.51v17.5c0,.75-1.66,2.92-1.01,4.5-1.35.26-2.42-.35-2.83-1.67-1.03-3.38.69,4.14,0,0-.39-2.31-.52-6.62-2.87-7.63l-1.29,4.79-2,1.01c-3.57-1.52-2.05-19.32-4.01-23.5-1.73-.24-.95,2.28-.99,3.48-.2,5.9-.8,11.64-1,17.51-1.4.28-1.64-.06-2.42-1.07-2.21-2.83-1.15,2.05-2.21-2.83-.21-.98-.35-2.99-1.73-2.76l-.63,2.66c-2.12.35-2.86-1.37-3.51-2.99-2.55-6.39.42-14.9-4.49-20.01v19c-5.7-3.48-5.99,1.69-7-4.5-.15-.91-.42-3-1.75-2.74l1.75,2.74c0,2.21-2.22,1.25-3.22-.78-2.39-4.83-2.01-13.25-2.79-18.72-.64-.07-1.99,1.33-1.99,1.5v15.5c-7.72-2.3-2.16-1.25-7-5.5h0c0,.35-.96,1.16-.95,1.88l-3.05.63c.14-4.77-.28-9.68-1.16-14.35-.23-1.24-.23-4.66-1.84-4.66v16l-3.09-.59-2.71-2.41-1.47-2.75c-.34.96-.52,3.63-2.21,2.74-1.84-.96-1.43,1.63-1.84-.96l-2.68-3.53c-3.83,7.58-5.59-6.05-5-9.49-4.36-1.53,0,10.81-3.48,8.99l-3.53-9.98-.98,7.49c-5,2.9-3.88-6.32-6.51-7.49l-2.98,5.99-2.53-6.99-2.01,4.28-2.48.74-3-5.01c-1.15,7.28-5.24.35-5.64.2-.52-.2-1.86.91-3.07.57-2.87-.79-5.56-1.94-4.97-5.06l-.82,3.29c-3.24.06-4.83-1.91-5.01-4.99l-.99,3.99-11.56-1.94c-1.35-1.94-.43-16.49.83-19.3,1.57-3.52,7.98-7.68,10.57-11.43,2.55-3.69,3.17-7.76,5.67-11.33l-3.49,17.99,3.48-2.84,40.5,13.83-38.58-15.95c-2.45-3.94,4.33-8.98,4.57-9.78,1-3.29,1.61-10.97,2-14.76l1.99-.49c13.82,19.81,35.18,34.75,57.31,44.19,4.6,1.96,8.92,1.79,14.1,4.95,23.54,14.36,58.76,23.29,85.57,33.39,23.46,8.84,46.47,19.45,70.01,27.99.94.34,3.25,1.32,3.03-.53-25.54-10.6-50.99-21.67-76.75-31.76-24.06-9.43-48.98-16.34-72.27-27.73-8.75-4.28-16.65-7.69-25.17-11.83-25.69-12.51-41.86-31-54.8-56.2l.48-1.48,21.5,14.99c-6.99-7.47-13.5-12.43-19.5-20.99-.57-.81-2.68-1.95-1-3,6.94,6.31,13.58,13.21,21.03,18.97,1.47,1.14,4.57,4.34,6.47,3.53-7.14-8.1-15.21-15.62-21.97-24.03-2.05-2.55-17.12-23.14-16.02-24.47,35.76,19.06,73.76,31.8,112.23,44.26,27.21,8.82,54.67,17.36,82.34,24.66,27,7.13,54.75,11.97,81.31,20.69,1.72.56,3.2.96,1.13-1.13-13.79-4.76-27.42-10.07-41.23-14.77-63.55-21.64-133.09-38.95-194.75-64.25-7.73-3.17-41.23-17.58-44.87-22.13-6.82-8.54-12.29-26.31-19.15-33.85-3.99-4.39-18.23-11.08-24.49-16.51-7.31-6.34-15.35-16.17-20.76-24.24-8.03-11.99-14.04-27.94-26.28-36.72-11.88-8.51-31.74-3.37-44.98-4.02-19.49-.97-43.21-9.46-61.97-10.02-13.11-.39-25.51,6.09-29.56,19.03-1.36,1.25-4.56-4.8-4.81-5.75M530.78,908.4c10.22,1.15,2.53,19.76,3.99,27-1.23-.19-3.99-3.88-3.99-4.5v-22.5ZM515.79,902.4l3.05.63c0,.71.95,1.53.95,1.88v19.5c-9.96-.6-2.02-15.45-4-22ZM507.79,899.4c.14-.19,3.99,2.05,3.99,2.5v17l-2,1.01c-6.44-4.86-.44-13.64-1.99-20.51ZM499.78,897.4h4v15.5c0,.24,2.03,1.98.49,2.51l-4.49-2.51v-15.5ZM482.79,890.4l4.06.44c2.24,1.53-.96,13.86,4.94,15.56v-14c6.35,3.13,3.57,12.84,4.99,19-2.24-3.17-11.51-5.8-13-7.49-2.23-2.52-.43-10.01-.98-13.51ZM475.79,887.41l3.05.44.79,1.21,1.14,13.35c-7.41-2.18-4.53-9.02-4.98-15ZM438.79,877.4h2.99c.55.53-.06,14.9-3.99,14l1-14ZM432.84,887.97c.62-4.05,2.31-8.61,3.44-12.57,3.72,4.13-1.63,10.26-1.51,15-2.43.38-2.25-.35-1.93-2.43ZM427.01,931.67c27.07,3.89,74.81,33.04,97.1,49.9,1.35,1.02,3.06,2.17,3.67,3.82-38.27-16.51-73.05-40.85-112.99-53.49,2.58-1.76,9.1-.68,12.22-.23ZM39.78,326.41l-7.99.98,2-9.98c-17.65,3.98-17.76,31.75-1.03,37.03l-1.47,3.94c-20.79-9.41-18.74-39.3,2.52-46.45,17.24-5.8,31.86,10.49,28.97,27.48h-3.99c.7-6.87-.76-12.88-5.51-18l3.51,9.49-3-1.49,1.01,6.48-2,.51c-1.7-7.19-11.55-1.72-16.01-5.5-2.6-2.21,2.95-2.69,2.99-4.48ZM43.84,370.76c.06,1.08,3.68,9.97.46,8.63-9.13-3.81-4.59-17.7.46-23.52,1.07-1.23,3.1-.93,3.02-2.46-3.58.44-6.81.19-9.5,2.98-.74.16-.68-1.05-.49-1.48.28-.61,9.26-8.18,10.29-8.71,11.31-5.86,28.05,3.13,27.69,16.19-1.08,1.3-6.32-5.14-7.63-5.86-9.65-5.37-24.99,2.8-24.31,14.23ZM51.99,372.67l1.29-4.24c29.08,52.37,59.67,103.9,88.67,156.31,17.32,31.31,33.46,63.48,51.56,94.44l1.27,5.22-3.94-1.55L51.99,372.67ZM138.74,803.87c.26-6.81,4.08-17.17,10.1-20.95,2.5-1.57,4.04-.47,5.96-1.91,2.17-1.63,7.88-9.92,9.49-10.6,2.04-.41,1.74.86,1.31,2.31-1.11,3.76-5.94,7.29-5.33,11.68,8.54-6.54,8.37-16.38,19.49-19.51,17.78-5.02,45.89-5.47,65.4-8.6,8.04-1.29,16.47-6.87,23.27-.53,9.64,8.98,15.51,33.59,12.07,45.88-2.58,9.24-6.17,6.41-12.97,8.03-14.51,3.47-28.93,7.32-43.53,10.47-5.82,1.26-16.55,1.72-21.61,3.43-1.39.47-1.27,2.59-2.32,2.86-14.26,3.74-23.5-13.38-26.05-24.77l-3.24-22.24c-3.82,10.09-1.53,19.93.98,29.99l-2.86-3.63-4.12-11.36c-.61,3.78,1.7,10-2,11.99l-2-4.99c.28,5.48-.31,6.41-5,8l-1-3c1.32,5.49-2.98,2.78-4.51,6.99l-1.49-1.99-.53,3.01-2.47.46c8.21,12.32,25.32,15.34,38.99,17.53.06,1.79.51,2.12-1.49,2-5.06-.3-10.47-2.85-15.53-2.5,4.57,2.37,10.02,2.55,14.82,4.24,1.61.57,2.67-.52,2.19,2.25l-18.99-1.99c.93,2.1,4.68,1.77,2.5,4.99-9.68-12.42-30.25-19.15-29.55-37.53ZM194.11,898.58c-2.34-1.06-19.49-14-21.82-16.18-6.72-6.28-7.69-21.12-2.51-28.5.84-1.19,10.77-11.16,11.52-11.48,4.78-2.05-5.17,10.46-1.53,10.98,3.44-5.93,10.79-10.8,16.05-15.45,2.91-2.57,4.14-6.73,9.27-7.73l71.17-16.87c10.77.75,17.5,24.85,17.55,33.6.02,4.21-2.13,13.69-6.1,15.89-4.21,2.33-12.49,4.18-17.6,6.4-10.37,4.51-34.56,17.76-44.79,17.22-10.03-.53-18.98-14.6-21.82-23.26l-4.72-19.78c.44,5.27-.61,11.35,0,16.5.47,3.96,3.06,8.6,3.99,12.5l-4.17-5.32-3.81-8.68-1.25,8.75c-5.25,1.51-10.55,3.71-15.43,6.08-1.06.52-4.87,2.18-4.31,3.63,13.63,15.73,33.48,18.19,52.98,13.54-8.58,7.78-21.25,13.34-32.67,8.16ZM308.77,916.4l-3.99,6.5c6.37,4.64,8.59-4.14,14-5.49l-6,8.98c6.7,1.61,8.72-4.5,13.99-6.99l-5.99,8.99c6.09,1.25,8.97-4.3,13.99-5.98l-4.99,6.99c7.52-1.18,20.5-8.65,22,3-9.62,1.81-20.7,2.98-30.49,2-10.28-1.03-21.06-9-30.12-9.93-4.94-.51-11.74,2.69-15.62,1.75-4.97-1.2-18.74-13.27-25.73-15.34-7.1-2.1-15.31-.29-21.51-1.49-2.15-.41-3.3-2.56-5.52-3.48-3.92-1.61-7.82-2.79-11.99-3.52l13.48-2.01,2.07.99-.56,4.03c10.39.9,19.56-4.7,28.99-7.98l-4.99,6.5c2.34,1.72,5.47-2.2,7-4,1.35-1.58,1.31-4.09,2.98-4.5.53,4.47-2.52,7.74-4.98,10.98l6.99,4.01c1.06-1.22-2.34-6.29.99-6.99.76,8.63,5.92,10.16,12.52,13.99l-3.5-9.99,10.49,11-.49-10,8.5,9.99-1.5-7.99c1.99-2.25,5.67,8.83,7.51,8.99l1.5-4.99c3.9-.99.42,5,3.59,5.95,2.92.87,7-4.42,7.39-3.95ZM296.78,857.92l-1.96-1,.98-14.52c3.88,1.61.17,5.97,1,8.99,1.72.23,2.22.13,3.47-1.02,4.1-3.74,5.61-24.12-.47-27.98l.98,17c-3.15-1.33-1.62-5.48-2.22-8.27-.23-1.05-1.59-5.32-2.76-5.73-.94,4.63,4.14,12.84,0,16,.64-11.21-7.03-19.23-10-29,26.37-.26,28.5,32.5,10.99,45.51ZM307.02,788.14c-2.57,7.89-13.41,14.3-20.75,17.22-2.59-.22-1.19-18.9-1.59-22.35-.56-4.81-3.2-9.31-3.91-14.09,1.29-1.19,2.91,4.42,3.06,4.94.59,2.02,2.95,10.75,2.95,12.05v14.5l5-2.51c-3.3-.85-1.79-3.57-1.99-6.49,17.94,5.9,16.49-18.23,8-27,2.02,7,5.53,12.53,3.78,20.29-.76,3.37-5.12,7.19-8.34,4.79-2.97-2.22-8.49-21.38-9.27-25.88-.65-3.76,2.11-2.58-1.05-4.81-2.82-1.99,3.81-3.22,5.38-3.2,14.42.12,22.73,20.24,18.73,32.54ZM294.77,660.4c.52,5.86-5.13,11.51-10.99,10.99l10.99-10.99ZM281.11,709.58c2.14,6.81,3.71,27.02-6.85,26.8-5.34-.11-4.63-9.83-5.3-13.57-.34-1.9-1.83-3.29-2.12-4.96-.88-5.08-.58-11.78,3.94-14.95l-1.99-.99c4.53-7.38,15.43.37,18.2,5.8,2.46,4.82,3.26,14.62,2.54,19.94-1.64,12.13-11.66,19.47-23.64,18.66l-.09-13.9,2.53,10.02c4.87-1.36,11.53-3.12,14.31-7.67,3.96-6.49,3.7-25.63-3.84-30.35-.08,2.08,1.67,3.13,2.31,5.18ZM261.78,713.4l.99,18-2.99-16.51,2-1.49ZM243.32,719.44c2.61-.9,12.25-6.79,13.41-5.99,3.6,6.65,7.28,32.78-.19,36.21-3.23,1.48-4.73-.14-7.09.11-24.04,2.6-49.3,7.59-73.18,9.61-11.77,1-15.77-7.44-20.27-16.71l-6.23-21.27v14.5c0,.77,1.72,2.87.99,4.5-.91,1.21-3.99-8.71-3.99-9.5,0-5.14-.41-10.99,0-16,.08-.97,2.09-3.42,2.01-4.99-1.01-4.1-2.9,3.83-2.92,4.09-.68,8.2-1.31,16.26-2.1,24.42l-1.99-1.02c.85,3.92-1.58,2.53-2.96,3.55-1.19.88-.77,2.57-1.29,3.2-1.18,1.41-4.81.1-3.76,4.28l-1.99-1.02,1.08,4.4-2.12,1.1c.71,6.53,28.96,14.32,29.01,16-2.64,4.48-13.84-1.37-14.98-.49l1.49,6c-1.73.34-2.4-.58-3.54-1.46-9.78-7.59-20.58-22.07-18.87-34.96,1.23-9.26,23.53-39.64,32.19-42.81,9.45-3.45,21.29-.91,31.07-.62,3.07,3.5,3.79,8.02,6.83,12.17,10.59,14.47,33.08,18.35,49.37,12.71ZM193.71,668.02c-.99,1.3-1.66,5.54-1.94,7.38l-2.02-1.46-1.96-9.53c-.28,7.45-5.29,16.32-1.01,22.99h-19.5c-.31,0-2.2-2.81-2.48-3.52-1.12-2.86,2.3.88,2-1.98-.33-3.08-1.79-5.96-2.01-9.01-.49-7.05.35-14.41-.02-21.49-1.35.56-1.69,5.16-1.87,6.62-.96,7.81-2.1,15.95.87,23.38-4.55-4.26-4.96-13.09-5-19-3.53,2.16-2.98,7.46-3,10.99-1.1-.03-2.99-5.18-2.99-5.5v-18.5l-3.03,12.56c1.26,9.37.02,17.5,9.63,22.35,2.36,1.19,6.09.14,5.41,3.09-24.8,2.03-20.9-33.34-17.99-49.48l-1.99-.5c-5.45,11.99-5.85,25.17-3.03,37.99l-2.48-3.01-2.5-7.98c2.08,10.22-9.72,14.92-1.56,24.04.68.76,11.45,7.31,6.78,7.93l-2.14.07-.1,3.95c-2.22,2.79-9.43-12.47-9.86-13.63-1.37-3.68-2.35-6.85-2.19-10.88.28-7.47,8.73-32.74,12.7-39.35,10.41-17.31,27.94-11.81,44.59-8.87,8.1,1.43,16.56,3.42,24.36,5.69,1.1,1.41-10.66,31.54-12.54,33.37-.97.95-2.44.38-3.12,1.28ZM219.04,650.16c6.88-2.77,20.29-.55,26.25,4.23,2.05,9.92-3.93,24.2-12.8,29.23-10.74,6.08-25.27,1.01-36.71-.22-1.88-2.09,19.28-31.63,23.26-33.23ZM211.69,626.34c-3.92-.31-7.41.57-9.76-3.58-41.97-77.7-87.6-153.44-130.32-230.68-1.88-3.4-15.36-27.15-13.83-28.67,4.39-.44,7.52-1.95,11.53.98,49.92,81.66,95.64,166,142.38,249.62,2.15,3.96.91,8.25,0,12.33Z"/>
        <polyline class="cls-3" points="486.85 879.84 491.78 881.4 492.39 896.18 483.77 892.91"/>
        <path class="cls-3" d="M503.78,886.4c2.95.96,4.47,2.14,4.47,2.14l1.53,20.37-6.33-4.98"/>
        <path class="cls-3" d="M518.83,892.02s6.26,1.49,7.09,2.78c2.88,4.44-2.14,20.71-2.14,20.71,0,0-7.68-2.43-7.68-3.56"/>
        <path class="cls-3" d="M533.89,898.65c0,1.63,6.3,1.75,6.3,1.75v30.18l-8.01-6.14"/>
        <path class="cls-3" d="M547.99,905.15c5.82,3.47,7.14,3.31,7.14,3.31l-.16,32.95-8.01-5.43"/>
        <path class="cls-3" d="M565.19,908.91c5.82,4.27,7.14,4.08,7.14,4.08l-.16,40.56-8.01-6.68"/>
        <path class="cls-3" d="M585.65,913.4l-15.83,1.54-45.34-22.92-64.84-25.63-16.42-9.19,1.25,16.21s58.78,29.9,125.32,73.5c7.16,4.7,15.87-33.52,15.87-33.52Z"/>
      </g>
    </g>
  </g>
</svg>